%TF.GenerationSoftware,KiCad,Pcbnew,9.0.2-9.0.2-0~ubuntu24.04.1*%
%TF.CreationDate,2025-05-22T23:27:50+02:00*%
%TF.ProjectId,USB-UART,5553422d-5541-4525-942e-6b696361645f,rev?*%
%TF.SameCoordinates,Original*%
%TF.FileFunction,Soldermask,Top*%
%TF.FilePolarity,Negative*%
%FSLAX46Y46*%
G04 Gerber Fmt 4.6, Leading zero omitted, Abs format (unit mm)*
G04 Created by KiCad (PCBNEW 9.0.2-9.0.2-0~ubuntu24.04.1) date 2025-05-22 23:27:50*
%MOMM*%
%LPD*%
G01*
G04 APERTURE LIST*
G04 Aperture macros list*
%AMRoundRect*
0 Rectangle with rounded corners*
0 $1 Rounding radius*
0 $2 $3 $4 $5 $6 $7 $8 $9 X,Y pos of 4 corners*
0 Add a 4 corners polygon primitive as box body*
4,1,4,$2,$3,$4,$5,$6,$7,$8,$9,$2,$3,0*
0 Add four circle primitives for the rounded corners*
1,1,$1+$1,$2,$3*
1,1,$1+$1,$4,$5*
1,1,$1+$1,$6,$7*
1,1,$1+$1,$8,$9*
0 Add four rect primitives between the rounded corners*
20,1,$1+$1,$2,$3,$4,$5,0*
20,1,$1+$1,$4,$5,$6,$7,0*
20,1,$1+$1,$6,$7,$8,$9,0*
20,1,$1+$1,$8,$9,$2,$3,0*%
G04 Aperture macros list end*
%ADD10C,0.600000*%
%ADD11O,1.800000X1.000000*%
%ADD12O,2.100000X1.000000*%
%ADD13R,1.150000X0.300000*%
%ADD14C,0.650000*%
%ADD15RoundRect,0.140000X-0.140000X-0.170000X0.140000X-0.170000X0.140000X0.170000X-0.140000X0.170000X0*%
%ADD16R,1.700000X1.700000*%
%ADD17C,1.700000*%
%ADD18RoundRect,0.218750X-0.218750X-0.256250X0.218750X-0.256250X0.218750X0.256250X-0.218750X0.256250X0*%
%ADD19RoundRect,0.140000X-0.170000X0.140000X-0.170000X-0.140000X0.170000X-0.140000X0.170000X0.140000X0*%
%ADD20RoundRect,0.150000X-0.150000X-0.200000X0.150000X-0.200000X0.150000X0.200000X-0.150000X0.200000X0*%
%ADD21RoundRect,0.150000X0.150000X0.200000X-0.150000X0.200000X-0.150000X-0.200000X0.150000X-0.200000X0*%
%ADD22RoundRect,0.135000X-0.135000X-0.185000X0.135000X-0.185000X0.135000X0.185000X-0.135000X0.185000X0*%
%ADD23RoundRect,0.135000X0.135000X0.185000X-0.135000X0.185000X-0.135000X-0.185000X0.135000X-0.185000X0*%
%ADD24RoundRect,0.100000X0.100000X-0.637500X0.100000X0.637500X-0.100000X0.637500X-0.100000X-0.637500X0*%
%ADD25RoundRect,0.075000X-0.075000X0.350000X-0.075000X-0.350000X0.075000X-0.350000X0.075000X0.350000X0*%
%ADD26RoundRect,0.075000X-0.350000X0.075000X-0.350000X-0.075000X0.350000X-0.075000X0.350000X0.075000X0*%
%ADD27R,2.100000X2.100000*%
G04 APERTURE END LIST*
D10*
%TO.C,REF\u002A\u002A*%
X156500000Y-90500000D03*
X156500000Y-89500000D03*
X156500000Y-88500000D03*
X156500000Y-87500000D03*
%TD*%
%TO.C,REF\u002A\u002A*%
X156500000Y-94500000D03*
X156500000Y-93500000D03*
X156500000Y-92500000D03*
X156500000Y-91500000D03*
%TD*%
%TO.C,REF\u002A\u002A*%
X156500000Y-98500000D03*
X156500000Y-97500000D03*
X156500000Y-96500000D03*
X156500000Y-95500000D03*
%TD*%
%TO.C,REF\u002A\u002A*%
X156500000Y-102500000D03*
X156500000Y-101500000D03*
X156500000Y-100500000D03*
X156500000Y-99500000D03*
%TD*%
D11*
%TO.C,J1*%
X130500000Y-99320000D03*
D12*
X134680000Y-99320000D03*
D11*
X130500000Y-90680000D03*
D12*
X134680000Y-90680000D03*
D13*
X135250000Y-91950000D03*
X135250000Y-92750000D03*
X135250000Y-93250000D03*
X135250000Y-94250000D03*
X135250000Y-95750000D03*
X135250000Y-96750000D03*
X135250000Y-97250000D03*
X135250000Y-98050000D03*
X135250000Y-98350000D03*
X135250000Y-97550000D03*
X135250000Y-96250000D03*
X135250000Y-95250000D03*
X135250000Y-94750000D03*
X135250000Y-93750000D03*
X135250000Y-92450000D03*
X135250000Y-91650000D03*
D14*
X134180000Y-97890000D03*
X134180000Y-92110000D03*
%TD*%
D15*
%TO.C,C7*%
X177020000Y-100000000D03*
X177980000Y-100000000D03*
%TD*%
D16*
%TO.C,J4*%
X167500000Y-88650000D03*
D17*
X167500000Y-91190000D03*
X167500000Y-93730000D03*
X167500000Y-96270000D03*
X167500000Y-98810000D03*
X167500000Y-101350000D03*
%TD*%
D18*
%TO.C,D1*%
X140212500Y-100000000D03*
X141787500Y-100000000D03*
%TD*%
D19*
%TO.C,C10*%
X173500000Y-92520000D03*
X173500000Y-93480000D03*
%TD*%
D20*
%TO.C,D9*%
X183200000Y-91500000D03*
X181800000Y-91500000D03*
%TD*%
D21*
%TO.C,D15*%
X170300000Y-94000000D03*
X171700000Y-94000000D03*
%TD*%
D15*
%TO.C,C6*%
X175020000Y-100000000D03*
X175980000Y-100000000D03*
%TD*%
D20*
%TO.C,D7*%
X147200000Y-100500000D03*
X145800000Y-100500000D03*
%TD*%
D18*
%TO.C,D2*%
X140212500Y-90000000D03*
X141787500Y-90000000D03*
%TD*%
D22*
%TO.C,R5*%
X139990000Y-98800000D03*
X141010000Y-98800000D03*
%TD*%
D19*
%TO.C,C1*%
X138000000Y-99020000D03*
X138000000Y-99980000D03*
%TD*%
D23*
%TO.C,R6*%
X139010000Y-90500000D03*
X137990000Y-90500000D03*
%TD*%
D20*
%TO.C,D8*%
X183200000Y-89000000D03*
X181800000Y-89000000D03*
%TD*%
D24*
%TO.C,U5*%
X175225000Y-97862500D03*
X175875000Y-97862500D03*
X176525000Y-97862500D03*
X177175000Y-97862500D03*
X177825000Y-97862500D03*
X178475000Y-97862500D03*
X179125000Y-97862500D03*
X179775000Y-97862500D03*
X179775000Y-92137500D03*
X179125000Y-92137500D03*
X178475000Y-92137500D03*
X177825000Y-92137500D03*
X177175000Y-92137500D03*
X176525000Y-92137500D03*
X175875000Y-92137500D03*
X175225000Y-92137500D03*
%TD*%
D20*
%TO.C,D12*%
X183200000Y-101000000D03*
X181800000Y-101000000D03*
%TD*%
D21*
%TO.C,D16*%
X170300000Y-98500000D03*
X171700000Y-98500000D03*
%TD*%
D20*
%TO.C,D6*%
X147200000Y-98500000D03*
X145800000Y-98500000D03*
%TD*%
%TO.C,D11*%
X183200000Y-98500000D03*
X181800000Y-98500000D03*
%TD*%
%TO.C,D5*%
X147200000Y-94000000D03*
X145800000Y-94000000D03*
%TD*%
%TO.C,D10*%
X183200000Y-94000000D03*
X181800000Y-94000000D03*
%TD*%
D16*
%TO.C,J3*%
X185615000Y-88650000D03*
D17*
X185615000Y-91190000D03*
X185615000Y-93730000D03*
X185615000Y-96270000D03*
X185615000Y-98810000D03*
X185615000Y-101350000D03*
%TD*%
D15*
%TO.C,C8*%
X179020000Y-100000000D03*
X179980000Y-100000000D03*
%TD*%
D19*
%TO.C,C9*%
X173500000Y-94520000D03*
X173500000Y-95480000D03*
%TD*%
D21*
%TO.C,D13*%
X170300000Y-89000000D03*
X171700000Y-89000000D03*
%TD*%
D19*
%TO.C,C2*%
X139000000Y-99020000D03*
X139000000Y-99980000D03*
%TD*%
D20*
%TO.C,D3*%
X147200000Y-89500000D03*
X145800000Y-89500000D03*
%TD*%
%TO.C,D4*%
X147200000Y-91500000D03*
X145800000Y-91500000D03*
%TD*%
D25*
%TO.C,U2*%
X140975000Y-93050000D03*
X140325000Y-93050000D03*
X139675000Y-93050000D03*
X139025000Y-93050000D03*
D26*
X138050000Y-94025000D03*
X138050000Y-94675000D03*
X138050000Y-95325000D03*
X138050000Y-95975000D03*
D25*
X139025000Y-96950000D03*
X139675000Y-96950000D03*
X140325000Y-96950000D03*
X140975000Y-96950000D03*
D26*
X141950000Y-95975000D03*
X141950000Y-95325000D03*
X141950000Y-94675000D03*
X141950000Y-94025000D03*
D27*
X140000000Y-95000000D03*
%TD*%
D21*
%TO.C,D17*%
X170300000Y-101000000D03*
X171700000Y-101000000D03*
%TD*%
D16*
%TO.C,J2*%
X148625000Y-88650000D03*
D17*
X148625000Y-91190000D03*
X148625000Y-93730000D03*
X148625000Y-96270000D03*
X148625000Y-98810000D03*
X148625000Y-101350000D03*
%TD*%
D21*
%TO.C,D14*%
X170300000Y-91500000D03*
X171700000Y-91500000D03*
%TD*%
M02*
