%TF.GenerationSoftware,KiCad,Pcbnew,9.0.2-9.0.2-0~ubuntu24.04.1*%
%TF.CreationDate,2025-05-22T23:27:50+02:00*%
%TF.ProjectId,USB-UART,5553422d-5541-4525-942e-6b696361645f,rev?*%
%TF.SameCoordinates,Original*%
%TF.FileFunction,Copper,L1,Top*%
%TF.FilePolarity,Positive*%
%FSLAX46Y46*%
G04 Gerber Fmt 4.6, Leading zero omitted, Abs format (unit mm)*
G04 Created by KiCad (PCBNEW 9.0.2-9.0.2-0~ubuntu24.04.1) date 2025-05-22 23:27:50*
%MOMM*%
%LPD*%
G01*
G04 APERTURE LIST*
G04 Aperture macros list*
%AMRoundRect*
0 Rectangle with rounded corners*
0 $1 Rounding radius*
0 $2 $3 $4 $5 $6 $7 $8 $9 X,Y pos of 4 corners*
0 Add a 4 corners polygon primitive as box body*
4,1,4,$2,$3,$4,$5,$6,$7,$8,$9,$2,$3,0*
0 Add four circle primitives for the rounded corners*
1,1,$1+$1,$2,$3*
1,1,$1+$1,$4,$5*
1,1,$1+$1,$6,$7*
1,1,$1+$1,$8,$9*
0 Add four rect primitives between the rounded corners*
20,1,$1+$1,$2,$3,$4,$5,0*
20,1,$1+$1,$4,$5,$6,$7,0*
20,1,$1+$1,$6,$7,$8,$9,0*
20,1,$1+$1,$8,$9,$2,$3,0*%
G04 Aperture macros list end*
%TA.AperFunction,ComponentPad*%
%ADD10O,1.800000X1.000000*%
%TD*%
%TA.AperFunction,ComponentPad*%
%ADD11O,2.100000X1.000000*%
%TD*%
%TA.AperFunction,SMDPad,CuDef*%
%ADD12R,1.150000X0.300000*%
%TD*%
%TA.AperFunction,SMDPad,CuDef*%
%ADD13RoundRect,0.140000X-0.140000X-0.170000X0.140000X-0.170000X0.140000X0.170000X-0.140000X0.170000X0*%
%TD*%
%TA.AperFunction,ComponentPad*%
%ADD14R,1.700000X1.700000*%
%TD*%
%TA.AperFunction,ComponentPad*%
%ADD15C,1.700000*%
%TD*%
%TA.AperFunction,SMDPad,CuDef*%
%ADD16RoundRect,0.218750X-0.218750X-0.256250X0.218750X-0.256250X0.218750X0.256250X-0.218750X0.256250X0*%
%TD*%
%TA.AperFunction,SMDPad,CuDef*%
%ADD17RoundRect,0.140000X-0.170000X0.140000X-0.170000X-0.140000X0.170000X-0.140000X0.170000X0.140000X0*%
%TD*%
%TA.AperFunction,SMDPad,CuDef*%
%ADD18RoundRect,0.150000X-0.150000X-0.200000X0.150000X-0.200000X0.150000X0.200000X-0.150000X0.200000X0*%
%TD*%
%TA.AperFunction,SMDPad,CuDef*%
%ADD19RoundRect,0.150000X0.150000X0.200000X-0.150000X0.200000X-0.150000X-0.200000X0.150000X-0.200000X0*%
%TD*%
%TA.AperFunction,SMDPad,CuDef*%
%ADD20RoundRect,0.135000X-0.135000X-0.185000X0.135000X-0.185000X0.135000X0.185000X-0.135000X0.185000X0*%
%TD*%
%TA.AperFunction,SMDPad,CuDef*%
%ADD21RoundRect,0.135000X0.135000X0.185000X-0.135000X0.185000X-0.135000X-0.185000X0.135000X-0.185000X0*%
%TD*%
%TA.AperFunction,SMDPad,CuDef*%
%ADD22RoundRect,0.100000X0.100000X-0.637500X0.100000X0.637500X-0.100000X0.637500X-0.100000X-0.637500X0*%
%TD*%
%TA.AperFunction,SMDPad,CuDef*%
%ADD23RoundRect,0.075000X-0.075000X0.350000X-0.075000X-0.350000X0.075000X-0.350000X0.075000X0.350000X0*%
%TD*%
%TA.AperFunction,SMDPad,CuDef*%
%ADD24RoundRect,0.075000X-0.350000X0.075000X-0.350000X-0.075000X0.350000X-0.075000X0.350000X0.075000X0*%
%TD*%
%TA.AperFunction,HeatsinkPad*%
%ADD25R,2.100000X2.100000*%
%TD*%
%TA.AperFunction,ViaPad*%
%ADD26C,0.600000*%
%TD*%
%TA.AperFunction,ViaPad*%
%ADD27C,3.500000*%
%TD*%
%TA.AperFunction,Conductor*%
%ADD28C,0.250000*%
%TD*%
G04 APERTURE END LIST*
D10*
%TO.P,J1,S1,SHIELD*%
%TO.N,GND*%
X130500000Y-99320000D03*
D11*
X134680000Y-99320000D03*
D10*
X130500000Y-90680000D03*
D11*
X134680000Y-90680000D03*
D12*
%TO.P,J1,B12,GND*%
X135250000Y-91950000D03*
%TO.P,J1,B9,VBUS*%
%TO.N,VBUS*%
X135250000Y-92750000D03*
%TO.P,J1,B8,SBU2*%
%TO.N,unconnected-(J1-SBU2-PadB8)*%
X135250000Y-93250000D03*
%TO.P,J1,B7,D-*%
%TO.N,Net-(J1-D--PadA7)*%
X135250000Y-94250000D03*
%TO.P,J1,B6,D+*%
%TO.N,Net-(J1-D+-PadA6)*%
X135250000Y-95750000D03*
%TO.P,J1,B5,CC2*%
%TO.N,unconnected-(J1-CC2-PadB5)*%
X135250000Y-96750000D03*
%TO.P,J1,B4,VBUS*%
%TO.N,VBUS*%
X135250000Y-97250000D03*
%TO.P,J1,B1,GND*%
%TO.N,GND*%
X135250000Y-98050000D03*
%TO.P,J1,A12,GND*%
X135250000Y-98350000D03*
%TO.P,J1,A9,VBUS*%
%TO.N,VBUS*%
X135250000Y-97550000D03*
%TO.P,J1,A8,SBU1*%
%TO.N,unconnected-(J1-SBU1-PadA8)*%
X135250000Y-96250000D03*
%TO.P,J1,A7,D-*%
%TO.N,Net-(J1-D--PadA7)*%
X135250000Y-95250000D03*
%TO.P,J1,A6,D+*%
%TO.N,Net-(J1-D+-PadA6)*%
X135250000Y-94750000D03*
%TO.P,J1,A5,CC1*%
%TO.N,unconnected-(J1-CC1-PadA5)*%
X135250000Y-93750000D03*
%TO.P,J1,A4,VBUS*%
%TO.N,VBUS*%
X135250000Y-92450000D03*
%TO.P,J1,A1,GND*%
%TO.N,GND*%
X135250000Y-91650000D03*
%TD*%
D13*
%TO.P,C7,1*%
%TO.N,Net-(U5-C2+)*%
X177020000Y-100000000D03*
%TO.P,C7,2*%
%TO.N,Net-(U5-C2-)*%
X177980000Y-100000000D03*
%TD*%
D14*
%TO.P,J4,1,Pin_1*%
%TO.N,VPP*%
X167500000Y-88650000D03*
D15*
%TO.P,J4,2,Pin_2*%
%TO.N,/RXD*%
X167500000Y-91190000D03*
%TO.P,J4,3,Pin_3*%
%TO.N,/TXD*%
X167500000Y-93730000D03*
%TO.P,J4,4,Pin_4*%
%TO.N,GND*%
X167500000Y-96270000D03*
%TO.P,J4,5,Pin_5*%
%TO.N,/CTS*%
X167500000Y-98810000D03*
%TO.P,J4,6,Pin_6*%
%TO.N,/RTS*%
X167500000Y-101350000D03*
%TD*%
D16*
%TO.P,D1,1,K*%
%TO.N,Net-(D1-K)*%
X140212500Y-100000000D03*
%TO.P,D1,2,A*%
%TO.N,VCC*%
X141787500Y-100000000D03*
%TD*%
D17*
%TO.P,C10,1*%
%TO.N,GND*%
X173500000Y-92520000D03*
%TO.P,C10,2*%
%TO.N,VPP*%
X173500000Y-93480000D03*
%TD*%
D18*
%TO.P,D9,1,K*%
%TO.N,/RXD_232*%
X183200000Y-91500000D03*
%TO.P,D9,2,A*%
%TO.N,GND*%
X181800000Y-91500000D03*
%TD*%
D19*
%TO.P,D15,1,K*%
%TO.N,/TXD*%
X170300000Y-94000000D03*
%TO.P,D15,2,A*%
%TO.N,GND*%
X171700000Y-94000000D03*
%TD*%
D13*
%TO.P,C6,1*%
%TO.N,Net-(U5-C1+)*%
X175020000Y-100000000D03*
%TO.P,C6,2*%
%TO.N,Net-(U5-C1-)*%
X175980000Y-100000000D03*
%TD*%
D18*
%TO.P,D7,1,K*%
%TO.N,/RTS*%
X147200000Y-100500000D03*
%TO.P,D7,2,A*%
%TO.N,GND*%
X145800000Y-100500000D03*
%TD*%
D16*
%TO.P,D2,1,K*%
%TO.N,Net-(D2-K)*%
X140212500Y-90000000D03*
%TO.P,D2,2,A*%
%TO.N,VCC*%
X141787500Y-90000000D03*
%TD*%
D20*
%TO.P,R5,1*%
%TO.N,Net-(D1-K)*%
X139990000Y-98800000D03*
%TO.P,R5,2*%
%TO.N,/LED_TX*%
X141010000Y-98800000D03*
%TD*%
D17*
%TO.P,C1,1*%
%TO.N,VCC*%
X138000000Y-99020000D03*
%TO.P,C1,2*%
%TO.N,GND*%
X138000000Y-99980000D03*
%TD*%
D21*
%TO.P,R6,1*%
%TO.N,Net-(D2-K)*%
X139010000Y-90500000D03*
%TO.P,R6,2*%
%TO.N,/LED_RX*%
X137990000Y-90500000D03*
%TD*%
D18*
%TO.P,D8,1,K*%
%TO.N,VPP*%
X183200000Y-89000000D03*
%TO.P,D8,2,A*%
%TO.N,GND*%
X181800000Y-89000000D03*
%TD*%
D22*
%TO.P,U5,1,C1+*%
%TO.N,Net-(U5-C1+)*%
X175225000Y-97862500D03*
%TO.P,U5,2,VS+*%
%TO.N,Net-(U5-VS+)*%
X175875000Y-97862500D03*
%TO.P,U5,3,C1-*%
%TO.N,Net-(U5-C1-)*%
X176525000Y-97862500D03*
%TO.P,U5,4,C2+*%
%TO.N,Net-(U5-C2+)*%
X177175000Y-97862500D03*
%TO.P,U5,5,C2-*%
%TO.N,Net-(U5-C2-)*%
X177825000Y-97862500D03*
%TO.P,U5,6,VS-*%
%TO.N,Net-(U5-VS-)*%
X178475000Y-97862500D03*
%TO.P,U5,7,T2OUT*%
%TO.N,/RTS_232*%
X179125000Y-97862500D03*
%TO.P,U5,8,R2IN*%
%TO.N,/CTS_232*%
X179775000Y-97862500D03*
%TO.P,U5,9,R2OUT*%
%TO.N,/CTS*%
X179775000Y-92137500D03*
%TO.P,U5,10,T2IN*%
%TO.N,/RTS*%
X179125000Y-92137500D03*
%TO.P,U5,11,T1IN*%
%TO.N,/TXD*%
X178475000Y-92137500D03*
%TO.P,U5,12,R1OUT*%
%TO.N,/RXD*%
X177825000Y-92137500D03*
%TO.P,U5,13,R1IN*%
%TO.N,/RXD_232*%
X177175000Y-92137500D03*
%TO.P,U5,14,T1OUT*%
%TO.N,/TXD_232*%
X176525000Y-92137500D03*
%TO.P,U5,15,GND*%
%TO.N,GND*%
X175875000Y-92137500D03*
%TO.P,U5,16,VCC*%
%TO.N,VPP*%
X175225000Y-92137500D03*
%TD*%
D18*
%TO.P,D12,1,K*%
%TO.N,/RTS_232*%
X183200000Y-101000000D03*
%TO.P,D12,2,A*%
%TO.N,GND*%
X181800000Y-101000000D03*
%TD*%
D19*
%TO.P,D16,1,K*%
%TO.N,/CTS*%
X170300000Y-98500000D03*
%TO.P,D16,2,A*%
%TO.N,GND*%
X171700000Y-98500000D03*
%TD*%
D18*
%TO.P,D6,1,K*%
%TO.N,/CTS*%
X147200000Y-98500000D03*
%TO.P,D6,2,A*%
%TO.N,GND*%
X145800000Y-98500000D03*
%TD*%
%TO.P,D11,1,K*%
%TO.N,/CTS_232*%
X183200000Y-98500000D03*
%TO.P,D11,2,A*%
%TO.N,GND*%
X181800000Y-98500000D03*
%TD*%
%TO.P,D5,1,K*%
%TO.N,/TXD*%
X147200000Y-94000000D03*
%TO.P,D5,2,A*%
%TO.N,GND*%
X145800000Y-94000000D03*
%TD*%
%TO.P,D10,1,K*%
%TO.N,/TXD_232*%
X183200000Y-94000000D03*
%TO.P,D10,2,A*%
%TO.N,GND*%
X181800000Y-94000000D03*
%TD*%
D14*
%TO.P,J3,1,Pin_1*%
%TO.N,VPP*%
X185615000Y-88650000D03*
D15*
%TO.P,J3,2,Pin_2*%
%TO.N,/RXD_232*%
X185615000Y-91190000D03*
%TO.P,J3,3,Pin_3*%
%TO.N,/TXD_232*%
X185615000Y-93730000D03*
%TO.P,J3,4,Pin_4*%
%TO.N,GND*%
X185615000Y-96270000D03*
%TO.P,J3,5,Pin_5*%
%TO.N,/CTS_232*%
X185615000Y-98810000D03*
%TO.P,J3,6,Pin_6*%
%TO.N,/RTS_232*%
X185615000Y-101350000D03*
%TD*%
D13*
%TO.P,C8,1*%
%TO.N,Net-(U5-VS-)*%
X179020000Y-100000000D03*
%TO.P,C8,2*%
%TO.N,GND*%
X179980000Y-100000000D03*
%TD*%
D17*
%TO.P,C9,1*%
%TO.N,VPP*%
X173500000Y-94520000D03*
%TO.P,C9,2*%
%TO.N,Net-(U5-VS+)*%
X173500000Y-95480000D03*
%TD*%
D19*
%TO.P,D13,1,K*%
%TO.N,VPP*%
X170300000Y-89000000D03*
%TO.P,D13,2,A*%
%TO.N,GND*%
X171700000Y-89000000D03*
%TD*%
D17*
%TO.P,C2,1*%
%TO.N,VCC*%
X139000000Y-99020000D03*
%TO.P,C2,2*%
%TO.N,GND*%
X139000000Y-99980000D03*
%TD*%
D18*
%TO.P,D3,1,K*%
%TO.N,VPP*%
X147200000Y-89500000D03*
%TO.P,D3,2,A*%
%TO.N,GND*%
X145800000Y-89500000D03*
%TD*%
%TO.P,D4,1,K*%
%TO.N,/RXD*%
X147200000Y-91500000D03*
%TO.P,D4,2,A*%
%TO.N,GND*%
X145800000Y-91500000D03*
%TD*%
D23*
%TO.P,U2,1,VCCIO*%
%TO.N,+3V3*%
X140975000Y-93050000D03*
%TO.P,U2,2,RXD*%
%TO.N,/RXD_FT*%
X140325000Y-93050000D03*
%TO.P,U2,3,GND*%
%TO.N,GND*%
X139675000Y-93050000D03*
%TO.P,U2,4,~{CTS}*%
%TO.N,/CTS_FT*%
X139025000Y-93050000D03*
D24*
%TO.P,U2,5,CBUS2*%
%TO.N,/LED_RX*%
X138050000Y-94025000D03*
%TO.P,U2,6,USBDP*%
%TO.N,/USB_DP*%
X138050000Y-94675000D03*
%TO.P,U2,7,USBDM*%
%TO.N,/USB_DM*%
X138050000Y-95325000D03*
%TO.P,U2,8,3V3OUT*%
%TO.N,+3V3*%
X138050000Y-95975000D03*
D23*
%TO.P,U2,9,~{RESET}*%
X139025000Y-96950000D03*
%TO.P,U2,10,VCC*%
%TO.N,VCC*%
X139675000Y-96950000D03*
%TO.P,U2,11,CBUS1*%
%TO.N,/LED_TX*%
X140325000Y-96950000D03*
%TO.P,U2,12,CBUS0*%
%TO.N,/DE*%
X140975000Y-96950000D03*
D24*
%TO.P,U2,13,GND*%
%TO.N,GND*%
X141950000Y-95975000D03*
%TO.P,U2,14,CBUS3*%
%TO.N,/SLEEP*%
X141950000Y-95325000D03*
%TO.P,U2,15,TXD*%
%TO.N,/TXD_FT*%
X141950000Y-94675000D03*
%TO.P,U2,16,~{RTS}*%
%TO.N,/RTS_FT*%
X141950000Y-94025000D03*
D25*
%TO.P,U2,17,GND*%
%TO.N,GND*%
X140000000Y-95000000D03*
%TD*%
D19*
%TO.P,D17,1,K*%
%TO.N,/RTS*%
X170300000Y-101000000D03*
%TO.P,D17,2,A*%
%TO.N,GND*%
X171700000Y-101000000D03*
%TD*%
D14*
%TO.P,J2,1,Pin_1*%
%TO.N,VPP*%
X148625000Y-88650000D03*
D15*
%TO.P,J2,2,Pin_2*%
%TO.N,/RXD*%
X148625000Y-91190000D03*
%TO.P,J2,3,Pin_3*%
%TO.N,/TXD*%
X148625000Y-93730000D03*
%TO.P,J2,4,Pin_4*%
%TO.N,GND*%
X148625000Y-96270000D03*
%TO.P,J2,5,Pin_5*%
%TO.N,/CTS*%
X148625000Y-98810000D03*
%TO.P,J2,6,Pin_6*%
%TO.N,/RTS*%
X148625000Y-101350000D03*
%TD*%
D19*
%TO.P,D14,1,K*%
%TO.N,/RXD*%
X170300000Y-91500000D03*
%TO.P,D14,2,A*%
%TO.N,GND*%
X171700000Y-91500000D03*
%TD*%
D26*
%TO.N,VBUS*%
X136400000Y-92700000D03*
%TO.N,VCC*%
X137200000Y-99200000D03*
X141800000Y-99100000D03*
%TO.N,GND*%
X181000000Y-96500000D03*
X184000000Y-100000000D03*
X140000000Y-95000000D03*
X146100000Y-101900000D03*
X183500000Y-96500000D03*
X136500000Y-89000000D03*
D27*
X159500000Y-91500000D03*
D26*
X169000000Y-90000000D03*
D27*
X193500000Y-91500000D03*
D26*
X184000000Y-92500000D03*
X144900000Y-100000000D03*
X181000000Y-90000000D03*
X139600000Y-101000000D03*
X136400000Y-91700000D03*
X175500000Y-95000000D03*
X179500000Y-101500000D03*
X169000000Y-92500000D03*
X172889914Y-96500000D03*
X177000000Y-89000000D03*
X170500000Y-96000000D03*
X138000000Y-98200000D03*
X141500000Y-89000000D03*
X184000000Y-90000000D03*
X169000000Y-97500000D03*
X140000000Y-91500000D03*
X179500000Y-89000000D03*
X143700000Y-92300000D03*
X173000000Y-99000000D03*
D27*
X193500000Y-98500000D03*
D26*
X146400000Y-93200000D03*
X174500000Y-101500000D03*
X145800000Y-97600000D03*
X177000000Y-101500000D03*
X137200000Y-100100000D03*
X169000000Y-100000000D03*
X174500000Y-89000000D03*
D27*
X159500000Y-98500000D03*
D26*
X146500000Y-90100000D03*
X169000000Y-95000000D03*
%TO.N,+3V3*%
X137400000Y-96520000D03*
X141110000Y-92360000D03*
%TO.N,VPP*%
X145200000Y-92400000D03*
X144200000Y-97800000D03*
X146100000Y-96500000D03*
%TO.N,VBUS*%
X136400000Y-96900000D03*
%TO.N,Net-(J1-D--PadA7)*%
X133700000Y-95650000D03*
%TO.N,Net-(J1-D+-PadA6)*%
X133700000Y-94350000D03*
%TO.N,/TXD*%
X170600000Y-93100000D03*
X178550000Y-90700000D03*
X146500000Y-95300000D03*
%TO.N,/RXD*%
X177800000Y-90075000D03*
X146500000Y-92300000D03*
X170600000Y-90600000D03*
%TO.N,/RTS*%
X147200000Y-99700000D03*
X177750000Y-95550000D03*
X170300000Y-100100000D03*
%TO.N,/CTS*%
X147200000Y-97700000D03*
X170300000Y-97650000D03*
X178550000Y-94950000D03*
%TO.N,/TXD_FT*%
X143200000Y-95900000D03*
%TO.N,/RXD_FT*%
X140900000Y-91374999D03*
%TO.N,/RTS_FT*%
X143300000Y-94500000D03*
%TO.N,/CTS_FT*%
X139010000Y-91710000D03*
%TO.N,/USB_DM*%
X137150000Y-95450000D03*
%TO.N,/USB_DP*%
X137150000Y-94550000D03*
%TO.N,/RXD_232*%
X183000000Y-92400000D03*
X177150000Y-93350000D03*
%TO.N,/TXD_232*%
X183150000Y-94900000D03*
X176550000Y-94000000D03*
%TD*%
D28*
%TO.N,Net-(J1-D--PadA7)*%
X135250000Y-94250000D02*
X134485298Y-94250000D01*
X134485298Y-94250000D02*
X133935298Y-93700000D01*
X133400000Y-93700000D02*
X133000000Y-94100000D01*
X133935298Y-93700000D02*
X133400000Y-93700000D01*
X133000000Y-94100000D02*
X133000000Y-94950000D01*
X133000000Y-94950000D02*
X133700000Y-95650000D01*
%TO.N,Net-(J1-D+-PadA6)*%
X133700000Y-94300000D02*
X133700000Y-94350000D01*
X133700000Y-94350000D02*
X134100000Y-94750000D01*
X134100000Y-94750000D02*
X135750000Y-94750000D01*
%TO.N,Net-(J1-D--PadA7)*%
X133700000Y-95700000D02*
X133700000Y-95650000D01*
X133700000Y-95650000D02*
X134100000Y-95250000D01*
X134100000Y-95250000D02*
X135250000Y-95250000D01*
%TO.N,Net-(J1-D+-PadA6)*%
X135250000Y-95750000D02*
X136140000Y-95750000D01*
X136140000Y-95750000D02*
X136400000Y-95490000D01*
X136400000Y-95490000D02*
X136400000Y-94950000D01*
X136400000Y-94950000D02*
X136200000Y-94750000D01*
X136200000Y-94750000D02*
X135250000Y-94750000D01*
%TO.N,VBUS*%
X136400000Y-92700000D02*
X135300000Y-92700000D01*
X135300000Y-92700000D02*
X135250000Y-92750000D01*
X135250000Y-97250000D02*
X136050000Y-97250000D01*
X136050000Y-97250000D02*
X136400000Y-96900000D01*
%TO.N,VCC*%
X139675000Y-96950000D02*
X139675000Y-97575000D01*
X139675000Y-97575000D02*
X139000000Y-98250000D01*
X141800000Y-99100000D02*
X144000000Y-96900000D01*
X137480000Y-99020000D02*
X138000000Y-99020000D01*
X139000000Y-99020000D02*
X138000000Y-99020000D01*
X137300000Y-99200000D02*
X137480000Y-99020000D01*
X141787500Y-91487500D02*
X141787500Y-90000000D01*
X139000000Y-98250000D02*
X139000000Y-99020000D01*
X141800000Y-99100000D02*
X141800000Y-99987500D01*
X144000000Y-96900000D02*
X144000000Y-93700000D01*
X144000000Y-93700000D02*
X141787500Y-91487500D01*
X141800000Y-99987500D02*
X141787500Y-100000000D01*
%TO.N,GND*%
X175875000Y-91025000D02*
X175875000Y-92137500D01*
X140975000Y-95975000D02*
X140000000Y-95000000D01*
X175700000Y-90850000D02*
X175875000Y-91025000D01*
X174200000Y-90850000D02*
X175700000Y-90850000D01*
X139675000Y-93050000D02*
X139675000Y-94675000D01*
X173500000Y-92520000D02*
X173500000Y-91550000D01*
X139675000Y-94675000D02*
X140000000Y-95000000D01*
X173500000Y-91550000D02*
X174200000Y-90850000D01*
X141950000Y-95975000D02*
X140975000Y-95975000D01*
X137400000Y-99980000D02*
X139000000Y-99980000D01*
%TO.N,+3V3*%
X138330000Y-97450000D02*
X138800000Y-97450000D01*
X137400000Y-96520000D02*
X137400000Y-96200000D01*
X140975000Y-92495000D02*
X141110000Y-92360000D01*
X138050000Y-95975000D02*
X137625000Y-95975000D01*
X139025000Y-97225000D02*
X139025000Y-96950000D01*
X138800000Y-97450000D02*
X139025000Y-97225000D01*
X140975000Y-93050000D02*
X140975000Y-92495000D01*
X137625000Y-95975000D02*
X137400000Y-96200000D01*
X137400000Y-96520000D02*
X138330000Y-97450000D01*
%TO.N,VPP*%
X148050000Y-89225000D02*
X147775000Y-89500000D01*
X145000000Y-95400000D02*
X145000000Y-92600000D01*
X183200000Y-88500000D02*
X183200000Y-89000000D01*
X172700000Y-88100000D02*
X182800000Y-88100000D01*
X145400000Y-88700000D02*
X144800000Y-89300000D01*
X169950000Y-88650000D02*
X170300000Y-89000000D01*
X173500000Y-93480000D02*
X173180000Y-93480000D01*
X147775000Y-89500000D02*
X147200000Y-89500000D01*
X167500000Y-88650000D02*
X169950000Y-88650000D01*
X173180000Y-93480000D02*
X172700000Y-93000000D01*
X144800000Y-92000000D02*
X145200000Y-92400000D01*
X185615000Y-88650000D02*
X183550000Y-88650000D01*
X170700000Y-88100000D02*
X172700000Y-88100000D01*
X145100000Y-96900000D02*
X145700000Y-96900000D01*
X146100000Y-96500000D02*
X145000000Y-95400000D01*
X173500000Y-94520000D02*
X173500000Y-93480000D01*
X148050000Y-88650000D02*
X148050000Y-89225000D01*
X144800000Y-89300000D02*
X144800000Y-92000000D01*
X145700000Y-96900000D02*
X146100000Y-96500000D01*
X173500000Y-93480000D02*
X174720000Y-93480000D01*
X170300000Y-89000000D02*
X170300000Y-88500000D01*
X172700000Y-93000000D02*
X172700000Y-88100000D01*
X170300000Y-88500000D02*
X170700000Y-88100000D01*
X175225000Y-92975000D02*
X175225000Y-92137500D01*
X174720000Y-93480000D02*
X175225000Y-92975000D01*
X183550000Y-88650000D02*
X183200000Y-89000000D01*
X145000000Y-92600000D02*
X145200000Y-92400000D01*
X182800000Y-88100000D02*
X183200000Y-88500000D01*
X146400000Y-88700000D02*
X145400000Y-88700000D01*
X147200000Y-89500000D02*
X146400000Y-88700000D01*
X144200000Y-97800000D02*
X145100000Y-96900000D01*
%TO.N,Net-(U5-C1-)*%
X175980000Y-99470000D02*
X175980000Y-100000000D01*
X176525000Y-97862500D02*
X176525000Y-98925000D01*
X176525000Y-98925000D02*
X175980000Y-99470000D01*
%TO.N,Net-(D1-K)*%
X140212500Y-100000000D02*
X139990000Y-99777500D01*
X139990000Y-99777500D02*
X139990000Y-98800000D01*
%TO.N,Net-(D2-K)*%
X139010000Y-90500000D02*
X139470000Y-90500000D01*
X139970000Y-90000000D02*
X140212500Y-90000000D01*
X139470000Y-90500000D02*
X139970000Y-90000000D01*
%TO.N,/TXD*%
X146500000Y-95300000D02*
X147200000Y-94600000D01*
X167500000Y-93730000D02*
X170030000Y-93730000D01*
X148625000Y-93730000D02*
X147470000Y-93730000D01*
X147200000Y-94600000D02*
X147200000Y-94000000D01*
X147470000Y-93730000D02*
X147200000Y-94000000D01*
X178475000Y-90875000D02*
X178475000Y-92137500D01*
X170300000Y-93400000D02*
X170600000Y-93100000D01*
X178650000Y-90700000D02*
X178475000Y-90875000D01*
X170300000Y-94000000D02*
X170300000Y-93400000D01*
X170030000Y-93730000D02*
X170300000Y-94000000D01*
%TO.N,/RXD*%
X169990000Y-91190000D02*
X170300000Y-91500000D01*
X146500000Y-92300000D02*
X147200000Y-91600000D01*
X148315000Y-91500000D02*
X148625000Y-91190000D01*
X167500000Y-91190000D02*
X169990000Y-91190000D01*
X177825000Y-92137500D02*
X177825000Y-90100000D01*
X170300000Y-90900000D02*
X170300000Y-91500000D01*
X147200000Y-91600000D02*
X147200000Y-91500000D01*
X170600000Y-90600000D02*
X170300000Y-90900000D01*
X177825000Y-90100000D02*
X177800000Y-90075000D01*
X147200000Y-91500000D02*
X148315000Y-91500000D01*
%TO.N,/RTS*%
X148050000Y-101350000D02*
X147200000Y-100500000D01*
X169950000Y-101350000D02*
X170300000Y-101000000D01*
X179125000Y-92137500D02*
X179125000Y-93325000D01*
X179125000Y-93325000D02*
X177750000Y-94700000D01*
X167500000Y-101350000D02*
X169950000Y-101350000D01*
X147200000Y-100500000D02*
X147200000Y-99700000D01*
X177750000Y-94700000D02*
X177750000Y-95550000D01*
X170300000Y-101000000D02*
X170300000Y-100100000D01*
%TO.N,/CTS*%
X147700000Y-98500000D02*
X147200000Y-98500000D01*
X179775000Y-93725000D02*
X178550000Y-94950000D01*
X167500000Y-98810000D02*
X169990000Y-98810000D01*
X179775000Y-92137500D02*
X179775000Y-93725000D01*
X147200000Y-98500000D02*
X147200000Y-97700000D01*
X169990000Y-98810000D02*
X170300000Y-98500000D01*
X148625000Y-98810000D02*
X148010000Y-98810000D01*
X148010000Y-98810000D02*
X147700000Y-98500000D01*
X170300000Y-98500000D02*
X170300000Y-97650000D01*
%TO.N,/TXD_FT*%
X141950000Y-94675000D02*
X142475000Y-94675000D01*
X143200000Y-95400000D02*
X143200000Y-95900000D01*
X142475000Y-94675000D02*
X143200000Y-95400000D01*
%TO.N,/RXD_FT*%
X140675961Y-91748059D02*
X140637239Y-91748059D01*
X140637239Y-91748059D02*
X140325000Y-92060298D01*
X140325000Y-92060298D02*
X140325000Y-93050000D01*
X141049021Y-91374999D02*
X140675961Y-91748059D01*
%TO.N,/RTS_FT*%
X141950000Y-94025000D02*
X142825000Y-94025000D01*
X142825000Y-94025000D02*
X143300000Y-94500000D01*
%TO.N,/CTS_FT*%
X139025000Y-91725000D02*
X139025000Y-93050000D01*
X139010000Y-91710000D02*
X139025000Y-91725000D01*
%TO.N,/LED_TX*%
X141010000Y-98360000D02*
X141010000Y-99000000D01*
X140325000Y-97675000D02*
X141010000Y-98360000D01*
X140325000Y-96950000D02*
X140325000Y-97675000D01*
%TO.N,/LED_RX*%
X137390000Y-91010000D02*
X137900000Y-90500000D01*
X138050000Y-94025000D02*
X137595000Y-94025000D01*
X137390000Y-93820000D02*
X137390000Y-91010000D01*
X137595000Y-94025000D02*
X137390000Y-93820000D01*
%TO.N,/USB_DM*%
X137275000Y-95325000D02*
X137150000Y-95450000D01*
X138050000Y-95325000D02*
X137275000Y-95325000D01*
%TO.N,/USB_DP*%
X137275000Y-94675000D02*
X137150000Y-94550000D01*
X138050000Y-94675000D02*
X137275000Y-94675000D01*
%TO.N,Net-(U5-C1+)*%
X175020000Y-99180000D02*
X175020000Y-100000000D01*
X175225000Y-97862500D02*
X175225000Y-98975000D01*
X175225000Y-98975000D02*
X175020000Y-99180000D01*
%TO.N,Net-(U5-C2+)*%
X177020000Y-99350000D02*
X177020000Y-100000000D01*
X177175000Y-97862500D02*
X177175000Y-99195000D01*
X177175000Y-99195000D02*
X177020000Y-99350000D01*
%TO.N,Net-(U5-C2-)*%
X177980000Y-99180000D02*
X177980000Y-100000000D01*
X177825000Y-99025000D02*
X177980000Y-99180000D01*
X177825000Y-97862500D02*
X177825000Y-99025000D01*
%TO.N,Net-(U5-VS-)*%
X178475000Y-97862500D02*
X178475000Y-98925000D01*
X178475000Y-98925000D02*
X179020000Y-99470000D01*
X179020000Y-99470000D02*
X179020000Y-100000000D01*
%TO.N,Net-(U5-VS+)*%
X175875000Y-96925000D02*
X174430000Y-95480000D01*
X174430000Y-95480000D02*
X173500000Y-95480000D01*
X175875000Y-97862500D02*
X175875000Y-96925000D01*
%TO.N,/RTS_232*%
X184350000Y-101350000D02*
X184000000Y-101000000D01*
X182600000Y-99900000D02*
X183200000Y-100500000D01*
X183200000Y-100500000D02*
X183200000Y-101000000D01*
X179600000Y-99200000D02*
X180450000Y-99200000D01*
X181150000Y-99900000D02*
X182600000Y-99900000D01*
X179125000Y-98725000D02*
X179600000Y-99200000D01*
X185615000Y-101350000D02*
X184350000Y-101350000D01*
X179125000Y-97862500D02*
X179125000Y-98725000D01*
X180450000Y-99200000D02*
X181150000Y-99900000D01*
X184000000Y-101000000D02*
X183200000Y-101000000D01*
%TO.N,/RXD_232*%
X177175000Y-92137500D02*
X177175000Y-93325000D01*
X183200000Y-92200000D02*
X183000000Y-92400000D01*
X185615000Y-91190000D02*
X183510000Y-91190000D01*
X183200000Y-91500000D02*
X183200000Y-92200000D01*
X177175000Y-93325000D02*
X177150000Y-93350000D01*
X183510000Y-91190000D02*
X183200000Y-91500000D01*
%TO.N,/CTS_232*%
X185615000Y-98810000D02*
X184410000Y-98810000D01*
X182699999Y-99350000D02*
X181400000Y-99350000D01*
X179775000Y-98375000D02*
X179775000Y-97862500D01*
X181400000Y-99350000D02*
X180650000Y-98600000D01*
X183200000Y-98500000D02*
X183200000Y-98849999D01*
X180000000Y-98600000D02*
X179775000Y-98375000D01*
X184100000Y-98500000D02*
X183200000Y-98500000D01*
X184410000Y-98810000D02*
X184100000Y-98500000D01*
X183200000Y-98849999D02*
X182699999Y-99350000D01*
X180650000Y-98600000D02*
X180000000Y-98600000D01*
%TO.N,/TXD_232*%
X183200000Y-94000000D02*
X183200000Y-94850000D01*
X183470000Y-93730000D02*
X183200000Y-94000000D01*
X183200000Y-94850000D02*
X183150000Y-94900000D01*
X176525000Y-93975000D02*
X176550000Y-94000000D01*
X185615000Y-93730000D02*
X183470000Y-93730000D01*
X176525000Y-92137500D02*
X176525000Y-93975000D01*
%TD*%
%TA.AperFunction,Conductor*%
%TO.N,GND*%
G36*
X166330712Y-87519685D02*
G01*
X166376467Y-87572489D01*
X166386411Y-87641647D01*
X166377107Y-87674087D01*
X166352415Y-87730006D01*
X166352415Y-87730008D01*
X166349500Y-87755131D01*
X166349500Y-89544856D01*
X166349502Y-89544882D01*
X166352413Y-89569987D01*
X166352415Y-89569991D01*
X166397793Y-89672764D01*
X166397794Y-89672765D01*
X166477235Y-89752206D01*
X166580009Y-89797585D01*
X166605135Y-89800500D01*
X167342873Y-89800499D01*
X167409910Y-89820183D01*
X167455665Y-89872987D01*
X167465609Y-89942146D01*
X167436584Y-90005702D01*
X167377806Y-90043476D01*
X167362270Y-90046972D01*
X167230589Y-90067829D01*
X167058363Y-90123787D01*
X167058360Y-90123788D01*
X166897002Y-90206006D01*
X166750505Y-90312441D01*
X166750500Y-90312445D01*
X166622445Y-90440500D01*
X166622441Y-90440505D01*
X166516006Y-90587002D01*
X166433788Y-90748360D01*
X166433787Y-90748363D01*
X166377829Y-90920589D01*
X166349500Y-91099448D01*
X166349500Y-91280551D01*
X166377829Y-91459410D01*
X166433787Y-91631636D01*
X166433788Y-91631639D01*
X166488747Y-91739500D01*
X166511778Y-91784701D01*
X166516006Y-91792997D01*
X166622441Y-91939494D01*
X166622445Y-91939499D01*
X166750500Y-92067554D01*
X166750505Y-92067558D01*
X166840486Y-92132932D01*
X166897006Y-92173996D01*
X167002484Y-92227740D01*
X167058360Y-92256211D01*
X167058363Y-92256212D01*
X167144476Y-92284191D01*
X167230591Y-92312171D01*
X167303639Y-92323740D01*
X167390678Y-92337527D01*
X167453813Y-92367456D01*
X167490744Y-92426768D01*
X167489746Y-92496631D01*
X167451136Y-92554863D01*
X167390678Y-92582473D01*
X167230589Y-92607829D01*
X167058363Y-92663787D01*
X167058360Y-92663788D01*
X166897002Y-92746006D01*
X166750505Y-92852441D01*
X166750500Y-92852445D01*
X166622445Y-92980500D01*
X166622441Y-92980505D01*
X166516006Y-93127002D01*
X166433788Y-93288360D01*
X166433787Y-93288363D01*
X166377829Y-93460589D01*
X166349500Y-93639448D01*
X166349500Y-93820551D01*
X166377829Y-93999410D01*
X166433787Y-94171636D01*
X166433788Y-94171639D01*
X166486310Y-94274716D01*
X166512916Y-94326934D01*
X166516006Y-94332997D01*
X166622441Y-94479494D01*
X166622445Y-94479499D01*
X166750503Y-94607557D01*
X166885426Y-94705582D01*
X166897006Y-94713996D01*
X167002484Y-94767740D01*
X167058360Y-94796211D01*
X167058363Y-94796212D01*
X167134486Y-94820945D01*
X167230591Y-94852171D01*
X167350038Y-94871089D01*
X167392279Y-94877780D01*
X167455414Y-94907709D01*
X167492345Y-94967021D01*
X167491347Y-95036883D01*
X167452737Y-95095116D01*
X167392279Y-95122726D01*
X167230706Y-95148317D01*
X167058555Y-95204251D01*
X167058547Y-95204254D01*
X166897269Y-95286432D01*
X166881466Y-95297912D01*
X166881466Y-95297913D01*
X167370591Y-95787037D01*
X167307007Y-95804075D01*
X167192993Y-95869901D01*
X167099901Y-95962993D01*
X167034075Y-96077007D01*
X167017037Y-96140590D01*
X166527913Y-95651466D01*
X166527912Y-95651466D01*
X166516432Y-95667269D01*
X166434254Y-95828547D01*
X166434251Y-95828555D01*
X166378317Y-96000706D01*
X166350000Y-96179493D01*
X166350000Y-96360506D01*
X166378317Y-96539293D01*
X166434251Y-96711444D01*
X166434252Y-96711447D01*
X166516431Y-96872730D01*
X166527913Y-96888532D01*
X166527913Y-96888533D01*
X167017037Y-96399409D01*
X167034075Y-96462993D01*
X167099901Y-96577007D01*
X167192993Y-96670099D01*
X167307007Y-96735925D01*
X167370590Y-96752962D01*
X166881466Y-97242085D01*
X166881466Y-97242086D01*
X166897267Y-97253566D01*
X166897275Y-97253571D01*
X167058552Y-97335747D01*
X167058555Y-97335748D01*
X167230706Y-97391682D01*
X167392279Y-97417273D01*
X167455413Y-97447202D01*
X167492345Y-97506513D01*
X167491347Y-97576376D01*
X167452738Y-97634609D01*
X167392280Y-97662219D01*
X167230589Y-97687829D01*
X167058363Y-97743787D01*
X167058360Y-97743788D01*
X166897002Y-97826006D01*
X166750505Y-97932441D01*
X166750500Y-97932445D01*
X166622445Y-98060500D01*
X166622441Y-98060505D01*
X166516006Y-98207002D01*
X166433788Y-98368360D01*
X166433787Y-98368363D01*
X166377829Y-98540589D01*
X166349500Y-98719448D01*
X166349500Y-98900551D01*
X166377829Y-99079410D01*
X166433787Y-99251636D01*
X166433788Y-99251639D01*
X166516006Y-99412997D01*
X166622441Y-99559494D01*
X166622445Y-99559499D01*
X166750500Y-99687554D01*
X166750505Y-99687558D01*
X166810698Y-99731290D01*
X166897006Y-99793996D01*
X167002484Y-99847740D01*
X167058360Y-99876211D01*
X167058363Y-99876212D01*
X167144476Y-99904191D01*
X167230591Y-99932171D01*
X167303639Y-99943740D01*
X167390678Y-99957527D01*
X167453813Y-99987456D01*
X167490744Y-100046768D01*
X167489746Y-100116631D01*
X167451136Y-100174863D01*
X167390678Y-100202473D01*
X167230589Y-100227829D01*
X167058363Y-100283787D01*
X167058360Y-100283788D01*
X166897002Y-100366006D01*
X166750505Y-100472441D01*
X166750500Y-100472445D01*
X166622445Y-100600500D01*
X166622441Y-100600505D01*
X166516006Y-100747002D01*
X166433788Y-100908360D01*
X166433787Y-100908363D01*
X166377829Y-101080589D01*
X166349500Y-101259448D01*
X166349500Y-101440551D01*
X166377829Y-101619410D01*
X166433787Y-101791636D01*
X166433788Y-101791639D01*
X166516006Y-101952997D01*
X166622441Y-102099494D01*
X166622445Y-102099499D01*
X166750500Y-102227554D01*
X166750505Y-102227558D01*
X166816742Y-102275682D01*
X166859408Y-102331011D01*
X166865387Y-102400625D01*
X166832782Y-102462420D01*
X166771943Y-102496777D01*
X166743857Y-102500000D01*
X166124000Y-102500000D01*
X166056961Y-102480315D01*
X166011206Y-102427511D01*
X166000000Y-102376000D01*
X166000000Y-87624000D01*
X166019685Y-87556961D01*
X166072489Y-87511206D01*
X166124000Y-87500000D01*
X166263673Y-87500000D01*
X166330712Y-87519685D01*
G37*
%TD.AperFunction*%
%TA.AperFunction,Conductor*%
G36*
X171893039Y-89019685D02*
G01*
X171938794Y-89072489D01*
X171950000Y-89124000D01*
X171950000Y-89641760D01*
X172062645Y-89602346D01*
X172062646Y-89602345D01*
X172076864Y-89591852D01*
X172142492Y-89567879D01*
X172210663Y-89583193D01*
X172259732Y-89632932D01*
X172274500Y-89691620D01*
X172274500Y-90808379D01*
X172254815Y-90875418D01*
X172202011Y-90921173D01*
X172132853Y-90931117D01*
X172076867Y-90908149D01*
X172062646Y-90897654D01*
X171950000Y-90858237D01*
X171950000Y-92141760D01*
X172062645Y-92102346D01*
X172062646Y-92102345D01*
X172076864Y-92091852D01*
X172142492Y-92067879D01*
X172210663Y-92083193D01*
X172259732Y-92132932D01*
X172274500Y-92191620D01*
X172274500Y-92943982D01*
X172274500Y-93056018D01*
X172296799Y-93139237D01*
X172303497Y-93164236D01*
X172303498Y-93164239D01*
X172316469Y-93186705D01*
X172359515Y-93261263D01*
X172359517Y-93261265D01*
X172918732Y-93820481D01*
X172925181Y-93825429D01*
X172924698Y-93826057D01*
X172929786Y-93827995D01*
X172954571Y-93853119D01*
X173008631Y-93926368D01*
X173032601Y-93991994D01*
X173017286Y-94060164D01*
X173008630Y-94073632D01*
X172936148Y-94171841D01*
X172936147Y-94171842D01*
X172892291Y-94297173D01*
X172892289Y-94297185D01*
X172889500Y-94326929D01*
X172889500Y-94713070D01*
X172892289Y-94742814D01*
X172892291Y-94742826D01*
X172936147Y-94868157D01*
X172936148Y-94868158D01*
X172979108Y-94926367D01*
X173003079Y-94991996D01*
X172987763Y-95060166D01*
X172979108Y-95073633D01*
X172936148Y-95131841D01*
X172936147Y-95131842D01*
X172892291Y-95257173D01*
X172892289Y-95257185D01*
X172889500Y-95286929D01*
X172889500Y-95673070D01*
X172892289Y-95702814D01*
X172892291Y-95702826D01*
X172919921Y-95781784D01*
X172936148Y-95828157D01*
X173015001Y-95934999D01*
X173121843Y-96013852D01*
X173160003Y-96027204D01*
X173247173Y-96057708D01*
X173247177Y-96057708D01*
X173247181Y-96057710D01*
X173262057Y-96059105D01*
X173276930Y-96060500D01*
X173276934Y-96060500D01*
X173723070Y-96060500D01*
X173736289Y-96059260D01*
X173752819Y-96057710D01*
X173752823Y-96057708D01*
X173752826Y-96057708D01*
X173878157Y-96013852D01*
X173878158Y-96013851D01*
X173992140Y-95929730D01*
X174012552Y-95922274D01*
X174030838Y-95910523D01*
X174053742Y-95907229D01*
X174057769Y-95905759D01*
X174065773Y-95905500D01*
X174202390Y-95905500D01*
X174269429Y-95925185D01*
X174290071Y-95941819D01*
X175003496Y-96655244D01*
X175036981Y-96716567D01*
X175031997Y-96786259D01*
X174990125Y-96842192D01*
X174972110Y-96853409D01*
X174886661Y-96896947D01*
X174886652Y-96896954D01*
X174796954Y-96986652D01*
X174796951Y-96986657D01*
X174739352Y-97099698D01*
X174724500Y-97193475D01*
X174724500Y-98531517D01*
X174735292Y-98599657D01*
X174739354Y-98625304D01*
X174773081Y-98691496D01*
X174777301Y-98699778D01*
X174790197Y-98768448D01*
X174763920Y-98833188D01*
X174754498Y-98843754D01*
X174679514Y-98918738D01*
X174679513Y-98918740D01*
X174623498Y-99015760D01*
X174623497Y-99015763D01*
X174594500Y-99123982D01*
X174594500Y-99434228D01*
X174574815Y-99501267D01*
X174570270Y-99507862D01*
X174565001Y-99515000D01*
X174565001Y-99515001D01*
X174540000Y-99548876D01*
X174486147Y-99621844D01*
X174442291Y-99747173D01*
X174442289Y-99747185D01*
X174439500Y-99776929D01*
X174439500Y-100223070D01*
X174442289Y-100252814D01*
X174442291Y-100252826D01*
X174486147Y-100378155D01*
X174486148Y-100378157D01*
X174565001Y-100484999D01*
X174671843Y-100563852D01*
X174702273Y-100574500D01*
X174797173Y-100607708D01*
X174797177Y-100607708D01*
X174797181Y-100607710D01*
X174812057Y-100609105D01*
X174826930Y-100610500D01*
X174826934Y-100610500D01*
X175213070Y-100610500D01*
X175226289Y-100609260D01*
X175242819Y-100607710D01*
X175242823Y-100607708D01*
X175242826Y-100607708D01*
X175300981Y-100587358D01*
X175368157Y-100563852D01*
X175426368Y-100520890D01*
X175491995Y-100496920D01*
X175560165Y-100512235D01*
X175573625Y-100520885D01*
X175631843Y-100563852D01*
X175662273Y-100574500D01*
X175757173Y-100607708D01*
X175757177Y-100607708D01*
X175757181Y-100607710D01*
X175772057Y-100609105D01*
X175786930Y-100610500D01*
X175786934Y-100610500D01*
X176173070Y-100610500D01*
X176186289Y-100609260D01*
X176202819Y-100607710D01*
X176202823Y-100607708D01*
X176202826Y-100607708D01*
X176260981Y-100587358D01*
X176328157Y-100563852D01*
X176426367Y-100491369D01*
X176491995Y-100467399D01*
X176560165Y-100482714D01*
X176573629Y-100491367D01*
X176671843Y-100563852D01*
X176702273Y-100574500D01*
X176797173Y-100607708D01*
X176797177Y-100607708D01*
X176797181Y-100607710D01*
X176812057Y-100609105D01*
X176826930Y-100610500D01*
X176826934Y-100610500D01*
X177213070Y-100610500D01*
X177226289Y-100609260D01*
X177242819Y-100607710D01*
X177242823Y-100607708D01*
X177242826Y-100607708D01*
X177300981Y-100587358D01*
X177368157Y-100563852D01*
X177426368Y-100520890D01*
X177491995Y-100496920D01*
X177560165Y-100512235D01*
X177573625Y-100520885D01*
X177631843Y-100563852D01*
X177662273Y-100574500D01*
X177757173Y-100607708D01*
X177757177Y-100607708D01*
X177757181Y-100607710D01*
X177772057Y-100609105D01*
X177786930Y-100610500D01*
X177786934Y-100610500D01*
X178173070Y-100610500D01*
X178186289Y-100609260D01*
X178202819Y-100607710D01*
X178202823Y-100607708D01*
X178202826Y-100607708D01*
X178260981Y-100587358D01*
X178328157Y-100563852D01*
X178426367Y-100491369D01*
X178491995Y-100467399D01*
X178560165Y-100482714D01*
X178573629Y-100491367D01*
X178671843Y-100563852D01*
X178702273Y-100574500D01*
X178797173Y-100607708D01*
X178797177Y-100607708D01*
X178797181Y-100607710D01*
X178812057Y-100609105D01*
X178826930Y-100610500D01*
X178826934Y-100610500D01*
X179213070Y-100610500D01*
X179226289Y-100609260D01*
X179242819Y-100607710D01*
X179242823Y-100607708D01*
X179242826Y-100607708D01*
X179300981Y-100587358D01*
X179368157Y-100563852D01*
X179426789Y-100520578D01*
X179492415Y-100496609D01*
X179560586Y-100511924D01*
X179574056Y-100520581D01*
X179632077Y-100563403D01*
X179730000Y-100597668D01*
X179730000Y-100124000D01*
X179749685Y-100056961D01*
X179802489Y-100011206D01*
X179854000Y-100000000D01*
X180106000Y-100000000D01*
X180173039Y-100019685D01*
X180218794Y-100072489D01*
X180230000Y-100124000D01*
X180230000Y-100597667D01*
X180327922Y-100563403D01*
X180434641Y-100484641D01*
X180513405Y-100377919D01*
X180557211Y-100252732D01*
X180557213Y-100252720D01*
X180559999Y-100223009D01*
X180559999Y-100211117D01*
X180579679Y-100144077D01*
X180632480Y-100098318D01*
X180701638Y-100088370D01*
X180765195Y-100117391D01*
X180771680Y-100123428D01*
X180809515Y-100161263D01*
X180888737Y-100240485D01*
X180963742Y-100283789D01*
X180985763Y-100296503D01*
X181093981Y-100325500D01*
X181093982Y-100325500D01*
X181195281Y-100325500D01*
X181262320Y-100345185D01*
X181308075Y-100397989D01*
X181318019Y-100467147D01*
X181295051Y-100523134D01*
X181247653Y-100587354D01*
X181202850Y-100715395D01*
X181202850Y-100715399D01*
X181200000Y-100745793D01*
X181200000Y-100750000D01*
X181676000Y-100750000D01*
X181743039Y-100769685D01*
X181788794Y-100822489D01*
X181800000Y-100874000D01*
X181800000Y-101000000D01*
X181926000Y-101000000D01*
X181993039Y-101019685D01*
X182038794Y-101072489D01*
X182050000Y-101124000D01*
X182050000Y-101641760D01*
X182162645Y-101602346D01*
X182271792Y-101521792D01*
X182352346Y-101412645D01*
X182382693Y-101325917D01*
X182423414Y-101269141D01*
X182488367Y-101243393D01*
X182556929Y-101256849D01*
X182607332Y-101305236D01*
X182616776Y-101325916D01*
X182647124Y-101412645D01*
X182647207Y-101412882D01*
X182727850Y-101522150D01*
X182837118Y-101602793D01*
X182861324Y-101611263D01*
X182965299Y-101647646D01*
X182995730Y-101650500D01*
X182995734Y-101650500D01*
X183404270Y-101650500D01*
X183434699Y-101647646D01*
X183434701Y-101647646D01*
X183515396Y-101619409D01*
X183562882Y-101602793D01*
X183672150Y-101522150D01*
X183692004Y-101495248D01*
X183747648Y-101453000D01*
X183817304Y-101447540D01*
X183878854Y-101480606D01*
X183879454Y-101481202D01*
X184009515Y-101611263D01*
X184088737Y-101690485D01*
X184185763Y-101746503D01*
X184293982Y-101775500D01*
X184464579Y-101775500D01*
X184531618Y-101795185D01*
X184575062Y-101843203D01*
X184627880Y-101946864D01*
X184631006Y-101952998D01*
X184737441Y-102099494D01*
X184737445Y-102099499D01*
X184865500Y-102227554D01*
X184865505Y-102227558D01*
X184931742Y-102275682D01*
X184974408Y-102331011D01*
X184980387Y-102400625D01*
X184947782Y-102462420D01*
X184886943Y-102496777D01*
X184858857Y-102500000D01*
X168256143Y-102500000D01*
X168189104Y-102480315D01*
X168143349Y-102427511D01*
X168133405Y-102358353D01*
X168162430Y-102294797D01*
X168183258Y-102275682D01*
X168249494Y-102227558D01*
X168249492Y-102227558D01*
X168249501Y-102227553D01*
X168377553Y-102099501D01*
X168483996Y-101952994D01*
X168539937Y-101843203D01*
X168587910Y-101792409D01*
X168650421Y-101775500D01*
X170006016Y-101775500D01*
X170006018Y-101775500D01*
X170114237Y-101746503D01*
X170211263Y-101690485D01*
X170214929Y-101686819D01*
X170276252Y-101653334D01*
X170302610Y-101650500D01*
X170504270Y-101650500D01*
X170534699Y-101647646D01*
X170534701Y-101647646D01*
X170615396Y-101619409D01*
X170662882Y-101602793D01*
X170772150Y-101522150D01*
X170852793Y-101412882D01*
X170883224Y-101325913D01*
X170923944Y-101269141D01*
X170988896Y-101243393D01*
X171057458Y-101256849D01*
X171107861Y-101305236D01*
X171117305Y-101325916D01*
X171147651Y-101412641D01*
X171147653Y-101412645D01*
X171228207Y-101521792D01*
X171337354Y-101602346D01*
X171450000Y-101641761D01*
X171450000Y-101641760D01*
X171950000Y-101641760D01*
X172062645Y-101602346D01*
X172171792Y-101521792D01*
X172252346Y-101412645D01*
X172297149Y-101284604D01*
X172297149Y-101284600D01*
X172300000Y-101254206D01*
X172300000Y-101254196D01*
X181200001Y-101254196D01*
X181202851Y-101284606D01*
X181247653Y-101412645D01*
X181328207Y-101521792D01*
X181437354Y-101602346D01*
X181550000Y-101641761D01*
X181550000Y-101250000D01*
X181200001Y-101250000D01*
X181200001Y-101254196D01*
X172300000Y-101254196D01*
X172300000Y-101250000D01*
X171950000Y-101250000D01*
X171950000Y-101641760D01*
X171450000Y-101641760D01*
X171450000Y-100750000D01*
X171950000Y-100750000D01*
X172299999Y-100750000D01*
X172299999Y-100745803D01*
X172297148Y-100715393D01*
X172252346Y-100587354D01*
X172171792Y-100478207D01*
X172062644Y-100397653D01*
X171950000Y-100358237D01*
X171950000Y-100750000D01*
X171450000Y-100750000D01*
X171450000Y-100358237D01*
X171449999Y-100358237D01*
X171337355Y-100397653D01*
X171228207Y-100478207D01*
X171147653Y-100587354D01*
X171147651Y-100587358D01*
X171117305Y-100674083D01*
X171104532Y-100691890D01*
X171095912Y-100712042D01*
X171084568Y-100719725D01*
X171076583Y-100730859D01*
X171056209Y-100738935D01*
X171038064Y-100751226D01*
X171024367Y-100751557D01*
X171011631Y-100756606D01*
X170990124Y-100752385D01*
X170968215Y-100752915D01*
X170956513Y-100745788D01*
X170943069Y-100743150D01*
X170927258Y-100727971D01*
X170908541Y-100716572D01*
X170899393Y-100701220D01*
X170892666Y-100694762D01*
X170888748Y-100687351D01*
X170885601Y-100680880D01*
X170852793Y-100587118D01*
X170815330Y-100536357D01*
X170810351Y-100526117D01*
X170806361Y-100502445D01*
X170798126Y-100479900D01*
X170800659Y-100468621D01*
X170798738Y-100457219D01*
X170808180Y-100435147D01*
X170813441Y-100411730D01*
X170814451Y-100409945D01*
X170859577Y-100331784D01*
X170900500Y-100179057D01*
X170900500Y-100020943D01*
X170859577Y-99868216D01*
X170859573Y-99868209D01*
X170780524Y-99731290D01*
X170780518Y-99731282D01*
X170668717Y-99619481D01*
X170668709Y-99619475D01*
X170531790Y-99540426D01*
X170531786Y-99540424D01*
X170531784Y-99540423D01*
X170379057Y-99499500D01*
X170220943Y-99499500D01*
X170068216Y-99540423D01*
X170068209Y-99540426D01*
X169931290Y-99619475D01*
X169931282Y-99619481D01*
X169819481Y-99731282D01*
X169819475Y-99731290D01*
X169740426Y-99868209D01*
X169740423Y-99868216D01*
X169699500Y-100020943D01*
X169699500Y-100179057D01*
X169727563Y-100283787D01*
X169740423Y-100331783D01*
X169740423Y-100331784D01*
X169785519Y-100409894D01*
X169801990Y-100477794D01*
X169779138Y-100543821D01*
X169777903Y-100545524D01*
X169747209Y-100587114D01*
X169747206Y-100587119D01*
X169702353Y-100715298D01*
X169702353Y-100715300D01*
X169699500Y-100745730D01*
X169699500Y-100800500D01*
X169679815Y-100867539D01*
X169627011Y-100913294D01*
X169575500Y-100924500D01*
X168650421Y-100924500D01*
X168583382Y-100904815D01*
X168539937Y-100856796D01*
X168483996Y-100747006D01*
X168483994Y-100747003D01*
X168483993Y-100747001D01*
X168377558Y-100600505D01*
X168377554Y-100600500D01*
X168249499Y-100472445D01*
X168249494Y-100472441D01*
X168102997Y-100366006D01*
X168102996Y-100366005D01*
X168102994Y-100366004D01*
X168023501Y-100325500D01*
X167941639Y-100283788D01*
X167941636Y-100283787D01*
X167769410Y-100227829D01*
X167609321Y-100202473D01*
X167546186Y-100172544D01*
X167509255Y-100113232D01*
X167510253Y-100043370D01*
X167548863Y-99985137D01*
X167609321Y-99957527D01*
X167679425Y-99946422D01*
X167769409Y-99932171D01*
X167941639Y-99876211D01*
X168102994Y-99793996D01*
X168249501Y-99687553D01*
X168377553Y-99559501D01*
X168483996Y-99412994D01*
X168539937Y-99303203D01*
X168587910Y-99252409D01*
X168650421Y-99235500D01*
X170046016Y-99235500D01*
X170046018Y-99235500D01*
X170154237Y-99206503D01*
X170222462Y-99167112D01*
X170284462Y-99150500D01*
X170504270Y-99150500D01*
X170534699Y-99147646D01*
X170534701Y-99147646D01*
X170602327Y-99123982D01*
X170662882Y-99102793D01*
X170772150Y-99022150D01*
X170852793Y-98912882D01*
X170883224Y-98825913D01*
X170923944Y-98769141D01*
X170988896Y-98743393D01*
X171057458Y-98756849D01*
X171107861Y-98805236D01*
X171117305Y-98825916D01*
X171147651Y-98912641D01*
X171147653Y-98912645D01*
X171228207Y-99021792D01*
X171337354Y-99102346D01*
X171450000Y-99141761D01*
X171450000Y-99141760D01*
X171950000Y-99141760D01*
X172062645Y-99102346D01*
X172171792Y-99021792D01*
X172252346Y-98912645D01*
X172297149Y-98784604D01*
X172297149Y-98784600D01*
X172300000Y-98754206D01*
X172300000Y-98750000D01*
X171950000Y-98750000D01*
X171950000Y-99141760D01*
X171450000Y-99141760D01*
X171450000Y-98250000D01*
X171950000Y-98250000D01*
X172299999Y-98250000D01*
X172299999Y-98245803D01*
X172297148Y-98215393D01*
X172252346Y-98087354D01*
X172171792Y-97978207D01*
X172062644Y-97897653D01*
X171950000Y-97858237D01*
X171950000Y-98250000D01*
X171450000Y-98250000D01*
X171450000Y-97858237D01*
X171449999Y-97858237D01*
X171337355Y-97897653D01*
X171228207Y-97978207D01*
X171147653Y-98087354D01*
X171147651Y-98087358D01*
X171117305Y-98174083D01*
X171103390Y-98193483D01*
X171093290Y-98215116D01*
X171083399Y-98221355D01*
X171076583Y-98230859D01*
X171054387Y-98239657D01*
X171034196Y-98252395D01*
X171022502Y-98252296D01*
X171011631Y-98256606D01*
X170988202Y-98252007D01*
X170964329Y-98251807D01*
X170954545Y-98245402D01*
X170943069Y-98243150D01*
X170925844Y-98226614D01*
X170905871Y-98213539D01*
X170898071Y-98199951D01*
X170892666Y-98194762D01*
X170887040Y-98183689D01*
X170884935Y-98178975D01*
X170852793Y-98087118D01*
X170830315Y-98056662D01*
X170824840Y-98044400D01*
X170821886Y-98022550D01*
X170814323Y-98001844D01*
X170817296Y-97988606D01*
X170815479Y-97975160D01*
X170824805Y-97955184D01*
X170829638Y-97933674D01*
X170830605Y-97931964D01*
X170859577Y-97881784D01*
X170900500Y-97729057D01*
X170900500Y-97570943D01*
X170859577Y-97418216D01*
X170811963Y-97335745D01*
X170780524Y-97281290D01*
X170780518Y-97281282D01*
X170668717Y-97169481D01*
X170668709Y-97169475D01*
X170531790Y-97090426D01*
X170531786Y-97090424D01*
X170531784Y-97090423D01*
X170379057Y-97049500D01*
X170220943Y-97049500D01*
X170068216Y-97090423D01*
X170068209Y-97090426D01*
X169931290Y-97169475D01*
X169931282Y-97169481D01*
X169819481Y-97281282D01*
X169819475Y-97281290D01*
X169740426Y-97418209D01*
X169740423Y-97418216D01*
X169699500Y-97570943D01*
X169699500Y-97729057D01*
X169732538Y-97852354D01*
X169740423Y-97881783D01*
X169740425Y-97881788D01*
X169769322Y-97931841D01*
X169785793Y-97999741D01*
X169762940Y-98065768D01*
X169761707Y-98067469D01*
X169747207Y-98087116D01*
X169702353Y-98215303D01*
X169699500Y-98245730D01*
X169699500Y-98260500D01*
X169679815Y-98327539D01*
X169627011Y-98373294D01*
X169575500Y-98384500D01*
X168650421Y-98384500D01*
X168583382Y-98364815D01*
X168539937Y-98316796D01*
X168483996Y-98207006D01*
X168483994Y-98207003D01*
X168483993Y-98207001D01*
X168377558Y-98060505D01*
X168377554Y-98060500D01*
X168249499Y-97932445D01*
X168249494Y-97932441D01*
X168102997Y-97826006D01*
X168102996Y-97826005D01*
X168102994Y-97826004D01*
X168051300Y-97799664D01*
X167941639Y-97743788D01*
X167941636Y-97743787D01*
X167769410Y-97687828D01*
X167607720Y-97662219D01*
X167544585Y-97632289D01*
X167507654Y-97572978D01*
X167508652Y-97503115D01*
X167547262Y-97444883D01*
X167607721Y-97417273D01*
X167769292Y-97391683D01*
X167941444Y-97335748D01*
X167941452Y-97335745D01*
X168102730Y-97253568D01*
X168118532Y-97242085D01*
X168118533Y-97242085D01*
X167629410Y-96752962D01*
X167692993Y-96735925D01*
X167807007Y-96670099D01*
X167900099Y-96577007D01*
X167965925Y-96462993D01*
X167982962Y-96399409D01*
X168472085Y-96888532D01*
X168483568Y-96872730D01*
X168565745Y-96711452D01*
X168565748Y-96711444D01*
X168621682Y-96539293D01*
X168650000Y-96360506D01*
X168650000Y-96179493D01*
X168621682Y-96000706D01*
X168565748Y-95828555D01*
X168565747Y-95828552D01*
X168483571Y-95667275D01*
X168483566Y-95667267D01*
X168472085Y-95651466D01*
X167982962Y-96140589D01*
X167965925Y-96077007D01*
X167900099Y-95962993D01*
X167807007Y-95869901D01*
X167692993Y-95804075D01*
X167629409Y-95787037D01*
X168118533Y-95297913D01*
X168102730Y-95286431D01*
X167941447Y-95204252D01*
X167941444Y-95204251D01*
X167769293Y-95148317D01*
X167607720Y-95122726D01*
X167544585Y-95092797D01*
X167507654Y-95033485D01*
X167508652Y-94963623D01*
X167547262Y-94905390D01*
X167607720Y-94877780D01*
X167622270Y-94875475D01*
X167769409Y-94852171D01*
X167941639Y-94796211D01*
X168102994Y-94713996D01*
X168166006Y-94668215D01*
X168249497Y-94607557D01*
X168249498Y-94607554D01*
X168249501Y-94607553D01*
X168377553Y-94479501D01*
X168483996Y-94332994D01*
X168539937Y-94223203D01*
X168587910Y-94172409D01*
X168650421Y-94155500D01*
X169577322Y-94155500D01*
X169644361Y-94175185D01*
X169690116Y-94227989D01*
X169700780Y-94267921D01*
X169702353Y-94284699D01*
X169702353Y-94284701D01*
X169747123Y-94412643D01*
X169747207Y-94412882D01*
X169827850Y-94522150D01*
X169937118Y-94602793D01*
X169950733Y-94607557D01*
X170065299Y-94647646D01*
X170095730Y-94650500D01*
X170095734Y-94650500D01*
X170504270Y-94650500D01*
X170534699Y-94647646D01*
X170534701Y-94647646D01*
X170598790Y-94625219D01*
X170662882Y-94602793D01*
X170772150Y-94522150D01*
X170852793Y-94412882D01*
X170883224Y-94325913D01*
X170923944Y-94269141D01*
X170988896Y-94243393D01*
X171057458Y-94256849D01*
X171107861Y-94305236D01*
X171117305Y-94325916D01*
X171147651Y-94412641D01*
X171147653Y-94412645D01*
X171228207Y-94521792D01*
X171337354Y-94602346D01*
X171450000Y-94641761D01*
X171950000Y-94641761D01*
X172062645Y-94602346D01*
X172171792Y-94521792D01*
X172252346Y-94412645D01*
X172297149Y-94284604D01*
X172297149Y-94284600D01*
X172300000Y-94254206D01*
X172300000Y-94250000D01*
X171950000Y-94250000D01*
X171950000Y-94641761D01*
X171450000Y-94641761D01*
X171450000Y-93750000D01*
X171950000Y-93750000D01*
X172299999Y-93750000D01*
X172299999Y-93745803D01*
X172297148Y-93715393D01*
X172252346Y-93587354D01*
X172171792Y-93478207D01*
X172062644Y-93397653D01*
X171950000Y-93358237D01*
X171950000Y-93750000D01*
X171450000Y-93750000D01*
X171450000Y-93358237D01*
X171449999Y-93358237D01*
X171343160Y-93395622D01*
X171273382Y-93399183D01*
X171212754Y-93364454D01*
X171180527Y-93302461D01*
X171182431Y-93246488D01*
X171200500Y-93179057D01*
X171200500Y-93020943D01*
X171159577Y-92868216D01*
X171126763Y-92811380D01*
X171080524Y-92731290D01*
X171080518Y-92731282D01*
X170968717Y-92619481D01*
X170968709Y-92619475D01*
X170831790Y-92540426D01*
X170831786Y-92540424D01*
X170831784Y-92540423D01*
X170679057Y-92499500D01*
X170520943Y-92499500D01*
X170368216Y-92540423D01*
X170368209Y-92540426D01*
X170231290Y-92619475D01*
X170231282Y-92619481D01*
X170119481Y-92731282D01*
X170119475Y-92731290D01*
X170040426Y-92868209D01*
X170040423Y-92868216D01*
X169999500Y-93020943D01*
X169999500Y-93047390D01*
X169980621Y-93113159D01*
X169973147Y-93125104D01*
X169959515Y-93138737D01*
X169903497Y-93235763D01*
X169903184Y-93236928D01*
X169897341Y-93246269D01*
X169872799Y-93268060D01*
X169849040Y-93290716D01*
X169846627Y-93291301D01*
X169845096Y-93292661D01*
X169833658Y-93294447D01*
X169792220Y-93304500D01*
X168650421Y-93304500D01*
X168583382Y-93284815D01*
X168539937Y-93236796D01*
X168483996Y-93127006D01*
X168483994Y-93127003D01*
X168483993Y-93127001D01*
X168377558Y-92980505D01*
X168377554Y-92980500D01*
X168249499Y-92852445D01*
X168249494Y-92852441D01*
X168102997Y-92746006D01*
X168102996Y-92746005D01*
X168102994Y-92746004D01*
X168051300Y-92719664D01*
X167941639Y-92663788D01*
X167941636Y-92663787D01*
X167769410Y-92607829D01*
X167609321Y-92582473D01*
X167546186Y-92552544D01*
X167509255Y-92493232D01*
X167510253Y-92423370D01*
X167548863Y-92365137D01*
X167609321Y-92337527D01*
X167679425Y-92326422D01*
X167769409Y-92312171D01*
X167941639Y-92256211D01*
X168102994Y-92173996D01*
X168249501Y-92067553D01*
X168377553Y-91939501D01*
X168483996Y-91792994D01*
X168539937Y-91683203D01*
X168587910Y-91632409D01*
X168650421Y-91615500D01*
X169575500Y-91615500D01*
X169642539Y-91635185D01*
X169688294Y-91687989D01*
X169699500Y-91739500D01*
X169699500Y-91754269D01*
X169702353Y-91784699D01*
X169702353Y-91784701D01*
X169747124Y-91912645D01*
X169747207Y-91912882D01*
X169827850Y-92022150D01*
X169937118Y-92102793D01*
X169979845Y-92117744D01*
X170065299Y-92147646D01*
X170095730Y-92150500D01*
X170095734Y-92150500D01*
X170504270Y-92150500D01*
X170534699Y-92147646D01*
X170534701Y-92147646D01*
X170598790Y-92125219D01*
X170662882Y-92102793D01*
X170772150Y-92022150D01*
X170852793Y-91912882D01*
X170883224Y-91825913D01*
X170923944Y-91769141D01*
X170988896Y-91743393D01*
X171057458Y-91756849D01*
X171107861Y-91805236D01*
X171117305Y-91825916D01*
X171147651Y-91912641D01*
X171147653Y-91912645D01*
X171228207Y-92021792D01*
X171337354Y-92102346D01*
X171450000Y-92141761D01*
X171450000Y-90858237D01*
X171449999Y-90858237D01*
X171343160Y-90895622D01*
X171273382Y-90899183D01*
X171212754Y-90864454D01*
X171180527Y-90802461D01*
X171182431Y-90746488D01*
X171200500Y-90679057D01*
X171200500Y-90520943D01*
X171159577Y-90368216D01*
X171138258Y-90331290D01*
X171080524Y-90231290D01*
X171080518Y-90231282D01*
X170968717Y-90119481D01*
X170968709Y-90119475D01*
X170831790Y-90040426D01*
X170831786Y-90040424D01*
X170831784Y-90040423D01*
X170679057Y-89999500D01*
X170520943Y-89999500D01*
X170368216Y-90040423D01*
X170368209Y-90040426D01*
X170231290Y-90119475D01*
X170231282Y-90119481D01*
X170119481Y-90231282D01*
X170119475Y-90231290D01*
X170040426Y-90368209D01*
X170040423Y-90368216D01*
X169999500Y-90520943D01*
X169999500Y-90547390D01*
X169979815Y-90614429D01*
X169979638Y-90614705D01*
X169972492Y-90625759D01*
X169959515Y-90638737D01*
X169921144Y-90705196D01*
X169919452Y-90707815D01*
X169895256Y-90728669D01*
X169872134Y-90750716D01*
X169868714Y-90751545D01*
X169866528Y-90753430D01*
X169853188Y-90755312D01*
X169815314Y-90764500D01*
X168650421Y-90764500D01*
X168583382Y-90744815D01*
X168539937Y-90696796D01*
X168483996Y-90587006D01*
X168483994Y-90587003D01*
X168483993Y-90587001D01*
X168377558Y-90440505D01*
X168377554Y-90440500D01*
X168249499Y-90312445D01*
X168249494Y-90312441D01*
X168102997Y-90206006D01*
X168102996Y-90206005D01*
X168102994Y-90206004D01*
X168051300Y-90179664D01*
X167941639Y-90123788D01*
X167941636Y-90123787D01*
X167769410Y-90067829D01*
X167637728Y-90046972D01*
X167574594Y-90017042D01*
X167537663Y-89957731D01*
X167538661Y-89887868D01*
X167577271Y-89829636D01*
X167641235Y-89801522D01*
X167657120Y-89800499D01*
X168394864Y-89800499D01*
X168394879Y-89800497D01*
X168394882Y-89800497D01*
X168419987Y-89797586D01*
X168419988Y-89797585D01*
X168419991Y-89797585D01*
X168522765Y-89752206D01*
X168602206Y-89672765D01*
X168647585Y-89569991D01*
X168650500Y-89544865D01*
X168650500Y-89199500D01*
X168670185Y-89132461D01*
X168722989Y-89086706D01*
X168774500Y-89075500D01*
X169575500Y-89075500D01*
X169642539Y-89095185D01*
X169688294Y-89147989D01*
X169699500Y-89199500D01*
X169699500Y-89254269D01*
X169702353Y-89284699D01*
X169702353Y-89284701D01*
X169747124Y-89412645D01*
X169747207Y-89412882D01*
X169827850Y-89522150D01*
X169937118Y-89602793D01*
X169979845Y-89617744D01*
X170065299Y-89647646D01*
X170095730Y-89650500D01*
X170095734Y-89650500D01*
X170504270Y-89650500D01*
X170534699Y-89647646D01*
X170534701Y-89647646D01*
X170613361Y-89620121D01*
X170662882Y-89602793D01*
X170772150Y-89522150D01*
X170852793Y-89412882D01*
X170883224Y-89325913D01*
X170923944Y-89269141D01*
X170988896Y-89243393D01*
X171057458Y-89256849D01*
X171107861Y-89305236D01*
X171117305Y-89325916D01*
X171147651Y-89412641D01*
X171147653Y-89412645D01*
X171228207Y-89521792D01*
X171337354Y-89602346D01*
X171450000Y-89641761D01*
X171450000Y-89124000D01*
X171469685Y-89056961D01*
X171522489Y-89011206D01*
X171574000Y-89000000D01*
X171826000Y-89000000D01*
X171893039Y-89019685D01*
G37*
%TD.AperFunction*%
%TA.AperFunction,Conductor*%
G36*
X183939429Y-98945185D02*
G01*
X183960071Y-98961819D01*
X184069513Y-99071261D01*
X184069515Y-99071263D01*
X184148737Y-99150485D01*
X184245763Y-99206503D01*
X184353981Y-99235500D01*
X184353982Y-99235500D01*
X184464579Y-99235500D01*
X184531618Y-99255185D01*
X184575062Y-99303203D01*
X184618619Y-99388687D01*
X184631006Y-99412998D01*
X184737441Y-99559494D01*
X184737445Y-99559499D01*
X184865500Y-99687554D01*
X184865505Y-99687558D01*
X184925698Y-99731290D01*
X185012006Y-99793996D01*
X185117484Y-99847740D01*
X185173360Y-99876211D01*
X185173363Y-99876212D01*
X185259476Y-99904191D01*
X185345591Y-99932171D01*
X185418639Y-99943740D01*
X185505678Y-99957527D01*
X185568813Y-99987456D01*
X185605744Y-100046768D01*
X185604746Y-100116631D01*
X185566136Y-100174863D01*
X185505678Y-100202473D01*
X185345589Y-100227829D01*
X185173363Y-100283787D01*
X185173360Y-100283788D01*
X185012002Y-100366006D01*
X184865505Y-100472441D01*
X184865500Y-100472445D01*
X184737445Y-100600500D01*
X184737441Y-100600505D01*
X184631004Y-100747004D01*
X184613215Y-100781917D01*
X184565240Y-100832713D01*
X184497419Y-100849507D01*
X184431284Y-100826969D01*
X184415050Y-100813302D01*
X184261265Y-100659517D01*
X184261263Y-100659515D01*
X184164237Y-100603497D01*
X184056018Y-100574500D01*
X184056017Y-100574500D01*
X183806079Y-100574500D01*
X183773300Y-100564875D01*
X183740381Y-100555665D01*
X183739658Y-100554996D01*
X183739040Y-100554815D01*
X183713414Y-100532896D01*
X183709659Y-100528673D01*
X183672150Y-100477850D01*
X183649802Y-100461357D01*
X183641192Y-100451673D01*
X183631581Y-100431323D01*
X183617971Y-100413396D01*
X183614082Y-100401371D01*
X183607862Y-100378157D01*
X183596503Y-100335763D01*
X183540485Y-100238737D01*
X183461263Y-100159515D01*
X183064428Y-99762680D01*
X183030943Y-99701357D01*
X183035927Y-99631665D01*
X183064428Y-99587318D01*
X183263060Y-99388687D01*
X183521444Y-99130303D01*
X183555573Y-99108860D01*
X183554663Y-99107137D01*
X183562879Y-99102794D01*
X183562882Y-99102793D01*
X183672150Y-99022150D01*
X183706308Y-98975866D01*
X183710289Y-98972844D01*
X183712366Y-98968297D01*
X183737841Y-98951924D01*
X183761956Y-98933616D01*
X183768085Y-98932488D01*
X183771144Y-98930523D01*
X183806079Y-98925500D01*
X183872390Y-98925500D01*
X183939429Y-98945185D01*
G37*
%TD.AperFunction*%
%TA.AperFunction,Conductor*%
G36*
X186912630Y-96333875D02*
G01*
X186970863Y-96372485D01*
X186998977Y-96436448D01*
X187000000Y-96452341D01*
X187000000Y-98624457D01*
X186980315Y-98691496D01*
X186927511Y-98737251D01*
X186858353Y-98747195D01*
X186794797Y-98718170D01*
X186757023Y-98659392D01*
X186753527Y-98643855D01*
X186745513Y-98593263D01*
X186737171Y-98540591D01*
X186682814Y-98373294D01*
X186681212Y-98368363D01*
X186681211Y-98368360D01*
X186652740Y-98312484D01*
X186598996Y-98207006D01*
X186575076Y-98174083D01*
X186492558Y-98060505D01*
X186492554Y-98060500D01*
X186364499Y-97932445D01*
X186364494Y-97932441D01*
X186217997Y-97826006D01*
X186217996Y-97826005D01*
X186217994Y-97826004D01*
X186166300Y-97799664D01*
X186056639Y-97743788D01*
X186056636Y-97743787D01*
X185884410Y-97687828D01*
X185722720Y-97662219D01*
X185659585Y-97632289D01*
X185622654Y-97572978D01*
X185623652Y-97503115D01*
X185662262Y-97444883D01*
X185722721Y-97417273D01*
X185884292Y-97391683D01*
X186056444Y-97335748D01*
X186056452Y-97335745D01*
X186217730Y-97253568D01*
X186233532Y-97242085D01*
X186233533Y-97242085D01*
X185744410Y-96752962D01*
X185807993Y-96735925D01*
X185922007Y-96670099D01*
X186015099Y-96577007D01*
X186080925Y-96462993D01*
X186097962Y-96399409D01*
X186587085Y-96888532D01*
X186598568Y-96872730D01*
X186680745Y-96711452D01*
X186680748Y-96711444D01*
X186736682Y-96539293D01*
X186753527Y-96432943D01*
X186783456Y-96369809D01*
X186842767Y-96332877D01*
X186912630Y-96333875D01*
G37*
%TD.AperFunction*%
%TA.AperFunction,Conductor*%
G36*
X181161575Y-88545185D02*
G01*
X181207330Y-88597989D01*
X181217274Y-88667147D01*
X181211578Y-88690454D01*
X181202850Y-88715395D01*
X181202850Y-88715399D01*
X181200000Y-88745793D01*
X181200000Y-88750000D01*
X181676000Y-88750000D01*
X181743039Y-88769685D01*
X181788794Y-88822489D01*
X181800000Y-88874000D01*
X181800000Y-89000000D01*
X181926000Y-89000000D01*
X181993039Y-89019685D01*
X182038794Y-89072489D01*
X182050000Y-89124000D01*
X182050000Y-89641760D01*
X182162645Y-89602346D01*
X182271792Y-89521792D01*
X182352346Y-89412645D01*
X182382693Y-89325917D01*
X182423414Y-89269141D01*
X182488367Y-89243393D01*
X182556929Y-89256849D01*
X182607332Y-89305236D01*
X182616776Y-89325916D01*
X182647124Y-89412645D01*
X182647207Y-89412882D01*
X182727850Y-89522150D01*
X182837118Y-89602793D01*
X182879845Y-89617744D01*
X182965299Y-89647646D01*
X182995730Y-89650500D01*
X182995734Y-89650500D01*
X183404270Y-89650500D01*
X183434699Y-89647646D01*
X183434701Y-89647646D01*
X183513361Y-89620121D01*
X183562882Y-89602793D01*
X183672150Y-89522150D01*
X183752793Y-89412882D01*
X183775219Y-89348790D01*
X183797646Y-89284701D01*
X183797646Y-89284699D01*
X183800500Y-89254269D01*
X183800500Y-89199500D01*
X183820185Y-89132461D01*
X183872989Y-89086706D01*
X183924500Y-89075500D01*
X184340501Y-89075500D01*
X184407540Y-89095185D01*
X184453295Y-89147989D01*
X184464501Y-89199500D01*
X184464501Y-89544856D01*
X184464502Y-89544882D01*
X184467413Y-89569987D01*
X184467415Y-89569991D01*
X184512793Y-89672764D01*
X184512794Y-89672765D01*
X184592235Y-89752206D01*
X184695009Y-89797585D01*
X184720135Y-89800500D01*
X185457873Y-89800499D01*
X185524910Y-89820183D01*
X185570665Y-89872987D01*
X185580609Y-89942146D01*
X185551584Y-90005702D01*
X185492806Y-90043476D01*
X185477270Y-90046972D01*
X185345589Y-90067829D01*
X185173363Y-90123787D01*
X185173360Y-90123788D01*
X185012002Y-90206006D01*
X184865505Y-90312441D01*
X184865500Y-90312445D01*
X184737445Y-90440500D01*
X184737441Y-90440505D01*
X184631006Y-90587001D01*
X184613712Y-90620943D01*
X184575062Y-90696796D01*
X184527090Y-90747591D01*
X184464579Y-90764500D01*
X183453981Y-90764500D01*
X183399654Y-90779056D01*
X183399654Y-90779057D01*
X183345763Y-90793497D01*
X183345762Y-90793497D01*
X183345760Y-90793498D01*
X183277538Y-90832887D01*
X183215538Y-90849500D01*
X182995730Y-90849500D01*
X182965300Y-90852353D01*
X182965298Y-90852353D01*
X182837119Y-90897206D01*
X182837117Y-90897207D01*
X182727850Y-90977850D01*
X182647207Y-91087117D01*
X182616776Y-91174084D01*
X182576054Y-91230859D01*
X182511101Y-91256606D01*
X182442540Y-91243149D01*
X182392137Y-91194762D01*
X182382693Y-91174082D01*
X182352346Y-91087354D01*
X182271792Y-90978207D01*
X182162644Y-90897653D01*
X182050000Y-90858237D01*
X182050000Y-92141760D01*
X182162643Y-92102347D01*
X182245768Y-92040997D01*
X182311397Y-92017026D01*
X182379568Y-92032341D01*
X182428636Y-92082081D01*
X182443024Y-92150453D01*
X182439178Y-92172860D01*
X182413150Y-92270000D01*
X182399500Y-92320943D01*
X182399500Y-92479057D01*
X182437127Y-92619481D01*
X182440423Y-92631783D01*
X182440426Y-92631790D01*
X182519475Y-92768709D01*
X182519479Y-92768714D01*
X182519480Y-92768716D01*
X182631284Y-92880520D01*
X182631286Y-92880521D01*
X182631290Y-92880524D01*
X182768209Y-92959573D01*
X182768216Y-92959577D01*
X182920943Y-93000500D01*
X182920945Y-93000500D01*
X183079055Y-93000500D01*
X183079057Y-93000500D01*
X183231784Y-92959577D01*
X183368716Y-92880520D01*
X183480520Y-92768716D01*
X183559577Y-92631784D01*
X183600500Y-92479057D01*
X183600500Y-92365644D01*
X183601133Y-92353131D01*
X183602140Y-92343195D01*
X183625500Y-92256018D01*
X183625500Y-92143981D01*
X183625500Y-92112903D01*
X183626133Y-92106663D01*
X183637039Y-92079878D01*
X183645185Y-92052137D01*
X183650753Y-92046197D01*
X183652482Y-92041952D01*
X183659092Y-92037303D01*
X183666383Y-92029525D01*
X183665579Y-92028721D01*
X183672146Y-92022152D01*
X183672150Y-92022150D01*
X183752793Y-91912882D01*
X183775219Y-91848790D01*
X183797646Y-91784701D01*
X183797646Y-91784699D01*
X183800500Y-91754269D01*
X183800500Y-91739500D01*
X183820185Y-91672461D01*
X183872989Y-91626706D01*
X183924500Y-91615500D01*
X184464579Y-91615500D01*
X184531618Y-91635185D01*
X184575062Y-91683203D01*
X184611271Y-91754266D01*
X184631006Y-91792998D01*
X184737441Y-91939494D01*
X184737445Y-91939499D01*
X184865500Y-92067554D01*
X184865505Y-92067558D01*
X184955486Y-92132932D01*
X185012006Y-92173996D01*
X185117484Y-92227740D01*
X185173360Y-92256211D01*
X185173363Y-92256212D01*
X185259476Y-92284191D01*
X185345591Y-92312171D01*
X185418639Y-92323740D01*
X185505678Y-92337527D01*
X185568813Y-92367456D01*
X185605744Y-92426768D01*
X185604746Y-92496631D01*
X185566136Y-92554863D01*
X185505678Y-92582473D01*
X185345589Y-92607829D01*
X185173363Y-92663787D01*
X185173360Y-92663788D01*
X185012002Y-92746006D01*
X184865505Y-92852441D01*
X184865500Y-92852445D01*
X184737445Y-92980500D01*
X184737441Y-92980505D01*
X184631006Y-93127001D01*
X184624772Y-93139237D01*
X184575062Y-93236796D01*
X184527090Y-93287591D01*
X184464579Y-93304500D01*
X183413982Y-93304500D01*
X183305763Y-93333497D01*
X183298253Y-93336608D01*
X183297721Y-93335324D01*
X183244820Y-93349500D01*
X182995730Y-93349500D01*
X182965300Y-93352353D01*
X182965298Y-93352353D01*
X182837119Y-93397206D01*
X182837117Y-93397207D01*
X182727850Y-93477850D01*
X182647207Y-93587117D01*
X182616776Y-93674084D01*
X182576054Y-93730859D01*
X182511101Y-93756606D01*
X182442540Y-93743149D01*
X182392137Y-93694762D01*
X182382693Y-93674082D01*
X182352346Y-93587354D01*
X182271792Y-93478207D01*
X182162644Y-93397653D01*
X182050000Y-93358237D01*
X182050000Y-94641760D01*
X182162645Y-94602346D01*
X182271792Y-94521792D01*
X182352346Y-94412645D01*
X182352347Y-94412643D01*
X182382692Y-94325919D01*
X182397727Y-94304954D01*
X182409388Y-94281939D01*
X182417757Y-94277027D01*
X182423413Y-94269142D01*
X182447399Y-94259633D01*
X182469649Y-94246577D01*
X182479343Y-94246970D01*
X182488365Y-94243394D01*
X182513683Y-94248362D01*
X182539461Y-94249408D01*
X182547404Y-94254980D01*
X182556927Y-94256849D01*
X182575539Y-94274716D01*
X182596660Y-94289533D01*
X182603092Y-94301168D01*
X182607330Y-94305236D01*
X182614523Y-94319973D01*
X182615734Y-94322937D01*
X182647207Y-94412882D01*
X182659024Y-94428894D01*
X182664867Y-94443194D01*
X182666920Y-94463199D01*
X182673819Y-94482088D01*
X182670413Y-94497244D01*
X182672000Y-94512699D01*
X182662911Y-94530637D01*
X182658504Y-94550258D01*
X182657466Y-94552092D01*
X182590423Y-94668215D01*
X182590423Y-94668216D01*
X182549500Y-94820943D01*
X182549500Y-94979057D01*
X182579977Y-95092797D01*
X182590423Y-95131783D01*
X182590426Y-95131790D01*
X182669475Y-95268709D01*
X182669479Y-95268714D01*
X182669480Y-95268716D01*
X182781284Y-95380520D01*
X182781286Y-95380521D01*
X182781290Y-95380524D01*
X182867887Y-95430520D01*
X182918216Y-95459577D01*
X183070943Y-95500500D01*
X183070945Y-95500500D01*
X183229055Y-95500500D01*
X183229057Y-95500500D01*
X183381784Y-95459577D01*
X183518716Y-95380520D01*
X183630520Y-95268716D01*
X183709577Y-95131784D01*
X183750500Y-94979057D01*
X183750500Y-94820943D01*
X183709577Y-94668216D01*
X183686425Y-94628115D01*
X183669953Y-94560219D01*
X183692805Y-94494192D01*
X183693967Y-94492588D01*
X183752793Y-94412882D01*
X183780747Y-94332994D01*
X183797646Y-94284701D01*
X183797646Y-94284699D01*
X183799220Y-94267921D01*
X183825078Y-94203013D01*
X183881924Y-94162388D01*
X183922678Y-94155500D01*
X184464579Y-94155500D01*
X184531618Y-94175185D01*
X184575062Y-94223203D01*
X184612752Y-94297173D01*
X184631006Y-94332998D01*
X184737441Y-94479494D01*
X184737445Y-94479499D01*
X184865503Y-94607557D01*
X185000426Y-94705582D01*
X185012006Y-94713996D01*
X185117484Y-94767740D01*
X185173360Y-94796211D01*
X185173363Y-94796212D01*
X185249486Y-94820945D01*
X185345591Y-94852171D01*
X185465038Y-94871089D01*
X185507279Y-94877780D01*
X185570414Y-94907709D01*
X185607345Y-94967021D01*
X185606347Y-95036883D01*
X185567737Y-95095116D01*
X185507279Y-95122726D01*
X185345706Y-95148317D01*
X185173555Y-95204251D01*
X185173547Y-95204254D01*
X185012269Y-95286432D01*
X184996466Y-95297912D01*
X184996466Y-95297913D01*
X185485591Y-95787037D01*
X185422007Y-95804075D01*
X185307993Y-95869901D01*
X185214901Y-95962993D01*
X185149075Y-96077007D01*
X185132037Y-96140590D01*
X184642913Y-95651466D01*
X184642912Y-95651466D01*
X184631432Y-95667269D01*
X184549254Y-95828547D01*
X184549251Y-95828555D01*
X184493317Y-96000706D01*
X184465000Y-96179493D01*
X184465000Y-96360506D01*
X184493317Y-96539293D01*
X184549251Y-96711444D01*
X184549252Y-96711447D01*
X184631431Y-96872730D01*
X184642913Y-96888532D01*
X184642913Y-96888533D01*
X185132037Y-96399409D01*
X185149075Y-96462993D01*
X185214901Y-96577007D01*
X185307993Y-96670099D01*
X185422007Y-96735925D01*
X185485590Y-96752962D01*
X184996466Y-97242085D01*
X184996466Y-97242086D01*
X185012267Y-97253566D01*
X185012275Y-97253571D01*
X185173552Y-97335747D01*
X185173555Y-97335748D01*
X185345706Y-97391682D01*
X185507279Y-97417273D01*
X185570413Y-97447202D01*
X185607345Y-97506513D01*
X185606347Y-97576376D01*
X185567738Y-97634609D01*
X185507280Y-97662219D01*
X185345589Y-97687829D01*
X185173363Y-97743787D01*
X185173360Y-97743788D01*
X185012002Y-97826006D01*
X184865505Y-97932441D01*
X184865500Y-97932445D01*
X184737445Y-98060500D01*
X184737441Y-98060505D01*
X184631007Y-98207000D01*
X184628738Y-98210703D01*
X184576922Y-98257574D01*
X184507992Y-98268992D01*
X184443831Y-98241330D01*
X184435334Y-98233586D01*
X184361265Y-98159517D01*
X184361263Y-98159515D01*
X184264237Y-98103497D01*
X184156018Y-98074500D01*
X184156017Y-98074500D01*
X183806079Y-98074500D01*
X183739040Y-98054815D01*
X183706308Y-98024133D01*
X183672151Y-97977851D01*
X183672150Y-97977850D01*
X183562882Y-97897207D01*
X183562880Y-97897206D01*
X183434700Y-97852353D01*
X183404270Y-97849500D01*
X183404266Y-97849500D01*
X182995734Y-97849500D01*
X182995730Y-97849500D01*
X182965300Y-97852353D01*
X182965298Y-97852353D01*
X182837119Y-97897206D01*
X182837117Y-97897207D01*
X182727850Y-97977850D01*
X182647207Y-98087117D01*
X182616776Y-98174084D01*
X182576054Y-98230859D01*
X182511101Y-98256606D01*
X182442540Y-98243149D01*
X182392137Y-98194762D01*
X182382693Y-98174082D01*
X182352346Y-98087354D01*
X182271792Y-97978207D01*
X182162644Y-97897653D01*
X182050000Y-97858237D01*
X182050000Y-98376000D01*
X182030315Y-98443039D01*
X181977511Y-98488794D01*
X181926000Y-98500000D01*
X181674000Y-98500000D01*
X181606961Y-98480315D01*
X181561206Y-98427511D01*
X181550000Y-98376000D01*
X181550000Y-97858237D01*
X181549999Y-97858237D01*
X181437355Y-97897653D01*
X181328207Y-97978207D01*
X181247653Y-98087354D01*
X181202850Y-98215395D01*
X181202850Y-98215399D01*
X181200000Y-98245793D01*
X181200000Y-98248890D01*
X181180315Y-98315929D01*
X181127511Y-98361684D01*
X181058353Y-98371628D01*
X180994797Y-98342603D01*
X180988319Y-98336571D01*
X180911265Y-98259517D01*
X180911263Y-98259515D01*
X180834845Y-98215395D01*
X180814239Y-98203498D01*
X180814238Y-98203497D01*
X180814237Y-98203497D01*
X180706018Y-98174500D01*
X180706017Y-98174500D01*
X180399500Y-98174500D01*
X180332461Y-98154815D01*
X180286706Y-98102011D01*
X180275500Y-98050500D01*
X180275499Y-97193482D01*
X180271698Y-97169481D01*
X180260646Y-97099696D01*
X180203050Y-96986658D01*
X180203046Y-96986654D01*
X180203045Y-96986652D01*
X180113347Y-96896954D01*
X180113344Y-96896952D01*
X180113342Y-96896950D01*
X180036517Y-96857805D01*
X180000301Y-96839352D01*
X179906524Y-96824500D01*
X179643482Y-96824500D01*
X179549693Y-96839354D01*
X179549691Y-96839355D01*
X179506293Y-96861468D01*
X179437624Y-96874364D01*
X179393706Y-96861468D01*
X179356581Y-96842552D01*
X179350303Y-96839353D01*
X179350299Y-96839352D01*
X179256524Y-96824500D01*
X178993482Y-96824500D01*
X178899693Y-96839354D01*
X178899691Y-96839355D01*
X178856293Y-96861468D01*
X178787624Y-96874364D01*
X178743706Y-96861468D01*
X178706581Y-96842552D01*
X178700303Y-96839353D01*
X178700299Y-96839352D01*
X178606524Y-96824500D01*
X178343482Y-96824500D01*
X178249693Y-96839354D01*
X178249691Y-96839355D01*
X178206293Y-96861468D01*
X178137624Y-96874364D01*
X178093706Y-96861468D01*
X178056581Y-96842552D01*
X178050303Y-96839353D01*
X178050299Y-96839352D01*
X177956524Y-96824500D01*
X177693482Y-96824500D01*
X177599693Y-96839354D01*
X177599691Y-96839355D01*
X177556293Y-96861468D01*
X177487624Y-96874364D01*
X177443706Y-96861468D01*
X177406581Y-96842552D01*
X177400303Y-96839353D01*
X177400299Y-96839352D01*
X177306524Y-96824500D01*
X177043482Y-96824500D01*
X176949693Y-96839354D01*
X176949691Y-96839355D01*
X176906293Y-96861468D01*
X176837624Y-96874364D01*
X176793706Y-96861468D01*
X176756581Y-96842552D01*
X176750303Y-96839353D01*
X176750299Y-96839352D01*
X176656524Y-96824500D01*
X176393471Y-96824500D01*
X176389983Y-96824775D01*
X176388679Y-96824500D01*
X176388610Y-96824501D01*
X176388610Y-96824486D01*
X176321608Y-96810401D01*
X176272885Y-96763156D01*
X176243030Y-96711447D01*
X176215485Y-96663737D01*
X176136263Y-96584515D01*
X174691263Y-95139515D01*
X174594237Y-95083497D01*
X174486018Y-95054500D01*
X174486017Y-95054500D01*
X174171156Y-95054500D01*
X174104117Y-95034815D01*
X174058362Y-94982011D01*
X174048418Y-94912853D01*
X174061525Y-94872561D01*
X174063851Y-94868158D01*
X174063850Y-94868158D01*
X174063852Y-94868157D01*
X174107710Y-94742819D01*
X174110500Y-94713066D01*
X174110500Y-94326934D01*
X174109847Y-94319973D01*
X174107710Y-94297185D01*
X174107710Y-94297181D01*
X174107708Y-94297177D01*
X174107708Y-94297173D01*
X174063852Y-94171844D01*
X174063852Y-94171843D01*
X174013141Y-94103132D01*
X173989171Y-94037505D01*
X174004486Y-93969335D01*
X174053540Y-93920943D01*
X175949500Y-93920943D01*
X175949500Y-94079057D01*
X175988125Y-94223205D01*
X175990423Y-94231783D01*
X175990426Y-94231790D01*
X176069475Y-94368709D01*
X176069479Y-94368714D01*
X176069480Y-94368716D01*
X176181284Y-94480520D01*
X176181286Y-94480521D01*
X176181290Y-94480524D01*
X176295432Y-94546423D01*
X176318216Y-94559577D01*
X176470943Y-94600500D01*
X176470945Y-94600500D01*
X176629055Y-94600500D01*
X176629057Y-94600500D01*
X176781784Y-94559577D01*
X176918716Y-94480520D01*
X177030520Y-94368716D01*
X177109577Y-94231784D01*
X177150500Y-94079057D01*
X177150500Y-94066697D01*
X177150834Y-94065558D01*
X177150521Y-94064413D01*
X177160657Y-94032104D01*
X177170185Y-93999658D01*
X177171081Y-93998881D01*
X177171437Y-93997747D01*
X177197446Y-93976035D01*
X177222989Y-93953903D01*
X177224163Y-93953734D01*
X177225075Y-93952973D01*
X177242396Y-93946925D01*
X177381784Y-93909577D01*
X177518716Y-93830520D01*
X177630520Y-93718716D01*
X177709577Y-93581784D01*
X177750500Y-93429057D01*
X177750500Y-93299499D01*
X177770185Y-93232460D01*
X177822989Y-93186705D01*
X177874500Y-93175499D01*
X177956517Y-93175499D01*
X177956518Y-93175499D01*
X178050304Y-93160646D01*
X178093705Y-93138531D01*
X178162372Y-93125635D01*
X178206292Y-93138530D01*
X178249694Y-93160645D01*
X178249698Y-93160647D01*
X178343474Y-93175499D01*
X178343475Y-93175499D01*
X178343481Y-93175500D01*
X178373388Y-93175499D01*
X178440425Y-93195182D01*
X178486182Y-93247984D01*
X178496127Y-93317143D01*
X178467104Y-93380699D01*
X178461070Y-93387180D01*
X177488737Y-94359515D01*
X177409517Y-94438734D01*
X177409513Y-94438740D01*
X177353498Y-94535760D01*
X177353497Y-94535763D01*
X177324500Y-94643982D01*
X177324500Y-95074902D01*
X177304815Y-95141941D01*
X177288181Y-95162583D01*
X177269481Y-95181282D01*
X177269475Y-95181290D01*
X177190426Y-95318209D01*
X177190423Y-95318216D01*
X177149500Y-95470943D01*
X177149500Y-95629057D01*
X177187266Y-95770000D01*
X177190423Y-95781783D01*
X177190426Y-95781790D01*
X177269475Y-95918709D01*
X177269479Y-95918714D01*
X177269480Y-95918716D01*
X177381284Y-96030520D01*
X177381286Y-96030521D01*
X177381290Y-96030524D01*
X177480251Y-96087658D01*
X177518216Y-96109577D01*
X177670943Y-96150500D01*
X177670945Y-96150500D01*
X177829055Y-96150500D01*
X177829057Y-96150500D01*
X177981784Y-96109577D01*
X178118716Y-96030520D01*
X178230520Y-95918716D01*
X178309577Y-95781784D01*
X178346923Y-95642404D01*
X178383287Y-95582746D01*
X178446134Y-95552217D01*
X178466697Y-95550500D01*
X178629055Y-95550500D01*
X178629057Y-95550500D01*
X178781784Y-95509577D01*
X178918716Y-95430520D01*
X179030520Y-95318716D01*
X179109577Y-95181784D01*
X179150500Y-95029057D01*
X179150500Y-95002610D01*
X179170185Y-94935571D01*
X179186819Y-94914929D01*
X179847552Y-94254196D01*
X181200001Y-94254196D01*
X181202851Y-94284606D01*
X181247653Y-94412645D01*
X181328207Y-94521792D01*
X181437354Y-94602346D01*
X181550000Y-94641761D01*
X181550000Y-94250000D01*
X181200001Y-94250000D01*
X181200001Y-94254196D01*
X179847552Y-94254196D01*
X179990791Y-94110957D01*
X180041584Y-94060164D01*
X180115485Y-93986263D01*
X180171503Y-93889237D01*
X180200500Y-93781018D01*
X180200500Y-93745793D01*
X181200000Y-93745793D01*
X181200000Y-93750000D01*
X181550000Y-93750000D01*
X181550000Y-93358237D01*
X181549999Y-93358237D01*
X181437355Y-93397653D01*
X181328207Y-93478207D01*
X181247653Y-93587354D01*
X181202850Y-93715395D01*
X181202850Y-93715399D01*
X181200000Y-93745793D01*
X180200500Y-93745793D01*
X180200500Y-93668981D01*
X180200500Y-93048115D01*
X180214015Y-92991821D01*
X180260646Y-92900304D01*
X180260646Y-92900302D01*
X180260647Y-92900301D01*
X180275499Y-92806524D01*
X180275499Y-92806523D01*
X180275500Y-92806519D01*
X180275499Y-91754196D01*
X181200001Y-91754196D01*
X181202851Y-91784606D01*
X181247653Y-91912645D01*
X181328207Y-92021792D01*
X181437354Y-92102346D01*
X181550000Y-92141761D01*
X181550000Y-91750000D01*
X181200001Y-91750000D01*
X181200001Y-91754196D01*
X180275499Y-91754196D01*
X180275499Y-91468482D01*
X180260646Y-91374696D01*
X180203050Y-91261658D01*
X180203047Y-91261655D01*
X180203045Y-91261652D01*
X180187186Y-91245793D01*
X181200000Y-91245793D01*
X181200000Y-91250000D01*
X181550000Y-91250000D01*
X181550000Y-90858237D01*
X181549999Y-90858237D01*
X181437355Y-90897653D01*
X181328207Y-90978207D01*
X181247653Y-91087354D01*
X181202850Y-91215395D01*
X181202850Y-91215399D01*
X181200000Y-91245793D01*
X180187186Y-91245793D01*
X180113347Y-91171954D01*
X180113344Y-91171952D01*
X180113342Y-91171950D01*
X180005990Y-91117251D01*
X180000301Y-91114352D01*
X179906524Y-91099500D01*
X179643482Y-91099500D01*
X179549693Y-91114354D01*
X179549691Y-91114355D01*
X179506293Y-91136468D01*
X179437624Y-91149364D01*
X179422773Y-91146957D01*
X179407581Y-91143538D01*
X179350304Y-91114354D01*
X179256519Y-91099500D01*
X179211906Y-91099500D01*
X179198460Y-91096474D01*
X179179478Y-91085931D01*
X179158647Y-91079815D01*
X179149539Y-91069304D01*
X179137378Y-91062550D01*
X179127108Y-91043417D01*
X179112892Y-91027011D01*
X179110912Y-91013244D01*
X179104334Y-91000989D01*
X179106038Y-90979344D01*
X179102948Y-90957853D01*
X179107912Y-90939752D01*
X179107473Y-90939635D01*
X179109577Y-90931784D01*
X179150500Y-90779057D01*
X179150500Y-90620943D01*
X179109577Y-90468216D01*
X179051843Y-90368216D01*
X179030524Y-90331290D01*
X179030518Y-90331282D01*
X178918717Y-90219481D01*
X178918709Y-90219475D01*
X178781790Y-90140426D01*
X178781786Y-90140424D01*
X178781784Y-90140423D01*
X178629057Y-90099500D01*
X178522878Y-90099500D01*
X178455839Y-90079815D01*
X178410084Y-90027011D01*
X178403359Y-90003590D01*
X178402603Y-90003793D01*
X178371541Y-89887868D01*
X178359577Y-89843216D01*
X178334915Y-89800499D01*
X178280524Y-89706290D01*
X178280518Y-89706282D01*
X178168717Y-89594481D01*
X178168709Y-89594475D01*
X178031790Y-89515426D01*
X178031786Y-89515424D01*
X178031784Y-89515423D01*
X177879057Y-89474500D01*
X177720943Y-89474500D01*
X177568216Y-89515423D01*
X177568209Y-89515426D01*
X177431290Y-89594475D01*
X177431282Y-89594481D01*
X177319481Y-89706282D01*
X177319475Y-89706290D01*
X177240426Y-89843209D01*
X177240423Y-89843216D01*
X177199500Y-89995943D01*
X177199500Y-90154057D01*
X177220195Y-90231290D01*
X177240423Y-90306783D01*
X177240426Y-90306790D01*
X177319475Y-90443709D01*
X177319481Y-90443717D01*
X177363181Y-90487417D01*
X177396666Y-90548740D01*
X177399500Y-90575098D01*
X177399500Y-90975500D01*
X177379815Y-91042539D01*
X177327011Y-91088294D01*
X177275501Y-91099500D01*
X177043482Y-91099500D01*
X176949693Y-91114354D01*
X176949691Y-91114355D01*
X176906293Y-91136468D01*
X176837624Y-91149364D01*
X176793706Y-91136468D01*
X176755990Y-91117251D01*
X176750303Y-91114353D01*
X176750299Y-91114352D01*
X176656524Y-91099500D01*
X176393482Y-91099500D01*
X176299694Y-91114354D01*
X176255741Y-91136749D01*
X176187072Y-91149644D01*
X176143155Y-91136748D01*
X176100145Y-91114833D01*
X176075000Y-91110851D01*
X176075000Y-91274966D01*
X176072449Y-91283651D01*
X176073738Y-91292612D01*
X176061485Y-91331260D01*
X176039353Y-91374695D01*
X176039352Y-91374698D01*
X176024500Y-91468475D01*
X176024500Y-91468480D01*
X176024500Y-91468481D01*
X176024501Y-92806518D01*
X176036221Y-92880520D01*
X176039354Y-92900304D01*
X176039354Y-92900305D01*
X176043903Y-92909232D01*
X176061484Y-92943737D01*
X176061992Y-92946440D01*
X176063794Y-92948520D01*
X176075000Y-93000031D01*
X176075000Y-93177002D01*
X176094225Y-93206453D01*
X176099500Y-93242236D01*
X176099500Y-93550069D01*
X176079815Y-93617108D01*
X176073875Y-93625557D01*
X176069475Y-93631290D01*
X175990426Y-93768209D01*
X175990423Y-93768216D01*
X175949500Y-93920943D01*
X174053540Y-93920943D01*
X174054226Y-93920266D01*
X174112912Y-93905500D01*
X174776016Y-93905500D01*
X174776018Y-93905500D01*
X174884237Y-93876503D01*
X174981263Y-93820485D01*
X175565485Y-93236263D01*
X175570195Y-93228104D01*
X175620760Y-93179887D01*
X175667008Y-93170971D01*
X175675000Y-93164146D01*
X175675000Y-93000031D01*
X175677376Y-92990133D01*
X175676262Y-92982384D01*
X175682534Y-92968649D01*
X175688515Y-92943737D01*
X175710646Y-92900304D01*
X175710646Y-92900302D01*
X175710647Y-92900301D01*
X175725499Y-92806524D01*
X175725499Y-92806523D01*
X175725500Y-92806519D01*
X175725499Y-91468482D01*
X175710646Y-91374696D01*
X175688515Y-91331261D01*
X175687811Y-91328332D01*
X175686206Y-91326479D01*
X175684472Y-91314422D01*
X175675000Y-91274967D01*
X175675000Y-91110851D01*
X175649855Y-91114833D01*
X175649854Y-91114834D01*
X175606843Y-91136749D01*
X175538174Y-91149644D01*
X175494256Y-91136748D01*
X175450304Y-91114353D01*
X175450301Y-91114352D01*
X175356524Y-91099500D01*
X175093482Y-91099500D01*
X175012519Y-91112323D01*
X174999696Y-91114354D01*
X174886658Y-91171950D01*
X174886657Y-91171951D01*
X174886652Y-91171954D01*
X174796954Y-91261652D01*
X174796951Y-91261657D01*
X174796950Y-91261658D01*
X174785744Y-91283651D01*
X174739352Y-91374698D01*
X174724500Y-91468475D01*
X174724500Y-92806523D01*
X174724883Y-92811380D01*
X174724535Y-92811407D01*
X174725020Y-92812705D01*
X174718674Y-92841875D01*
X174714842Y-92871476D01*
X174711020Y-92877063D01*
X174710169Y-92880978D01*
X174689018Y-92909232D01*
X174580072Y-93018180D01*
X174518749Y-93051666D01*
X174492390Y-93054500D01*
X174170584Y-93054500D01*
X174103545Y-93034815D01*
X174057790Y-92982011D01*
X174047846Y-92912853D01*
X174060954Y-92872559D01*
X174063401Y-92867927D01*
X174097668Y-92770000D01*
X173624000Y-92770000D01*
X173556961Y-92750315D01*
X173511206Y-92697511D01*
X173500000Y-92646000D01*
X173500000Y-92520000D01*
X173374000Y-92520000D01*
X173306961Y-92500315D01*
X173261206Y-92447511D01*
X173250000Y-92396000D01*
X173250000Y-92270000D01*
X173750000Y-92270000D01*
X174097668Y-92270000D01*
X174063403Y-92172077D01*
X173984641Y-92065358D01*
X173877919Y-91986594D01*
X173752727Y-91942787D01*
X173752725Y-91942786D01*
X173750000Y-91942530D01*
X173750000Y-92270000D01*
X173250000Y-92270000D01*
X173250000Y-91960422D01*
X173188926Y-91926230D01*
X173165857Y-91902668D01*
X173142018Y-91879868D01*
X173141449Y-91877738D01*
X173140046Y-91876305D01*
X173136570Y-91859476D01*
X173125500Y-91818032D01*
X173125500Y-89254196D01*
X181200001Y-89254196D01*
X181202851Y-89284606D01*
X181247653Y-89412645D01*
X181328207Y-89521792D01*
X181437354Y-89602346D01*
X181550000Y-89641761D01*
X181550000Y-89250000D01*
X181200001Y-89250000D01*
X181200001Y-89254196D01*
X173125500Y-89254196D01*
X173125500Y-88649500D01*
X173145185Y-88582461D01*
X173197989Y-88536706D01*
X173249500Y-88525500D01*
X181094536Y-88525500D01*
X181161575Y-88545185D01*
G37*
%TD.AperFunction*%
%TA.AperFunction,Conductor*%
G36*
X186912631Y-93797076D02*
G01*
X186970863Y-93835686D01*
X186998977Y-93899650D01*
X187000000Y-93915542D01*
X187000000Y-96087658D01*
X186980315Y-96154697D01*
X186927511Y-96200452D01*
X186858353Y-96210396D01*
X186794797Y-96181371D01*
X186757023Y-96122593D01*
X186753527Y-96107056D01*
X186736682Y-96000706D01*
X186680748Y-95828555D01*
X186680747Y-95828552D01*
X186598571Y-95667275D01*
X186598566Y-95667267D01*
X186587085Y-95651466D01*
X186097962Y-96140589D01*
X186080925Y-96077007D01*
X186015099Y-95962993D01*
X185922007Y-95869901D01*
X185807993Y-95804075D01*
X185744409Y-95787037D01*
X186233533Y-95297913D01*
X186217730Y-95286431D01*
X186056447Y-95204252D01*
X186056444Y-95204251D01*
X185884293Y-95148317D01*
X185722720Y-95122726D01*
X185659585Y-95092797D01*
X185622654Y-95033485D01*
X185623652Y-94963623D01*
X185662262Y-94905390D01*
X185722720Y-94877780D01*
X185737270Y-94875475D01*
X185884409Y-94852171D01*
X186056639Y-94796211D01*
X186217994Y-94713996D01*
X186281006Y-94668215D01*
X186364497Y-94607557D01*
X186364498Y-94607554D01*
X186364501Y-94607553D01*
X186492553Y-94479501D01*
X186598996Y-94332994D01*
X186681211Y-94171639D01*
X186737171Y-93999409D01*
X186752045Y-93905499D01*
X186753527Y-93896144D01*
X186783456Y-93833009D01*
X186842768Y-93796078D01*
X186912631Y-93797076D01*
G37*
%TD.AperFunction*%
%TD*%
%TA.AperFunction,Conductor*%
%TO.N,GND*%
G36*
X147569366Y-87519685D02*
G01*
X147615121Y-87572489D01*
X147625065Y-87641647D01*
X147605428Y-87692892D01*
X147586132Y-87721768D01*
X147586131Y-87721770D01*
X147574500Y-87780247D01*
X147574500Y-88833987D01*
X147554815Y-88901026D01*
X147502011Y-88946781D01*
X147432853Y-88956725D01*
X147432624Y-88956692D01*
X147414078Y-88953990D01*
X147383260Y-88949500D01*
X147383256Y-88949500D01*
X147161189Y-88949500D01*
X147094150Y-88929815D01*
X147073508Y-88913181D01*
X146599864Y-88439537D01*
X146599862Y-88439535D01*
X146562750Y-88418108D01*
X146525640Y-88396682D01*
X146484246Y-88385591D01*
X146442853Y-88374500D01*
X145442853Y-88374500D01*
X145357147Y-88374500D01*
X145274359Y-88396682D01*
X145200138Y-88439535D01*
X145200135Y-88439537D01*
X144539537Y-89100135D01*
X144539535Y-89100138D01*
X144496682Y-89174361D01*
X144480983Y-89232951D01*
X144480983Y-89232952D01*
X144476186Y-89250856D01*
X144474500Y-89257147D01*
X144474500Y-91957147D01*
X144474500Y-92042853D01*
X144483114Y-92075000D01*
X144496682Y-92125640D01*
X144508326Y-92145807D01*
X144539535Y-92199862D01*
X144539537Y-92199864D01*
X144663181Y-92323508D01*
X144677884Y-92350435D01*
X144694477Y-92376254D01*
X144695368Y-92382454D01*
X144696666Y-92384831D01*
X144699500Y-92411189D01*
X144699500Y-92447518D01*
X144695275Y-92479610D01*
X144685904Y-92514585D01*
X144674500Y-92557145D01*
X144674500Y-95442852D01*
X144696682Y-95525640D01*
X144697038Y-95526256D01*
X144739535Y-95599862D01*
X144739537Y-95599864D01*
X145502492Y-96362819D01*
X145535977Y-96424142D01*
X145530993Y-96493834D01*
X145489121Y-96549767D01*
X145423657Y-96574184D01*
X145414811Y-96574500D01*
X145057147Y-96574500D01*
X144974359Y-96596682D01*
X144900138Y-96639535D01*
X144900135Y-96639537D01*
X144537181Y-97002492D01*
X144475858Y-97035977D01*
X144406166Y-97030993D01*
X144350233Y-96989121D01*
X144325816Y-96923657D01*
X144325500Y-96914811D01*
X144325500Y-93752855D01*
X144325501Y-93752842D01*
X144325501Y-93657149D01*
X144312874Y-93610027D01*
X144303318Y-93574362D01*
X144303317Y-93574361D01*
X144303317Y-93574359D01*
X144303315Y-93574356D01*
X144283325Y-93539734D01*
X144277785Y-93530138D01*
X144260465Y-93500138D01*
X144199862Y-93439535D01*
X144199859Y-93439533D01*
X143171515Y-92411189D01*
X142149319Y-91388992D01*
X142115834Y-91327669D01*
X142113000Y-91301311D01*
X142113000Y-90748380D01*
X142132685Y-90681341D01*
X142180702Y-90637897D01*
X142255751Y-90599658D01*
X142349658Y-90505751D01*
X142409951Y-90387420D01*
X142409951Y-90387418D01*
X142409952Y-90387417D01*
X142425500Y-90289251D01*
X142425500Y-89710748D01*
X142409952Y-89612582D01*
X142406778Y-89606353D01*
X142349658Y-89494249D01*
X142349654Y-89494245D01*
X142349653Y-89494243D01*
X142255756Y-89400346D01*
X142255753Y-89400344D01*
X142255751Y-89400342D01*
X142137420Y-89340049D01*
X142137419Y-89340048D01*
X142137416Y-89340047D01*
X142137417Y-89340047D01*
X142039251Y-89324500D01*
X142039246Y-89324500D01*
X141535754Y-89324500D01*
X141535749Y-89324500D01*
X141437582Y-89340047D01*
X141368985Y-89375000D01*
X141319249Y-89400342D01*
X141319248Y-89400343D01*
X141319243Y-89400346D01*
X141225346Y-89494243D01*
X141225343Y-89494248D01*
X141225342Y-89494249D01*
X141217868Y-89508918D01*
X141165047Y-89612582D01*
X141149500Y-89710748D01*
X141149500Y-90289251D01*
X141165047Y-90387417D01*
X141171685Y-90400444D01*
X141225342Y-90505751D01*
X141225344Y-90505753D01*
X141225346Y-90505756D01*
X141319243Y-90599653D01*
X141319247Y-90599656D01*
X141319249Y-90599658D01*
X141394297Y-90637897D01*
X141405359Y-90648344D01*
X141419203Y-90654667D01*
X141430243Y-90671846D01*
X141445091Y-90685869D01*
X141449332Y-90701550D01*
X141456977Y-90713445D01*
X141462000Y-90748380D01*
X141462000Y-90929823D01*
X141442315Y-90996862D01*
X141389511Y-91042617D01*
X141320353Y-91052561D01*
X141256797Y-91023536D01*
X141250319Y-91017504D01*
X141207316Y-90974501D01*
X141207314Y-90974499D01*
X141129436Y-90929536D01*
X141093187Y-90908607D01*
X141020787Y-90889208D01*
X140965892Y-90874499D01*
X140834108Y-90874499D01*
X140706812Y-90908607D01*
X140592686Y-90974499D01*
X140592683Y-90974501D01*
X140499502Y-91067682D01*
X140499500Y-91067685D01*
X140433608Y-91181811D01*
X140399500Y-91309107D01*
X140399500Y-91440890D01*
X140400561Y-91448952D01*
X140398588Y-91449211D01*
X140397179Y-91508300D01*
X140366751Y-91558219D01*
X140064534Y-91860437D01*
X140021682Y-91934657D01*
X140017839Y-91949000D01*
X140015026Y-91959500D01*
X140015026Y-91959501D01*
X140015025Y-91959500D01*
X139999500Y-92017443D01*
X139999500Y-92318145D01*
X139979815Y-92385184D01*
X139927011Y-92430939D01*
X139857853Y-92440883D01*
X139851309Y-92439762D01*
X139800000Y-92429556D01*
X139800000Y-93670440D01*
X139857299Y-93659044D01*
X139930659Y-93610027D01*
X139997336Y-93589149D01*
X140064716Y-93607633D01*
X140068440Y-93610027D01*
X140138964Y-93657149D01*
X140142505Y-93659515D01*
X140142508Y-93659515D01*
X140142509Y-93659516D01*
X140169533Y-93664891D01*
X140222867Y-93675500D01*
X140427132Y-93675499D01*
X140507495Y-93659515D01*
X140581109Y-93610326D01*
X140647786Y-93589449D01*
X140715167Y-93607933D01*
X140718880Y-93610320D01*
X140769514Y-93644153D01*
X140792505Y-93659515D01*
X140792509Y-93659516D01*
X140819533Y-93664891D01*
X140872867Y-93675500D01*
X141077132Y-93675499D01*
X141157495Y-93659515D01*
X141248624Y-93598624D01*
X141309515Y-93507495D01*
X141325500Y-93427133D01*
X141325499Y-92885099D01*
X141345183Y-92818061D01*
X141387497Y-92777714D01*
X141417314Y-92760500D01*
X141510500Y-92667314D01*
X141576392Y-92553186D01*
X141610500Y-92425892D01*
X141610500Y-92294108D01*
X141576392Y-92166814D01*
X141510500Y-92052686D01*
X141417314Y-91959500D01*
X141372468Y-91933608D01*
X141307476Y-91896084D01*
X141294244Y-91882206D01*
X141277857Y-91872254D01*
X141270632Y-91857442D01*
X141259261Y-91845516D01*
X141255632Y-91826689D01*
X141247227Y-91809456D01*
X141249157Y-91793089D01*
X141246039Y-91776909D01*
X141253165Y-91759108D01*
X141255411Y-91740067D01*
X141268606Y-91720536D01*
X141272007Y-91712044D01*
X141273732Y-91709901D01*
X141277544Y-91705268D01*
X141300500Y-91682313D01*
X141310051Y-91665769D01*
X141316564Y-91657856D01*
X141337320Y-91643759D01*
X141355483Y-91626439D01*
X141365732Y-91624463D01*
X141374364Y-91618601D01*
X141399446Y-91617963D01*
X141424089Y-91613213D01*
X141433777Y-91617091D01*
X141444211Y-91616826D01*
X141465659Y-91629852D01*
X141488955Y-91639177D01*
X141497779Y-91649360D01*
X141503929Y-91653095D01*
X141507679Y-91660783D01*
X141519694Y-91674648D01*
X141520759Y-91676492D01*
X141527035Y-91687362D01*
X142600173Y-92760500D01*
X143638181Y-93798507D01*
X143652884Y-93825434D01*
X143669477Y-93851253D01*
X143670368Y-93857453D01*
X143671666Y-93859830D01*
X143674500Y-93886188D01*
X143674500Y-93923514D01*
X143654815Y-93990553D01*
X143602011Y-94036308D01*
X143532853Y-94046252D01*
X143501276Y-94035328D01*
X143500700Y-94036720D01*
X143493188Y-94033609D01*
X143493187Y-94033608D01*
X143493186Y-94033608D01*
X143365892Y-93999500D01*
X143365891Y-93999500D01*
X143311189Y-93999500D01*
X143244150Y-93979815D01*
X143223508Y-93963181D01*
X143024864Y-93764537D01*
X143024862Y-93764535D01*
X142987308Y-93742853D01*
X142950640Y-93721682D01*
X142891533Y-93705845D01*
X142867853Y-93699500D01*
X142867852Y-93699500D01*
X142453925Y-93699500D01*
X142419515Y-93692655D01*
X142419473Y-93692867D01*
X142327135Y-93674500D01*
X141572870Y-93674500D01*
X141492504Y-93690485D01*
X141492502Y-93690486D01*
X141469515Y-93705845D01*
X141469510Y-93705849D01*
X141401376Y-93751376D01*
X141355849Y-93819510D01*
X141355845Y-93819515D01*
X141340485Y-93842503D01*
X141340483Y-93842509D01*
X141324500Y-93922863D01*
X141324500Y-94127129D01*
X141328950Y-94149500D01*
X141340485Y-94207495D01*
X141359882Y-94236525D01*
X141389673Y-94281109D01*
X141410551Y-94347786D01*
X141392067Y-94415167D01*
X141389673Y-94418891D01*
X141340484Y-94492505D01*
X141340483Y-94492509D01*
X141324500Y-94572863D01*
X141324500Y-94777129D01*
X141327628Y-94792853D01*
X141340485Y-94857495D01*
X141368553Y-94899502D01*
X141389673Y-94931109D01*
X141410551Y-94997786D01*
X141392067Y-95065167D01*
X141389679Y-95068880D01*
X141379698Y-95083817D01*
X141340484Y-95142505D01*
X141340483Y-95142509D01*
X141324500Y-95222863D01*
X141324500Y-95427129D01*
X141327628Y-95442853D01*
X141340485Y-95507495D01*
X141353021Y-95526256D01*
X141389973Y-95581559D01*
X141410850Y-95648236D01*
X141392365Y-95715616D01*
X141389972Y-95719339D01*
X141340955Y-95792697D01*
X141340953Y-95792701D01*
X141329556Y-95849999D01*
X141329557Y-95850000D01*
X141826000Y-95850000D01*
X141834685Y-95852550D01*
X141843647Y-95851262D01*
X141867687Y-95862240D01*
X141893039Y-95869685D01*
X141898966Y-95876525D01*
X141907203Y-95880287D01*
X141921492Y-95902521D01*
X141938794Y-95922489D01*
X141941081Y-95933003D01*
X141944977Y-95939065D01*
X141950000Y-95974000D01*
X141950000Y-95975000D01*
X141951000Y-95975000D01*
X142018039Y-95994685D01*
X142063794Y-96047489D01*
X142075000Y-96099000D01*
X142075000Y-96325000D01*
X142327089Y-96325000D01*
X142327092Y-96324999D01*
X142407297Y-96309046D01*
X142407298Y-96309045D01*
X142498263Y-96248264D01*
X142561762Y-96153231D01*
X142615374Y-96108426D01*
X142684699Y-96099718D01*
X142747727Y-96129872D01*
X142772251Y-96160119D01*
X142784008Y-96180482D01*
X142799500Y-96207314D01*
X142892686Y-96300500D01*
X143006814Y-96366392D01*
X143134108Y-96400500D01*
X143134110Y-96400500D01*
X143265890Y-96400500D01*
X143265892Y-96400500D01*
X143393186Y-96366392D01*
X143488501Y-96311361D01*
X143556399Y-96294889D01*
X143622426Y-96317741D01*
X143665617Y-96372662D01*
X143674500Y-96418749D01*
X143674500Y-96713811D01*
X143654815Y-96780850D01*
X143638181Y-96801492D01*
X141876492Y-98563181D01*
X141815169Y-98596666D01*
X141809462Y-98597768D01*
X141799208Y-98599500D01*
X141734108Y-98599500D01*
X141623091Y-98629246D01*
X141617304Y-98630224D01*
X141588198Y-98626765D01*
X141558896Y-98626068D01*
X141553906Y-98622690D01*
X141547923Y-98621980D01*
X141525309Y-98603335D01*
X141501033Y-98586905D01*
X141498600Y-98581314D01*
X141494013Y-98577533D01*
X141485798Y-98551899D01*
X141478611Y-98535387D01*
X141476724Y-98535938D01*
X141474068Y-98526829D01*
X141474068Y-98526827D01*
X141424065Y-98419596D01*
X141364075Y-98359606D01*
X141331982Y-98304019D01*
X141313318Y-98234362D01*
X141307913Y-98225000D01*
X141270469Y-98160144D01*
X141270463Y-98160136D01*
X140897507Y-97787180D01*
X140864022Y-97725857D01*
X140869006Y-97656165D01*
X140910878Y-97600232D01*
X140976342Y-97575815D01*
X140985175Y-97575499D01*
X141077132Y-97575499D01*
X141157495Y-97559515D01*
X141248624Y-97498624D01*
X141309515Y-97407495D01*
X141325500Y-97327133D01*
X141325499Y-96572868D01*
X141309515Y-96492505D01*
X141248624Y-96401376D01*
X141157495Y-96340485D01*
X141157494Y-96340484D01*
X141157493Y-96340484D01*
X141157490Y-96340483D01*
X141077135Y-96324500D01*
X140872870Y-96324500D01*
X140792504Y-96340485D01*
X140718891Y-96389673D01*
X140652214Y-96410551D01*
X140584833Y-96392067D01*
X140581109Y-96389673D01*
X140507494Y-96340484D01*
X140507490Y-96340483D01*
X140427135Y-96324500D01*
X140222870Y-96324500D01*
X140142504Y-96340485D01*
X140068891Y-96389673D01*
X140002214Y-96410551D01*
X139934833Y-96392067D01*
X139931109Y-96389673D01*
X139857494Y-96340484D01*
X139857490Y-96340483D01*
X139777135Y-96324500D01*
X139572870Y-96324500D01*
X139492504Y-96340485D01*
X139418891Y-96389673D01*
X139352214Y-96410551D01*
X139284833Y-96392067D01*
X139281109Y-96389673D01*
X139207494Y-96340484D01*
X139207490Y-96340483D01*
X139127135Y-96324500D01*
X138922870Y-96324500D01*
X138842504Y-96340485D01*
X138842502Y-96340486D01*
X138819515Y-96355845D01*
X138819510Y-96355849D01*
X138751376Y-96401376D01*
X138705849Y-96469510D01*
X138705845Y-96469515D01*
X138690485Y-96492503D01*
X138690483Y-96492509D01*
X138674500Y-96572862D01*
X138674500Y-97000500D01*
X138671949Y-97009185D01*
X138673238Y-97018147D01*
X138662259Y-97042187D01*
X138654815Y-97067539D01*
X138647974Y-97073466D01*
X138644213Y-97081703D01*
X138621978Y-97095992D01*
X138602011Y-97113294D01*
X138591496Y-97115581D01*
X138585435Y-97119477D01*
X138550500Y-97124500D01*
X138516188Y-97124500D01*
X138449149Y-97104815D01*
X138428507Y-97088181D01*
X137936819Y-96596492D01*
X137903334Y-96535169D01*
X137900500Y-96508811D01*
X137900500Y-96449499D01*
X137920185Y-96382460D01*
X137972989Y-96336705D01*
X138024500Y-96325499D01*
X138427130Y-96325499D01*
X138427132Y-96325499D01*
X138507495Y-96309515D01*
X138598624Y-96248624D01*
X138659515Y-96157495D01*
X138670951Y-96100000D01*
X141329556Y-96100000D01*
X141340953Y-96157298D01*
X141340954Y-96157299D01*
X141356929Y-96181207D01*
X141468791Y-96293069D01*
X141492701Y-96309045D01*
X141492702Y-96309046D01*
X141572907Y-96324999D01*
X141572911Y-96325000D01*
X141825000Y-96325000D01*
X141825000Y-96100000D01*
X141329556Y-96100000D01*
X138670951Y-96100000D01*
X138675500Y-96077133D01*
X138675499Y-95872868D01*
X138659515Y-95792505D01*
X138610326Y-95718890D01*
X138589449Y-95652214D01*
X138607933Y-95584833D01*
X138610327Y-95581109D01*
X138622901Y-95562291D01*
X138659515Y-95507495D01*
X138675500Y-95427133D01*
X138675499Y-95222868D01*
X138659515Y-95142505D01*
X138610326Y-95068890D01*
X138589449Y-95002214D01*
X138607933Y-94934833D01*
X138610327Y-94931109D01*
X138626338Y-94907147D01*
X138659515Y-94857495D01*
X138675500Y-94777133D01*
X138675499Y-94572868D01*
X138659515Y-94492505D01*
X138610326Y-94418890D01*
X138589449Y-94352214D01*
X138607933Y-94284833D01*
X138610327Y-94281109D01*
X138659515Y-94207495D01*
X138675500Y-94127133D01*
X138675499Y-93922868D01*
X138659515Y-93842505D01*
X138598624Y-93751376D01*
X138530483Y-93705845D01*
X138530482Y-93705844D01*
X138507497Y-93690486D01*
X138507490Y-93690483D01*
X138427137Y-93674500D01*
X138427133Y-93674500D01*
X137839500Y-93674500D01*
X137772461Y-93654815D01*
X137726706Y-93602011D01*
X137715500Y-93550500D01*
X137715500Y-91196189D01*
X137724144Y-91166748D01*
X137730668Y-91136762D01*
X137734422Y-91131746D01*
X137735185Y-91129150D01*
X137751819Y-91108508D01*
X137803508Y-91056819D01*
X137864831Y-91023334D01*
X137891189Y-91020500D01*
X138164317Y-91020500D01*
X138187134Y-91017496D01*
X138213173Y-91014068D01*
X138320404Y-90964065D01*
X138404065Y-90880404D01*
X138404065Y-90880403D01*
X138411736Y-90872733D01*
X138414564Y-90875561D01*
X138452977Y-90844843D01*
X138522474Y-90837635D01*
X138584835Y-90869143D01*
X138588093Y-90872903D01*
X138588264Y-90872733D01*
X138595935Y-90880404D01*
X138679596Y-90964065D01*
X138786827Y-91014068D01*
X138786833Y-91014068D01*
X138792187Y-91015630D01*
X138851040Y-91053287D01*
X138880191Y-91116785D01*
X138870384Y-91185963D01*
X138824734Y-91238858D01*
X138819489Y-91242063D01*
X138702686Y-91309500D01*
X138702683Y-91309502D01*
X138609502Y-91402683D01*
X138609500Y-91402686D01*
X138543608Y-91516812D01*
X138514764Y-91624463D01*
X138509500Y-91644108D01*
X138509500Y-91775892D01*
X138515826Y-91799500D01*
X138543608Y-91903187D01*
X138545514Y-91906488D01*
X138609500Y-92017314D01*
X138609502Y-92017316D01*
X138663181Y-92070995D01*
X138696666Y-92132318D01*
X138699500Y-92158676D01*
X138699500Y-92546074D01*
X138692656Y-92580485D01*
X138692867Y-92580527D01*
X138674500Y-92672862D01*
X138674500Y-93427129D01*
X138690485Y-93507496D01*
X138705844Y-93530482D01*
X138705845Y-93530483D01*
X138751376Y-93598624D01*
X138819516Y-93644154D01*
X138842505Y-93659515D01*
X138842509Y-93659516D01*
X138869533Y-93664891D01*
X138922867Y-93675500D01*
X139127132Y-93675499D01*
X139207495Y-93659515D01*
X139281558Y-93610026D01*
X139348235Y-93589149D01*
X139415616Y-93607633D01*
X139419340Y-93610027D01*
X139492700Y-93659044D01*
X139550000Y-93670441D01*
X139550000Y-92429557D01*
X139549999Y-92429556D01*
X139498691Y-92439762D01*
X139477707Y-92437884D01*
X139456853Y-92440883D01*
X139443605Y-92434833D01*
X139429099Y-92433535D01*
X139412461Y-92420609D01*
X139393297Y-92411858D01*
X139385422Y-92399605D01*
X139373922Y-92390671D01*
X139366913Y-92370803D01*
X139355523Y-92353080D01*
X139351988Y-92328496D01*
X139350678Y-92324782D01*
X139350500Y-92318145D01*
X139350500Y-92128676D01*
X139370185Y-92061637D01*
X139386819Y-92040995D01*
X139393580Y-92034234D01*
X139410500Y-92017314D01*
X139476392Y-91903186D01*
X139510500Y-91775892D01*
X139510500Y-91644108D01*
X139476392Y-91516814D01*
X139410500Y-91402686D01*
X139317314Y-91309500D01*
X139203186Y-91243608D01*
X139203185Y-91243607D01*
X139200510Y-91242063D01*
X139152295Y-91191496D01*
X139139073Y-91122888D01*
X139165041Y-91058024D01*
X139221955Y-91017496D01*
X139227815Y-91015629D01*
X139233162Y-91014069D01*
X139233173Y-91014068D01*
X139340404Y-90964065D01*
X139424065Y-90880404D01*
X139424068Y-90880397D01*
X139426099Y-90877498D01*
X139430445Y-90874023D01*
X139431736Y-90872733D01*
X139431879Y-90872876D01*
X139480674Y-90833871D01*
X139511493Y-90825679D01*
X139512850Y-90825500D01*
X139512853Y-90825500D01*
X139595639Y-90803318D01*
X139669862Y-90760465D01*
X139739256Y-90691070D01*
X139800577Y-90657585D01*
X139852661Y-90660192D01*
X139852941Y-90658425D01*
X139960749Y-90675500D01*
X139960754Y-90675500D01*
X140464251Y-90675500D01*
X140562417Y-90659952D01*
X140562418Y-90659951D01*
X140562420Y-90659951D01*
X140680751Y-90599658D01*
X140774658Y-90505751D01*
X140834951Y-90387420D01*
X140834951Y-90387418D01*
X140834952Y-90387417D01*
X140850500Y-90289251D01*
X140850500Y-89710748D01*
X140834952Y-89612582D01*
X140831778Y-89606353D01*
X140774658Y-89494249D01*
X140774654Y-89494245D01*
X140774653Y-89494243D01*
X140680756Y-89400346D01*
X140680753Y-89400344D01*
X140680751Y-89400342D01*
X140562420Y-89340049D01*
X140562419Y-89340048D01*
X140562416Y-89340047D01*
X140562417Y-89340047D01*
X140464251Y-89324500D01*
X140464246Y-89324500D01*
X139960754Y-89324500D01*
X139960749Y-89324500D01*
X139862582Y-89340047D01*
X139793985Y-89375000D01*
X139744249Y-89400342D01*
X139744248Y-89400343D01*
X139744243Y-89400346D01*
X139650346Y-89494243D01*
X139650343Y-89494248D01*
X139650342Y-89494249D01*
X139642868Y-89508918D01*
X139590047Y-89612582D01*
X139574500Y-89710748D01*
X139574500Y-89883811D01*
X139565855Y-89913248D01*
X139559332Y-89943239D01*
X139555577Y-89948254D01*
X139554815Y-89950850D01*
X139538180Y-89971493D01*
X139492398Y-90017274D01*
X139431075Y-90050758D01*
X139361383Y-90045773D01*
X139350462Y-90040033D01*
X139350236Y-90040520D01*
X139340404Y-90035935D01*
X139233173Y-89985932D01*
X139233171Y-89985931D01*
X139233172Y-89985931D01*
X139184317Y-89979500D01*
X139184316Y-89979500D01*
X138835684Y-89979500D01*
X138835683Y-89979500D01*
X138786828Y-89985931D01*
X138679595Y-90035935D01*
X138588264Y-90127267D01*
X138585440Y-90124443D01*
X138546958Y-90155183D01*
X138477458Y-90162352D01*
X138415114Y-90130808D01*
X138411901Y-90127101D01*
X138411736Y-90127267D01*
X138320404Y-90035935D01*
X138213173Y-89985932D01*
X138213171Y-89985931D01*
X138213172Y-89985931D01*
X138164317Y-89979500D01*
X138164316Y-89979500D01*
X137815684Y-89979500D01*
X137815683Y-89979500D01*
X137766828Y-89985931D01*
X137659595Y-90035935D01*
X137575935Y-90119595D01*
X137525931Y-90226828D01*
X137519500Y-90275683D01*
X137519500Y-90368811D01*
X137499815Y-90435850D01*
X137483181Y-90456492D01*
X137129537Y-90810135D01*
X137129535Y-90810138D01*
X137088967Y-90880404D01*
X137086682Y-90884361D01*
X137074578Y-90929535D01*
X137074578Y-90929536D01*
X137074577Y-90929535D01*
X137064500Y-90967145D01*
X137064500Y-92387172D01*
X137044815Y-92454211D01*
X136992011Y-92499966D01*
X136922853Y-92509910D01*
X136859297Y-92480885D01*
X136833113Y-92449173D01*
X136826595Y-92437884D01*
X136800500Y-92392686D01*
X136707314Y-92299500D01*
X136624630Y-92251762D01*
X136593187Y-92233608D01*
X136493177Y-92206811D01*
X136465892Y-92199500D01*
X136334108Y-92199500D01*
X136206814Y-92233608D01*
X136206813Y-92233608D01*
X136206811Y-92233609D01*
X136199300Y-92236720D01*
X136198288Y-92234277D01*
X136143080Y-92247662D01*
X136077057Y-92224799D01*
X136033875Y-92169871D01*
X136025000Y-92123803D01*
X136025000Y-92075000D01*
X135374000Y-92075000D01*
X135365314Y-92072449D01*
X135356353Y-92073738D01*
X135332312Y-92062759D01*
X135306961Y-92055315D01*
X135301033Y-92048474D01*
X135292797Y-92044713D01*
X135278507Y-92022478D01*
X135261206Y-92002511D01*
X135258918Y-91991996D01*
X135255023Y-91985935D01*
X135250000Y-91951000D01*
X135250000Y-91949000D01*
X135269685Y-91881961D01*
X135322489Y-91836206D01*
X135374000Y-91825000D01*
X136025000Y-91825000D01*
X136025000Y-91775000D01*
X135374000Y-91775000D01*
X135365314Y-91772449D01*
X135356353Y-91773738D01*
X135332312Y-91762759D01*
X135306961Y-91755315D01*
X135301033Y-91748474D01*
X135292797Y-91744713D01*
X135278507Y-91722478D01*
X135261206Y-91702511D01*
X135258918Y-91691996D01*
X135255023Y-91685935D01*
X135250000Y-91651000D01*
X135250000Y-91649000D01*
X135269685Y-91581961D01*
X135322489Y-91536206D01*
X135374000Y-91525000D01*
X136025000Y-91525000D01*
X136025000Y-91480301D01*
X136024999Y-91480297D01*
X136013397Y-91421966D01*
X136013396Y-91421965D01*
X135969191Y-91355808D01*
X135903034Y-91311603D01*
X135903033Y-91311602D01*
X135861573Y-91303356D01*
X135799662Y-91270971D01*
X135765088Y-91210256D01*
X135768827Y-91140486D01*
X135782662Y-91112848D01*
X135850328Y-91011578D01*
X135850335Y-91011566D01*
X135903098Y-90884184D01*
X135903100Y-90884176D01*
X135918850Y-90805000D01*
X135504242Y-90805000D01*
X135509556Y-90795796D01*
X135530000Y-90719496D01*
X135530000Y-90640504D01*
X135509556Y-90564204D01*
X135504242Y-90555000D01*
X135918850Y-90555000D01*
X135918850Y-90554999D01*
X135903100Y-90475823D01*
X135903098Y-90475815D01*
X135850335Y-90348433D01*
X135850328Y-90348420D01*
X135773724Y-90233773D01*
X135676226Y-90136275D01*
X135561579Y-90059671D01*
X135561566Y-90059664D01*
X135434186Y-90006902D01*
X135434176Y-90006899D01*
X135298946Y-89980000D01*
X134805000Y-89980000D01*
X134805000Y-90380000D01*
X134555000Y-90380000D01*
X134555000Y-89980000D01*
X134061054Y-89980000D01*
X133925823Y-90006899D01*
X133925813Y-90006902D01*
X133798433Y-90059664D01*
X133798420Y-90059671D01*
X133683773Y-90136275D01*
X133586275Y-90233773D01*
X133509671Y-90348420D01*
X133509664Y-90348433D01*
X133456901Y-90475815D01*
X133456899Y-90475823D01*
X133441149Y-90554999D01*
X133441150Y-90555000D01*
X133855758Y-90555000D01*
X133850444Y-90564204D01*
X133830000Y-90640504D01*
X133830000Y-90719496D01*
X133850444Y-90795796D01*
X133855758Y-90805000D01*
X133441150Y-90805000D01*
X133456899Y-90884176D01*
X133456901Y-90884184D01*
X133509664Y-91011566D01*
X133509671Y-91011579D01*
X133586275Y-91126226D01*
X133683773Y-91223724D01*
X133798420Y-91300328D01*
X133798433Y-91300335D01*
X133931445Y-91355430D01*
X133930750Y-91357107D01*
X133982049Y-91390722D01*
X134010509Y-91454533D01*
X133999953Y-91523600D01*
X133953732Y-91575997D01*
X133949621Y-91578478D01*
X133826635Y-91649485D01*
X133826632Y-91649487D01*
X133719487Y-91756632D01*
X133719485Y-91756635D01*
X133643719Y-91887863D01*
X133607650Y-92022478D01*
X133604500Y-92034234D01*
X133604500Y-92185766D01*
X133619166Y-92240500D01*
X133643719Y-92332136D01*
X133663667Y-92366686D01*
X133719485Y-92463365D01*
X133826635Y-92570515D01*
X133957865Y-92646281D01*
X134104234Y-92685500D01*
X134104236Y-92685500D01*
X134255763Y-92685500D01*
X134255766Y-92685500D01*
X134318408Y-92668715D01*
X134339563Y-92669218D01*
X134360274Y-92664876D01*
X134373791Y-92670033D01*
X134388256Y-92670378D01*
X134405781Y-92682239D01*
X134425553Y-92689783D01*
X134434136Y-92701430D01*
X134446119Y-92709540D01*
X134454449Y-92728992D01*
X134467004Y-92746029D01*
X134470693Y-92766927D01*
X134473623Y-92773769D01*
X134474247Y-92780572D01*
X134474500Y-92784526D01*
X134474500Y-92919748D01*
X134486133Y-92978231D01*
X134486974Y-92979490D01*
X134487780Y-92992082D01*
X134485651Y-93001526D01*
X134485651Y-93024190D01*
X134474500Y-93080252D01*
X134474500Y-93419752D01*
X134483924Y-93467129D01*
X134477697Y-93536720D01*
X134434834Y-93591898D01*
X134368944Y-93615142D01*
X134300947Y-93599074D01*
X134274626Y-93579001D01*
X134135162Y-93439537D01*
X134135160Y-93439535D01*
X134098048Y-93418108D01*
X134060938Y-93396682D01*
X134019544Y-93385591D01*
X133978151Y-93374500D01*
X133357147Y-93374500D01*
X133274362Y-93396682D01*
X133274359Y-93396683D01*
X133234410Y-93419748D01*
X133227773Y-93423580D01*
X133222400Y-93426682D01*
X133200138Y-93439534D01*
X132739537Y-93900135D01*
X132739535Y-93900138D01*
X132696683Y-93974358D01*
X132696682Y-93974360D01*
X132696682Y-93974361D01*
X132680885Y-94033318D01*
X132680884Y-94033317D01*
X132674500Y-94057142D01*
X132674500Y-94992852D01*
X132696682Y-95075640D01*
X132699345Y-95080252D01*
X132739535Y-95149862D01*
X132739537Y-95149864D01*
X133163181Y-95573508D01*
X133196666Y-95634831D01*
X133199500Y-95661189D01*
X133199500Y-95715892D01*
X133213998Y-95770000D01*
X133233608Y-95843187D01*
X133248907Y-95869685D01*
X133299500Y-95957314D01*
X133392686Y-96050500D01*
X133491521Y-96107563D01*
X133493016Y-96108426D01*
X133506814Y-96116392D01*
X133634108Y-96150500D01*
X133634110Y-96150500D01*
X133765890Y-96150500D01*
X133765892Y-96150500D01*
X133893186Y-96116392D01*
X134007314Y-96050500D01*
X134100500Y-95957314D01*
X134166392Y-95843186D01*
X134200500Y-95715892D01*
X134200500Y-95699500D01*
X134203050Y-95690814D01*
X134201762Y-95681853D01*
X134212740Y-95657812D01*
X134220185Y-95632461D01*
X134227025Y-95626533D01*
X134230787Y-95618297D01*
X134253021Y-95604007D01*
X134272989Y-95586706D01*
X134283503Y-95584418D01*
X134289565Y-95580523D01*
X134324500Y-95575500D01*
X134350500Y-95575500D01*
X134417539Y-95595185D01*
X134463294Y-95647989D01*
X134474500Y-95699500D01*
X134474500Y-95919747D01*
X134485651Y-95975810D01*
X134485651Y-96024190D01*
X134474500Y-96080252D01*
X134474500Y-96419747D01*
X134485651Y-96475810D01*
X134485651Y-96524190D01*
X134477356Y-96565892D01*
X134474500Y-96580252D01*
X134474500Y-96919748D01*
X134475278Y-96923657D01*
X134485651Y-96975810D01*
X134487780Y-97007918D01*
X134486974Y-97020509D01*
X134486133Y-97021769D01*
X134474500Y-97080252D01*
X134474500Y-97215472D01*
X134474247Y-97219427D01*
X134463584Y-97248682D01*
X134454815Y-97278548D01*
X134451723Y-97281226D01*
X134450322Y-97285072D01*
X134425536Y-97303918D01*
X134402011Y-97324303D01*
X134397961Y-97324885D01*
X134394704Y-97327362D01*
X134363666Y-97329816D01*
X134332853Y-97334247D01*
X134325837Y-97332807D01*
X134325052Y-97332870D01*
X134324378Y-97332508D01*
X134318408Y-97331284D01*
X134255767Y-97314500D01*
X134255766Y-97314500D01*
X134104234Y-97314500D01*
X133957863Y-97353719D01*
X133826635Y-97429485D01*
X133826632Y-97429487D01*
X133719487Y-97536632D01*
X133719485Y-97536635D01*
X133643719Y-97667863D01*
X133614878Y-97775501D01*
X133604500Y-97814234D01*
X133604500Y-97965766D01*
X133615633Y-98007314D01*
X133643719Y-98112136D01*
X133671434Y-98160138D01*
X133719485Y-98243365D01*
X133826635Y-98350515D01*
X133886065Y-98384827D01*
X133949620Y-98421521D01*
X133997836Y-98472088D01*
X134011058Y-98540695D01*
X133985090Y-98605560D01*
X133931185Y-98643944D01*
X133931445Y-98644570D01*
X133928726Y-98645696D01*
X133928176Y-98646088D01*
X133926342Y-98646683D01*
X133798433Y-98699664D01*
X133798420Y-98699671D01*
X133683773Y-98776275D01*
X133586275Y-98873773D01*
X133509671Y-98988420D01*
X133509664Y-98988433D01*
X133456901Y-99115815D01*
X133456899Y-99115823D01*
X133441149Y-99194999D01*
X133441150Y-99195000D01*
X133855758Y-99195000D01*
X133850444Y-99204204D01*
X133830000Y-99280504D01*
X133830000Y-99359496D01*
X133850444Y-99435796D01*
X133855758Y-99445000D01*
X133441150Y-99445000D01*
X133456899Y-99524176D01*
X133456901Y-99524184D01*
X133509664Y-99651566D01*
X133509671Y-99651579D01*
X133586275Y-99766226D01*
X133683773Y-99863724D01*
X133798420Y-99940328D01*
X133798433Y-99940335D01*
X133925813Y-99993097D01*
X133925823Y-99993100D01*
X134061053Y-100020000D01*
X134555000Y-100020000D01*
X134555000Y-99620000D01*
X134805000Y-99620000D01*
X134805000Y-100020000D01*
X135298946Y-100020000D01*
X135434176Y-99993100D01*
X135434182Y-99993098D01*
X135561571Y-99940332D01*
X135561579Y-99940328D01*
X135676226Y-99863724D01*
X135773724Y-99766226D01*
X135850328Y-99651579D01*
X135850335Y-99651566D01*
X135903098Y-99524184D01*
X135903100Y-99524176D01*
X135918850Y-99445000D01*
X135504242Y-99445000D01*
X135509556Y-99435796D01*
X135530000Y-99359496D01*
X135530000Y-99280504D01*
X135509556Y-99204204D01*
X135504242Y-99195000D01*
X135918850Y-99195000D01*
X135918850Y-99194999D01*
X135903100Y-99115823D01*
X135903098Y-99115815D01*
X135850335Y-98988433D01*
X135850328Y-98988420D01*
X135782662Y-98887151D01*
X135761784Y-98820473D01*
X135780269Y-98753093D01*
X135832247Y-98706403D01*
X135861575Y-98696642D01*
X135903035Y-98688395D01*
X135969191Y-98644191D01*
X136013396Y-98578034D01*
X136013397Y-98578033D01*
X136024999Y-98519702D01*
X136025000Y-98519699D01*
X136025000Y-98475000D01*
X135374000Y-98475000D01*
X135365314Y-98472449D01*
X135356353Y-98473738D01*
X135332312Y-98462759D01*
X135306961Y-98455315D01*
X135301033Y-98448474D01*
X135292797Y-98444713D01*
X135278507Y-98422478D01*
X135261206Y-98402511D01*
X135258918Y-98391996D01*
X135255023Y-98385935D01*
X135250000Y-98351000D01*
X135250000Y-98349000D01*
X135269685Y-98281961D01*
X135322489Y-98236206D01*
X135374000Y-98225000D01*
X136025000Y-98225000D01*
X136025000Y-98175000D01*
X135374000Y-98175000D01*
X135365314Y-98172449D01*
X135356353Y-98173738D01*
X135332312Y-98162759D01*
X135306961Y-98155315D01*
X135301033Y-98148474D01*
X135292797Y-98144713D01*
X135278507Y-98122478D01*
X135261206Y-98102511D01*
X135258918Y-98091996D01*
X135255023Y-98085935D01*
X135250000Y-98051000D01*
X135250000Y-98049000D01*
X135269685Y-97981961D01*
X135322489Y-97936206D01*
X135374000Y-97925000D01*
X136025000Y-97925000D01*
X136025000Y-97880301D01*
X136024999Y-97880297D01*
X136014094Y-97825471D01*
X136013994Y-97822788D01*
X136013369Y-97821492D01*
X136013544Y-97810729D01*
X136012631Y-97786206D01*
X136013549Y-97778706D01*
X136013867Y-97778231D01*
X136025500Y-97719748D01*
X136025500Y-97681132D01*
X136026420Y-97673621D01*
X136037387Y-97648209D01*
X136045185Y-97621656D01*
X136051037Y-97616584D01*
X136054108Y-97609471D01*
X136077077Y-97594020D01*
X136097989Y-97575901D01*
X136110935Y-97571246D01*
X136112083Y-97570475D01*
X136113144Y-97570452D01*
X136117401Y-97568922D01*
X136175639Y-97553318D01*
X136249862Y-97510465D01*
X136323508Y-97436819D01*
X136384831Y-97403334D01*
X136411189Y-97400500D01*
X136465890Y-97400500D01*
X136465892Y-97400500D01*
X136593186Y-97366392D01*
X136707314Y-97300500D01*
X136800500Y-97207314D01*
X136866392Y-97093186D01*
X136895333Y-96985175D01*
X136931697Y-96925516D01*
X136994543Y-96894987D01*
X137063919Y-96903281D01*
X137090594Y-96918894D01*
X137092681Y-96920495D01*
X137092686Y-96920500D01*
X137191521Y-96977563D01*
X137204709Y-96985177D01*
X137206814Y-96986392D01*
X137334108Y-97020500D01*
X137388811Y-97020500D01*
X137455850Y-97040185D01*
X137476492Y-97056819D01*
X138069533Y-97649859D01*
X138069535Y-97649862D01*
X138130138Y-97710465D01*
X138193892Y-97747273D01*
X138204362Y-97753318D01*
X138287147Y-97775501D01*
X138287149Y-97775501D01*
X138380449Y-97775501D01*
X138380465Y-97775500D01*
X138714811Y-97775500D01*
X138781850Y-97795185D01*
X138827605Y-97847989D01*
X138837549Y-97917147D01*
X138808524Y-97980703D01*
X138802492Y-97987181D01*
X138739537Y-98050135D01*
X138739533Y-98050141D01*
X138696681Y-98124362D01*
X138696680Y-98124363D01*
X138687096Y-98160136D01*
X138674500Y-98207145D01*
X138674500Y-98502597D01*
X138665855Y-98532037D01*
X138659332Y-98562024D01*
X138655577Y-98567039D01*
X138654815Y-98569636D01*
X138638181Y-98590278D01*
X138587681Y-98640778D01*
X138526358Y-98674263D01*
X138456666Y-98669279D01*
X138412320Y-98640779D01*
X138368316Y-98596776D01*
X138354381Y-98590278D01*
X138259487Y-98546028D01*
X138259485Y-98546027D01*
X138259486Y-98546027D01*
X138209901Y-98539500D01*
X137790105Y-98539500D01*
X137774386Y-98541569D01*
X137740513Y-98546028D01*
X137740511Y-98546029D01*
X137740509Y-98546029D01*
X137631685Y-98596775D01*
X137570278Y-98658182D01*
X137508954Y-98691666D01*
X137500998Y-98693127D01*
X137491848Y-98694500D01*
X137437147Y-98694500D01*
X137367522Y-98713155D01*
X137360590Y-98714196D01*
X137339849Y-98711344D01*
X137310097Y-98711344D01*
X137265893Y-98699500D01*
X137265892Y-98699500D01*
X137134108Y-98699500D01*
X137006812Y-98733608D01*
X136892686Y-98799500D01*
X136892683Y-98799502D01*
X136799502Y-98892683D01*
X136799500Y-98892686D01*
X136733608Y-99006812D01*
X136704399Y-99115823D01*
X136699500Y-99134108D01*
X136699500Y-99265892D01*
X136715472Y-99325500D01*
X136733608Y-99393187D01*
X136763523Y-99445000D01*
X136799500Y-99507314D01*
X136892686Y-99600500D01*
X137006814Y-99666392D01*
X137134108Y-99700500D01*
X137134110Y-99700500D01*
X137265889Y-99700500D01*
X137265892Y-99700500D01*
X137333909Y-99682275D01*
X137403756Y-99683938D01*
X137461619Y-99723100D01*
X137489123Y-99787329D01*
X137490000Y-99802050D01*
X137490000Y-99855000D01*
X138876000Y-99855000D01*
X138884685Y-99857550D01*
X138893647Y-99856262D01*
X138917687Y-99867240D01*
X138943039Y-99874685D01*
X138948966Y-99881525D01*
X138957203Y-99885287D01*
X138971492Y-99907521D01*
X138988794Y-99927489D01*
X138991081Y-99938003D01*
X138994977Y-99944065D01*
X139000000Y-99979000D01*
X139000000Y-99980000D01*
X139001000Y-99980000D01*
X139068039Y-99999685D01*
X139113794Y-100052489D01*
X139125000Y-100104000D01*
X139125000Y-100460000D01*
X139209833Y-100460000D01*
X139209850Y-100459998D01*
X139259354Y-100453481D01*
X139368024Y-100402807D01*
X139399617Y-100371214D01*
X139460939Y-100337728D01*
X139530631Y-100342712D01*
X139586565Y-100384582D01*
X139597779Y-100402591D01*
X139650342Y-100505751D01*
X139650344Y-100505753D01*
X139650346Y-100505756D01*
X139744243Y-100599653D01*
X139744245Y-100599654D01*
X139744249Y-100599658D01*
X139862580Y-100659951D01*
X139862581Y-100659951D01*
X139862583Y-100659952D01*
X139862582Y-100659952D01*
X139960749Y-100675500D01*
X139960754Y-100675500D01*
X140464251Y-100675500D01*
X140562417Y-100659952D01*
X140562418Y-100659951D01*
X140562420Y-100659951D01*
X140680751Y-100599658D01*
X140774658Y-100505751D01*
X140834951Y-100387420D01*
X140834951Y-100387418D01*
X140834952Y-100387417D01*
X140850500Y-100289251D01*
X140850500Y-99710748D01*
X140834952Y-99612582D01*
X140816711Y-99576782D01*
X140777992Y-99500793D01*
X140777484Y-99498089D01*
X140775684Y-99496011D01*
X140771075Y-99463961D01*
X140765097Y-99432126D01*
X140766131Y-99429576D01*
X140765740Y-99426853D01*
X140779193Y-99397394D01*
X140791373Y-99367385D01*
X140793622Y-99365799D01*
X140794765Y-99363297D01*
X140822008Y-99345788D01*
X140848480Y-99327128D01*
X140851936Y-99326555D01*
X140853543Y-99325523D01*
X140888478Y-99320500D01*
X140932162Y-99320500D01*
X140964249Y-99324723D01*
X140967147Y-99325500D01*
X140967149Y-99325500D01*
X141052851Y-99325500D01*
X141052853Y-99325500D01*
X141055750Y-99324723D01*
X141087838Y-99320500D01*
X141111522Y-99320500D01*
X141178561Y-99340185D01*
X141224316Y-99392989D01*
X141234260Y-99462147D01*
X141222007Y-99500795D01*
X141165047Y-99612582D01*
X141149500Y-99710748D01*
X141149500Y-100289251D01*
X141165047Y-100387417D01*
X141165049Y-100387420D01*
X141225342Y-100505751D01*
X141225344Y-100505753D01*
X141225346Y-100505756D01*
X141319243Y-100599653D01*
X141319245Y-100599654D01*
X141319249Y-100599658D01*
X141437580Y-100659951D01*
X141437581Y-100659951D01*
X141437583Y-100659952D01*
X141437582Y-100659952D01*
X141535749Y-100675500D01*
X141535754Y-100675500D01*
X142039251Y-100675500D01*
X142137417Y-100659952D01*
X142137418Y-100659951D01*
X142137420Y-100659951D01*
X142255751Y-100599658D01*
X142349658Y-100505751D01*
X142409951Y-100387420D01*
X142409951Y-100387418D01*
X142409952Y-100387417D01*
X142425500Y-100289251D01*
X142425500Y-100266780D01*
X145300000Y-100266780D01*
X145300000Y-100375000D01*
X145675000Y-100375000D01*
X145925000Y-100375000D01*
X146299999Y-100375000D01*
X146299999Y-100266782D01*
X146290087Y-100198750D01*
X146238784Y-100093808D01*
X146156188Y-100011212D01*
X146051251Y-99959912D01*
X146051248Y-99959911D01*
X145983220Y-99950000D01*
X145925000Y-99950000D01*
X145925000Y-100375000D01*
X145675000Y-100375000D01*
X145675000Y-99950000D01*
X145674999Y-99949999D01*
X145616787Y-99950000D01*
X145548751Y-99959912D01*
X145443808Y-100011215D01*
X145361212Y-100093811D01*
X145309912Y-100198748D01*
X145309911Y-100198751D01*
X145300000Y-100266780D01*
X142425500Y-100266780D01*
X142425500Y-99710748D01*
X142409952Y-99612582D01*
X142394784Y-99582814D01*
X142349658Y-99494249D01*
X142349654Y-99494245D01*
X142349653Y-99494243D01*
X142290477Y-99435067D01*
X142256992Y-99373744D01*
X142256478Y-99323512D01*
X142260387Y-99303586D01*
X142266392Y-99293186D01*
X142300500Y-99165892D01*
X142300500Y-99099137D01*
X142302820Y-99087313D01*
X142313600Y-99066571D01*
X142320185Y-99044148D01*
X142334469Y-99026422D01*
X142335043Y-99025318D01*
X142335629Y-99024981D01*
X142336814Y-99023511D01*
X142627108Y-98733217D01*
X145300001Y-98733217D01*
X145309912Y-98801249D01*
X145361215Y-98906191D01*
X145443811Y-98988787D01*
X145548747Y-99040086D01*
X145616786Y-99049999D01*
X145925000Y-99049999D01*
X145983218Y-99049999D01*
X146051249Y-99040087D01*
X146156191Y-98988784D01*
X146238787Y-98906188D01*
X146290087Y-98801251D01*
X146290088Y-98801248D01*
X146300000Y-98733219D01*
X146300000Y-98625000D01*
X145925000Y-98625000D01*
X145925000Y-99049999D01*
X145616786Y-99049999D01*
X145674999Y-99049998D01*
X145675000Y-99049998D01*
X145675000Y-98625000D01*
X145300001Y-98625000D01*
X145300001Y-98733217D01*
X142627108Y-98733217D01*
X143504298Y-97856026D01*
X143565619Y-97822543D01*
X143635310Y-97827527D01*
X143691244Y-97869398D01*
X143711751Y-97911614D01*
X143723617Y-97955898D01*
X143733608Y-97993187D01*
X143751367Y-98023946D01*
X143799500Y-98107314D01*
X143892686Y-98200500D01*
X144006814Y-98266392D01*
X144134108Y-98300500D01*
X144134110Y-98300500D01*
X144265890Y-98300500D01*
X144265892Y-98300500D01*
X144391738Y-98266780D01*
X145300000Y-98266780D01*
X145300000Y-98375000D01*
X145675000Y-98375000D01*
X145925000Y-98375000D01*
X146299999Y-98375000D01*
X146299999Y-98266782D01*
X146290087Y-98198750D01*
X146238784Y-98093808D01*
X146156188Y-98011212D01*
X146051251Y-97959912D01*
X146051248Y-97959911D01*
X145983220Y-97950000D01*
X145925000Y-97950000D01*
X145925000Y-98375000D01*
X145675000Y-98375000D01*
X145675000Y-97950000D01*
X145674999Y-97949999D01*
X145616787Y-97950000D01*
X145548751Y-97959912D01*
X145443808Y-98011215D01*
X145361212Y-98093811D01*
X145309912Y-98198748D01*
X145309911Y-98198751D01*
X145300000Y-98266780D01*
X144391738Y-98266780D01*
X144393186Y-98266392D01*
X144507314Y-98200500D01*
X144600500Y-98107314D01*
X144666392Y-97993186D01*
X144700500Y-97865892D01*
X144700500Y-97811189D01*
X144720185Y-97744150D01*
X144736819Y-97723508D01*
X145198508Y-97261819D01*
X145259831Y-97228334D01*
X145286189Y-97225500D01*
X145742851Y-97225500D01*
X145742853Y-97225500D01*
X145825639Y-97203318D01*
X145899862Y-97160465D01*
X146023508Y-97036819D01*
X146084831Y-97003334D01*
X146111189Y-97000500D01*
X146165890Y-97000500D01*
X146165892Y-97000500D01*
X146293186Y-96966392D01*
X146407314Y-96900500D01*
X146500500Y-96807314D01*
X146566392Y-96693186D01*
X146600500Y-96565892D01*
X146600500Y-96434108D01*
X146566392Y-96306814D01*
X146559083Y-96294154D01*
X146517709Y-96222492D01*
X146517708Y-96222490D01*
X146500503Y-96192692D01*
X146500500Y-96192686D01*
X146407314Y-96099500D01*
X146317229Y-96047489D01*
X146293187Y-96033608D01*
X146206807Y-96010463D01*
X146165892Y-95999500D01*
X146165891Y-95999500D01*
X146111189Y-95999500D01*
X146044150Y-95979815D01*
X146023508Y-95963181D01*
X145361819Y-95301492D01*
X145328334Y-95240169D01*
X145325500Y-95213811D01*
X145325500Y-94629591D01*
X145345185Y-94562552D01*
X145397989Y-94516797D01*
X145467147Y-94506853D01*
X145503962Y-94518191D01*
X145548750Y-94540087D01*
X145616786Y-94549999D01*
X145925000Y-94549999D01*
X145983218Y-94549999D01*
X146051249Y-94540087D01*
X146156191Y-94488784D01*
X146238787Y-94406188D01*
X146290087Y-94301251D01*
X146290088Y-94301248D01*
X146300000Y-94233219D01*
X146300000Y-94125000D01*
X145925000Y-94125000D01*
X145925000Y-94549999D01*
X145616786Y-94549999D01*
X145674999Y-94549998D01*
X145675000Y-94549998D01*
X145675000Y-93875000D01*
X145925000Y-93875000D01*
X146299999Y-93875000D01*
X146299999Y-93766782D01*
X146290087Y-93698750D01*
X146238784Y-93593808D01*
X146156188Y-93511212D01*
X146051251Y-93459912D01*
X146051248Y-93459911D01*
X145983220Y-93450000D01*
X145925000Y-93450000D01*
X145925000Y-93875000D01*
X145675000Y-93875000D01*
X145675000Y-93450000D01*
X145674999Y-93449999D01*
X145616787Y-93450000D01*
X145548749Y-93459912D01*
X145503959Y-93481809D01*
X145435086Y-93493567D01*
X145370789Y-93466224D01*
X145331482Y-93408459D01*
X145325500Y-93370408D01*
X145325500Y-92977061D01*
X145345185Y-92910022D01*
X145387500Y-92869674D01*
X145393183Y-92866392D01*
X145393186Y-92866392D01*
X145507314Y-92800500D01*
X145600500Y-92707314D01*
X145666392Y-92593186D01*
X145700500Y-92465892D01*
X145700500Y-92334108D01*
X145666392Y-92206814D01*
X145662533Y-92200130D01*
X145659719Y-92195255D01*
X145653576Y-92169934D01*
X145643743Y-92145807D01*
X145645471Y-92136528D01*
X145643246Y-92127355D01*
X145651767Y-92102733D01*
X145656540Y-92077119D01*
X145664368Y-92066328D01*
X145666099Y-92061328D01*
X145670515Y-92057854D01*
X145675000Y-92051673D01*
X145675000Y-91375000D01*
X145925000Y-91375000D01*
X146299999Y-91375000D01*
X146299999Y-91266782D01*
X146290087Y-91198750D01*
X146238784Y-91093808D01*
X146156188Y-91011212D01*
X146051251Y-90959912D01*
X146051248Y-90959911D01*
X145983220Y-90950000D01*
X145925000Y-90950000D01*
X145925000Y-91375000D01*
X145675000Y-91375000D01*
X145675000Y-90950000D01*
X145674999Y-90949999D01*
X145616787Y-90950000D01*
X145548751Y-90959912D01*
X145443808Y-91011215D01*
X145361214Y-91093809D01*
X145360899Y-91094455D01*
X145360234Y-91095182D01*
X145355244Y-91102172D01*
X145354399Y-91101568D01*
X145313769Y-91146036D01*
X145246235Y-91163948D01*
X145179737Y-91142505D01*
X145135388Y-91088515D01*
X145125500Y-91039991D01*
X145125500Y-89960008D01*
X145145185Y-89892969D01*
X145197989Y-89847214D01*
X145267147Y-89837270D01*
X145330703Y-89866295D01*
X145355061Y-89897958D01*
X145355244Y-89897828D01*
X145358892Y-89902937D01*
X145360901Y-89905549D01*
X145361214Y-89906190D01*
X145443811Y-89988787D01*
X145548747Y-90040086D01*
X145616786Y-90049999D01*
X145925000Y-90049999D01*
X145983218Y-90049999D01*
X146051249Y-90040087D01*
X146156191Y-89988784D01*
X146238787Y-89906188D01*
X146290087Y-89801251D01*
X146290088Y-89801248D01*
X146300000Y-89733219D01*
X146300000Y-89625000D01*
X145925000Y-89625000D01*
X145925000Y-90049999D01*
X145616786Y-90049999D01*
X145674999Y-90049998D01*
X145675000Y-90049998D01*
X145675000Y-89624000D01*
X145677550Y-89615314D01*
X145676262Y-89606353D01*
X145687240Y-89582312D01*
X145694685Y-89556961D01*
X145701525Y-89551033D01*
X145705287Y-89542797D01*
X145727521Y-89528507D01*
X145747489Y-89511206D01*
X145758003Y-89508918D01*
X145764065Y-89505023D01*
X145799000Y-89500000D01*
X145800000Y-89500000D01*
X145800000Y-89499000D01*
X145819685Y-89431961D01*
X145872489Y-89386206D01*
X145924000Y-89375000D01*
X146299999Y-89375000D01*
X146299999Y-89359688D01*
X146306237Y-89338442D01*
X146307817Y-89316354D01*
X146315889Y-89305570D01*
X146319684Y-89292649D01*
X146336417Y-89278149D01*
X146349689Y-89260421D01*
X146362309Y-89255713D01*
X146372488Y-89246894D01*
X146394405Y-89243742D01*
X146415153Y-89236004D01*
X146428313Y-89238866D01*
X146441646Y-89236950D01*
X146461789Y-89246149D01*
X146483426Y-89250856D01*
X146501151Y-89264124D01*
X146505202Y-89265975D01*
X146511680Y-89272007D01*
X146663181Y-89423508D01*
X146696666Y-89484831D01*
X146699500Y-89511189D01*
X146699500Y-89733260D01*
X146709426Y-89801391D01*
X146760803Y-89906485D01*
X146843514Y-89989196D01*
X146843515Y-89989196D01*
X146843517Y-89989198D01*
X146948607Y-90040573D01*
X146982673Y-90045536D01*
X147016739Y-90050500D01*
X147016740Y-90050500D01*
X147383261Y-90050500D01*
X147415703Y-90045773D01*
X147451393Y-90040573D01*
X147556483Y-89989198D01*
X147639198Y-89906483D01*
X147644793Y-89895039D01*
X147691921Y-89843457D01*
X147756193Y-89825500D01*
X147817851Y-89825500D01*
X147817853Y-89825500D01*
X147900639Y-89803318D01*
X147974862Y-89760465D01*
X147998508Y-89736819D01*
X148059831Y-89703334D01*
X148086189Y-89700500D01*
X149376000Y-89700500D01*
X149443039Y-89720185D01*
X149488794Y-89772989D01*
X149500000Y-89824500D01*
X149500000Y-90280368D01*
X149480315Y-90347407D01*
X149427511Y-90393162D01*
X149358353Y-90403106D01*
X149299789Y-90377305D01*
X149299721Y-90377408D01*
X149299139Y-90377019D01*
X149297343Y-90376228D01*
X149294659Y-90374025D01*
X149147479Y-90275684D01*
X149122598Y-90259059D01*
X148931420Y-90179870D01*
X148931412Y-90179868D01*
X148728469Y-90139500D01*
X148728465Y-90139500D01*
X148521535Y-90139500D01*
X148521530Y-90139500D01*
X148318587Y-90179868D01*
X148318579Y-90179870D01*
X148127403Y-90259058D01*
X147955342Y-90374024D01*
X147809024Y-90520342D01*
X147694058Y-90692403D01*
X147635460Y-90833871D01*
X147618632Y-90874499D01*
X147612539Y-90889208D01*
X147610446Y-90888341D01*
X147577679Y-90938316D01*
X147513860Y-90966757D01*
X147461677Y-90958766D01*
X147460595Y-90962270D01*
X147451392Y-90959426D01*
X147383261Y-90949500D01*
X147383260Y-90949500D01*
X147016740Y-90949500D01*
X147016739Y-90949500D01*
X146948608Y-90959426D01*
X146843514Y-91010803D01*
X146760803Y-91093514D01*
X146709426Y-91198608D01*
X146699500Y-91266739D01*
X146699500Y-91588811D01*
X146690855Y-91618251D01*
X146684332Y-91648238D01*
X146680577Y-91653253D01*
X146679815Y-91655850D01*
X146663181Y-91676492D01*
X146576492Y-91763181D01*
X146515169Y-91796666D01*
X146488811Y-91799500D01*
X146425981Y-91799500D01*
X146425981Y-91796492D01*
X146371105Y-91787912D01*
X146318868Y-91741511D01*
X146300000Y-91675760D01*
X146300000Y-91625000D01*
X145925000Y-91625000D01*
X145925000Y-92049999D01*
X145940700Y-92065699D01*
X145954271Y-92069684D01*
X145967586Y-92085050D01*
X145984226Y-92096745D01*
X145990003Y-92110921D01*
X146000026Y-92122488D01*
X146002919Y-92142614D01*
X146010595Y-92161447D01*
X146007791Y-92176494D01*
X146009970Y-92191646D01*
X146007007Y-92206088D01*
X145999500Y-92234108D01*
X145999500Y-92365892D01*
X146014161Y-92420609D01*
X146033608Y-92493187D01*
X146045964Y-92514587D01*
X146099500Y-92607314D01*
X146192686Y-92700500D01*
X146306814Y-92766392D01*
X146434108Y-92800500D01*
X146434110Y-92800500D01*
X146565890Y-92800500D01*
X146565892Y-92800500D01*
X146693186Y-92766392D01*
X146807314Y-92700500D01*
X146900500Y-92607314D01*
X146966392Y-92493186D01*
X147000500Y-92365892D01*
X147000500Y-92311189D01*
X147009144Y-92281748D01*
X147015668Y-92251762D01*
X147019422Y-92246746D01*
X147020185Y-92244150D01*
X147036819Y-92223508D01*
X147173508Y-92086819D01*
X147234831Y-92053334D01*
X147261189Y-92050500D01*
X147383261Y-92050500D01*
X147405971Y-92047191D01*
X147451393Y-92040573D01*
X147556483Y-91989198D01*
X147639198Y-91906483D01*
X147639201Y-91906476D01*
X147644369Y-91899239D01*
X147699342Y-91856114D01*
X147768903Y-91849555D01*
X147830968Y-91881645D01*
X147832972Y-91883605D01*
X147955342Y-92005975D01*
X147955345Y-92005977D01*
X148127402Y-92120941D01*
X148318580Y-92200130D01*
X148489400Y-92234108D01*
X148521530Y-92240499D01*
X148521534Y-92240500D01*
X148521535Y-92240500D01*
X148728466Y-92240500D01*
X148728467Y-92240499D01*
X148931420Y-92200130D01*
X149122598Y-92120941D01*
X149294655Y-92005977D01*
X149294658Y-92005974D01*
X149297335Y-92003778D01*
X149299011Y-92003065D01*
X149299721Y-92002592D01*
X149299810Y-92002726D01*
X149361645Y-91976465D01*
X149430513Y-91988256D01*
X149482073Y-92035408D01*
X149500000Y-92099631D01*
X149500000Y-92820368D01*
X149480315Y-92887407D01*
X149427511Y-92933162D01*
X149358353Y-92943106D01*
X149299789Y-92917305D01*
X149299721Y-92917408D01*
X149299139Y-92917019D01*
X149297343Y-92916228D01*
X149294659Y-92914025D01*
X149154489Y-92820368D01*
X149122598Y-92799059D01*
X149043733Y-92766392D01*
X148931420Y-92719870D01*
X148931412Y-92719868D01*
X148728469Y-92679500D01*
X148728465Y-92679500D01*
X148521535Y-92679500D01*
X148521530Y-92679500D01*
X148318587Y-92719868D01*
X148318579Y-92719870D01*
X148127403Y-92799058D01*
X147955342Y-92914024D01*
X147809024Y-93060342D01*
X147694057Y-93232403D01*
X147654480Y-93327953D01*
X147641936Y-93343518D01*
X147633632Y-93361703D01*
X147620461Y-93370167D01*
X147610639Y-93382356D01*
X147591671Y-93388668D01*
X147574854Y-93399477D01*
X147547293Y-93403439D01*
X147544345Y-93404421D01*
X147539919Y-93404500D01*
X147520465Y-93404500D01*
X147520449Y-93404499D01*
X147512853Y-93404499D01*
X147427147Y-93404499D01*
X147371957Y-93419287D01*
X147344361Y-93426682D01*
X147333615Y-93432887D01*
X147271614Y-93449500D01*
X147016739Y-93449500D01*
X146948608Y-93459426D01*
X146843514Y-93510803D01*
X146760803Y-93593514D01*
X146709426Y-93698608D01*
X146699500Y-93766739D01*
X146699500Y-94233260D01*
X146709426Y-94301391D01*
X146709427Y-94301393D01*
X146760802Y-94406483D01*
X146760803Y-94406484D01*
X146760804Y-94406486D01*
X146766773Y-94414847D01*
X146765276Y-94415915D01*
X146792799Y-94466319D01*
X146787815Y-94536011D01*
X146759314Y-94580358D01*
X146576492Y-94763181D01*
X146515169Y-94796666D01*
X146488811Y-94799500D01*
X146434108Y-94799500D01*
X146306812Y-94833608D01*
X146192686Y-94899500D01*
X146192683Y-94899502D01*
X146099502Y-94992683D01*
X146099500Y-94992686D01*
X146033608Y-95106812D01*
X145999500Y-95234108D01*
X145999500Y-95365891D01*
X146033608Y-95493187D01*
X146041869Y-95507495D01*
X146099500Y-95607314D01*
X146192686Y-95700500D01*
X146306814Y-95766392D01*
X146434108Y-95800500D01*
X146434110Y-95800500D01*
X146565890Y-95800500D01*
X146565892Y-95800500D01*
X146693186Y-95766392D01*
X146807314Y-95700500D01*
X146900500Y-95607314D01*
X146966392Y-95493186D01*
X147000500Y-95365892D01*
X147000500Y-95311189D01*
X147020185Y-95244150D01*
X147036819Y-95223508D01*
X147460463Y-94799864D01*
X147460465Y-94799862D01*
X147464512Y-94792852D01*
X147503318Y-94725638D01*
X147525500Y-94642853D01*
X147525500Y-94571543D01*
X147534144Y-94542102D01*
X147540668Y-94512116D01*
X147544422Y-94507100D01*
X147545185Y-94504504D01*
X147561819Y-94483862D01*
X147639843Y-94405838D01*
X147701166Y-94372353D01*
X147770858Y-94377337D01*
X147815205Y-94405838D01*
X147955342Y-94545975D01*
X147955345Y-94545977D01*
X148127402Y-94660941D01*
X148318580Y-94740130D01*
X148504588Y-94777129D01*
X148521530Y-94780499D01*
X148521534Y-94780500D01*
X148521535Y-94780500D01*
X148728466Y-94780500D01*
X148728467Y-94780499D01*
X148931420Y-94740130D01*
X149122598Y-94660941D01*
X149294655Y-94545977D01*
X149294658Y-94545974D01*
X149297335Y-94543778D01*
X149299011Y-94543065D01*
X149299721Y-94542592D01*
X149299810Y-94542726D01*
X149361645Y-94516465D01*
X149430513Y-94528256D01*
X149482073Y-94575408D01*
X149500000Y-94639631D01*
X149500000Y-95544196D01*
X149490942Y-95562291D01*
X149487294Y-95576366D01*
X149480972Y-95582207D01*
X149472471Y-95599191D01*
X149469398Y-95602376D01*
X149055728Y-96016045D01*
X149025099Y-95962993D01*
X148932007Y-95869901D01*
X148878953Y-95839270D01*
X149255235Y-95462987D01*
X149254101Y-95427527D01*
X149122368Y-95339505D01*
X149122358Y-95339500D01*
X148931274Y-95260350D01*
X148931266Y-95260348D01*
X148728420Y-95220000D01*
X148521579Y-95220000D01*
X148318733Y-95260348D01*
X148318725Y-95260350D01*
X148127636Y-95339502D01*
X148127635Y-95339502D01*
X147973961Y-95442183D01*
X147973961Y-95442185D01*
X148371046Y-95839270D01*
X148317993Y-95869901D01*
X148224901Y-95962993D01*
X148194270Y-96016046D01*
X147797185Y-95618961D01*
X147797183Y-95618961D01*
X147694502Y-95772635D01*
X147694502Y-95772636D01*
X147615350Y-95963725D01*
X147615348Y-95963733D01*
X147575000Y-96166579D01*
X147575000Y-96373420D01*
X147615348Y-96576266D01*
X147615350Y-96576274D01*
X147694500Y-96767358D01*
X147694505Y-96767368D01*
X147797185Y-96921037D01*
X148194270Y-96523952D01*
X148224901Y-96577007D01*
X148317993Y-96670099D01*
X148371046Y-96700729D01*
X147973961Y-97097814D01*
X148127640Y-97200499D01*
X148318725Y-97279649D01*
X148318733Y-97279651D01*
X148521579Y-97319999D01*
X148521583Y-97320000D01*
X148728417Y-97320000D01*
X148728420Y-97319999D01*
X148931266Y-97279651D01*
X148931274Y-97279649D01*
X149122359Y-97200499D01*
X149276038Y-97097814D01*
X148878953Y-96700729D01*
X148932007Y-96670099D01*
X149025099Y-96577007D01*
X149055729Y-96523953D01*
X149469398Y-96937622D01*
X149478972Y-96955156D01*
X149492591Y-96969778D01*
X149495375Y-96985196D01*
X149500000Y-96993665D01*
X149500000Y-97058173D01*
X149498119Y-97065548D01*
X149497899Y-97068636D01*
X149496287Y-97072735D01*
X149495459Y-97074735D01*
X149469822Y-97106560D01*
X149487857Y-97126638D01*
X149500000Y-97180155D01*
X149500000Y-97900368D01*
X149480315Y-97967407D01*
X149427511Y-98013162D01*
X149358353Y-98023106D01*
X149299789Y-97997305D01*
X149299721Y-97997408D01*
X149299139Y-97997019D01*
X149297343Y-97996228D01*
X149294659Y-97994025D01*
X149143745Y-97893189D01*
X149122598Y-97879059D01*
X149112470Y-97874864D01*
X148931420Y-97799870D01*
X148931412Y-97799868D01*
X148728469Y-97759500D01*
X148728465Y-97759500D01*
X148521535Y-97759500D01*
X148521530Y-97759500D01*
X148318587Y-97799868D01*
X148318579Y-97799870D01*
X148127403Y-97879058D01*
X147955344Y-97994023D01*
X147832972Y-98116395D01*
X147816120Y-98125596D01*
X147802242Y-98138861D01*
X147786089Y-98141993D01*
X147771649Y-98149879D01*
X147752497Y-98148509D01*
X147733651Y-98152165D01*
X147718370Y-98146068D01*
X147701957Y-98144895D01*
X147686587Y-98133389D01*
X147668755Y-98126275D01*
X147647809Y-98104359D01*
X147646024Y-98103023D01*
X147644369Y-98100760D01*
X147636649Y-98089946D01*
X147613719Y-98023946D01*
X147630109Y-97956028D01*
X147666392Y-97893186D01*
X147700500Y-97765892D01*
X147700500Y-97634108D01*
X147666392Y-97506814D01*
X147661663Y-97498624D01*
X147648483Y-97475795D01*
X147600500Y-97392686D01*
X147507314Y-97299500D01*
X147419295Y-97248682D01*
X147393187Y-97233608D01*
X147329539Y-97216554D01*
X147265892Y-97199500D01*
X147134108Y-97199500D01*
X147006812Y-97233608D01*
X146892686Y-97299500D01*
X146892683Y-97299502D01*
X146799502Y-97392683D01*
X146799500Y-97392686D01*
X146733608Y-97506812D01*
X146715716Y-97573588D01*
X146699500Y-97634108D01*
X146699500Y-97765892D01*
X146730154Y-97880297D01*
X146733609Y-97893188D01*
X146733609Y-97893189D01*
X146769815Y-97955900D01*
X146786288Y-98023801D01*
X146763435Y-98089827D01*
X146763349Y-98089948D01*
X146760804Y-98093511D01*
X146709426Y-98198608D01*
X146699500Y-98266739D01*
X146699500Y-98733260D01*
X146709426Y-98801391D01*
X146760803Y-98906485D01*
X146843514Y-98989196D01*
X146843515Y-98989196D01*
X146843517Y-98989198D01*
X146948607Y-99040573D01*
X146948608Y-99040573D01*
X146951889Y-99042177D01*
X147003471Y-99089305D01*
X147021386Y-99156839D01*
X146999945Y-99223338D01*
X146959430Y-99260965D01*
X146892686Y-99299500D01*
X146892683Y-99299502D01*
X146799502Y-99392683D01*
X146799500Y-99392686D01*
X146733608Y-99506812D01*
X146722637Y-99547757D01*
X146699500Y-99634108D01*
X146699500Y-99765892D01*
X146731491Y-99885287D01*
X146733609Y-99893188D01*
X146733609Y-99893189D01*
X146769815Y-99955900D01*
X146786288Y-100023801D01*
X146763435Y-100089827D01*
X146763349Y-100089948D01*
X146760804Y-100093511D01*
X146709426Y-100198608D01*
X146699500Y-100266739D01*
X146699500Y-100733260D01*
X146709426Y-100801391D01*
X146760803Y-100906485D01*
X146843514Y-100989196D01*
X146843515Y-100989196D01*
X146843517Y-100989198D01*
X146948607Y-101040573D01*
X146982673Y-101045536D01*
X147016739Y-101050500D01*
X147016740Y-101050500D01*
X147238811Y-101050500D01*
X147305850Y-101070185D01*
X147326492Y-101086819D01*
X147538181Y-101298507D01*
X147571666Y-101359830D01*
X147574500Y-101386188D01*
X147574500Y-101453469D01*
X147614868Y-101656412D01*
X147614870Y-101656420D01*
X147694058Y-101847596D01*
X147809024Y-102019657D01*
X147955342Y-102165975D01*
X147955345Y-102165977D01*
X148115364Y-102272898D01*
X148160170Y-102326509D01*
X148168877Y-102395834D01*
X148138723Y-102458862D01*
X148079280Y-102495582D01*
X148046474Y-102500000D01*
X129550095Y-102500000D01*
X129527583Y-102493389D01*
X129504220Y-102491202D01*
X129487607Y-102481651D01*
X129483056Y-102480315D01*
X129473622Y-102473611D01*
X129454796Y-102458862D01*
X129348426Y-102375526D01*
X129337218Y-102365596D01*
X129134403Y-102162781D01*
X129124473Y-102151573D01*
X129026389Y-102026377D01*
X129000540Y-101961464D01*
X129000000Y-101949904D01*
X129000000Y-100733217D01*
X145300001Y-100733217D01*
X145309912Y-100801249D01*
X145361215Y-100906191D01*
X145443811Y-100988787D01*
X145548747Y-101040086D01*
X145616786Y-101049999D01*
X145925000Y-101049999D01*
X145983218Y-101049999D01*
X146051249Y-101040087D01*
X146156191Y-100988784D01*
X146238787Y-100906188D01*
X146290087Y-100801251D01*
X146290088Y-100801248D01*
X146300000Y-100733219D01*
X146300000Y-100625000D01*
X145925000Y-100625000D01*
X145925000Y-101049999D01*
X145616786Y-101049999D01*
X145674999Y-101049998D01*
X145675000Y-101049998D01*
X145675000Y-100625000D01*
X145300001Y-100625000D01*
X145300001Y-100733217D01*
X129000000Y-100733217D01*
X129000000Y-100159833D01*
X137490000Y-100159833D01*
X137490001Y-100159850D01*
X137496518Y-100209354D01*
X137547192Y-100318024D01*
X137631975Y-100402807D01*
X137740646Y-100453481D01*
X137740645Y-100453481D01*
X137790149Y-100459998D01*
X137790167Y-100460000D01*
X137875000Y-100460000D01*
X138125000Y-100460000D01*
X138209833Y-100460000D01*
X138209850Y-100459998D01*
X138259354Y-100453481D01*
X138368024Y-100402807D01*
X138412319Y-100358513D01*
X138473642Y-100325028D01*
X138543334Y-100330012D01*
X138587681Y-100358513D01*
X138631975Y-100402807D01*
X138740646Y-100453481D01*
X138740645Y-100453481D01*
X138790149Y-100459998D01*
X138790167Y-100460000D01*
X138875000Y-100460000D01*
X138875000Y-100105000D01*
X138125000Y-100105000D01*
X138125000Y-100460000D01*
X137875000Y-100460000D01*
X137875000Y-100105000D01*
X137490000Y-100105000D01*
X137490000Y-100159833D01*
X129000000Y-100159833D01*
X129000000Y-99194999D01*
X129411149Y-99194999D01*
X129411150Y-99195000D01*
X129825758Y-99195000D01*
X129820444Y-99204204D01*
X129800000Y-99280504D01*
X129800000Y-99359496D01*
X129820444Y-99435796D01*
X129825758Y-99445000D01*
X129411150Y-99445000D01*
X129426899Y-99524176D01*
X129426901Y-99524184D01*
X129479664Y-99651566D01*
X129479671Y-99651579D01*
X129556275Y-99766226D01*
X129653773Y-99863724D01*
X129768420Y-99940328D01*
X129768433Y-99940335D01*
X129895813Y-99993097D01*
X129895823Y-99993100D01*
X130031053Y-100020000D01*
X130375000Y-100020000D01*
X130375000Y-99620000D01*
X130625000Y-99620000D01*
X130625000Y-100020000D01*
X130968946Y-100020000D01*
X131104176Y-99993100D01*
X131104186Y-99993097D01*
X131231566Y-99940335D01*
X131231579Y-99940328D01*
X131346226Y-99863724D01*
X131443724Y-99766226D01*
X131520328Y-99651579D01*
X131520335Y-99651566D01*
X131573098Y-99524184D01*
X131573100Y-99524176D01*
X131588850Y-99445000D01*
X131174242Y-99445000D01*
X131179556Y-99435796D01*
X131200000Y-99359496D01*
X131200000Y-99280504D01*
X131179556Y-99204204D01*
X131174242Y-99195000D01*
X131588850Y-99195000D01*
X131588850Y-99194999D01*
X131573100Y-99115823D01*
X131573098Y-99115815D01*
X131520335Y-98988433D01*
X131520328Y-98988420D01*
X131443724Y-98873773D01*
X131346226Y-98776275D01*
X131231579Y-98699671D01*
X131231566Y-98699664D01*
X131104186Y-98646902D01*
X131104176Y-98646899D01*
X130968946Y-98620000D01*
X130625000Y-98620000D01*
X130625000Y-99020000D01*
X130375000Y-99020000D01*
X130375000Y-98620000D01*
X130031054Y-98620000D01*
X129895823Y-98646899D01*
X129895813Y-98646902D01*
X129768433Y-98699664D01*
X129768420Y-98699671D01*
X129653773Y-98776275D01*
X129556275Y-98873773D01*
X129479671Y-98988420D01*
X129479664Y-98988433D01*
X129426901Y-99115815D01*
X129426899Y-99115823D01*
X129411149Y-99194999D01*
X129000000Y-99194999D01*
X129000000Y-90554999D01*
X129411149Y-90554999D01*
X129411150Y-90555000D01*
X129825758Y-90555000D01*
X129820444Y-90564204D01*
X129800000Y-90640504D01*
X129800000Y-90719496D01*
X129820444Y-90795796D01*
X129825758Y-90805000D01*
X129411150Y-90805000D01*
X129426899Y-90884176D01*
X129426901Y-90884184D01*
X129479664Y-91011566D01*
X129479671Y-91011579D01*
X129556275Y-91126226D01*
X129653773Y-91223724D01*
X129768420Y-91300328D01*
X129768433Y-91300335D01*
X129895813Y-91353097D01*
X129895823Y-91353100D01*
X130031053Y-91380000D01*
X130375000Y-91380000D01*
X130375000Y-90980000D01*
X130625000Y-90980000D01*
X130625000Y-91380000D01*
X130968946Y-91380000D01*
X131104176Y-91353100D01*
X131104186Y-91353097D01*
X131231566Y-91300335D01*
X131231579Y-91300328D01*
X131346226Y-91223724D01*
X131443724Y-91126226D01*
X131520328Y-91011579D01*
X131520335Y-91011566D01*
X131573098Y-90884184D01*
X131573100Y-90884176D01*
X131588850Y-90805000D01*
X131174242Y-90805000D01*
X131179556Y-90795796D01*
X131200000Y-90719496D01*
X131200000Y-90640504D01*
X131179556Y-90564204D01*
X131174242Y-90555000D01*
X131588850Y-90555000D01*
X131588850Y-90554999D01*
X131573100Y-90475823D01*
X131573098Y-90475815D01*
X131520335Y-90348433D01*
X131520328Y-90348420D01*
X131443724Y-90233773D01*
X131346226Y-90136275D01*
X131231579Y-90059671D01*
X131231566Y-90059664D01*
X131104186Y-90006902D01*
X131104176Y-90006899D01*
X130968946Y-89980000D01*
X130625000Y-89980000D01*
X130625000Y-90380000D01*
X130375000Y-90380000D01*
X130375000Y-89980000D01*
X130031054Y-89980000D01*
X129895823Y-90006899D01*
X129895813Y-90006902D01*
X129768433Y-90059664D01*
X129768420Y-90059671D01*
X129653773Y-90136275D01*
X129556275Y-90233773D01*
X129479671Y-90348420D01*
X129479664Y-90348433D01*
X129426901Y-90475815D01*
X129426899Y-90475823D01*
X129411149Y-90554999D01*
X129000000Y-90554999D01*
X129000000Y-88050094D01*
X129019685Y-87983055D01*
X129026378Y-87973635D01*
X129124480Y-87848417D01*
X129134395Y-87837226D01*
X129337226Y-87634395D01*
X129348417Y-87624480D01*
X129473622Y-87526388D01*
X129538535Y-87500540D01*
X129550095Y-87500000D01*
X147502327Y-87500000D01*
X147569366Y-87519685D01*
G37*
%TD.AperFunction*%
%TD*%
M02*
