%TF.GenerationSoftware,KiCad,Pcbnew,9.0.2-9.0.2-0~ubuntu24.04.1*%
%TF.CreationDate,2025-05-22T23:02:18+02:00*%
%TF.ProjectId,USB-UART,5553422d-5541-4525-942e-6b696361645f,rev?*%
%TF.SameCoordinates,Original*%
%TF.FileFunction,Copper,L3,Inr*%
%TF.FilePolarity,Positive*%
%FSLAX46Y46*%
G04 Gerber Fmt 4.6, Leading zero omitted, Abs format (unit mm)*
G04 Created by KiCad (PCBNEW 9.0.2-9.0.2-0~ubuntu24.04.1) date 2025-05-22 23:02:18*
%MOMM*%
%LPD*%
G01*
G04 APERTURE LIST*
%TA.AperFunction,ComponentPad*%
%ADD10R,1.700000X1.700000*%
%TD*%
%TA.AperFunction,ComponentPad*%
%ADD11C,1.700000*%
%TD*%
%TA.AperFunction,ComponentPad*%
%ADD12O,3.500000X1.900000*%
%TD*%
%TA.AperFunction,ViaPad*%
%ADD13C,0.600000*%
%TD*%
%TA.AperFunction,ViaPad*%
%ADD14C,3.500000*%
%TD*%
%TA.AperFunction,Conductor*%
%ADD15C,0.250000*%
%TD*%
G04 APERTURE END LIST*
D10*
%TO.N,VPP*%
%TO.C,J3*%
X185115000Y-88650000D03*
D11*
%TO.N,/RXD_232*%
X185115000Y-91190000D03*
%TO.N,/TXD_232*%
X185115000Y-93730000D03*
%TO.N,GND*%
X185115000Y-96270000D03*
%TO.N,/CTS_232*%
X185115000Y-98810000D03*
%TO.N,/RTS_232*%
X185115000Y-101350000D03*
%TD*%
D10*
%TO.N,VPP*%
%TO.C,J4*%
X167000000Y-88650000D03*
D11*
%TO.N,/RXD*%
X167000000Y-91190000D03*
%TO.N,/TXD*%
X167000000Y-93730000D03*
%TO.N,GND*%
X167000000Y-96270000D03*
%TO.N,/CTS*%
X167000000Y-98810000D03*
%TO.N,/RTS*%
X167000000Y-101350000D03*
%TD*%
D12*
%TO.N,GND*%
%TO.C,J1*%
X132600000Y-100700000D03*
X132600000Y-89300000D03*
%TD*%
D10*
%TO.N,VPP*%
%TO.C,J2*%
X148625000Y-88650000D03*
D11*
%TO.N,/RXD*%
X148625000Y-91190000D03*
%TO.N,/TXD*%
X148625000Y-93730000D03*
%TO.N,GND*%
X148625000Y-96270000D03*
%TO.N,/CTS*%
X148625000Y-98810000D03*
%TO.N,/RTS*%
X148625000Y-101350000D03*
%TD*%
D13*
%TO.N,GND*%
X175000000Y-95000000D03*
%TO.N,VPP*%
X144200000Y-97800000D03*
%TO.N,GND*%
X168500000Y-95000000D03*
X168500000Y-97500000D03*
X168500000Y-100000000D03*
X168500000Y-90000000D03*
X168500000Y-92500000D03*
X183500000Y-90000000D03*
X183500000Y-92500000D03*
X183000000Y-96500000D03*
X183500000Y-100000000D03*
X172389914Y-96500000D03*
X170000000Y-96000000D03*
X180500000Y-96500000D03*
X180500000Y-90000000D03*
X179000000Y-89000000D03*
X174000000Y-89000000D03*
X176500000Y-89000000D03*
X179000000Y-101500000D03*
X176500000Y-101500000D03*
X174000000Y-101500000D03*
X172500000Y-99000000D03*
D14*
X159000000Y-98500000D03*
X159000000Y-91500000D03*
X193000000Y-98500000D03*
X193000000Y-91500000D03*
D13*
%TO.N,/TXD_232*%
X176050000Y-94000000D03*
%TO.N,/RXD_232*%
X176650000Y-93350000D03*
%TO.N,/TXD_232*%
X182650000Y-94900000D03*
%TO.N,/RXD_232*%
X182500000Y-92400000D03*
%TO.N,/RXD*%
X170100000Y-90600000D03*
X177300000Y-90075000D03*
%TO.N,/TXD*%
X178050000Y-90700000D03*
X170100000Y-93100000D03*
%TO.N,/CTS*%
X169800000Y-97650000D03*
X178050000Y-94950000D03*
%TO.N,/RTS*%
X177250000Y-95550000D03*
X169800000Y-100100000D03*
%TO.N,GND*%
X144900000Y-100000000D03*
X145800000Y-97600000D03*
X146500000Y-90100000D03*
X143700000Y-92300000D03*
%TO.N,/RTS*%
X147200000Y-99700000D03*
%TO.N,/CTS*%
X147200000Y-97700000D03*
%TO.N,GND*%
X146400000Y-93200000D03*
%TO.N,/RXD*%
X146500000Y-92300000D03*
%TO.N,VPP*%
X145200000Y-92400000D03*
%TO.N,/TXD*%
X146500000Y-95300000D03*
%TO.N,VPP*%
X146100000Y-96500000D03*
%TO.N,VCC*%
X141800000Y-99100000D03*
X137200000Y-99100000D03*
%TO.N,GND*%
X140000000Y-95000000D03*
X136500000Y-89000000D03*
X139600000Y-101000000D03*
X135200000Y-91500000D03*
X138000000Y-98200000D03*
X141500000Y-89000000D03*
X140000000Y-91500000D03*
X137200000Y-100100000D03*
%TO.N,+3V3*%
X137400000Y-96520000D03*
X141110000Y-92360000D03*
%TO.N,GND*%
X146100000Y-101900000D03*
%TO.N,VBUS*%
X135500000Y-97300000D03*
%TO.N,Net-(J1-D-)*%
X133700000Y-95700000D03*
%TO.N,Net-(J1-D+)*%
X133700000Y-94300000D03*
%TO.N,/RTS_FT*%
X143300000Y-94500000D03*
%TO.N,/CTS_FT*%
X139010000Y-91710000D03*
%TO.N,/USB_DM*%
X137150000Y-95450000D03*
%TO.N,/USB_DP*%
X137150000Y-94550000D03*
%TO.N,/TXD_FT*%
X143200000Y-95900000D03*
%TO.N,/RXD_FT*%
X140900000Y-91374999D03*
%TD*%
D15*
%TO.N,GND*%
X146100000Y-91205000D02*
X146100000Y-91100000D01*
%TD*%
%TA.AperFunction,Conductor*%
%TO.N,GND*%
G36*
X147569366Y-87519685D02*
G01*
X147615121Y-87572489D01*
X147625065Y-87641647D01*
X147605428Y-87692892D01*
X147586132Y-87721768D01*
X147586131Y-87721770D01*
X147574500Y-87780247D01*
X147574500Y-89519752D01*
X147586131Y-89578229D01*
X147586132Y-89578230D01*
X147630447Y-89644552D01*
X147696769Y-89688867D01*
X147696770Y-89688868D01*
X147755247Y-89700499D01*
X147755250Y-89700500D01*
X149376000Y-89700500D01*
X149443039Y-89720185D01*
X149488794Y-89772989D01*
X149500000Y-89824500D01*
X149500000Y-90280368D01*
X149480315Y-90347407D01*
X149427511Y-90393162D01*
X149358353Y-90403106D01*
X149299789Y-90377305D01*
X149299721Y-90377408D01*
X149299139Y-90377019D01*
X149297343Y-90376228D01*
X149294659Y-90374025D01*
X149154489Y-90280368D01*
X149122598Y-90259059D01*
X148931420Y-90179870D01*
X148931412Y-90179868D01*
X148728469Y-90139500D01*
X148728465Y-90139500D01*
X148521535Y-90139500D01*
X148521530Y-90139500D01*
X148318587Y-90179868D01*
X148318579Y-90179870D01*
X148127403Y-90259058D01*
X147955342Y-90374024D01*
X147809024Y-90520342D01*
X147694058Y-90692403D01*
X147614870Y-90883579D01*
X147614868Y-90883587D01*
X147574500Y-91086530D01*
X147574500Y-91293469D01*
X147614868Y-91496412D01*
X147614870Y-91496420D01*
X147676045Y-91644110D01*
X147694059Y-91687598D01*
X147710393Y-91712044D01*
X147809024Y-91859657D01*
X147955342Y-92005975D01*
X147955345Y-92005977D01*
X148127402Y-92120941D01*
X148318580Y-92200130D01*
X148489400Y-92234108D01*
X148521530Y-92240499D01*
X148521534Y-92240500D01*
X148521535Y-92240500D01*
X148728466Y-92240500D01*
X148728467Y-92240499D01*
X148931420Y-92200130D01*
X149122598Y-92120941D01*
X149294655Y-92005977D01*
X149294658Y-92005974D01*
X149297335Y-92003778D01*
X149299011Y-92003065D01*
X149299721Y-92002592D01*
X149299810Y-92002726D01*
X149361645Y-91976465D01*
X149430513Y-91988256D01*
X149482073Y-92035408D01*
X149500000Y-92099631D01*
X149500000Y-92820368D01*
X149480315Y-92887407D01*
X149427511Y-92933162D01*
X149358353Y-92943106D01*
X149299789Y-92917305D01*
X149299721Y-92917408D01*
X149299139Y-92917019D01*
X149297343Y-92916228D01*
X149294659Y-92914025D01*
X149163505Y-92826392D01*
X149122598Y-92799059D01*
X149043733Y-92766392D01*
X148931420Y-92719870D01*
X148931412Y-92719868D01*
X148728469Y-92679500D01*
X148728465Y-92679500D01*
X148521535Y-92679500D01*
X148521530Y-92679500D01*
X148318587Y-92719868D01*
X148318579Y-92719870D01*
X148127403Y-92799058D01*
X147955342Y-92914024D01*
X147809024Y-93060342D01*
X147694058Y-93232403D01*
X147614870Y-93423579D01*
X147614868Y-93423587D01*
X147574500Y-93626530D01*
X147574500Y-93833469D01*
X147614868Y-94036412D01*
X147614870Y-94036420D01*
X147661709Y-94149500D01*
X147694059Y-94227598D01*
X147746988Y-94306812D01*
X147809024Y-94399657D01*
X147955342Y-94545975D01*
X147955345Y-94545977D01*
X148127402Y-94660941D01*
X148318580Y-94740130D01*
X148521530Y-94780499D01*
X148521534Y-94780500D01*
X148521535Y-94780500D01*
X148728466Y-94780500D01*
X148728467Y-94780499D01*
X148931420Y-94740130D01*
X149122598Y-94660941D01*
X149294655Y-94545977D01*
X149294658Y-94545974D01*
X149297335Y-94543778D01*
X149299011Y-94543065D01*
X149299721Y-94542592D01*
X149299810Y-94542726D01*
X149361645Y-94516465D01*
X149430513Y-94528256D01*
X149482073Y-94575408D01*
X149500000Y-94639631D01*
X149500000Y-95544196D01*
X149490942Y-95562291D01*
X149487294Y-95576366D01*
X149480972Y-95582207D01*
X149472471Y-95599191D01*
X149469398Y-95602376D01*
X149055728Y-96016045D01*
X149025099Y-95962993D01*
X148932007Y-95869901D01*
X148878953Y-95839270D01*
X149255235Y-95462987D01*
X149254101Y-95427527D01*
X149122368Y-95339505D01*
X149122358Y-95339500D01*
X148931274Y-95260350D01*
X148931266Y-95260348D01*
X148728420Y-95220000D01*
X148521579Y-95220000D01*
X148318733Y-95260348D01*
X148318725Y-95260350D01*
X148127636Y-95339502D01*
X148127635Y-95339502D01*
X147973961Y-95442183D01*
X147973961Y-95442185D01*
X148371046Y-95839270D01*
X148317993Y-95869901D01*
X148224901Y-95962993D01*
X148194270Y-96016046D01*
X147797185Y-95618961D01*
X147797183Y-95618961D01*
X147694502Y-95772635D01*
X147694502Y-95772636D01*
X147615350Y-95963725D01*
X147615348Y-95963733D01*
X147575000Y-96166579D01*
X147575000Y-96373420D01*
X147615348Y-96576266D01*
X147615350Y-96576274D01*
X147694500Y-96767358D01*
X147694505Y-96767368D01*
X147797185Y-96921037D01*
X148194270Y-96523952D01*
X148224901Y-96577007D01*
X148317993Y-96670099D01*
X148371046Y-96700729D01*
X147973961Y-97097814D01*
X148127640Y-97200499D01*
X148318725Y-97279649D01*
X148318733Y-97279651D01*
X148521579Y-97319999D01*
X148521583Y-97320000D01*
X148728417Y-97320000D01*
X148728420Y-97319999D01*
X148931266Y-97279651D01*
X148931274Y-97279649D01*
X149122359Y-97200499D01*
X149276038Y-97097814D01*
X148878953Y-96700729D01*
X148932007Y-96670099D01*
X149025099Y-96577007D01*
X149055729Y-96523953D01*
X149469398Y-96937622D01*
X149478972Y-96955156D01*
X149492591Y-96969778D01*
X149495375Y-96985196D01*
X149500000Y-96993665D01*
X149500000Y-97058173D01*
X149498119Y-97065548D01*
X149497899Y-97068636D01*
X149496287Y-97072735D01*
X149495459Y-97074735D01*
X149469822Y-97106560D01*
X149487857Y-97126638D01*
X149500000Y-97180155D01*
X149500000Y-97900368D01*
X149480315Y-97967407D01*
X149427511Y-98013162D01*
X149358353Y-98023106D01*
X149299789Y-97997305D01*
X149299721Y-97997408D01*
X149299139Y-97997019D01*
X149297343Y-97996228D01*
X149294659Y-97994025D01*
X149143742Y-97893187D01*
X149122598Y-97879059D01*
X149090810Y-97865892D01*
X148931420Y-97799870D01*
X148931412Y-97799868D01*
X148728469Y-97759500D01*
X148728465Y-97759500D01*
X148521535Y-97759500D01*
X148521530Y-97759500D01*
X148318587Y-97799868D01*
X148318579Y-97799870D01*
X148127403Y-97879058D01*
X147955342Y-97994024D01*
X147809410Y-98139956D01*
X147809405Y-98139962D01*
X147809023Y-98140345D01*
X147797862Y-98157048D01*
X147797674Y-98157327D01*
X147694058Y-98312403D01*
X147614870Y-98503579D01*
X147614868Y-98503587D01*
X147574500Y-98706530D01*
X147574500Y-98913469D01*
X147616058Y-99122395D01*
X147614031Y-99122798D01*
X147614569Y-99183248D01*
X147577318Y-99242360D01*
X147514023Y-99271948D01*
X147444779Y-99262620D01*
X147433286Y-99256759D01*
X147393189Y-99233609D01*
X147393186Y-99233608D01*
X147265892Y-99199500D01*
X147134108Y-99199500D01*
X147006812Y-99233608D01*
X146892686Y-99299500D01*
X146892683Y-99299502D01*
X146799502Y-99392683D01*
X146799500Y-99392686D01*
X146733608Y-99506812D01*
X146699500Y-99634108D01*
X146699500Y-99765891D01*
X146733608Y-99893187D01*
X146766554Y-99950250D01*
X146799500Y-100007314D01*
X146892686Y-100100500D01*
X147006814Y-100166392D01*
X147134108Y-100200500D01*
X147134110Y-100200500D01*
X147265890Y-100200500D01*
X147265892Y-100200500D01*
X147393186Y-100166392D01*
X147507314Y-100100500D01*
X147600500Y-100007314D01*
X147666392Y-99893186D01*
X147700500Y-99765892D01*
X147700500Y-99670495D01*
X147720185Y-99603456D01*
X147772989Y-99557701D01*
X147842147Y-99547757D01*
X147905703Y-99576782D01*
X147912181Y-99582814D01*
X147955342Y-99625975D01*
X147955345Y-99625977D01*
X148127402Y-99740941D01*
X148318580Y-99820130D01*
X148521530Y-99860499D01*
X148521534Y-99860500D01*
X148521535Y-99860500D01*
X148728466Y-99860500D01*
X148728467Y-99860499D01*
X148931420Y-99820130D01*
X149122598Y-99740941D01*
X149294655Y-99625977D01*
X149294658Y-99625974D01*
X149297335Y-99623778D01*
X149299011Y-99623065D01*
X149299721Y-99622592D01*
X149299810Y-99622726D01*
X149361645Y-99596465D01*
X149430513Y-99608256D01*
X149482073Y-99655408D01*
X149500000Y-99719631D01*
X149500000Y-100440368D01*
X149480315Y-100507407D01*
X149427511Y-100553162D01*
X149358353Y-100563106D01*
X149299789Y-100537305D01*
X149299721Y-100537408D01*
X149299139Y-100537019D01*
X149297343Y-100536228D01*
X149294659Y-100534025D01*
X149140029Y-100430706D01*
X149122598Y-100419059D01*
X148931420Y-100339870D01*
X148931412Y-100339868D01*
X148728469Y-100299500D01*
X148728465Y-100299500D01*
X148521535Y-100299500D01*
X148521530Y-100299500D01*
X148318587Y-100339868D01*
X148318579Y-100339870D01*
X148127403Y-100419058D01*
X147955342Y-100534024D01*
X147809024Y-100680342D01*
X147694058Y-100852403D01*
X147614870Y-101043579D01*
X147614868Y-101043587D01*
X147574500Y-101246530D01*
X147574500Y-101453469D01*
X147614868Y-101656412D01*
X147614870Y-101656420D01*
X147694058Y-101847596D01*
X147809024Y-102019657D01*
X147955342Y-102165975D01*
X147955345Y-102165977D01*
X148115364Y-102272898D01*
X148160170Y-102326509D01*
X148168877Y-102395834D01*
X148138723Y-102458862D01*
X148079280Y-102495582D01*
X148046474Y-102500000D01*
X130124500Y-102500000D01*
X130057461Y-102480315D01*
X130011706Y-102427511D01*
X130000500Y-102376000D01*
X130000500Y-100575000D01*
X130655463Y-100575000D01*
X131367619Y-100575000D01*
X131350000Y-100640756D01*
X131350000Y-100759244D01*
X131367619Y-100825000D01*
X130655463Y-100825000D01*
X130678317Y-100969293D01*
X130734251Y-101141444D01*
X130734252Y-101141447D01*
X130816434Y-101302734D01*
X130922823Y-101449169D01*
X131050830Y-101577176D01*
X131197265Y-101683565D01*
X131358552Y-101765747D01*
X131358555Y-101765748D01*
X131530706Y-101821682D01*
X131709494Y-101850000D01*
X132475000Y-101850000D01*
X132475000Y-101150000D01*
X132725000Y-101150000D01*
X132725000Y-101850000D01*
X133490506Y-101850000D01*
X133669293Y-101821682D01*
X133841444Y-101765748D01*
X133841447Y-101765747D01*
X134002734Y-101683565D01*
X134149169Y-101577176D01*
X134277176Y-101449169D01*
X134383565Y-101302734D01*
X134465747Y-101141447D01*
X134465748Y-101141444D01*
X134521682Y-100969293D01*
X134544537Y-100825000D01*
X133832381Y-100825000D01*
X133850000Y-100759244D01*
X133850000Y-100640756D01*
X133832381Y-100575000D01*
X134544537Y-100575000D01*
X134521682Y-100430706D01*
X134465748Y-100258555D01*
X134465747Y-100258552D01*
X134383565Y-100097265D01*
X134277176Y-99950830D01*
X134149169Y-99822823D01*
X134002734Y-99716434D01*
X133841447Y-99634252D01*
X133841444Y-99634251D01*
X133669293Y-99578317D01*
X133490506Y-99550000D01*
X132725000Y-99550000D01*
X132725000Y-100250000D01*
X132475000Y-100250000D01*
X132475000Y-99550000D01*
X131709494Y-99550000D01*
X131530706Y-99578317D01*
X131358555Y-99634251D01*
X131358552Y-99634252D01*
X131197265Y-99716434D01*
X131050830Y-99822823D01*
X130922823Y-99950830D01*
X130816434Y-100097265D01*
X130734252Y-100258552D01*
X130734251Y-100258555D01*
X130678317Y-100430706D01*
X130655463Y-100575000D01*
X130000500Y-100575000D01*
X130000500Y-99034108D01*
X136699500Y-99034108D01*
X136699500Y-99165892D01*
X136708505Y-99199500D01*
X136733608Y-99293187D01*
X136766554Y-99350250D01*
X136799500Y-99407314D01*
X136892686Y-99500500D01*
X137006814Y-99566392D01*
X137134108Y-99600500D01*
X137134110Y-99600500D01*
X137265890Y-99600500D01*
X137265892Y-99600500D01*
X137393186Y-99566392D01*
X137507314Y-99500500D01*
X137600500Y-99407314D01*
X137666392Y-99293186D01*
X137700500Y-99165892D01*
X137700500Y-99034108D01*
X141299500Y-99034108D01*
X141299500Y-99165892D01*
X141308505Y-99199500D01*
X141333608Y-99293187D01*
X141366554Y-99350250D01*
X141399500Y-99407314D01*
X141492686Y-99500500D01*
X141606814Y-99566392D01*
X141734108Y-99600500D01*
X141734110Y-99600500D01*
X141865890Y-99600500D01*
X141865892Y-99600500D01*
X141993186Y-99566392D01*
X142107314Y-99500500D01*
X142200500Y-99407314D01*
X142266392Y-99293186D01*
X142300500Y-99165892D01*
X142300500Y-99034108D01*
X142266392Y-98906814D01*
X142200500Y-98792686D01*
X142107314Y-98699500D01*
X142050250Y-98666554D01*
X141993187Y-98633608D01*
X141929539Y-98616554D01*
X141865892Y-98599500D01*
X141734108Y-98599500D01*
X141606812Y-98633608D01*
X141492686Y-98699500D01*
X141492683Y-98699502D01*
X141399502Y-98792683D01*
X141399500Y-98792686D01*
X141333608Y-98906812D01*
X141299500Y-99034108D01*
X137700500Y-99034108D01*
X137666392Y-98906814D01*
X137600500Y-98792686D01*
X137507314Y-98699500D01*
X137450250Y-98666554D01*
X137393187Y-98633608D01*
X137329539Y-98616554D01*
X137265892Y-98599500D01*
X137134108Y-98599500D01*
X137006812Y-98633608D01*
X136892686Y-98699500D01*
X136892683Y-98699502D01*
X136799502Y-98792683D01*
X136799500Y-98792686D01*
X136733608Y-98906812D01*
X136699500Y-99034108D01*
X130000500Y-99034108D01*
X130000500Y-97221153D01*
X131799500Y-97221153D01*
X131799500Y-97378846D01*
X131830261Y-97533489D01*
X131830264Y-97533501D01*
X131890602Y-97679172D01*
X131890609Y-97679185D01*
X131978210Y-97810288D01*
X131978213Y-97810292D01*
X132089707Y-97921786D01*
X132089711Y-97921789D01*
X132220814Y-98009390D01*
X132220827Y-98009397D01*
X132366498Y-98069735D01*
X132366503Y-98069737D01*
X132521143Y-98100497D01*
X132521153Y-98100499D01*
X132521156Y-98100500D01*
X132521158Y-98100500D01*
X132678844Y-98100500D01*
X132678845Y-98100499D01*
X132833497Y-98069737D01*
X132979179Y-98009394D01*
X133110289Y-97921789D01*
X133221789Y-97810289D01*
X133309394Y-97679179D01*
X133369737Y-97533497D01*
X133400500Y-97378842D01*
X133400500Y-97234108D01*
X134999500Y-97234108D01*
X134999500Y-97365892D01*
X135008505Y-97399500D01*
X135033608Y-97493187D01*
X135056884Y-97533501D01*
X135099500Y-97607314D01*
X135192686Y-97700500D01*
X135291521Y-97757563D01*
X135305944Y-97765890D01*
X135306814Y-97766392D01*
X135434108Y-97800500D01*
X135434110Y-97800500D01*
X135565890Y-97800500D01*
X135565892Y-97800500D01*
X135693186Y-97766392D01*
X135749103Y-97734108D01*
X143699500Y-97734108D01*
X143699500Y-97865891D01*
X143733608Y-97993187D01*
X143745141Y-98013162D01*
X143799500Y-98107314D01*
X143892686Y-98200500D01*
X144006814Y-98266392D01*
X144134108Y-98300500D01*
X144134110Y-98300500D01*
X144265890Y-98300500D01*
X144265892Y-98300500D01*
X144393186Y-98266392D01*
X144507314Y-98200500D01*
X144600500Y-98107314D01*
X144666392Y-97993186D01*
X144700500Y-97865892D01*
X144700500Y-97734108D01*
X144673705Y-97634108D01*
X146699500Y-97634108D01*
X146699500Y-97765891D01*
X146733608Y-97893187D01*
X146750120Y-97921786D01*
X146799500Y-98007314D01*
X146892686Y-98100500D01*
X147006814Y-98166392D01*
X147134108Y-98200500D01*
X147134110Y-98200500D01*
X147265890Y-98200500D01*
X147265892Y-98200500D01*
X147393186Y-98166392D01*
X147507314Y-98100500D01*
X147600500Y-98007314D01*
X147666392Y-97893186D01*
X147700500Y-97765892D01*
X147700500Y-97634108D01*
X147666392Y-97506814D01*
X147600500Y-97392686D01*
X147507314Y-97299500D01*
X147450250Y-97266554D01*
X147393187Y-97233608D01*
X147329539Y-97216554D01*
X147265892Y-97199500D01*
X147134108Y-97199500D01*
X147006812Y-97233608D01*
X146892686Y-97299500D01*
X146892683Y-97299502D01*
X146799502Y-97392683D01*
X146799500Y-97392686D01*
X146733608Y-97506812D01*
X146699500Y-97634108D01*
X144673705Y-97634108D01*
X144666392Y-97606814D01*
X144600500Y-97492686D01*
X144507314Y-97399500D01*
X144449100Y-97365890D01*
X144393187Y-97333608D01*
X144329539Y-97316554D01*
X144265892Y-97299500D01*
X144134108Y-97299500D01*
X144006812Y-97333608D01*
X143892686Y-97399500D01*
X143892683Y-97399502D01*
X143799502Y-97492683D01*
X143799500Y-97492686D01*
X143733608Y-97606812D01*
X143699500Y-97734108D01*
X135749103Y-97734108D01*
X135807314Y-97700500D01*
X135900500Y-97607314D01*
X135966392Y-97493186D01*
X136000500Y-97365892D01*
X136000500Y-97234108D01*
X135966392Y-97106814D01*
X135966245Y-97106560D01*
X135916558Y-97020500D01*
X135900500Y-96992686D01*
X135807314Y-96899500D01*
X135750250Y-96866554D01*
X135693187Y-96833608D01*
X135629539Y-96816554D01*
X135565892Y-96799500D01*
X135434108Y-96799500D01*
X135306812Y-96833608D01*
X135192686Y-96899500D01*
X135192683Y-96899502D01*
X135099502Y-96992683D01*
X135099500Y-96992686D01*
X135033608Y-97106812D01*
X135008773Y-97199500D01*
X134999500Y-97234108D01*
X133400500Y-97234108D01*
X133400500Y-97221158D01*
X133400500Y-97221155D01*
X133400499Y-97221153D01*
X133392344Y-97180155D01*
X133369737Y-97066503D01*
X133369735Y-97066498D01*
X133309397Y-96920827D01*
X133309390Y-96920814D01*
X133221789Y-96789711D01*
X133221786Y-96789707D01*
X133110292Y-96678213D01*
X133110288Y-96678210D01*
X132979185Y-96590609D01*
X132979172Y-96590602D01*
X132833501Y-96530264D01*
X132833489Y-96530261D01*
X132678845Y-96499500D01*
X132678842Y-96499500D01*
X132521158Y-96499500D01*
X132521155Y-96499500D01*
X132366510Y-96530261D01*
X132366498Y-96530264D01*
X132220827Y-96590602D01*
X132220814Y-96590609D01*
X132089711Y-96678210D01*
X132089707Y-96678213D01*
X131978213Y-96789707D01*
X131978210Y-96789711D01*
X131890609Y-96920814D01*
X131890602Y-96920827D01*
X131830264Y-97066498D01*
X131830261Y-97066510D01*
X131799500Y-97221153D01*
X130000500Y-97221153D01*
X130000500Y-95634108D01*
X133199500Y-95634108D01*
X133199500Y-95765891D01*
X133233608Y-95893187D01*
X133237003Y-95899067D01*
X133299500Y-96007314D01*
X133392686Y-96100500D01*
X133506814Y-96166392D01*
X133634108Y-96200500D01*
X133634110Y-96200500D01*
X133765890Y-96200500D01*
X133765892Y-96200500D01*
X133893186Y-96166392D01*
X134007314Y-96100500D01*
X134100500Y-96007314D01*
X134166392Y-95893186D01*
X134200500Y-95765892D01*
X134200500Y-95634108D01*
X134166392Y-95506814D01*
X134100500Y-95392686D01*
X134007314Y-95299500D01*
X133950250Y-95266554D01*
X133893187Y-95233608D01*
X133829539Y-95216554D01*
X133765892Y-95199500D01*
X133634108Y-95199500D01*
X133506812Y-95233608D01*
X133392686Y-95299500D01*
X133392683Y-95299502D01*
X133299502Y-95392683D01*
X133299500Y-95392686D01*
X133233608Y-95506812D01*
X133199500Y-95634108D01*
X130000500Y-95634108D01*
X130000500Y-94234108D01*
X133199500Y-94234108D01*
X133199500Y-94365891D01*
X133233608Y-94493187D01*
X133247048Y-94516465D01*
X133299500Y-94607314D01*
X133392686Y-94700500D01*
X133506814Y-94766392D01*
X133634108Y-94800500D01*
X133634110Y-94800500D01*
X133765890Y-94800500D01*
X133765892Y-94800500D01*
X133893186Y-94766392D01*
X134007314Y-94700500D01*
X134100500Y-94607314D01*
X134166392Y-94493186D01*
X134168824Y-94484108D01*
X136649500Y-94484108D01*
X136649500Y-94615891D01*
X136683608Y-94743187D01*
X136697005Y-94766391D01*
X136749500Y-94857314D01*
X136749502Y-94857316D01*
X136804505Y-94912319D01*
X136837990Y-94973642D01*
X136833006Y-95043334D01*
X136804505Y-95087681D01*
X136749502Y-95142683D01*
X136749500Y-95142686D01*
X136683608Y-95256812D01*
X136661452Y-95339502D01*
X136649500Y-95384108D01*
X136649500Y-95515892D01*
X136665704Y-95576366D01*
X136683608Y-95643187D01*
X136716554Y-95700250D01*
X136749500Y-95757314D01*
X136842686Y-95850500D01*
X136956814Y-95916392D01*
X137016704Y-95932439D01*
X137076363Y-95968802D01*
X137106893Y-96031649D01*
X137098599Y-96101024D01*
X137072292Y-96139894D01*
X136999500Y-96212686D01*
X136933608Y-96326812D01*
X136899500Y-96454108D01*
X136899500Y-96585891D01*
X136933608Y-96713187D01*
X136946736Y-96735925D01*
X136999500Y-96827314D01*
X137092686Y-96920500D01*
X137206814Y-96986392D01*
X137334108Y-97020500D01*
X137334110Y-97020500D01*
X137465890Y-97020500D01*
X137465892Y-97020500D01*
X137593186Y-96986392D01*
X137707314Y-96920500D01*
X137800500Y-96827314D01*
X137866392Y-96713186D01*
X137900500Y-96585892D01*
X137900500Y-96454108D01*
X137895141Y-96434108D01*
X145599500Y-96434108D01*
X145599500Y-96565892D01*
X145604859Y-96585891D01*
X145633608Y-96693187D01*
X145658283Y-96735925D01*
X145699500Y-96807314D01*
X145792686Y-96900500D01*
X145906814Y-96966392D01*
X146034108Y-97000500D01*
X146034110Y-97000500D01*
X146165890Y-97000500D01*
X146165892Y-97000500D01*
X146293186Y-96966392D01*
X146407314Y-96900500D01*
X146500500Y-96807314D01*
X146566392Y-96693186D01*
X146600500Y-96565892D01*
X146600500Y-96434108D01*
X146566392Y-96306814D01*
X146562745Y-96300497D01*
X146517709Y-96222492D01*
X146517708Y-96222490D01*
X146500503Y-96192692D01*
X146500500Y-96192686D01*
X146407314Y-96099500D01*
X146327827Y-96053608D01*
X146293187Y-96033608D01*
X146229539Y-96016554D01*
X146165892Y-95999500D01*
X146034108Y-95999500D01*
X145906812Y-96033608D01*
X145792686Y-96099500D01*
X145792683Y-96099502D01*
X145699502Y-96192683D01*
X145699500Y-96192686D01*
X145633608Y-96306812D01*
X145617644Y-96366392D01*
X145599500Y-96434108D01*
X137895141Y-96434108D01*
X137866392Y-96326814D01*
X137800500Y-96212686D01*
X137707314Y-96119500D01*
X137633714Y-96077007D01*
X137593187Y-96053608D01*
X137566098Y-96046349D01*
X137533295Y-96037560D01*
X137529054Y-96034975D01*
X137524094Y-96034708D01*
X137499514Y-96016969D01*
X137473635Y-96001196D01*
X137471464Y-95996728D01*
X137467436Y-95993821D01*
X137456348Y-95965609D01*
X137443106Y-95938349D01*
X137443695Y-95933416D01*
X137441879Y-95928794D01*
X137447802Y-95899067D01*
X137451401Y-95868974D01*
X137454828Y-95863813D01*
X137455534Y-95860271D01*
X137472602Y-95837049D01*
X137474556Y-95834108D01*
X142699500Y-95834108D01*
X142699500Y-95965892D01*
X142713186Y-96016969D01*
X142733608Y-96093187D01*
X142760575Y-96139894D01*
X142799500Y-96207314D01*
X142892686Y-96300500D01*
X142991521Y-96357563D01*
X143006810Y-96366390D01*
X143006814Y-96366392D01*
X143134108Y-96400500D01*
X143134110Y-96400500D01*
X143265890Y-96400500D01*
X143265892Y-96400500D01*
X143393186Y-96366392D01*
X143507314Y-96300500D01*
X143600500Y-96207314D01*
X143666392Y-96093186D01*
X143700500Y-95965892D01*
X143700500Y-95834108D01*
X143666392Y-95706814D01*
X143600500Y-95592686D01*
X143507314Y-95499500D01*
X143444072Y-95462987D01*
X143393187Y-95433608D01*
X143329539Y-95416554D01*
X143265892Y-95399500D01*
X143134108Y-95399500D01*
X143006812Y-95433608D01*
X142892686Y-95499500D01*
X142892683Y-95499502D01*
X142799502Y-95592683D01*
X142799500Y-95592686D01*
X142733608Y-95706812D01*
X142715971Y-95772635D01*
X142699500Y-95834108D01*
X137474556Y-95834108D01*
X137476188Y-95831651D01*
X137476890Y-95830923D01*
X137550500Y-95757314D01*
X137616392Y-95643186D01*
X137650500Y-95515892D01*
X137650500Y-95384108D01*
X137616392Y-95256814D01*
X137603283Y-95234108D01*
X145999500Y-95234108D01*
X145999500Y-95365892D01*
X146008505Y-95399500D01*
X146033608Y-95493187D01*
X146046717Y-95515892D01*
X146099500Y-95607314D01*
X146192686Y-95700500D01*
X146279801Y-95750796D01*
X146305944Y-95765890D01*
X146306814Y-95766392D01*
X146434108Y-95800500D01*
X146434110Y-95800500D01*
X146565890Y-95800500D01*
X146565892Y-95800500D01*
X146693186Y-95766392D01*
X146807314Y-95700500D01*
X146900500Y-95607314D01*
X146966392Y-95493186D01*
X147000500Y-95365892D01*
X147000500Y-95234108D01*
X146966392Y-95106814D01*
X146900500Y-94992686D01*
X146807314Y-94899500D01*
X146750250Y-94866554D01*
X146693187Y-94833608D01*
X146629539Y-94816554D01*
X146565892Y-94799500D01*
X146434108Y-94799500D01*
X146306812Y-94833608D01*
X146192686Y-94899500D01*
X146192683Y-94899502D01*
X146099502Y-94992683D01*
X146099500Y-94992686D01*
X146033608Y-95106812D01*
X146023997Y-95142683D01*
X145999500Y-95234108D01*
X137603283Y-95234108D01*
X137550500Y-95142686D01*
X137495495Y-95087681D01*
X137462010Y-95026358D01*
X137466994Y-94956666D01*
X137495495Y-94912319D01*
X137508314Y-94899500D01*
X137550500Y-94857314D01*
X137616392Y-94743186D01*
X137650500Y-94615892D01*
X137650500Y-94484108D01*
X137637103Y-94434108D01*
X142799500Y-94434108D01*
X142799500Y-94565892D01*
X142812897Y-94615890D01*
X142833608Y-94693187D01*
X142860711Y-94740129D01*
X142899500Y-94807314D01*
X142992686Y-94900500D01*
X143106814Y-94966392D01*
X143234108Y-95000500D01*
X143234110Y-95000500D01*
X143365890Y-95000500D01*
X143365892Y-95000500D01*
X143493186Y-94966392D01*
X143607314Y-94900500D01*
X143700500Y-94807314D01*
X143766392Y-94693186D01*
X143800500Y-94565892D01*
X143800500Y-94434108D01*
X143766392Y-94306814D01*
X143700500Y-94192686D01*
X143607314Y-94099500D01*
X143498057Y-94036420D01*
X143493187Y-94033608D01*
X143429539Y-94016554D01*
X143365892Y-93999500D01*
X143234108Y-93999500D01*
X143106812Y-94033608D01*
X142992686Y-94099500D01*
X142992683Y-94099502D01*
X142899502Y-94192683D01*
X142899500Y-94192686D01*
X142833608Y-94306812D01*
X142808731Y-94399657D01*
X142799500Y-94434108D01*
X137637103Y-94434108D01*
X137616392Y-94356814D01*
X137550500Y-94242686D01*
X137457314Y-94149500D01*
X137383380Y-94106814D01*
X137343187Y-94083608D01*
X137279539Y-94066554D01*
X137215892Y-94049500D01*
X137084108Y-94049500D01*
X136956812Y-94083608D01*
X136842686Y-94149500D01*
X136842683Y-94149502D01*
X136749502Y-94242683D01*
X136749500Y-94242686D01*
X136683608Y-94356812D01*
X136649500Y-94484108D01*
X134168824Y-94484108D01*
X134200500Y-94365892D01*
X134200500Y-94234108D01*
X134166392Y-94106814D01*
X134100500Y-93992686D01*
X134007314Y-93899500D01*
X133950250Y-93866554D01*
X133893187Y-93833608D01*
X133829539Y-93816554D01*
X133765892Y-93799500D01*
X133634108Y-93799500D01*
X133506812Y-93833608D01*
X133392686Y-93899500D01*
X133392683Y-93899502D01*
X133299502Y-93992683D01*
X133299500Y-93992686D01*
X133233608Y-94106812D01*
X133199500Y-94234108D01*
X130000500Y-94234108D01*
X130000500Y-92621153D01*
X131799500Y-92621153D01*
X131799500Y-92778846D01*
X131830261Y-92933489D01*
X131830264Y-92933501D01*
X131890602Y-93079172D01*
X131890609Y-93079185D01*
X131978210Y-93210288D01*
X131978213Y-93210292D01*
X132089707Y-93321786D01*
X132089711Y-93321789D01*
X132220814Y-93409390D01*
X132220827Y-93409397D01*
X132366498Y-93469735D01*
X132366503Y-93469737D01*
X132521153Y-93500499D01*
X132521156Y-93500500D01*
X132521158Y-93500500D01*
X132678844Y-93500500D01*
X132678845Y-93500499D01*
X132833497Y-93469737D01*
X132979179Y-93409394D01*
X133110289Y-93321789D01*
X133221789Y-93210289D01*
X133309394Y-93079179D01*
X133317197Y-93060342D01*
X133369735Y-92933501D01*
X133369737Y-92933497D01*
X133400500Y-92778842D01*
X133400500Y-92621158D01*
X133400500Y-92621155D01*
X133400499Y-92621153D01*
X133394936Y-92593186D01*
X133369737Y-92466503D01*
X133328063Y-92365892D01*
X133309397Y-92320827D01*
X133309390Y-92320814D01*
X133221789Y-92189711D01*
X133221786Y-92189707D01*
X133110292Y-92078213D01*
X133110288Y-92078210D01*
X132979185Y-91990609D01*
X132979172Y-91990602D01*
X132833501Y-91930264D01*
X132833489Y-91930261D01*
X132678845Y-91899500D01*
X132678842Y-91899500D01*
X132521158Y-91899500D01*
X132521155Y-91899500D01*
X132366510Y-91930261D01*
X132366498Y-91930264D01*
X132220827Y-91990602D01*
X132220814Y-91990609D01*
X132089711Y-92078210D01*
X132089707Y-92078213D01*
X131978213Y-92189707D01*
X131978210Y-92189711D01*
X131890609Y-92320814D01*
X131890602Y-92320827D01*
X131830264Y-92466498D01*
X131830261Y-92466510D01*
X131799500Y-92621153D01*
X130000500Y-92621153D01*
X130000500Y-91644108D01*
X138509500Y-91644108D01*
X138509500Y-91775891D01*
X138543608Y-91903187D01*
X138561172Y-91933608D01*
X138609500Y-92017314D01*
X138702686Y-92110500D01*
X138816814Y-92176392D01*
X138944108Y-92210500D01*
X138944110Y-92210500D01*
X139075890Y-92210500D01*
X139075892Y-92210500D01*
X139203186Y-92176392D01*
X139317314Y-92110500D01*
X139410500Y-92017314D01*
X139476392Y-91903186D01*
X139510500Y-91775892D01*
X139510500Y-91644108D01*
X139476392Y-91516814D01*
X139410500Y-91402686D01*
X139317314Y-91309500D01*
X139316633Y-91309107D01*
X140399500Y-91309107D01*
X140399500Y-91440890D01*
X140433608Y-91568186D01*
X140466554Y-91625249D01*
X140499500Y-91682313D01*
X140592686Y-91775499D01*
X140670235Y-91820272D01*
X140702523Y-91838914D01*
X140750738Y-91889482D01*
X140763960Y-91958089D01*
X140737992Y-92022953D01*
X140728205Y-92033980D01*
X140709503Y-92052682D01*
X140709500Y-92052686D01*
X140643608Y-92166812D01*
X140631902Y-92210500D01*
X140609500Y-92294108D01*
X140609500Y-92425892D01*
X140626554Y-92489539D01*
X140643608Y-92553187D01*
X140674858Y-92607313D01*
X140709500Y-92667314D01*
X140802686Y-92760500D01*
X140916814Y-92826392D01*
X141044108Y-92860500D01*
X141044110Y-92860500D01*
X141175890Y-92860500D01*
X141175892Y-92860500D01*
X141303186Y-92826392D01*
X141417314Y-92760500D01*
X141510500Y-92667314D01*
X141576392Y-92553186D01*
X141610500Y-92425892D01*
X141610500Y-92334108D01*
X144699500Y-92334108D01*
X144699500Y-92465892D01*
X144699664Y-92466503D01*
X144733608Y-92593187D01*
X144766554Y-92650250D01*
X144799500Y-92707314D01*
X144892686Y-92800500D01*
X145006814Y-92866392D01*
X145134108Y-92900500D01*
X145134110Y-92900500D01*
X145265890Y-92900500D01*
X145265892Y-92900500D01*
X145393186Y-92866392D01*
X145507314Y-92800500D01*
X145600500Y-92707314D01*
X145666392Y-92593186D01*
X145700500Y-92465892D01*
X145700500Y-92334108D01*
X145673705Y-92234108D01*
X145999500Y-92234108D01*
X145999500Y-92365891D01*
X146033608Y-92493187D01*
X146066554Y-92550250D01*
X146099500Y-92607314D01*
X146192686Y-92700500D01*
X146291521Y-92757563D01*
X146296603Y-92760497D01*
X146306814Y-92766392D01*
X146434108Y-92800500D01*
X146434110Y-92800500D01*
X146565890Y-92800500D01*
X146565892Y-92800500D01*
X146693186Y-92766392D01*
X146807314Y-92700500D01*
X146900500Y-92607314D01*
X146966392Y-92493186D01*
X147000500Y-92365892D01*
X147000500Y-92234108D01*
X146966392Y-92106814D01*
X146900500Y-91992686D01*
X146807314Y-91899500D01*
X146738032Y-91859500D01*
X146693187Y-91833608D01*
X146629539Y-91816554D01*
X146565892Y-91799500D01*
X146434108Y-91799500D01*
X146306812Y-91833608D01*
X146192686Y-91899500D01*
X146192683Y-91899502D01*
X146099502Y-91992683D01*
X146099500Y-91992686D01*
X146033608Y-92106812D01*
X145999500Y-92234108D01*
X145673705Y-92234108D01*
X145666392Y-92206814D01*
X145600500Y-92092686D01*
X145507314Y-91999500D01*
X145435588Y-91958089D01*
X145393187Y-91933608D01*
X145329539Y-91916554D01*
X145265892Y-91899500D01*
X145134108Y-91899500D01*
X145006812Y-91933608D01*
X144892686Y-91999500D01*
X144892683Y-91999502D01*
X144799502Y-92092683D01*
X144799500Y-92092686D01*
X144733608Y-92206812D01*
X144726294Y-92234110D01*
X144699500Y-92334108D01*
X141610500Y-92334108D01*
X141610500Y-92294108D01*
X141576392Y-92166814D01*
X141510500Y-92052686D01*
X141417314Y-91959500D01*
X141366671Y-91930261D01*
X141307476Y-91896084D01*
X141259261Y-91845516D01*
X141246039Y-91776909D01*
X141272007Y-91712044D01*
X141281790Y-91701022D01*
X141300500Y-91682313D01*
X141366392Y-91568185D01*
X141400500Y-91440891D01*
X141400500Y-91309107D01*
X141366392Y-91181813D01*
X141300500Y-91067685D01*
X141207314Y-90974499D01*
X141150250Y-90941553D01*
X141093187Y-90908607D01*
X140999779Y-90883579D01*
X140965892Y-90874499D01*
X140834108Y-90874499D01*
X140706812Y-90908607D01*
X140592686Y-90974499D01*
X140592683Y-90974501D01*
X140499502Y-91067682D01*
X140499500Y-91067685D01*
X140433608Y-91181811D01*
X140399500Y-91309107D01*
X139316633Y-91309107D01*
X139260250Y-91276554D01*
X139203187Y-91243608D01*
X139139539Y-91226554D01*
X139075892Y-91209500D01*
X138944108Y-91209500D01*
X138816812Y-91243608D01*
X138702686Y-91309500D01*
X138702683Y-91309502D01*
X138609502Y-91402683D01*
X138609500Y-91402686D01*
X138543608Y-91516812D01*
X138509500Y-91644108D01*
X130000500Y-91644108D01*
X130000500Y-89175000D01*
X130655463Y-89175000D01*
X131367619Y-89175000D01*
X131350000Y-89240756D01*
X131350000Y-89359244D01*
X131367619Y-89425000D01*
X130655463Y-89425000D01*
X130678317Y-89569293D01*
X130734251Y-89741444D01*
X130734252Y-89741447D01*
X130816434Y-89902734D01*
X130922823Y-90049169D01*
X131050830Y-90177176D01*
X131197265Y-90283565D01*
X131358552Y-90365747D01*
X131358555Y-90365748D01*
X131530706Y-90421682D01*
X131709494Y-90450000D01*
X132475000Y-90450000D01*
X132475000Y-89750000D01*
X132725000Y-89750000D01*
X132725000Y-90450000D01*
X133490506Y-90450000D01*
X133669293Y-90421682D01*
X133841444Y-90365748D01*
X133841447Y-90365747D01*
X134002734Y-90283565D01*
X134149169Y-90177176D01*
X134277176Y-90049169D01*
X134383565Y-89902734D01*
X134465747Y-89741447D01*
X134465748Y-89741444D01*
X134521682Y-89569293D01*
X134544537Y-89425000D01*
X133832381Y-89425000D01*
X133850000Y-89359244D01*
X133850000Y-89240756D01*
X133832381Y-89175000D01*
X134544537Y-89175000D01*
X134521682Y-89030706D01*
X134465748Y-88858555D01*
X134465747Y-88858552D01*
X134383565Y-88697265D01*
X134277176Y-88550830D01*
X134149169Y-88422823D01*
X134002734Y-88316434D01*
X133841447Y-88234252D01*
X133841444Y-88234251D01*
X133669293Y-88178317D01*
X133490506Y-88150000D01*
X132725000Y-88150000D01*
X132725000Y-88850000D01*
X132475000Y-88850000D01*
X132475000Y-88150000D01*
X131709494Y-88150000D01*
X131530706Y-88178317D01*
X131358555Y-88234251D01*
X131358552Y-88234252D01*
X131197265Y-88316434D01*
X131050830Y-88422823D01*
X130922823Y-88550830D01*
X130816434Y-88697265D01*
X130734252Y-88858552D01*
X130734251Y-88858555D01*
X130678317Y-89030706D01*
X130655463Y-89175000D01*
X130000500Y-89175000D01*
X130000500Y-87624000D01*
X130020185Y-87556961D01*
X130072989Y-87511206D01*
X130124500Y-87500000D01*
X147502327Y-87500000D01*
X147569366Y-87519685D01*
G37*
%TD.AperFunction*%
%TD*%
%TA.AperFunction,Conductor*%
%TO.N,GND*%
G36*
X165830712Y-87519685D02*
G01*
X165876467Y-87572489D01*
X165886411Y-87641647D01*
X165877107Y-87674087D01*
X165852415Y-87730006D01*
X165852415Y-87730008D01*
X165849500Y-87755131D01*
X165849500Y-89544856D01*
X165849502Y-89544882D01*
X165852413Y-89569987D01*
X165852415Y-89569991D01*
X165897793Y-89672764D01*
X165897794Y-89672765D01*
X165977235Y-89752206D01*
X166080009Y-89797585D01*
X166105135Y-89800500D01*
X166842873Y-89800499D01*
X166909910Y-89820183D01*
X166955665Y-89872987D01*
X166965609Y-89942146D01*
X166936584Y-90005702D01*
X166877806Y-90043476D01*
X166862270Y-90046972D01*
X166730589Y-90067829D01*
X166558363Y-90123787D01*
X166558360Y-90123788D01*
X166397002Y-90206006D01*
X166250505Y-90312441D01*
X166250500Y-90312445D01*
X166122445Y-90440500D01*
X166122441Y-90440505D01*
X166016006Y-90587002D01*
X165933788Y-90748360D01*
X165933787Y-90748363D01*
X165877829Y-90920589D01*
X165849500Y-91099448D01*
X165849500Y-91280551D01*
X165877829Y-91459410D01*
X165933787Y-91631636D01*
X165933788Y-91631639D01*
X166016006Y-91792997D01*
X166122441Y-91939494D01*
X166122445Y-91939499D01*
X166250500Y-92067554D01*
X166250505Y-92067558D01*
X166378287Y-92160396D01*
X166397006Y-92173996D01*
X166502484Y-92227740D01*
X166558360Y-92256211D01*
X166558363Y-92256212D01*
X166644476Y-92284191D01*
X166730591Y-92312171D01*
X166803639Y-92323740D01*
X166890678Y-92337527D01*
X166953813Y-92367456D01*
X166990744Y-92426768D01*
X166989746Y-92496631D01*
X166951136Y-92554863D01*
X166890678Y-92582473D01*
X166730589Y-92607829D01*
X166558363Y-92663787D01*
X166558360Y-92663788D01*
X166397002Y-92746006D01*
X166250505Y-92852441D01*
X166250500Y-92852445D01*
X166122445Y-92980500D01*
X166122441Y-92980505D01*
X166016006Y-93127002D01*
X165933788Y-93288360D01*
X165933787Y-93288363D01*
X165877829Y-93460589D01*
X165849500Y-93639448D01*
X165849500Y-93820551D01*
X165877829Y-93999410D01*
X165933787Y-94171636D01*
X165933788Y-94171639D01*
X166016006Y-94332997D01*
X166122441Y-94479494D01*
X166122445Y-94479499D01*
X166250500Y-94607554D01*
X166250505Y-94607558D01*
X166333985Y-94668209D01*
X166397006Y-94713996D01*
X166502484Y-94767740D01*
X166558360Y-94796211D01*
X166558363Y-94796212D01*
X166634486Y-94820945D01*
X166730591Y-94852171D01*
X166849113Y-94870943D01*
X166892279Y-94877780D01*
X166955414Y-94907709D01*
X166992345Y-94967021D01*
X166991347Y-95036883D01*
X166952737Y-95095116D01*
X166892279Y-95122726D01*
X166730706Y-95148317D01*
X166558555Y-95204251D01*
X166558547Y-95204254D01*
X166397269Y-95286432D01*
X166381466Y-95297912D01*
X166381466Y-95297913D01*
X166870591Y-95787037D01*
X166807007Y-95804075D01*
X166692993Y-95869901D01*
X166599901Y-95962993D01*
X166534075Y-96077007D01*
X166517037Y-96140590D01*
X166027913Y-95651466D01*
X166027912Y-95651466D01*
X166016432Y-95667269D01*
X165934254Y-95828547D01*
X165934251Y-95828555D01*
X165878317Y-96000706D01*
X165850000Y-96179493D01*
X165850000Y-96360506D01*
X165878317Y-96539293D01*
X165934251Y-96711444D01*
X165934252Y-96711447D01*
X166016431Y-96872730D01*
X166027913Y-96888532D01*
X166027913Y-96888533D01*
X166517037Y-96399409D01*
X166534075Y-96462993D01*
X166599901Y-96577007D01*
X166692993Y-96670099D01*
X166807007Y-96735925D01*
X166870590Y-96752962D01*
X166381466Y-97242085D01*
X166381466Y-97242086D01*
X166397267Y-97253566D01*
X166397275Y-97253571D01*
X166558552Y-97335747D01*
X166558555Y-97335748D01*
X166730706Y-97391682D01*
X166892279Y-97417273D01*
X166955413Y-97447202D01*
X166992345Y-97506513D01*
X166991347Y-97576376D01*
X166952738Y-97634609D01*
X166892280Y-97662219D01*
X166730589Y-97687829D01*
X166558363Y-97743787D01*
X166558360Y-97743788D01*
X166397002Y-97826006D01*
X166250505Y-97932441D01*
X166250500Y-97932445D01*
X166122445Y-98060500D01*
X166122441Y-98060505D01*
X166016006Y-98207002D01*
X165933788Y-98368360D01*
X165933787Y-98368363D01*
X165877829Y-98540589D01*
X165849500Y-98719448D01*
X165849500Y-98900551D01*
X165877829Y-99079410D01*
X165933787Y-99251636D01*
X165933788Y-99251639D01*
X166016006Y-99412997D01*
X166122441Y-99559494D01*
X166122445Y-99559499D01*
X166250500Y-99687554D01*
X166250505Y-99687558D01*
X166310698Y-99731290D01*
X166397006Y-99793996D01*
X166502484Y-99847740D01*
X166558360Y-99876211D01*
X166558363Y-99876212D01*
X166644476Y-99904191D01*
X166730591Y-99932171D01*
X166803639Y-99943740D01*
X166890678Y-99957527D01*
X166953813Y-99987456D01*
X166990744Y-100046768D01*
X166989746Y-100116631D01*
X166951136Y-100174863D01*
X166890678Y-100202473D01*
X166730589Y-100227829D01*
X166558363Y-100283787D01*
X166558360Y-100283788D01*
X166397002Y-100366006D01*
X166250505Y-100472441D01*
X166250500Y-100472445D01*
X166122445Y-100600500D01*
X166122441Y-100600505D01*
X166016006Y-100747002D01*
X165933788Y-100908360D01*
X165933787Y-100908363D01*
X165877829Y-101080589D01*
X165849500Y-101259448D01*
X165849500Y-101440551D01*
X165877829Y-101619410D01*
X165933787Y-101791636D01*
X165933788Y-101791639D01*
X166016006Y-101952997D01*
X166122441Y-102099494D01*
X166122445Y-102099499D01*
X166250500Y-102227554D01*
X166250505Y-102227558D01*
X166316742Y-102275682D01*
X166359408Y-102331011D01*
X166365387Y-102400625D01*
X166332782Y-102462420D01*
X166271943Y-102496777D01*
X166243857Y-102500000D01*
X165624000Y-102500000D01*
X165556961Y-102480315D01*
X165511206Y-102427511D01*
X165500000Y-102376000D01*
X165500000Y-87624000D01*
X165519685Y-87556961D01*
X165572489Y-87511206D01*
X165624000Y-87500000D01*
X165763673Y-87500000D01*
X165830712Y-87519685D01*
G37*
%TD.AperFunction*%
%TA.AperFunction,Conductor*%
G36*
X183945712Y-87519685D02*
G01*
X183991467Y-87572489D01*
X184001411Y-87641647D01*
X183992107Y-87674087D01*
X183967415Y-87730006D01*
X183967415Y-87730008D01*
X183964500Y-87755131D01*
X183964500Y-89544856D01*
X183964502Y-89544882D01*
X183967413Y-89569987D01*
X183967415Y-89569991D01*
X184012793Y-89672764D01*
X184012794Y-89672765D01*
X184092235Y-89752206D01*
X184195009Y-89797585D01*
X184220135Y-89800500D01*
X184957873Y-89800499D01*
X185024910Y-89820183D01*
X185070665Y-89872987D01*
X185080609Y-89942146D01*
X185051584Y-90005702D01*
X184992806Y-90043476D01*
X184977270Y-90046972D01*
X184845589Y-90067829D01*
X184673363Y-90123787D01*
X184673360Y-90123788D01*
X184512002Y-90206006D01*
X184365505Y-90312441D01*
X184365500Y-90312445D01*
X184237445Y-90440500D01*
X184237441Y-90440505D01*
X184131006Y-90587002D01*
X184048788Y-90748360D01*
X184048787Y-90748363D01*
X183992829Y-90920589D01*
X183964500Y-91099448D01*
X183964500Y-91280551D01*
X183992829Y-91459410D01*
X184048787Y-91631636D01*
X184048788Y-91631639D01*
X184131006Y-91792997D01*
X184237441Y-91939494D01*
X184237445Y-91939499D01*
X184365500Y-92067554D01*
X184365505Y-92067558D01*
X184493287Y-92160396D01*
X184512006Y-92173996D01*
X184617484Y-92227740D01*
X184673360Y-92256211D01*
X184673363Y-92256212D01*
X184759476Y-92284191D01*
X184845591Y-92312171D01*
X184918639Y-92323740D01*
X185005678Y-92337527D01*
X185068813Y-92367456D01*
X185105744Y-92426768D01*
X185104746Y-92496631D01*
X185066136Y-92554863D01*
X185005678Y-92582473D01*
X184845589Y-92607829D01*
X184673363Y-92663787D01*
X184673360Y-92663788D01*
X184512002Y-92746006D01*
X184365505Y-92852441D01*
X184365500Y-92852445D01*
X184237445Y-92980500D01*
X184237441Y-92980505D01*
X184131006Y-93127002D01*
X184048788Y-93288360D01*
X184048787Y-93288363D01*
X183992829Y-93460589D01*
X183964500Y-93639448D01*
X183964500Y-93820551D01*
X183992829Y-93999410D01*
X184048787Y-94171636D01*
X184048788Y-94171639D01*
X184131006Y-94332997D01*
X184237441Y-94479494D01*
X184237445Y-94479499D01*
X184365500Y-94607554D01*
X184365505Y-94607558D01*
X184448985Y-94668209D01*
X184512006Y-94713996D01*
X184617484Y-94767740D01*
X184673360Y-94796211D01*
X184673363Y-94796212D01*
X184749486Y-94820945D01*
X184845591Y-94852171D01*
X184964113Y-94870943D01*
X185007279Y-94877780D01*
X185070414Y-94907709D01*
X185107345Y-94967021D01*
X185106347Y-95036883D01*
X185067737Y-95095116D01*
X185007279Y-95122726D01*
X184845706Y-95148317D01*
X184673555Y-95204251D01*
X184673547Y-95204254D01*
X184512269Y-95286432D01*
X184496466Y-95297912D01*
X184496466Y-95297913D01*
X184985591Y-95787037D01*
X184922007Y-95804075D01*
X184807993Y-95869901D01*
X184714901Y-95962993D01*
X184649075Y-96077007D01*
X184632037Y-96140590D01*
X184142913Y-95651466D01*
X184142912Y-95651466D01*
X184131432Y-95667269D01*
X184049254Y-95828547D01*
X184049251Y-95828555D01*
X183993317Y-96000706D01*
X183965000Y-96179493D01*
X183965000Y-96360506D01*
X183993317Y-96539293D01*
X184049251Y-96711444D01*
X184049252Y-96711447D01*
X184131431Y-96872730D01*
X184142913Y-96888532D01*
X184142913Y-96888533D01*
X184632037Y-96399409D01*
X184649075Y-96462993D01*
X184714901Y-96577007D01*
X184807993Y-96670099D01*
X184922007Y-96735925D01*
X184985590Y-96752962D01*
X184496466Y-97242085D01*
X184496466Y-97242086D01*
X184512267Y-97253566D01*
X184512275Y-97253571D01*
X184673552Y-97335747D01*
X184673555Y-97335748D01*
X184845706Y-97391682D01*
X185007279Y-97417273D01*
X185070413Y-97447202D01*
X185107345Y-97506513D01*
X185106347Y-97576376D01*
X185067738Y-97634609D01*
X185007280Y-97662219D01*
X184845589Y-97687829D01*
X184673363Y-97743787D01*
X184673360Y-97743788D01*
X184512002Y-97826006D01*
X184365505Y-97932441D01*
X184365500Y-97932445D01*
X184237445Y-98060500D01*
X184237441Y-98060505D01*
X184131006Y-98207002D01*
X184048788Y-98368360D01*
X184048787Y-98368363D01*
X183992829Y-98540589D01*
X183964500Y-98719448D01*
X183964500Y-98900551D01*
X183992829Y-99079410D01*
X184048787Y-99251636D01*
X184048788Y-99251639D01*
X184131006Y-99412997D01*
X184237441Y-99559494D01*
X184237445Y-99559499D01*
X184365500Y-99687554D01*
X184365505Y-99687558D01*
X184425698Y-99731290D01*
X184512006Y-99793996D01*
X184617484Y-99847740D01*
X184673360Y-99876211D01*
X184673363Y-99876212D01*
X184759476Y-99904191D01*
X184845591Y-99932171D01*
X184918639Y-99943740D01*
X185005678Y-99957527D01*
X185068813Y-99987456D01*
X185105744Y-100046768D01*
X185104746Y-100116631D01*
X185066136Y-100174863D01*
X185005678Y-100202473D01*
X184845589Y-100227829D01*
X184673363Y-100283787D01*
X184673360Y-100283788D01*
X184512002Y-100366006D01*
X184365505Y-100472441D01*
X184365500Y-100472445D01*
X184237445Y-100600500D01*
X184237441Y-100600505D01*
X184131006Y-100747002D01*
X184048788Y-100908360D01*
X184048787Y-100908363D01*
X183992829Y-101080589D01*
X183964500Y-101259448D01*
X183964500Y-101440551D01*
X183992829Y-101619410D01*
X184048787Y-101791636D01*
X184048788Y-101791639D01*
X184131006Y-101952997D01*
X184237441Y-102099494D01*
X184237445Y-102099499D01*
X184365500Y-102227554D01*
X184365505Y-102227558D01*
X184431742Y-102275682D01*
X184474408Y-102331011D01*
X184480387Y-102400625D01*
X184447782Y-102462420D01*
X184386943Y-102496777D01*
X184358857Y-102500000D01*
X167756143Y-102500000D01*
X167689104Y-102480315D01*
X167643349Y-102427511D01*
X167633405Y-102358353D01*
X167662430Y-102294797D01*
X167683258Y-102275682D01*
X167749494Y-102227558D01*
X167749492Y-102227558D01*
X167749501Y-102227553D01*
X167877553Y-102099501D01*
X167983996Y-101952994D01*
X168066211Y-101791639D01*
X168122171Y-101619409D01*
X168138527Y-101516144D01*
X168150500Y-101440551D01*
X168150500Y-101259448D01*
X168134019Y-101155397D01*
X168122171Y-101080591D01*
X168066211Y-100908361D01*
X168066211Y-100908360D01*
X168037740Y-100852484D01*
X167983996Y-100747006D01*
X167950207Y-100700499D01*
X167877558Y-100600505D01*
X167877554Y-100600500D01*
X167749499Y-100472445D01*
X167749494Y-100472441D01*
X167602997Y-100366006D01*
X167602996Y-100366005D01*
X167602994Y-100366004D01*
X167535832Y-100331783D01*
X167441639Y-100283788D01*
X167441636Y-100283787D01*
X167269410Y-100227829D01*
X167109321Y-100202473D01*
X167046186Y-100172544D01*
X167009255Y-100113232D01*
X167010253Y-100043370D01*
X167025123Y-100020943D01*
X169199500Y-100020943D01*
X169199500Y-100179057D01*
X169227563Y-100283787D01*
X169240423Y-100331783D01*
X169240426Y-100331790D01*
X169319475Y-100468709D01*
X169319479Y-100468714D01*
X169319480Y-100468716D01*
X169431284Y-100580520D01*
X169431286Y-100580521D01*
X169431290Y-100580524D01*
X169465899Y-100600505D01*
X169568216Y-100659577D01*
X169720943Y-100700500D01*
X169720945Y-100700500D01*
X169879055Y-100700500D01*
X169879057Y-100700500D01*
X170031784Y-100659577D01*
X170168716Y-100580520D01*
X170280520Y-100468716D01*
X170359577Y-100331784D01*
X170400500Y-100179057D01*
X170400500Y-100020943D01*
X170359577Y-99868216D01*
X170359573Y-99868209D01*
X170280524Y-99731290D01*
X170280518Y-99731282D01*
X170168717Y-99619481D01*
X170168709Y-99619475D01*
X170031790Y-99540426D01*
X170031786Y-99540424D01*
X170031784Y-99540423D01*
X169879057Y-99499500D01*
X169720943Y-99499500D01*
X169568216Y-99540423D01*
X169568209Y-99540426D01*
X169431290Y-99619475D01*
X169431282Y-99619481D01*
X169319481Y-99731282D01*
X169319475Y-99731290D01*
X169240426Y-99868209D01*
X169240423Y-99868216D01*
X169199500Y-100020943D01*
X167025123Y-100020943D01*
X167048863Y-99985137D01*
X167109321Y-99957527D01*
X167179425Y-99946422D01*
X167269409Y-99932171D01*
X167358236Y-99903309D01*
X167384166Y-99894885D01*
X167384166Y-99894884D01*
X167441639Y-99876211D01*
X167602994Y-99793996D01*
X167749501Y-99687553D01*
X167877553Y-99559501D01*
X167983996Y-99412994D01*
X168066211Y-99251639D01*
X168122171Y-99079409D01*
X168138527Y-98976144D01*
X168150500Y-98900551D01*
X168150500Y-98719448D01*
X168134019Y-98615397D01*
X168122171Y-98540591D01*
X168066211Y-98368361D01*
X168066211Y-98368360D01*
X168006157Y-98250500D01*
X167983996Y-98207006D01*
X167928425Y-98130518D01*
X167877558Y-98060505D01*
X167877554Y-98060500D01*
X167749499Y-97932445D01*
X167749494Y-97932441D01*
X167602997Y-97826006D01*
X167602996Y-97826005D01*
X167602994Y-97826004D01*
X167551300Y-97799664D01*
X167441639Y-97743788D01*
X167441636Y-97743787D01*
X167269410Y-97687829D01*
X167253373Y-97685289D01*
X167253373Y-97685288D01*
X167107720Y-97662219D01*
X167044585Y-97632289D01*
X167007654Y-97572978D01*
X167007683Y-97570943D01*
X169199500Y-97570943D01*
X169199500Y-97729057D01*
X169225478Y-97826006D01*
X169240423Y-97881783D01*
X169240426Y-97881790D01*
X169319475Y-98018709D01*
X169319479Y-98018714D01*
X169319480Y-98018716D01*
X169431284Y-98130520D01*
X169431286Y-98130521D01*
X169431290Y-98130524D01*
X169563756Y-98207002D01*
X169568216Y-98209577D01*
X169720943Y-98250500D01*
X169720945Y-98250500D01*
X169879055Y-98250500D01*
X169879057Y-98250500D01*
X170031784Y-98209577D01*
X170168716Y-98130520D01*
X170280520Y-98018716D01*
X170359577Y-97881784D01*
X170400500Y-97729057D01*
X170400500Y-97570943D01*
X170359577Y-97418216D01*
X170311963Y-97335745D01*
X170280524Y-97281290D01*
X170280518Y-97281282D01*
X170168717Y-97169481D01*
X170168709Y-97169475D01*
X170031790Y-97090426D01*
X170031786Y-97090424D01*
X170031784Y-97090423D01*
X169879057Y-97049500D01*
X169720943Y-97049500D01*
X169568216Y-97090423D01*
X169568209Y-97090426D01*
X169431290Y-97169475D01*
X169431282Y-97169481D01*
X169319481Y-97281282D01*
X169319475Y-97281290D01*
X169240426Y-97418209D01*
X169240423Y-97418216D01*
X169199500Y-97570943D01*
X167007683Y-97570943D01*
X167008652Y-97503115D01*
X167047262Y-97444883D01*
X167107721Y-97417273D01*
X167269292Y-97391683D01*
X167441444Y-97335748D01*
X167441452Y-97335745D01*
X167602730Y-97253568D01*
X167618532Y-97242085D01*
X167618533Y-97242085D01*
X167129410Y-96752962D01*
X167192993Y-96735925D01*
X167307007Y-96670099D01*
X167400099Y-96577007D01*
X167465925Y-96462993D01*
X167482962Y-96399410D01*
X167972085Y-96888533D01*
X167972085Y-96888532D01*
X167983568Y-96872730D01*
X168065745Y-96711452D01*
X168065748Y-96711444D01*
X168121682Y-96539293D01*
X168150000Y-96360506D01*
X168150000Y-96179493D01*
X168121682Y-96000706D01*
X168065748Y-95828555D01*
X168065747Y-95828552D01*
X167983571Y-95667275D01*
X167983566Y-95667267D01*
X167972085Y-95651466D01*
X167482962Y-96140589D01*
X167465925Y-96077007D01*
X167400099Y-95962993D01*
X167307007Y-95869901D01*
X167192993Y-95804075D01*
X167129409Y-95787037D01*
X167445504Y-95470943D01*
X176649500Y-95470943D01*
X176649500Y-95629057D01*
X176687266Y-95770000D01*
X176690423Y-95781783D01*
X176690426Y-95781790D01*
X176769475Y-95918709D01*
X176769479Y-95918714D01*
X176769480Y-95918716D01*
X176881284Y-96030520D01*
X176881286Y-96030521D01*
X176881290Y-96030524D01*
X176980251Y-96087658D01*
X177018216Y-96109577D01*
X177170943Y-96150500D01*
X177170945Y-96150500D01*
X177329055Y-96150500D01*
X177329057Y-96150500D01*
X177481784Y-96109577D01*
X177618716Y-96030520D01*
X177730520Y-95918716D01*
X177809577Y-95781784D01*
X177846923Y-95642404D01*
X177883287Y-95582746D01*
X177946134Y-95552217D01*
X177966697Y-95550500D01*
X178129055Y-95550500D01*
X178129057Y-95550500D01*
X178281784Y-95509577D01*
X178418716Y-95430520D01*
X178530520Y-95318716D01*
X178609577Y-95181784D01*
X178650500Y-95029057D01*
X178650500Y-94870943D01*
X178637103Y-94820943D01*
X182049500Y-94820943D01*
X182049500Y-94979057D01*
X182079977Y-95092797D01*
X182090423Y-95131783D01*
X182090426Y-95131790D01*
X182169475Y-95268709D01*
X182169479Y-95268714D01*
X182169480Y-95268716D01*
X182281284Y-95380520D01*
X182281286Y-95380521D01*
X182281290Y-95380524D01*
X182367887Y-95430520D01*
X182418216Y-95459577D01*
X182570943Y-95500500D01*
X182570945Y-95500500D01*
X182729055Y-95500500D01*
X182729057Y-95500500D01*
X182881784Y-95459577D01*
X183018716Y-95380520D01*
X183130520Y-95268716D01*
X183209577Y-95131784D01*
X183250500Y-94979057D01*
X183250500Y-94820943D01*
X183209577Y-94668216D01*
X183209573Y-94668209D01*
X183130524Y-94531290D01*
X183130518Y-94531282D01*
X183018717Y-94419481D01*
X183018709Y-94419475D01*
X182881790Y-94340426D01*
X182881786Y-94340424D01*
X182881784Y-94340423D01*
X182729057Y-94299500D01*
X182570943Y-94299500D01*
X182418216Y-94340423D01*
X182418209Y-94340426D01*
X182281290Y-94419475D01*
X182281282Y-94419481D01*
X182169481Y-94531282D01*
X182169475Y-94531290D01*
X182090426Y-94668209D01*
X182090423Y-94668216D01*
X182049500Y-94820943D01*
X178637103Y-94820943D01*
X178609577Y-94718216D01*
X178580706Y-94668209D01*
X178530524Y-94581290D01*
X178530518Y-94581282D01*
X178418717Y-94469481D01*
X178418709Y-94469475D01*
X178281790Y-94390426D01*
X178281786Y-94390424D01*
X178281784Y-94390423D01*
X178129057Y-94349500D01*
X177970943Y-94349500D01*
X177818216Y-94390423D01*
X177818209Y-94390426D01*
X177681290Y-94469475D01*
X177681282Y-94469481D01*
X177569481Y-94581282D01*
X177569475Y-94581290D01*
X177490426Y-94718209D01*
X177490424Y-94718214D01*
X177490423Y-94718216D01*
X177453076Y-94857595D01*
X177416713Y-94917254D01*
X177353866Y-94947783D01*
X177333303Y-94949500D01*
X177170943Y-94949500D01*
X177018216Y-94990423D01*
X177018209Y-94990426D01*
X176881290Y-95069475D01*
X176881282Y-95069481D01*
X176769481Y-95181282D01*
X176769475Y-95181290D01*
X176690426Y-95318209D01*
X176690423Y-95318216D01*
X176649500Y-95470943D01*
X167445504Y-95470943D01*
X167541312Y-95375135D01*
X167618533Y-95297913D01*
X167602730Y-95286431D01*
X167441447Y-95204252D01*
X167441444Y-95204251D01*
X167269293Y-95148317D01*
X167107720Y-95122726D01*
X167044585Y-95092797D01*
X167007654Y-95033485D01*
X167008652Y-94963623D01*
X167047262Y-94905390D01*
X167107720Y-94877780D01*
X167122270Y-94875475D01*
X167269409Y-94852171D01*
X167441639Y-94796211D01*
X167602994Y-94713996D01*
X167749501Y-94607553D01*
X167877553Y-94479501D01*
X167983996Y-94332994D01*
X168066211Y-94171639D01*
X168122171Y-93999409D01*
X168134599Y-93920943D01*
X175449500Y-93920943D01*
X175449500Y-94079057D01*
X175474307Y-94171636D01*
X175490423Y-94231783D01*
X175490426Y-94231790D01*
X175569475Y-94368709D01*
X175569479Y-94368714D01*
X175569480Y-94368716D01*
X175681284Y-94480520D01*
X175681286Y-94480521D01*
X175681290Y-94480524D01*
X175769221Y-94531290D01*
X175818216Y-94559577D01*
X175970943Y-94600500D01*
X175970945Y-94600500D01*
X176129055Y-94600500D01*
X176129057Y-94600500D01*
X176281784Y-94559577D01*
X176418716Y-94480520D01*
X176530520Y-94368716D01*
X176609577Y-94231784D01*
X176650500Y-94079057D01*
X176650500Y-94066697D01*
X176670185Y-93999658D01*
X176722989Y-93953903D01*
X176742397Y-93946925D01*
X176881784Y-93909577D01*
X177018716Y-93830520D01*
X177130520Y-93718716D01*
X177209577Y-93581784D01*
X177250500Y-93429057D01*
X177250500Y-93270943D01*
X177209577Y-93118216D01*
X177153417Y-93020943D01*
X177130524Y-92981290D01*
X177130518Y-92981282D01*
X177018717Y-92869481D01*
X177018709Y-92869475D01*
X176881790Y-92790426D01*
X176881786Y-92790424D01*
X176881784Y-92790423D01*
X176729057Y-92749500D01*
X176570943Y-92749500D01*
X176418216Y-92790423D01*
X176418209Y-92790426D01*
X176281290Y-92869475D01*
X176281282Y-92869481D01*
X176169481Y-92981282D01*
X176169475Y-92981290D01*
X176090426Y-93118209D01*
X176090423Y-93118216D01*
X176049500Y-93270943D01*
X176049500Y-93283302D01*
X176029815Y-93350341D01*
X175977011Y-93396096D01*
X175957595Y-93403076D01*
X175926654Y-93411367D01*
X175818214Y-93440423D01*
X175818209Y-93440426D01*
X175681290Y-93519475D01*
X175681282Y-93519481D01*
X175569481Y-93631282D01*
X175569475Y-93631290D01*
X175490426Y-93768209D01*
X175490423Y-93768216D01*
X175449500Y-93920943D01*
X168134599Y-93920943D01*
X168138959Y-93893418D01*
X168150500Y-93820551D01*
X168150500Y-93639448D01*
X168131497Y-93519475D01*
X168122171Y-93460591D01*
X168080320Y-93331784D01*
X168066212Y-93288363D01*
X168066211Y-93288360D01*
X168010517Y-93179057D01*
X167983996Y-93127006D01*
X167977605Y-93118209D01*
X167953987Y-93085701D01*
X167906938Y-93020943D01*
X169499500Y-93020943D01*
X169499500Y-93179057D01*
X169528789Y-93288363D01*
X169540423Y-93331783D01*
X169540426Y-93331790D01*
X169619475Y-93468709D01*
X169619479Y-93468714D01*
X169619480Y-93468716D01*
X169731284Y-93580520D01*
X169731286Y-93580521D01*
X169731290Y-93580524D01*
X169864187Y-93657251D01*
X169868216Y-93659577D01*
X170020943Y-93700500D01*
X170020945Y-93700500D01*
X170179055Y-93700500D01*
X170179057Y-93700500D01*
X170331784Y-93659577D01*
X170468716Y-93580520D01*
X170580520Y-93468716D01*
X170659577Y-93331784D01*
X170700500Y-93179057D01*
X170700500Y-93020943D01*
X170659577Y-92868216D01*
X170650469Y-92852441D01*
X170580524Y-92731290D01*
X170580518Y-92731282D01*
X170468717Y-92619481D01*
X170468709Y-92619475D01*
X170331790Y-92540426D01*
X170331786Y-92540424D01*
X170331784Y-92540423D01*
X170179057Y-92499500D01*
X170020943Y-92499500D01*
X169868216Y-92540423D01*
X169868209Y-92540426D01*
X169731290Y-92619475D01*
X169731282Y-92619481D01*
X169619481Y-92731282D01*
X169619475Y-92731290D01*
X169540426Y-92868209D01*
X169540423Y-92868216D01*
X169499500Y-93020943D01*
X167906938Y-93020943D01*
X167877558Y-92980504D01*
X167749499Y-92852445D01*
X167749494Y-92852441D01*
X167602997Y-92746006D01*
X167602996Y-92746005D01*
X167602994Y-92746004D01*
X167551300Y-92719664D01*
X167441639Y-92663788D01*
X167441636Y-92663787D01*
X167269410Y-92607829D01*
X167109321Y-92582473D01*
X167046186Y-92552544D01*
X167009255Y-92493232D01*
X167010253Y-92423370D01*
X167048863Y-92365137D01*
X167109321Y-92337527D01*
X167179425Y-92326422D01*
X167214021Y-92320943D01*
X181899500Y-92320943D01*
X181899500Y-92479057D01*
X181937127Y-92619481D01*
X181940423Y-92631783D01*
X181940426Y-92631790D01*
X182019475Y-92768709D01*
X182019479Y-92768714D01*
X182019480Y-92768716D01*
X182131284Y-92880520D01*
X182131286Y-92880521D01*
X182131290Y-92880524D01*
X182268209Y-92959573D01*
X182268216Y-92959577D01*
X182420943Y-93000500D01*
X182420945Y-93000500D01*
X182579055Y-93000500D01*
X182579057Y-93000500D01*
X182731784Y-92959577D01*
X182868716Y-92880520D01*
X182980520Y-92768716D01*
X183059577Y-92631784D01*
X183100500Y-92479057D01*
X183100500Y-92320943D01*
X183059577Y-92168216D01*
X183001463Y-92067558D01*
X182980524Y-92031290D01*
X182980518Y-92031282D01*
X182868717Y-91919481D01*
X182868709Y-91919475D01*
X182731790Y-91840426D01*
X182731786Y-91840424D01*
X182731784Y-91840423D01*
X182579057Y-91799500D01*
X182420943Y-91799500D01*
X182268216Y-91840423D01*
X182268209Y-91840426D01*
X182131290Y-91919475D01*
X182131282Y-91919481D01*
X182019481Y-92031282D01*
X182019475Y-92031290D01*
X181940426Y-92168209D01*
X181940423Y-92168216D01*
X181899500Y-92320943D01*
X167214021Y-92320943D01*
X167269409Y-92312171D01*
X167441639Y-92256211D01*
X167547384Y-92202331D01*
X167547387Y-92202330D01*
X167602992Y-92173997D01*
X167602991Y-92173997D01*
X167602994Y-92173996D01*
X167749501Y-92067553D01*
X167877553Y-91939501D01*
X167983996Y-91792994D01*
X168066211Y-91631639D01*
X168122171Y-91459409D01*
X168147340Y-91300499D01*
X168150500Y-91280551D01*
X168150500Y-91099448D01*
X168129792Y-90968709D01*
X168122171Y-90920591D01*
X168066211Y-90748361D01*
X168066211Y-90748360D01*
X167983994Y-90587002D01*
X167983045Y-90585696D01*
X167983044Y-90585695D01*
X167935999Y-90520943D01*
X169499500Y-90520943D01*
X169499500Y-90679057D01*
X169526295Y-90779055D01*
X169540423Y-90831783D01*
X169540426Y-90831790D01*
X169619475Y-90968709D01*
X169619479Y-90968714D01*
X169619480Y-90968716D01*
X169731284Y-91080520D01*
X169731286Y-91080521D01*
X169731290Y-91080524D01*
X169812128Y-91127195D01*
X169868216Y-91159577D01*
X170020943Y-91200500D01*
X170020945Y-91200500D01*
X170179055Y-91200500D01*
X170179057Y-91200500D01*
X170331784Y-91159577D01*
X170468716Y-91080520D01*
X170580520Y-90968716D01*
X170659577Y-90831784D01*
X170700500Y-90679057D01*
X170700500Y-90520943D01*
X170659577Y-90368216D01*
X170638258Y-90331290D01*
X170580524Y-90231290D01*
X170580518Y-90231282D01*
X170468717Y-90119481D01*
X170468716Y-90119480D01*
X170426667Y-90095203D01*
X170426665Y-90095201D01*
X170331790Y-90040426D01*
X170331786Y-90040424D01*
X170331784Y-90040423D01*
X170179057Y-89999500D01*
X170020943Y-89999500D01*
X169868216Y-90040423D01*
X169868209Y-90040426D01*
X169731290Y-90119475D01*
X169731282Y-90119481D01*
X169619481Y-90231282D01*
X169619475Y-90231290D01*
X169540426Y-90368209D01*
X169540423Y-90368216D01*
X169499500Y-90520943D01*
X167935999Y-90520943D01*
X167877558Y-90440505D01*
X167877554Y-90440500D01*
X167749499Y-90312445D01*
X167749494Y-90312441D01*
X167602997Y-90206006D01*
X167602996Y-90206005D01*
X167602994Y-90206004D01*
X167551300Y-90179664D01*
X167441639Y-90123788D01*
X167441636Y-90123787D01*
X167269410Y-90067829D01*
X167137728Y-90046972D01*
X167074594Y-90017042D01*
X167061456Y-89995943D01*
X176699500Y-89995943D01*
X176699500Y-90154057D01*
X176720195Y-90231290D01*
X176740423Y-90306783D01*
X176740426Y-90306790D01*
X176819475Y-90443709D01*
X176819479Y-90443714D01*
X176819480Y-90443716D01*
X176931284Y-90555520D01*
X176931286Y-90555521D01*
X176931290Y-90555524D01*
X177044601Y-90620943D01*
X177068216Y-90634577D01*
X177220943Y-90675500D01*
X177220945Y-90675500D01*
X177327122Y-90675500D01*
X177394161Y-90695185D01*
X177439916Y-90747989D01*
X177446640Y-90771409D01*
X177447397Y-90771207D01*
X177449500Y-90779055D01*
X177449500Y-90779057D01*
X177487424Y-90920591D01*
X177490423Y-90931783D01*
X177490426Y-90931790D01*
X177569475Y-91068709D01*
X177569479Y-91068714D01*
X177569480Y-91068716D01*
X177681284Y-91180520D01*
X177681286Y-91180521D01*
X177681290Y-91180524D01*
X177812155Y-91256078D01*
X177818216Y-91259577D01*
X177970943Y-91300500D01*
X177970945Y-91300500D01*
X178129055Y-91300500D01*
X178129057Y-91300500D01*
X178281784Y-91259577D01*
X178418716Y-91180520D01*
X178530520Y-91068716D01*
X178609577Y-90931784D01*
X178650500Y-90779057D01*
X178650500Y-90620943D01*
X178609577Y-90468216D01*
X178551843Y-90368216D01*
X178530524Y-90331290D01*
X178530518Y-90331282D01*
X178418717Y-90219481D01*
X178418709Y-90219475D01*
X178281790Y-90140426D01*
X178281786Y-90140424D01*
X178281784Y-90140423D01*
X178129057Y-90099500D01*
X178022878Y-90099500D01*
X177955839Y-90079815D01*
X177910084Y-90027011D01*
X177903359Y-90003590D01*
X177902603Y-90003793D01*
X177871541Y-89887868D01*
X177859577Y-89843216D01*
X177834915Y-89800499D01*
X177780524Y-89706290D01*
X177780518Y-89706282D01*
X177668717Y-89594481D01*
X177668709Y-89594475D01*
X177531790Y-89515426D01*
X177531786Y-89515424D01*
X177531784Y-89515423D01*
X177379057Y-89474500D01*
X177220943Y-89474500D01*
X177068216Y-89515423D01*
X177068209Y-89515426D01*
X176931290Y-89594475D01*
X176931282Y-89594481D01*
X176819481Y-89706282D01*
X176819475Y-89706290D01*
X176740426Y-89843209D01*
X176740423Y-89843216D01*
X176699500Y-89995943D01*
X167061456Y-89995943D01*
X167037663Y-89957731D01*
X167038661Y-89887868D01*
X167077271Y-89829636D01*
X167141235Y-89801522D01*
X167157120Y-89800499D01*
X167894864Y-89800499D01*
X167894879Y-89800497D01*
X167894882Y-89800497D01*
X167919987Y-89797586D01*
X167919988Y-89797585D01*
X167919991Y-89797585D01*
X168022765Y-89752206D01*
X168102206Y-89672765D01*
X168147585Y-89569991D01*
X168150500Y-89544865D01*
X168150499Y-87755136D01*
X168150497Y-87755117D01*
X168147586Y-87730013D01*
X168147585Y-87730011D01*
X168147585Y-87730009D01*
X168122891Y-87674083D01*
X168113821Y-87604808D01*
X168143645Y-87541623D01*
X168202894Y-87504592D01*
X168236327Y-87500000D01*
X183878673Y-87500000D01*
X183945712Y-87519685D01*
G37*
%TD.AperFunction*%
%TA.AperFunction,Conductor*%
G36*
X186412630Y-96333875D02*
G01*
X186470863Y-96372485D01*
X186498977Y-96436448D01*
X186500000Y-96452341D01*
X186500000Y-98624457D01*
X186480315Y-98691496D01*
X186427511Y-98737251D01*
X186358353Y-98747195D01*
X186294797Y-98718170D01*
X186257023Y-98659392D01*
X186253527Y-98643855D01*
X186245513Y-98593263D01*
X186237171Y-98540591D01*
X186181211Y-98368361D01*
X186181211Y-98368360D01*
X186121157Y-98250500D01*
X186098996Y-98207006D01*
X186043425Y-98130518D01*
X185992558Y-98060505D01*
X185992554Y-98060500D01*
X185864499Y-97932445D01*
X185864494Y-97932441D01*
X185717997Y-97826006D01*
X185717996Y-97826005D01*
X185717994Y-97826004D01*
X185666300Y-97799664D01*
X185556639Y-97743788D01*
X185556636Y-97743787D01*
X185384410Y-97687828D01*
X185222720Y-97662219D01*
X185159585Y-97632289D01*
X185122654Y-97572978D01*
X185123652Y-97503115D01*
X185162262Y-97444883D01*
X185222721Y-97417273D01*
X185384292Y-97391683D01*
X185556444Y-97335748D01*
X185556452Y-97335745D01*
X185717730Y-97253568D01*
X185733532Y-97242085D01*
X185733533Y-97242085D01*
X185244410Y-96752962D01*
X185307993Y-96735925D01*
X185422007Y-96670099D01*
X185515099Y-96577007D01*
X185580925Y-96462993D01*
X185597962Y-96399410D01*
X186087085Y-96888533D01*
X186087085Y-96888532D01*
X186098568Y-96872730D01*
X186180745Y-96711452D01*
X186180748Y-96711444D01*
X186236682Y-96539293D01*
X186253527Y-96432943D01*
X186283456Y-96369809D01*
X186342767Y-96332877D01*
X186412630Y-96333875D01*
G37*
%TD.AperFunction*%
%TA.AperFunction,Conductor*%
G36*
X186412631Y-93797076D02*
G01*
X186470863Y-93835686D01*
X186498977Y-93899650D01*
X186500000Y-93915542D01*
X186500000Y-96087658D01*
X186480315Y-96154697D01*
X186427511Y-96200452D01*
X186358353Y-96210396D01*
X186294797Y-96181371D01*
X186257023Y-96122593D01*
X186253527Y-96107056D01*
X186236682Y-96000706D01*
X186180748Y-95828555D01*
X186180747Y-95828552D01*
X186098571Y-95667275D01*
X186098566Y-95667267D01*
X186087085Y-95651466D01*
X185597962Y-96140589D01*
X185580925Y-96077007D01*
X185515099Y-95962993D01*
X185422007Y-95869901D01*
X185307993Y-95804075D01*
X185244409Y-95787037D01*
X185733533Y-95297913D01*
X185717730Y-95286431D01*
X185556447Y-95204252D01*
X185556444Y-95204251D01*
X185384293Y-95148317D01*
X185222720Y-95122726D01*
X185159585Y-95092797D01*
X185122654Y-95033485D01*
X185123652Y-94963623D01*
X185162262Y-94905390D01*
X185222720Y-94877780D01*
X185237270Y-94875475D01*
X185384409Y-94852171D01*
X185556639Y-94796211D01*
X185717994Y-94713996D01*
X185864501Y-94607553D01*
X185992553Y-94479501D01*
X186098996Y-94332994D01*
X186181211Y-94171639D01*
X186237171Y-93999409D01*
X186251400Y-93909573D01*
X186253527Y-93896144D01*
X186283456Y-93833009D01*
X186342768Y-93796078D01*
X186412631Y-93797076D01*
G37*
%TD.AperFunction*%
%TD*%
M02*
