%TF.GenerationSoftware,KiCad,Pcbnew,9.0.2-9.0.2-0~ubuntu24.04.1*%
%TF.CreationDate,2025-05-22T23:02:18+02:00*%
%TF.ProjectId,USB-UART,5553422d-5541-4525-942e-6b696361645f,rev?*%
%TF.SameCoordinates,Original*%
%TF.FileFunction,Copper,L1,Top*%
%TF.FilePolarity,Positive*%
%FSLAX46Y46*%
G04 Gerber Fmt 4.6, Leading zero omitted, Abs format (unit mm)*
G04 Created by KiCad (PCBNEW 9.0.2-9.0.2-0~ubuntu24.04.1) date 2025-05-22 23:02:18*
%MOMM*%
%LPD*%
G01*
G04 APERTURE LIST*
G04 Aperture macros list*
%AMRoundRect*
0 Rectangle with rounded corners*
0 $1 Rounding radius*
0 $2 $3 $4 $5 $6 $7 $8 $9 X,Y pos of 4 corners*
0 Add a 4 corners polygon primitive as box body*
4,1,4,$2,$3,$4,$5,$6,$7,$8,$9,$2,$3,0*
0 Add four circle primitives for the rounded corners*
1,1,$1+$1,$2,$3*
1,1,$1+$1,$4,$5*
1,1,$1+$1,$6,$7*
1,1,$1+$1,$8,$9*
0 Add four rect primitives between the rounded corners*
20,1,$1+$1,$2,$3,$4,$5,0*
20,1,$1+$1,$4,$5,$6,$7,0*
20,1,$1+$1,$6,$7,$8,$9,0*
20,1,$1+$1,$8,$9,$2,$3,0*%
G04 Aperture macros list end*
%TA.AperFunction,ComponentPad*%
%ADD10R,1.700000X1.700000*%
%TD*%
%TA.AperFunction,ComponentPad*%
%ADD11C,1.700000*%
%TD*%
%TA.AperFunction,SMDPad,CuDef*%
%ADD12RoundRect,0.150000X0.150000X0.200000X-0.150000X0.200000X-0.150000X-0.200000X0.150000X-0.200000X0*%
%TD*%
%TA.AperFunction,SMDPad,CuDef*%
%ADD13RoundRect,0.150000X-0.150000X-0.200000X0.150000X-0.200000X0.150000X0.200000X-0.150000X0.200000X0*%
%TD*%
%TA.AperFunction,SMDPad,CuDef*%
%ADD14RoundRect,0.100000X0.100000X-0.637500X0.100000X0.637500X-0.100000X0.637500X-0.100000X-0.637500X0*%
%TD*%
%TA.AperFunction,SMDPad,CuDef*%
%ADD15RoundRect,0.140000X-0.170000X0.140000X-0.170000X-0.140000X0.170000X-0.140000X0.170000X0.140000X0*%
%TD*%
%TA.AperFunction,SMDPad,CuDef*%
%ADD16RoundRect,0.140000X-0.140000X-0.170000X0.140000X-0.170000X0.140000X0.170000X-0.140000X0.170000X0*%
%TD*%
%TA.AperFunction,SMDPad,CuDef*%
%ADD17R,2.200000X1.100000*%
%TD*%
%TA.AperFunction,ComponentPad*%
%ADD18O,3.500000X1.900000*%
%TD*%
%TA.AperFunction,SMDPad,CuDef*%
%ADD19RoundRect,0.218750X-0.218750X-0.256250X0.218750X-0.256250X0.218750X0.256250X-0.218750X0.256250X0*%
%TD*%
%TA.AperFunction,SMDPad,CuDef*%
%ADD20RoundRect,0.135000X-0.135000X-0.185000X0.135000X-0.185000X0.135000X0.185000X-0.135000X0.185000X0*%
%TD*%
%TA.AperFunction,SMDPad,CuDef*%
%ADD21RoundRect,0.135000X0.135000X0.185000X-0.135000X0.185000X-0.135000X-0.185000X0.135000X-0.185000X0*%
%TD*%
%TA.AperFunction,SMDPad,CuDef*%
%ADD22RoundRect,0.075000X-0.075000X0.350000X-0.075000X-0.350000X0.075000X-0.350000X0.075000X0.350000X0*%
%TD*%
%TA.AperFunction,SMDPad,CuDef*%
%ADD23RoundRect,0.075000X-0.350000X0.075000X-0.350000X-0.075000X0.350000X-0.075000X0.350000X0.075000X0*%
%TD*%
%TA.AperFunction,HeatsinkPad*%
%ADD24R,2.100000X2.100000*%
%TD*%
%TA.AperFunction,ViaPad*%
%ADD25C,0.600000*%
%TD*%
%TA.AperFunction,ViaPad*%
%ADD26C,3.500000*%
%TD*%
%TA.AperFunction,Conductor*%
%ADD27C,0.250000*%
%TD*%
G04 APERTURE END LIST*
D10*
%TO.P,J3,1,Pin_1*%
%TO.N,VPP*%
X185115000Y-88650000D03*
D11*
%TO.P,J3,2,Pin_2*%
%TO.N,/RXD_232*%
X185115000Y-91190000D03*
%TO.P,J3,3,Pin_3*%
%TO.N,/TXD_232*%
X185115000Y-93730000D03*
%TO.P,J3,4,Pin_4*%
%TO.N,GND*%
X185115000Y-96270000D03*
%TO.P,J3,5,Pin_5*%
%TO.N,/CTS_232*%
X185115000Y-98810000D03*
%TO.P,J3,6,Pin_6*%
%TO.N,/RTS_232*%
X185115000Y-101350000D03*
%TD*%
D12*
%TO.P,D17,1,K*%
%TO.N,/RTS*%
X169800000Y-101000000D03*
%TO.P,D17,2,A*%
%TO.N,GND*%
X171200000Y-101000000D03*
%TD*%
%TO.P,D16,1,K*%
%TO.N,/CTS*%
X169800000Y-98500000D03*
%TO.P,D16,2,A*%
%TO.N,GND*%
X171200000Y-98500000D03*
%TD*%
%TO.P,D15,1,K*%
%TO.N,/TXD*%
X169800000Y-94000000D03*
%TO.P,D15,2,A*%
%TO.N,GND*%
X171200000Y-94000000D03*
%TD*%
%TO.P,D14,1,K*%
%TO.N,/RXD*%
X169800000Y-91500000D03*
%TO.P,D14,2,A*%
%TO.N,GND*%
X171200000Y-91500000D03*
%TD*%
%TO.P,D13,1,K*%
%TO.N,VPP*%
X169800000Y-89000000D03*
%TO.P,D13,2,A*%
%TO.N,GND*%
X171200000Y-89000000D03*
%TD*%
D13*
%TO.P,D12,1,K*%
%TO.N,/RTS_232*%
X182700000Y-101000000D03*
%TO.P,D12,2,A*%
%TO.N,GND*%
X181300000Y-101000000D03*
%TD*%
%TO.P,D11,1,K*%
%TO.N,/CTS_232*%
X182700000Y-98500000D03*
%TO.P,D11,2,A*%
%TO.N,GND*%
X181300000Y-98500000D03*
%TD*%
%TO.P,D10,1,K*%
%TO.N,/TXD_232*%
X182700000Y-94000000D03*
%TO.P,D10,2,A*%
%TO.N,GND*%
X181300000Y-94000000D03*
%TD*%
%TO.P,D9,1,K*%
%TO.N,/RXD_232*%
X182700000Y-91500000D03*
%TO.P,D9,2,A*%
%TO.N,GND*%
X181300000Y-91500000D03*
%TD*%
%TO.P,D8,1,K*%
%TO.N,VPP*%
X182700000Y-89000000D03*
%TO.P,D8,2,A*%
%TO.N,GND*%
X181300000Y-89000000D03*
%TD*%
D10*
%TO.P,J4,1,Pin_1*%
%TO.N,VPP*%
X167000000Y-88650000D03*
D11*
%TO.P,J4,2,Pin_2*%
%TO.N,/RXD*%
X167000000Y-91190000D03*
%TO.P,J4,3,Pin_3*%
%TO.N,/TXD*%
X167000000Y-93730000D03*
%TO.P,J4,4,Pin_4*%
%TO.N,GND*%
X167000000Y-96270000D03*
%TO.P,J4,5,Pin_5*%
%TO.N,/CTS*%
X167000000Y-98810000D03*
%TO.P,J4,6,Pin_6*%
%TO.N,/RTS*%
X167000000Y-101350000D03*
%TD*%
D14*
%TO.P,U5,1,C1+*%
%TO.N,Net-(U5-C1+)*%
X174725000Y-97862500D03*
%TO.P,U5,2,VS+*%
%TO.N,Net-(U5-VS+)*%
X175375000Y-97862500D03*
%TO.P,U5,3,C1-*%
%TO.N,Net-(U5-C1-)*%
X176025000Y-97862500D03*
%TO.P,U5,4,C2+*%
%TO.N,Net-(U5-C2+)*%
X176675000Y-97862500D03*
%TO.P,U5,5,C2-*%
%TO.N,Net-(U5-C2-)*%
X177325000Y-97862500D03*
%TO.P,U5,6,VS-*%
%TO.N,Net-(U5-VS-)*%
X177975000Y-97862500D03*
%TO.P,U5,7,T2OUT*%
%TO.N,/RTS_232*%
X178625000Y-97862500D03*
%TO.P,U5,8,R2IN*%
%TO.N,/CTS_232*%
X179275000Y-97862500D03*
%TO.P,U5,9,R2OUT*%
%TO.N,/CTS*%
X179275000Y-92137500D03*
%TO.P,U5,10,T2IN*%
%TO.N,/RTS*%
X178625000Y-92137500D03*
%TO.P,U5,11,T1IN*%
%TO.N,/TXD*%
X177975000Y-92137500D03*
%TO.P,U5,12,R1OUT*%
%TO.N,/RXD*%
X177325000Y-92137500D03*
%TO.P,U5,13,R1IN*%
%TO.N,/RXD_232*%
X176675000Y-92137500D03*
%TO.P,U5,14,T1OUT*%
%TO.N,/TXD_232*%
X176025000Y-92137500D03*
%TO.P,U5,15,GND*%
%TO.N,GND*%
X175375000Y-92137500D03*
%TO.P,U5,16,VCC*%
%TO.N,VPP*%
X174725000Y-92137500D03*
%TD*%
D15*
%TO.P,C10,1*%
%TO.N,GND*%
X173000000Y-92520000D03*
%TO.P,C10,2*%
%TO.N,VPP*%
X173000000Y-93480000D03*
%TD*%
%TO.P,C9,1*%
%TO.N,VPP*%
X173000000Y-94520000D03*
%TO.P,C9,2*%
%TO.N,Net-(U5-VS+)*%
X173000000Y-95480000D03*
%TD*%
D16*
%TO.P,C8,1*%
%TO.N,Net-(U5-VS-)*%
X178520000Y-100000000D03*
%TO.P,C8,2*%
%TO.N,GND*%
X179480000Y-100000000D03*
%TD*%
%TO.P,C7,1*%
%TO.N,Net-(U5-C2+)*%
X176520000Y-100000000D03*
%TO.P,C7,2*%
%TO.N,Net-(U5-C2-)*%
X177480000Y-100000000D03*
%TD*%
%TO.P,C6,1*%
%TO.N,Net-(U5-C1+)*%
X174520000Y-100000000D03*
%TO.P,C6,2*%
%TO.N,Net-(U5-C1-)*%
X175480000Y-100000000D03*
%TD*%
D17*
%TO.P,J1,1,VBUS*%
%TO.N,VBUS*%
X135200000Y-98500000D03*
%TO.P,J1,2,D-*%
%TO.N,Net-(J1-D-)*%
X135200000Y-96000000D03*
%TO.P,J1,3,D+*%
%TO.N,Net-(J1-D+)*%
X135200000Y-94000000D03*
%TO.P,J1,4,GND*%
%TO.N,GND*%
X135200000Y-91500000D03*
D18*
%TO.P,J1,5,Shield*%
X132600000Y-100700000D03*
X132600000Y-89300000D03*
%TD*%
D19*
%TO.P,D1,1,K*%
%TO.N,Net-(D1-K)*%
X140212500Y-100000000D03*
%TO.P,D1,2,A*%
%TO.N,VCC*%
X141787500Y-100000000D03*
%TD*%
D13*
%TO.P,D7,1,K*%
%TO.N,/RTS*%
X147200000Y-100500000D03*
%TO.P,D7,2,A*%
%TO.N,GND*%
X145800000Y-100500000D03*
%TD*%
D19*
%TO.P,D2,1,K*%
%TO.N,Net-(D2-K)*%
X140212500Y-90000000D03*
%TO.P,D2,2,A*%
%TO.N,VCC*%
X141787500Y-90000000D03*
%TD*%
D20*
%TO.P,R5,1*%
%TO.N,Net-(D1-K)*%
X139990000Y-98800000D03*
%TO.P,R5,2*%
%TO.N,/LED_TX*%
X141010000Y-98800000D03*
%TD*%
D15*
%TO.P,C1,1*%
%TO.N,VCC*%
X138000000Y-99020000D03*
%TO.P,C1,2*%
%TO.N,GND*%
X138000000Y-99980000D03*
%TD*%
D21*
%TO.P,R6,1*%
%TO.N,Net-(D2-K)*%
X139010000Y-90500000D03*
%TO.P,R6,2*%
%TO.N,/LED_RX*%
X137990000Y-90500000D03*
%TD*%
D13*
%TO.P,D6,1,K*%
%TO.N,/CTS*%
X147200000Y-98500000D03*
%TO.P,D6,2,A*%
%TO.N,GND*%
X145800000Y-98500000D03*
%TD*%
%TO.P,D5,1,K*%
%TO.N,/TXD*%
X147200000Y-94000000D03*
%TO.P,D5,2,A*%
%TO.N,GND*%
X145800000Y-94000000D03*
%TD*%
D15*
%TO.P,C2,1*%
%TO.N,VCC*%
X139000000Y-99020000D03*
%TO.P,C2,2*%
%TO.N,GND*%
X139000000Y-99980000D03*
%TD*%
D13*
%TO.P,D3,1,K*%
%TO.N,VPP*%
X147200000Y-89500000D03*
%TO.P,D3,2,A*%
%TO.N,GND*%
X145800000Y-89500000D03*
%TD*%
%TO.P,D4,1,K*%
%TO.N,/RXD*%
X147200000Y-91500000D03*
%TO.P,D4,2,A*%
%TO.N,GND*%
X145800000Y-91500000D03*
%TD*%
D22*
%TO.P,U2,1,VCCIO*%
%TO.N,+3V3*%
X140975000Y-93050000D03*
%TO.P,U2,2,RXD*%
%TO.N,/RXD_FT*%
X140325000Y-93050000D03*
%TO.P,U2,3,GND*%
%TO.N,GND*%
X139675000Y-93050000D03*
%TO.P,U2,4,~{CTS}*%
%TO.N,/CTS_FT*%
X139025000Y-93050000D03*
D23*
%TO.P,U2,5,CBUS2*%
%TO.N,/LED_RX*%
X138050000Y-94025000D03*
%TO.P,U2,6,USBDP*%
%TO.N,/USB_DP*%
X138050000Y-94675000D03*
%TO.P,U2,7,USBDM*%
%TO.N,/USB_DM*%
X138050000Y-95325000D03*
%TO.P,U2,8,3V3OUT*%
%TO.N,+3V3*%
X138050000Y-95975000D03*
D22*
%TO.P,U2,9,~{RESET}*%
X139025000Y-96950000D03*
%TO.P,U2,10,VCC*%
%TO.N,VCC*%
X139675000Y-96950000D03*
%TO.P,U2,11,CBUS1*%
%TO.N,/LED_TX*%
X140325000Y-96950000D03*
%TO.P,U2,12,CBUS0*%
%TO.N,/DE*%
X140975000Y-96950000D03*
D23*
%TO.P,U2,13,GND*%
%TO.N,GND*%
X141950000Y-95975000D03*
%TO.P,U2,14,CBUS3*%
%TO.N,/SLEEP*%
X141950000Y-95325000D03*
%TO.P,U2,15,TXD*%
%TO.N,/TXD_FT*%
X141950000Y-94675000D03*
%TO.P,U2,16,~{RTS}*%
%TO.N,/RTS_FT*%
X141950000Y-94025000D03*
D24*
%TO.P,U2,17,GND*%
%TO.N,GND*%
X140000000Y-95000000D03*
%TD*%
D10*
%TO.P,J2,1,Pin_1*%
%TO.N,VPP*%
X148625000Y-88650000D03*
D11*
%TO.P,J2,2,Pin_2*%
%TO.N,/RXD*%
X148625000Y-91190000D03*
%TO.P,J2,3,Pin_3*%
%TO.N,/TXD*%
X148625000Y-93730000D03*
%TO.P,J2,4,Pin_4*%
%TO.N,GND*%
X148625000Y-96270000D03*
%TO.P,J2,5,Pin_5*%
%TO.N,/CTS*%
X148625000Y-98810000D03*
%TO.P,J2,6,Pin_6*%
%TO.N,/RTS*%
X148625000Y-101350000D03*
%TD*%
D25*
%TO.N,GND*%
X175000000Y-95000000D03*
%TO.N,VPP*%
X144200000Y-97800000D03*
%TO.N,GND*%
X168500000Y-95000000D03*
X168500000Y-97500000D03*
X168500000Y-100000000D03*
X168500000Y-90000000D03*
X168500000Y-92500000D03*
X183500000Y-90000000D03*
X183500000Y-92500000D03*
X183000000Y-96500000D03*
X183500000Y-100000000D03*
X172389914Y-96500000D03*
X170000000Y-96000000D03*
X180500000Y-96500000D03*
X180500000Y-90000000D03*
X179000000Y-89000000D03*
X174000000Y-89000000D03*
X176500000Y-89000000D03*
X179000000Y-101500000D03*
X176500000Y-101500000D03*
X174000000Y-101500000D03*
X172500000Y-99000000D03*
D26*
X159000000Y-98500000D03*
X159000000Y-91500000D03*
X193000000Y-98500000D03*
X193000000Y-91500000D03*
D25*
%TO.N,/TXD_232*%
X176050000Y-94000000D03*
%TO.N,/RXD_232*%
X176650000Y-93350000D03*
%TO.N,/TXD_232*%
X182650000Y-94900000D03*
%TO.N,/RXD_232*%
X182500000Y-92400000D03*
%TO.N,/RXD*%
X170100000Y-90600000D03*
X177300000Y-90075000D03*
%TO.N,/TXD*%
X178050000Y-90700000D03*
X170100000Y-93100000D03*
%TO.N,/CTS*%
X169800000Y-97650000D03*
X178050000Y-94950000D03*
%TO.N,/RTS*%
X177250000Y-95550000D03*
X169800000Y-100100000D03*
%TO.N,GND*%
X144900000Y-100000000D03*
X145800000Y-97600000D03*
X146500000Y-90100000D03*
X143700000Y-92300000D03*
%TO.N,/RTS*%
X147200000Y-99700000D03*
%TO.N,/CTS*%
X147200000Y-97700000D03*
%TO.N,GND*%
X146400000Y-93200000D03*
%TO.N,/RXD*%
X146500000Y-92300000D03*
%TO.N,VPP*%
X145200000Y-92400000D03*
%TO.N,/TXD*%
X146500000Y-95300000D03*
%TO.N,VPP*%
X146100000Y-96500000D03*
%TO.N,VCC*%
X141800000Y-99100000D03*
X137200000Y-99100000D03*
%TO.N,GND*%
X140000000Y-95000000D03*
X136500000Y-89000000D03*
X139600000Y-101000000D03*
X135200000Y-91500000D03*
X138000000Y-98200000D03*
X141500000Y-89000000D03*
X140000000Y-91500000D03*
X137200000Y-100100000D03*
%TO.N,+3V3*%
X137400000Y-96520000D03*
X141110000Y-92360000D03*
%TO.N,GND*%
X146100000Y-101900000D03*
%TO.N,VBUS*%
X135500000Y-97300000D03*
%TO.N,Net-(J1-D-)*%
X133700000Y-95700000D03*
%TO.N,Net-(J1-D+)*%
X133700000Y-94300000D03*
%TO.N,/RTS_FT*%
X143300000Y-94500000D03*
%TO.N,/CTS_FT*%
X139010000Y-91710000D03*
%TO.N,/USB_DM*%
X137150000Y-95450000D03*
%TO.N,/USB_DP*%
X137150000Y-94550000D03*
%TO.N,/TXD_FT*%
X143200000Y-95900000D03*
%TO.N,/RXD_FT*%
X140900000Y-91374999D03*
%TD*%
D27*
%TO.N,VCC*%
X141800000Y-99100000D02*
X144000000Y-96900000D01*
X144000000Y-96900000D02*
X144000000Y-93700000D01*
X144000000Y-93700000D02*
X141787500Y-91487500D01*
X141787500Y-91487500D02*
X141787500Y-90000000D01*
%TO.N,VPP*%
X144200000Y-97800000D02*
X145100000Y-96900000D01*
X145100000Y-96900000D02*
X145700000Y-96900000D01*
X145700000Y-96900000D02*
X146100000Y-96500000D01*
X170200000Y-88100000D02*
X172200000Y-88100000D01*
X173000000Y-93480000D02*
X172680000Y-93480000D01*
X172680000Y-93480000D02*
X172200000Y-93000000D01*
X172200000Y-93000000D02*
X172200000Y-88100000D01*
X169800000Y-89000000D02*
X169800000Y-88500000D01*
X182700000Y-88500000D02*
X182700000Y-89000000D01*
X169800000Y-88500000D02*
X170200000Y-88100000D01*
X172200000Y-88100000D02*
X182300000Y-88100000D01*
X182300000Y-88100000D02*
X182700000Y-88500000D01*
%TO.N,/CTS_232*%
X182700000Y-98500000D02*
X182700000Y-98849999D01*
X180900000Y-99350000D02*
X180150000Y-98600000D01*
X182700000Y-98849999D02*
X182199999Y-99350000D01*
X182199999Y-99350000D02*
X180900000Y-99350000D01*
X180150000Y-98600000D02*
X179500000Y-98600000D01*
X179500000Y-98600000D02*
X179275000Y-98375000D01*
X179275000Y-98375000D02*
X179275000Y-97862500D01*
%TO.N,/RTS_232*%
X178625000Y-97862500D02*
X178625000Y-98725000D01*
X178625000Y-98725000D02*
X179100000Y-99200000D01*
X180650000Y-99900000D02*
X182100000Y-99900000D01*
X179100000Y-99200000D02*
X179950000Y-99200000D01*
X179950000Y-99200000D02*
X180650000Y-99900000D01*
X182100000Y-99900000D02*
X182700000Y-100500000D01*
X182700000Y-100500000D02*
X182700000Y-101000000D01*
%TO.N,GND*%
X173000000Y-92520000D02*
X173000000Y-91550000D01*
X173000000Y-91550000D02*
X173700000Y-90850000D01*
X173700000Y-90850000D02*
X175200000Y-90850000D01*
X175200000Y-90850000D02*
X175375000Y-91025000D01*
X175375000Y-91025000D02*
X175375000Y-92137500D01*
%TO.N,VPP*%
X173000000Y-93480000D02*
X174220000Y-93480000D01*
X174220000Y-93480000D02*
X174725000Y-92975000D01*
X174725000Y-92975000D02*
X174725000Y-92137500D01*
X173000000Y-94520000D02*
X173000000Y-93480000D01*
%TO.N,Net-(U5-VS+)*%
X175375000Y-97862500D02*
X175375000Y-96925000D01*
X175375000Y-96925000D02*
X173930000Y-95480000D01*
X173930000Y-95480000D02*
X173000000Y-95480000D01*
%TO.N,Net-(U5-VS-)*%
X177975000Y-97862500D02*
X177975000Y-98925000D01*
X177975000Y-98925000D02*
X178520000Y-99470000D01*
X178520000Y-99470000D02*
X178520000Y-100000000D01*
%TO.N,Net-(U5-C2+)*%
X176675000Y-97862500D02*
X176675000Y-99195000D01*
X176675000Y-99195000D02*
X176520000Y-99350000D01*
%TO.N,Net-(U5-C1+)*%
X174725000Y-97862500D02*
X174725000Y-98975000D01*
X174725000Y-98975000D02*
X174520000Y-99180000D01*
X174520000Y-99180000D02*
X174520000Y-100000000D01*
%TO.N,Net-(U5-C1-)*%
X176025000Y-97862500D02*
X176025000Y-98925000D01*
X176025000Y-98925000D02*
X175480000Y-99470000D01*
X175480000Y-99470000D02*
X175480000Y-100000000D01*
%TO.N,Net-(U5-C2+)*%
X176520000Y-99350000D02*
X176520000Y-100000000D01*
%TO.N,Net-(U5-C2-)*%
X177325000Y-97862500D02*
X177325000Y-99025000D01*
X177325000Y-99025000D02*
X177480000Y-99180000D01*
X177480000Y-99180000D02*
X177480000Y-100000000D01*
%TO.N,/TXD_232*%
X176025000Y-93975000D02*
X176050000Y-94000000D01*
X176025000Y-92137500D02*
X176025000Y-93975000D01*
%TO.N,/RXD_232*%
X176675000Y-93325000D02*
X176650000Y-93350000D01*
X176675000Y-92137500D02*
X176675000Y-93325000D01*
%TO.N,/RTS*%
X178625000Y-92137500D02*
X178625000Y-93325000D01*
X178625000Y-93325000D02*
X177250000Y-94700000D01*
X177250000Y-94700000D02*
X177250000Y-95550000D01*
%TO.N,/CTS*%
X179275000Y-92137500D02*
X179275000Y-93725000D01*
X179275000Y-93725000D02*
X178050000Y-94950000D01*
%TO.N,/TXD_232*%
X182700000Y-94850000D02*
X182650000Y-94900000D01*
X182700000Y-94000000D02*
X182700000Y-94850000D01*
%TO.N,/RXD_232*%
X182700000Y-91500000D02*
X182700000Y-92200000D01*
X182700000Y-92200000D02*
X182500000Y-92400000D01*
%TO.N,/TXD*%
X177975000Y-90875000D02*
X177975000Y-92137500D01*
X178150000Y-90700000D02*
X177975000Y-90875000D01*
%TO.N,/RXD*%
X177325000Y-92137500D02*
X177325000Y-90100000D01*
X177325000Y-90100000D02*
X177300000Y-90075000D01*
X170100000Y-90600000D02*
X169800000Y-90900000D01*
X169800000Y-90900000D02*
X169800000Y-91500000D01*
%TO.N,/TXD*%
X169800000Y-94000000D02*
X169800000Y-93400000D01*
X169800000Y-93400000D02*
X170100000Y-93100000D01*
%TO.N,/CTS*%
X169800000Y-98500000D02*
X169800000Y-97650000D01*
%TO.N,/RTS*%
X169800000Y-101000000D02*
X169800000Y-100100000D01*
%TO.N,VPP*%
X167000000Y-88650000D02*
X169450000Y-88650000D01*
X169450000Y-88650000D02*
X169800000Y-89000000D01*
%TO.N,/RXD*%
X167000000Y-91190000D02*
X169490000Y-91190000D01*
X169490000Y-91190000D02*
X169800000Y-91500000D01*
%TO.N,/TXD*%
X167000000Y-93730000D02*
X169530000Y-93730000D01*
X169530000Y-93730000D02*
X169800000Y-94000000D01*
%TO.N,/CTS*%
X167000000Y-98810000D02*
X169490000Y-98810000D01*
X169490000Y-98810000D02*
X169800000Y-98500000D01*
%TO.N,/RTS*%
X167000000Y-101350000D02*
X169450000Y-101350000D01*
X169450000Y-101350000D02*
X169800000Y-101000000D01*
%TO.N,VPP*%
X185115000Y-88650000D02*
X183050000Y-88650000D01*
X183050000Y-88650000D02*
X182700000Y-89000000D01*
%TO.N,/RXD_232*%
X185115000Y-91190000D02*
X183010000Y-91190000D01*
X183010000Y-91190000D02*
X182700000Y-91500000D01*
%TO.N,/TXD_232*%
X185115000Y-93730000D02*
X182970000Y-93730000D01*
X182970000Y-93730000D02*
X182700000Y-94000000D01*
%TO.N,/CTS_232*%
X185115000Y-98810000D02*
X183910000Y-98810000D01*
X183910000Y-98810000D02*
X183600000Y-98500000D01*
X183600000Y-98500000D02*
X182700000Y-98500000D01*
%TO.N,/RTS_232*%
X185115000Y-101350000D02*
X183850000Y-101350000D01*
X183850000Y-101350000D02*
X183500000Y-101000000D01*
X183500000Y-101000000D02*
X182700000Y-101000000D01*
%TO.N,VPP*%
X144800000Y-89300000D02*
X144800000Y-92000000D01*
%TO.N,/TXD_FT*%
X143200000Y-95400000D02*
X143200000Y-95900000D01*
X141950000Y-94675000D02*
X142475000Y-94675000D01*
X142475000Y-94675000D02*
X143200000Y-95400000D01*
%TO.N,/RTS_FT*%
X141950000Y-94025000D02*
X142825000Y-94025000D01*
X142825000Y-94025000D02*
X143300000Y-94500000D01*
%TO.N,/TXD*%
X146500000Y-95300000D02*
X147200000Y-94600000D01*
X147200000Y-94600000D02*
X147200000Y-94000000D01*
%TO.N,/RXD*%
X146500000Y-92300000D02*
X147200000Y-91600000D01*
X147200000Y-91600000D02*
X147200000Y-91500000D01*
%TO.N,VPP*%
X146100000Y-96500000D02*
X145000000Y-95400000D01*
X145000000Y-95400000D02*
X145000000Y-92600000D01*
X145000000Y-92600000D02*
X145200000Y-92400000D01*
%TO.N,/RTS*%
X147200000Y-100500000D02*
X147200000Y-99700000D01*
%TO.N,/CTS*%
X147200000Y-98500000D02*
X147200000Y-97700000D01*
%TO.N,/RXD_FT*%
X140325000Y-92060298D02*
X140325000Y-93050000D01*
X140675961Y-91748059D02*
X140637239Y-91748059D01*
X141049021Y-91374999D02*
X140675961Y-91748059D01*
X140637239Y-91748059D02*
X140325000Y-92060298D01*
%TO.N,/TXD*%
X148625000Y-93730000D02*
X147470000Y-93730000D01*
X147470000Y-93730000D02*
X147200000Y-94000000D01*
%TO.N,/RXD*%
X147200000Y-91500000D02*
X148315000Y-91500000D01*
X148315000Y-91500000D02*
X148625000Y-91190000D01*
%TO.N,VCC*%
X141800000Y-99987500D02*
X141787500Y-100000000D01*
X141800000Y-99100000D02*
X141800000Y-99987500D01*
%TO.N,+3V3*%
X140975000Y-93050000D02*
X140975000Y-92495000D01*
X140975000Y-92495000D02*
X141110000Y-92360000D01*
%TO.N,VCC*%
X139675000Y-96950000D02*
X139675000Y-97575000D01*
X139675000Y-97575000D02*
X139000000Y-98250000D01*
X137480000Y-99020000D02*
X138000000Y-99020000D01*
X139000000Y-99020000D02*
X138000000Y-99020000D01*
X137300000Y-99200000D02*
X137480000Y-99020000D01*
X139000000Y-98250000D02*
X139000000Y-99020000D01*
%TO.N,GND*%
X140975000Y-95975000D02*
X140000000Y-95000000D01*
X139675000Y-93050000D02*
X139675000Y-94675000D01*
X139675000Y-94675000D02*
X140000000Y-95000000D01*
X141950000Y-95975000D02*
X140975000Y-95975000D01*
X137400000Y-99980000D02*
X139000000Y-99980000D01*
%TO.N,+3V3*%
X138330000Y-97450000D02*
X138800000Y-97450000D01*
X137400000Y-96520000D02*
X137400000Y-96200000D01*
X138050000Y-95975000D02*
X137625000Y-95975000D01*
X139025000Y-97225000D02*
X139025000Y-96950000D01*
X138800000Y-97450000D02*
X139025000Y-97225000D01*
X137625000Y-95975000D02*
X137400000Y-96200000D01*
X137400000Y-96520000D02*
X138330000Y-97450000D01*
%TO.N,VPP*%
X148050000Y-89225000D02*
X147775000Y-89500000D01*
X147775000Y-89500000D02*
X147200000Y-89500000D01*
X148050000Y-88650000D02*
X148050000Y-89225000D01*
%TO.N,Net-(D1-K)*%
X140212500Y-100000000D02*
X139990000Y-99777500D01*
X139990000Y-99777500D02*
X139990000Y-98800000D01*
%TO.N,Net-(D2-K)*%
X139010000Y-90500000D02*
X139470000Y-90500000D01*
X139970000Y-90000000D02*
X140212500Y-90000000D01*
X139470000Y-90500000D02*
X139970000Y-90000000D01*
%TO.N,VBUS*%
X135200000Y-97600000D02*
X135200000Y-98500000D01*
X135500000Y-97300000D02*
X135200000Y-97600000D01*
%TO.N,Net-(J1-D-)*%
X134800000Y-95600000D02*
X135200000Y-96000000D01*
X133700000Y-95600000D02*
X134800000Y-95600000D01*
%TO.N,Net-(J1-D+)*%
X134800000Y-94400000D02*
X135200000Y-94000000D01*
X134850000Y-94350000D02*
X134850000Y-94000000D01*
X133700000Y-94400000D02*
X134800000Y-94400000D01*
X134800000Y-94400000D02*
X134850000Y-94350000D01*
%TO.N,/RTS*%
X148050000Y-101350000D02*
X147200000Y-100500000D01*
%TO.N,/CTS*%
X147700000Y-98500000D02*
X147200000Y-98500000D01*
X148625000Y-98810000D02*
X148010000Y-98810000D01*
X148010000Y-98810000D02*
X147700000Y-98500000D01*
%TO.N,/CTS_FT*%
X139025000Y-91725000D02*
X139025000Y-93050000D01*
X139010000Y-91710000D02*
X139025000Y-91725000D01*
%TO.N,/LED_TX*%
X141010000Y-98360000D02*
X141010000Y-99000000D01*
X140325000Y-97675000D02*
X141010000Y-98360000D01*
X140325000Y-96950000D02*
X140325000Y-97675000D01*
%TO.N,/LED_RX*%
X137390000Y-91010000D02*
X137900000Y-90500000D01*
X138050000Y-94025000D02*
X137595000Y-94025000D01*
X137390000Y-93820000D02*
X137390000Y-91010000D01*
X137595000Y-94025000D02*
X137390000Y-93820000D01*
%TO.N,/USB_DM*%
X137275000Y-95325000D02*
X137150000Y-95450000D01*
X138050000Y-95325000D02*
X137275000Y-95325000D01*
%TO.N,/USB_DP*%
X137275000Y-94675000D02*
X137150000Y-94550000D01*
X138050000Y-94675000D02*
X137275000Y-94675000D01*
%TO.N,VPP*%
X144800000Y-92000000D02*
X145200000Y-92400000D01*
X145400000Y-88700000D02*
X144800000Y-89300000D01*
X147200000Y-89500000D02*
X146400000Y-88700000D01*
X146400000Y-88700000D02*
X145400000Y-88700000D01*
%TD*%
%TA.AperFunction,Conductor*%
%TO.N,GND*%
G36*
X147569366Y-87519685D02*
G01*
X147615121Y-87572489D01*
X147625065Y-87641647D01*
X147605428Y-87692892D01*
X147586132Y-87721768D01*
X147586131Y-87721770D01*
X147574500Y-87780247D01*
X147574500Y-88833987D01*
X147554815Y-88901026D01*
X147502011Y-88946781D01*
X147432853Y-88956725D01*
X147432624Y-88956692D01*
X147414078Y-88953990D01*
X147383260Y-88949500D01*
X147383256Y-88949500D01*
X147161189Y-88949500D01*
X147094150Y-88929815D01*
X147073508Y-88913181D01*
X146599864Y-88439537D01*
X146599862Y-88439535D01*
X146562750Y-88418108D01*
X146525640Y-88396682D01*
X146484246Y-88385591D01*
X146442853Y-88374500D01*
X145442853Y-88374500D01*
X145357147Y-88374500D01*
X145274359Y-88396682D01*
X145200138Y-88439535D01*
X145200135Y-88439537D01*
X144539537Y-89100135D01*
X144539535Y-89100138D01*
X144496683Y-89174359D01*
X144480983Y-89232952D01*
X144476186Y-89250856D01*
X144474500Y-89257147D01*
X144474500Y-91957147D01*
X144474500Y-92042853D01*
X144485591Y-92084246D01*
X144496682Y-92125640D01*
X144508326Y-92145807D01*
X144539535Y-92199862D01*
X144539537Y-92199864D01*
X144663181Y-92323508D01*
X144677884Y-92350435D01*
X144694477Y-92376254D01*
X144695368Y-92382454D01*
X144696666Y-92384831D01*
X144699500Y-92411189D01*
X144699500Y-92447518D01*
X144695275Y-92479610D01*
X144685904Y-92514585D01*
X144674500Y-92557145D01*
X144674500Y-95442852D01*
X144696682Y-95525640D01*
X144697038Y-95526256D01*
X144739535Y-95599862D01*
X144739537Y-95599864D01*
X145502492Y-96362819D01*
X145535977Y-96424142D01*
X145530993Y-96493834D01*
X145489121Y-96549767D01*
X145423657Y-96574184D01*
X145414811Y-96574500D01*
X145057147Y-96574500D01*
X144974359Y-96596682D01*
X144900138Y-96639535D01*
X144900135Y-96639537D01*
X144537181Y-97002492D01*
X144475858Y-97035977D01*
X144406166Y-97030993D01*
X144350233Y-96989121D01*
X144325816Y-96923657D01*
X144325500Y-96914811D01*
X144325500Y-93752855D01*
X144325501Y-93752842D01*
X144325501Y-93657149D01*
X144312874Y-93610027D01*
X144303318Y-93574362D01*
X144303317Y-93574361D01*
X144303317Y-93574359D01*
X144303315Y-93574356D01*
X144283325Y-93539734D01*
X144277785Y-93530138D01*
X144260465Y-93500138D01*
X144199862Y-93439535D01*
X144199859Y-93439533D01*
X143171515Y-92411189D01*
X142149319Y-91388992D01*
X142115834Y-91327669D01*
X142113000Y-91301311D01*
X142113000Y-90748380D01*
X142132685Y-90681341D01*
X142180702Y-90637897D01*
X142255751Y-90599658D01*
X142349658Y-90505751D01*
X142409951Y-90387420D01*
X142409951Y-90387418D01*
X142409952Y-90387417D01*
X142425500Y-90289251D01*
X142425500Y-89710748D01*
X142409952Y-89612582D01*
X142406778Y-89606353D01*
X142349658Y-89494249D01*
X142349654Y-89494245D01*
X142349653Y-89494243D01*
X142255756Y-89400346D01*
X142255753Y-89400344D01*
X142255751Y-89400342D01*
X142137420Y-89340049D01*
X142137419Y-89340048D01*
X142137416Y-89340047D01*
X142137417Y-89340047D01*
X142039251Y-89324500D01*
X142039246Y-89324500D01*
X141535754Y-89324500D01*
X141535749Y-89324500D01*
X141437582Y-89340047D01*
X141368985Y-89375000D01*
X141319249Y-89400342D01*
X141319248Y-89400343D01*
X141319243Y-89400346D01*
X141225346Y-89494243D01*
X141225343Y-89494248D01*
X141225342Y-89494249D01*
X141217868Y-89508918D01*
X141165047Y-89612582D01*
X141149500Y-89710748D01*
X141149500Y-90289251D01*
X141165047Y-90387417D01*
X141173041Y-90403106D01*
X141225342Y-90505751D01*
X141225344Y-90505753D01*
X141225346Y-90505756D01*
X141319243Y-90599653D01*
X141319247Y-90599656D01*
X141319249Y-90599658D01*
X141394297Y-90637897D01*
X141405359Y-90648344D01*
X141419203Y-90654667D01*
X141430243Y-90671846D01*
X141445091Y-90685869D01*
X141449332Y-90701550D01*
X141456977Y-90713445D01*
X141462000Y-90748380D01*
X141462000Y-90929823D01*
X141442315Y-90996862D01*
X141389511Y-91042617D01*
X141320353Y-91052561D01*
X141256797Y-91023536D01*
X141250319Y-91017504D01*
X141207316Y-90974501D01*
X141207314Y-90974499D01*
X141129436Y-90929536D01*
X141093187Y-90908607D01*
X141020787Y-90889208D01*
X140965892Y-90874499D01*
X140834108Y-90874499D01*
X140706812Y-90908607D01*
X140592686Y-90974499D01*
X140592683Y-90974501D01*
X140499502Y-91067682D01*
X140499500Y-91067685D01*
X140433608Y-91181811D01*
X140399500Y-91309107D01*
X140399500Y-91440890D01*
X140400561Y-91448952D01*
X140398588Y-91449211D01*
X140397179Y-91508300D01*
X140366751Y-91558219D01*
X140064534Y-91860437D01*
X140021682Y-91934657D01*
X140017244Y-91951219D01*
X140015026Y-91959500D01*
X140015026Y-91959501D01*
X140015025Y-91959500D01*
X139999500Y-92017443D01*
X139999500Y-92318145D01*
X139979815Y-92385184D01*
X139927011Y-92430939D01*
X139857853Y-92440883D01*
X139851309Y-92439762D01*
X139800000Y-92429556D01*
X139800000Y-93670440D01*
X139857299Y-93659044D01*
X139930659Y-93610027D01*
X139997336Y-93589149D01*
X140064716Y-93607633D01*
X140068440Y-93610027D01*
X140138964Y-93657149D01*
X140142505Y-93659515D01*
X140142508Y-93659515D01*
X140142509Y-93659516D01*
X140169533Y-93664891D01*
X140222867Y-93675500D01*
X140427132Y-93675499D01*
X140507495Y-93659515D01*
X140581109Y-93610326D01*
X140647786Y-93589449D01*
X140715167Y-93607933D01*
X140718880Y-93610320D01*
X140769514Y-93644153D01*
X140792505Y-93659515D01*
X140792509Y-93659516D01*
X140819533Y-93664891D01*
X140872867Y-93675500D01*
X141077132Y-93675499D01*
X141157495Y-93659515D01*
X141248624Y-93598624D01*
X141309515Y-93507495D01*
X141325500Y-93427133D01*
X141325499Y-92885099D01*
X141345183Y-92818061D01*
X141387497Y-92777714D01*
X141417314Y-92760500D01*
X141510500Y-92667314D01*
X141576392Y-92553186D01*
X141610500Y-92425892D01*
X141610500Y-92294108D01*
X141576392Y-92166814D01*
X141510500Y-92052686D01*
X141417314Y-91959500D01*
X141366671Y-91930261D01*
X141307476Y-91896084D01*
X141294244Y-91882206D01*
X141277857Y-91872254D01*
X141270632Y-91857442D01*
X141259261Y-91845516D01*
X141255632Y-91826689D01*
X141247227Y-91809456D01*
X141249157Y-91793089D01*
X141246039Y-91776909D01*
X141253165Y-91759108D01*
X141255411Y-91740067D01*
X141268606Y-91720536D01*
X141272007Y-91712044D01*
X141273732Y-91709901D01*
X141277544Y-91705268D01*
X141300500Y-91682313D01*
X141310051Y-91665769D01*
X141316564Y-91657856D01*
X141337320Y-91643759D01*
X141355483Y-91626439D01*
X141365732Y-91624463D01*
X141374364Y-91618601D01*
X141399446Y-91617963D01*
X141424089Y-91613213D01*
X141433777Y-91617091D01*
X141444211Y-91616826D01*
X141465659Y-91629852D01*
X141488955Y-91639177D01*
X141497779Y-91649360D01*
X141503929Y-91653095D01*
X141507679Y-91660783D01*
X141519694Y-91674648D01*
X141520759Y-91676492D01*
X141527035Y-91687362D01*
X142600173Y-92760500D01*
X143638181Y-93798507D01*
X143652884Y-93825434D01*
X143669477Y-93851253D01*
X143670368Y-93857453D01*
X143671666Y-93859830D01*
X143674500Y-93886188D01*
X143674500Y-93923514D01*
X143654815Y-93990553D01*
X143602011Y-94036308D01*
X143532853Y-94046252D01*
X143501276Y-94035328D01*
X143500700Y-94036720D01*
X143493188Y-94033609D01*
X143493187Y-94033608D01*
X143493186Y-94033608D01*
X143365892Y-93999500D01*
X143365891Y-93999500D01*
X143311189Y-93999500D01*
X143244150Y-93979815D01*
X143223508Y-93963181D01*
X143024864Y-93764537D01*
X143024862Y-93764535D01*
X142987102Y-93742734D01*
X142950640Y-93721682D01*
X142891533Y-93705845D01*
X142867853Y-93699500D01*
X142867852Y-93699500D01*
X142453925Y-93699500D01*
X142419515Y-93692655D01*
X142419473Y-93692867D01*
X142327135Y-93674500D01*
X141572870Y-93674500D01*
X141492504Y-93690485D01*
X141492502Y-93690486D01*
X141469515Y-93705845D01*
X141469510Y-93705849D01*
X141401376Y-93751376D01*
X141355849Y-93819510D01*
X141355845Y-93819515D01*
X141340485Y-93842503D01*
X141340483Y-93842509D01*
X141324500Y-93922863D01*
X141324500Y-94127129D01*
X141328950Y-94149500D01*
X141340485Y-94207495D01*
X141384383Y-94273193D01*
X141389673Y-94281109D01*
X141410551Y-94347786D01*
X141392067Y-94415167D01*
X141389673Y-94418891D01*
X141340484Y-94492505D01*
X141340483Y-94492509D01*
X141324500Y-94572863D01*
X141324500Y-94777129D01*
X141329149Y-94800500D01*
X141340485Y-94857495D01*
X141368553Y-94899502D01*
X141389673Y-94931109D01*
X141410551Y-94997786D01*
X141392067Y-95065167D01*
X141389673Y-95068891D01*
X141340484Y-95142505D01*
X141340483Y-95142509D01*
X141324500Y-95222863D01*
X141324500Y-95427129D01*
X141327628Y-95442853D01*
X141340485Y-95507495D01*
X141353021Y-95526256D01*
X141389973Y-95581559D01*
X141410850Y-95648236D01*
X141392365Y-95715616D01*
X141389972Y-95719339D01*
X141340955Y-95792697D01*
X141340953Y-95792701D01*
X141329556Y-95849999D01*
X141329557Y-95850000D01*
X141826000Y-95850000D01*
X141834685Y-95852550D01*
X141843647Y-95851262D01*
X141867687Y-95862240D01*
X141893039Y-95869685D01*
X141898966Y-95876525D01*
X141907203Y-95880287D01*
X141921492Y-95902521D01*
X141938794Y-95922489D01*
X141941081Y-95933003D01*
X141944977Y-95939065D01*
X141950000Y-95974000D01*
X141950000Y-95975000D01*
X141951000Y-95975000D01*
X142018039Y-95994685D01*
X142063794Y-96047489D01*
X142075000Y-96099000D01*
X142075000Y-96325000D01*
X142327089Y-96325000D01*
X142327092Y-96324999D01*
X142407297Y-96309046D01*
X142407298Y-96309045D01*
X142498263Y-96248264D01*
X142561762Y-96153231D01*
X142615374Y-96108426D01*
X142684699Y-96099718D01*
X142747727Y-96129872D01*
X142772251Y-96160119D01*
X142784008Y-96180482D01*
X142799500Y-96207314D01*
X142892686Y-96300500D01*
X143006814Y-96366392D01*
X143134108Y-96400500D01*
X143134110Y-96400500D01*
X143265890Y-96400500D01*
X143265892Y-96400500D01*
X143393186Y-96366392D01*
X143488501Y-96311361D01*
X143556399Y-96294889D01*
X143622426Y-96317741D01*
X143665617Y-96372662D01*
X143674500Y-96418749D01*
X143674500Y-96713811D01*
X143654815Y-96780850D01*
X143638181Y-96801492D01*
X141876492Y-98563181D01*
X141815169Y-98596666D01*
X141809462Y-98597768D01*
X141799208Y-98599500D01*
X141734108Y-98599500D01*
X141623091Y-98629246D01*
X141617304Y-98630224D01*
X141588198Y-98626765D01*
X141558896Y-98626068D01*
X141553906Y-98622690D01*
X141547923Y-98621980D01*
X141525309Y-98603335D01*
X141501033Y-98586905D01*
X141498600Y-98581314D01*
X141494013Y-98577533D01*
X141485798Y-98551899D01*
X141478611Y-98535387D01*
X141476724Y-98535938D01*
X141474068Y-98526829D01*
X141474068Y-98526827D01*
X141424065Y-98419596D01*
X141364075Y-98359606D01*
X141331982Y-98304019D01*
X141313318Y-98234362D01*
X141313314Y-98234355D01*
X141270469Y-98160144D01*
X141270463Y-98160136D01*
X140897507Y-97787180D01*
X140864022Y-97725857D01*
X140869006Y-97656165D01*
X140910878Y-97600232D01*
X140976342Y-97575815D01*
X140985175Y-97575499D01*
X141077132Y-97575499D01*
X141157495Y-97559515D01*
X141248624Y-97498624D01*
X141309515Y-97407495D01*
X141325500Y-97327133D01*
X141325499Y-96572868D01*
X141309515Y-96492505D01*
X141248624Y-96401376D01*
X141157495Y-96340485D01*
X141157494Y-96340484D01*
X141157493Y-96340484D01*
X141157490Y-96340483D01*
X141077135Y-96324500D01*
X140872870Y-96324500D01*
X140792504Y-96340485D01*
X140718891Y-96389673D01*
X140652214Y-96410551D01*
X140584833Y-96392067D01*
X140581109Y-96389673D01*
X140507494Y-96340484D01*
X140507490Y-96340483D01*
X140427135Y-96324500D01*
X140222870Y-96324500D01*
X140142504Y-96340485D01*
X140068891Y-96389673D01*
X140002214Y-96410551D01*
X139934833Y-96392067D01*
X139931109Y-96389673D01*
X139857494Y-96340484D01*
X139857490Y-96340483D01*
X139777135Y-96324500D01*
X139572870Y-96324500D01*
X139492504Y-96340485D01*
X139418891Y-96389673D01*
X139352214Y-96410551D01*
X139284833Y-96392067D01*
X139281109Y-96389673D01*
X139207494Y-96340484D01*
X139207490Y-96340483D01*
X139127135Y-96324500D01*
X138922870Y-96324500D01*
X138842504Y-96340485D01*
X138842502Y-96340486D01*
X138819515Y-96355845D01*
X138819510Y-96355849D01*
X138751376Y-96401376D01*
X138705849Y-96469510D01*
X138705845Y-96469515D01*
X138690485Y-96492503D01*
X138690483Y-96492509D01*
X138674500Y-96572862D01*
X138674500Y-97000500D01*
X138671949Y-97009185D01*
X138673238Y-97018147D01*
X138662259Y-97042187D01*
X138654815Y-97067539D01*
X138647974Y-97073466D01*
X138644213Y-97081703D01*
X138621978Y-97095992D01*
X138602011Y-97113294D01*
X138591496Y-97115581D01*
X138585435Y-97119477D01*
X138550500Y-97124500D01*
X138516188Y-97124500D01*
X138449149Y-97104815D01*
X138428507Y-97088181D01*
X137936819Y-96596492D01*
X137903334Y-96535169D01*
X137900500Y-96508811D01*
X137900500Y-96449499D01*
X137920185Y-96382460D01*
X137972989Y-96336705D01*
X138024500Y-96325499D01*
X138427130Y-96325499D01*
X138427132Y-96325499D01*
X138507495Y-96309515D01*
X138598624Y-96248624D01*
X138659515Y-96157495D01*
X138670951Y-96100000D01*
X141329556Y-96100000D01*
X141340953Y-96157298D01*
X141340954Y-96157299D01*
X141356929Y-96181207D01*
X141468791Y-96293069D01*
X141492701Y-96309045D01*
X141492702Y-96309046D01*
X141572907Y-96324999D01*
X141572911Y-96325000D01*
X141825000Y-96325000D01*
X141825000Y-96100000D01*
X141329556Y-96100000D01*
X138670951Y-96100000D01*
X138675500Y-96077133D01*
X138675499Y-95872868D01*
X138659515Y-95792505D01*
X138610326Y-95718890D01*
X138589449Y-95652214D01*
X138607933Y-95584833D01*
X138610327Y-95581109D01*
X138622901Y-95562291D01*
X138659515Y-95507495D01*
X138675500Y-95427133D01*
X138675499Y-95222868D01*
X138659515Y-95142505D01*
X138610326Y-95068890D01*
X138589449Y-95002214D01*
X138607933Y-94934833D01*
X138610327Y-94931109D01*
X138622882Y-94912319D01*
X138659515Y-94857495D01*
X138675500Y-94777133D01*
X138675499Y-94572868D01*
X138659515Y-94492505D01*
X138610326Y-94418890D01*
X138589449Y-94352214D01*
X138607933Y-94284833D01*
X138610327Y-94281109D01*
X138659515Y-94207495D01*
X138675500Y-94127133D01*
X138675499Y-93922868D01*
X138659515Y-93842505D01*
X138598624Y-93751376D01*
X138530483Y-93705845D01*
X138530482Y-93705844D01*
X138507497Y-93690486D01*
X138507490Y-93690483D01*
X138427137Y-93674500D01*
X138427133Y-93674500D01*
X137839500Y-93674500D01*
X137772461Y-93654815D01*
X137726706Y-93602011D01*
X137715500Y-93550500D01*
X137715500Y-91196189D01*
X137724144Y-91166748D01*
X137730668Y-91136762D01*
X137734422Y-91131746D01*
X137735185Y-91129150D01*
X137751819Y-91108508D01*
X137803508Y-91056819D01*
X137864831Y-91023334D01*
X137891189Y-91020500D01*
X138164317Y-91020500D01*
X138187134Y-91017496D01*
X138213173Y-91014068D01*
X138320404Y-90964065D01*
X138404065Y-90880404D01*
X138404065Y-90880403D01*
X138411736Y-90872733D01*
X138414564Y-90875561D01*
X138452977Y-90844843D01*
X138522474Y-90837635D01*
X138584835Y-90869143D01*
X138588093Y-90872903D01*
X138588264Y-90872733D01*
X138595935Y-90880404D01*
X138679596Y-90964065D01*
X138786827Y-91014068D01*
X138786833Y-91014068D01*
X138792187Y-91015630D01*
X138851040Y-91053287D01*
X138880191Y-91116785D01*
X138870384Y-91185963D01*
X138824734Y-91238858D01*
X138819489Y-91242063D01*
X138702686Y-91309500D01*
X138702683Y-91309502D01*
X138609502Y-91402683D01*
X138609500Y-91402686D01*
X138543608Y-91516812D01*
X138514764Y-91624463D01*
X138509500Y-91644108D01*
X138509500Y-91775892D01*
X138515826Y-91799500D01*
X138543608Y-91903187D01*
X138561172Y-91933608D01*
X138609500Y-92017314D01*
X138609502Y-92017316D01*
X138663181Y-92070995D01*
X138696666Y-92132318D01*
X138699500Y-92158676D01*
X138699500Y-92546074D01*
X138692656Y-92580485D01*
X138692867Y-92580527D01*
X138674500Y-92672862D01*
X138674500Y-93427129D01*
X138690485Y-93507495D01*
X138690486Y-93507497D01*
X138705844Y-93530482D01*
X138705845Y-93530483D01*
X138751376Y-93598624D01*
X138819516Y-93644154D01*
X138842505Y-93659515D01*
X138842509Y-93659516D01*
X138869533Y-93664891D01*
X138922867Y-93675500D01*
X139127132Y-93675499D01*
X139207495Y-93659515D01*
X139281558Y-93610026D01*
X139348235Y-93589149D01*
X139415616Y-93607633D01*
X139419340Y-93610027D01*
X139492700Y-93659044D01*
X139550000Y-93670441D01*
X139550000Y-92429557D01*
X139549999Y-92429556D01*
X139498691Y-92439762D01*
X139477707Y-92437884D01*
X139456853Y-92440883D01*
X139443605Y-92434833D01*
X139429099Y-92433535D01*
X139412461Y-92420609D01*
X139393297Y-92411858D01*
X139385422Y-92399605D01*
X139373922Y-92390671D01*
X139366913Y-92370803D01*
X139355523Y-92353080D01*
X139351988Y-92328496D01*
X139350678Y-92324782D01*
X139350500Y-92318145D01*
X139350500Y-92128676D01*
X139370185Y-92061637D01*
X139386819Y-92040995D01*
X139392406Y-92035408D01*
X139410500Y-92017314D01*
X139476392Y-91903186D01*
X139510500Y-91775892D01*
X139510500Y-91644108D01*
X139476392Y-91516814D01*
X139410500Y-91402686D01*
X139317314Y-91309500D01*
X139203186Y-91243608D01*
X139203185Y-91243607D01*
X139200510Y-91242063D01*
X139152295Y-91191496D01*
X139139073Y-91122888D01*
X139165041Y-91058024D01*
X139221955Y-91017496D01*
X139227815Y-91015629D01*
X139233162Y-91014069D01*
X139233173Y-91014068D01*
X139340404Y-90964065D01*
X139424065Y-90880404D01*
X139424068Y-90880397D01*
X139426099Y-90877498D01*
X139430445Y-90874023D01*
X139431736Y-90872733D01*
X139431879Y-90872876D01*
X139480674Y-90833871D01*
X139511493Y-90825679D01*
X139512850Y-90825500D01*
X139512853Y-90825500D01*
X139595639Y-90803318D01*
X139669862Y-90760465D01*
X139739256Y-90691070D01*
X139800577Y-90657585D01*
X139852661Y-90660192D01*
X139852941Y-90658425D01*
X139960749Y-90675500D01*
X139960754Y-90675500D01*
X140464251Y-90675500D01*
X140562417Y-90659952D01*
X140562418Y-90659951D01*
X140562420Y-90659951D01*
X140680751Y-90599658D01*
X140774658Y-90505751D01*
X140834951Y-90387420D01*
X140834951Y-90387418D01*
X140834952Y-90387417D01*
X140850500Y-90289251D01*
X140850500Y-89710748D01*
X140834952Y-89612582D01*
X140831778Y-89606353D01*
X140774658Y-89494249D01*
X140774654Y-89494245D01*
X140774653Y-89494243D01*
X140680756Y-89400346D01*
X140680753Y-89400344D01*
X140680751Y-89400342D01*
X140562420Y-89340049D01*
X140562419Y-89340048D01*
X140562416Y-89340047D01*
X140562417Y-89340047D01*
X140464251Y-89324500D01*
X140464246Y-89324500D01*
X139960754Y-89324500D01*
X139960749Y-89324500D01*
X139862582Y-89340047D01*
X139793985Y-89375000D01*
X139744249Y-89400342D01*
X139744248Y-89400343D01*
X139744243Y-89400346D01*
X139650346Y-89494243D01*
X139650343Y-89494248D01*
X139650342Y-89494249D01*
X139642868Y-89508918D01*
X139590047Y-89612582D01*
X139574500Y-89710748D01*
X139574500Y-89883811D01*
X139565855Y-89913248D01*
X139559332Y-89943239D01*
X139555577Y-89948254D01*
X139554815Y-89950850D01*
X139538180Y-89971493D01*
X139492398Y-90017274D01*
X139431075Y-90050758D01*
X139361383Y-90045773D01*
X139350462Y-90040033D01*
X139350236Y-90040520D01*
X139340404Y-90035935D01*
X139233173Y-89985932D01*
X139233171Y-89985931D01*
X139233172Y-89985931D01*
X139184317Y-89979500D01*
X139184316Y-89979500D01*
X138835684Y-89979500D01*
X138835683Y-89979500D01*
X138786828Y-89985931D01*
X138679595Y-90035935D01*
X138588264Y-90127267D01*
X138585440Y-90124443D01*
X138546958Y-90155183D01*
X138477458Y-90162352D01*
X138415114Y-90130808D01*
X138411901Y-90127101D01*
X138411736Y-90127267D01*
X138320404Y-90035935D01*
X138213173Y-89985932D01*
X138213171Y-89985931D01*
X138213172Y-89985931D01*
X138164317Y-89979500D01*
X138164316Y-89979500D01*
X137815684Y-89979500D01*
X137815683Y-89979500D01*
X137766828Y-89985931D01*
X137659595Y-90035935D01*
X137575935Y-90119595D01*
X137525931Y-90226828D01*
X137519500Y-90275683D01*
X137519500Y-90368811D01*
X137499815Y-90435850D01*
X137483181Y-90456492D01*
X137129537Y-90810135D01*
X137129535Y-90810138D01*
X137088967Y-90880404D01*
X137086682Y-90884361D01*
X137074578Y-90929535D01*
X137074578Y-90929536D01*
X137074577Y-90929535D01*
X137064500Y-90967145D01*
X137064500Y-93862854D01*
X137080381Y-93922125D01*
X137078718Y-93991975D01*
X137039554Y-94049837D01*
X136992702Y-94073991D01*
X136956814Y-94083607D01*
X136842686Y-94149500D01*
X136842683Y-94149502D01*
X136749502Y-94242683D01*
X136749500Y-94242686D01*
X136731887Y-94273193D01*
X136681319Y-94321408D01*
X136612712Y-94334630D01*
X136547848Y-94308662D01*
X136507320Y-94251748D01*
X136500500Y-94211192D01*
X136500500Y-93430249D01*
X136500499Y-93430247D01*
X136488868Y-93371770D01*
X136488867Y-93371769D01*
X136444552Y-93305447D01*
X136378230Y-93261132D01*
X136378229Y-93261131D01*
X136319752Y-93249500D01*
X136319748Y-93249500D01*
X134080252Y-93249500D01*
X134080247Y-93249500D01*
X134021770Y-93261131D01*
X134021769Y-93261132D01*
X133955447Y-93305447D01*
X133911132Y-93371769D01*
X133911131Y-93371770D01*
X133899500Y-93430247D01*
X133899500Y-93675695D01*
X133879815Y-93742734D01*
X133827011Y-93788489D01*
X133774019Y-93796430D01*
X133774019Y-93799500D01*
X133634108Y-93799500D01*
X133506812Y-93833608D01*
X133392686Y-93899500D01*
X133392683Y-93899502D01*
X133299502Y-93992683D01*
X133299500Y-93992686D01*
X133233608Y-94106812D01*
X133222170Y-94149500D01*
X133199500Y-94234108D01*
X133199500Y-94365892D01*
X133213701Y-94418891D01*
X133233608Y-94493187D01*
X133253856Y-94528256D01*
X133299500Y-94607314D01*
X133392686Y-94700500D01*
X133506814Y-94766392D01*
X133634108Y-94800500D01*
X133634110Y-94800500D01*
X133765890Y-94800500D01*
X133765892Y-94800500D01*
X133893186Y-94766392D01*
X133921702Y-94749928D01*
X133989599Y-94733455D01*
X134009505Y-94737913D01*
X134009790Y-94736485D01*
X134080247Y-94750499D01*
X134080250Y-94750500D01*
X134080252Y-94750500D01*
X136319750Y-94750500D01*
X136319751Y-94750499D01*
X136334568Y-94747552D01*
X136378229Y-94738868D01*
X136378229Y-94738867D01*
X136378231Y-94738867D01*
X136444552Y-94694552D01*
X136453836Y-94680656D01*
X136507446Y-94635853D01*
X136576771Y-94627144D01*
X136639799Y-94657298D01*
X136676519Y-94716740D01*
X136676712Y-94717452D01*
X136683607Y-94743185D01*
X136695152Y-94763181D01*
X136749500Y-94857314D01*
X136749502Y-94857316D01*
X136804505Y-94912319D01*
X136837990Y-94973642D01*
X136833006Y-95043334D01*
X136804505Y-95087681D01*
X136749502Y-95142683D01*
X136749500Y-95142686D01*
X136683608Y-95256813D01*
X136676712Y-95282548D01*
X136640345Y-95342207D01*
X136577498Y-95372735D01*
X136508122Y-95364438D01*
X136454246Y-95319951D01*
X136453836Y-95319342D01*
X136444552Y-95305447D01*
X136378230Y-95261132D01*
X136378229Y-95261131D01*
X136319752Y-95249500D01*
X136319748Y-95249500D01*
X134080252Y-95249500D01*
X134080247Y-95249500D01*
X134009790Y-95263515D01*
X134009016Y-95259626D01*
X133961675Y-95264712D01*
X133921701Y-95250071D01*
X133893188Y-95233609D01*
X133893187Y-95233608D01*
X133893186Y-95233608D01*
X133765892Y-95199500D01*
X133634108Y-95199500D01*
X133506812Y-95233608D01*
X133392686Y-95299500D01*
X133392683Y-95299502D01*
X133299502Y-95392683D01*
X133299500Y-95392686D01*
X133233608Y-95506812D01*
X133208002Y-95602376D01*
X133199500Y-95634108D01*
X133199500Y-95765892D01*
X133208773Y-95800499D01*
X133233608Y-95893187D01*
X133247005Y-95916391D01*
X133299500Y-96007314D01*
X133392686Y-96100500D01*
X133506814Y-96166392D01*
X133634108Y-96200500D01*
X133634110Y-96200500D01*
X133774019Y-96200500D01*
X133774019Y-96203671D01*
X133828274Y-96212095D01*
X133880561Y-96258439D01*
X133899500Y-96324304D01*
X133899500Y-96569752D01*
X133911131Y-96628229D01*
X133911132Y-96628230D01*
X133955447Y-96694552D01*
X134021769Y-96738867D01*
X134021770Y-96738868D01*
X134080247Y-96750499D01*
X134080250Y-96750500D01*
X135042324Y-96750500D01*
X135109363Y-96770185D01*
X135155118Y-96822989D01*
X135165062Y-96892147D01*
X135136037Y-96955703D01*
X135130005Y-96962181D01*
X135099502Y-96992683D01*
X135099500Y-96992686D01*
X135033608Y-97106812D01*
X134999500Y-97234108D01*
X134999500Y-97288811D01*
X134984378Y-97348154D01*
X134975822Y-97363850D01*
X134939535Y-97400138D01*
X134896682Y-97474361D01*
X134882225Y-97528318D01*
X134878400Y-97542589D01*
X134878399Y-97542593D01*
X134874500Y-97557144D01*
X134874500Y-97625500D01*
X134854815Y-97692539D01*
X134802011Y-97738294D01*
X134750500Y-97749500D01*
X134080247Y-97749500D01*
X134021770Y-97761131D01*
X134021769Y-97761132D01*
X133955447Y-97805447D01*
X133911132Y-97871769D01*
X133911131Y-97871770D01*
X133899500Y-97930247D01*
X133899500Y-99069752D01*
X133911131Y-99128229D01*
X133911132Y-99128230D01*
X133955447Y-99194552D01*
X134021769Y-99238867D01*
X134021770Y-99238868D01*
X134080247Y-99250499D01*
X134080250Y-99250500D01*
X134080252Y-99250500D01*
X136319750Y-99250500D01*
X136319751Y-99250499D01*
X136334568Y-99247552D01*
X136378229Y-99238868D01*
X136378229Y-99238867D01*
X136378231Y-99238867D01*
X136444552Y-99194552D01*
X136479963Y-99141556D01*
X136533573Y-99096752D01*
X136602898Y-99088045D01*
X136665926Y-99118199D01*
X136702646Y-99177642D01*
X136702839Y-99178354D01*
X136733608Y-99293186D01*
X136799500Y-99407314D01*
X136892686Y-99500500D01*
X137006814Y-99566392D01*
X137134108Y-99600500D01*
X137134110Y-99600500D01*
X137265889Y-99600500D01*
X137265892Y-99600500D01*
X137352606Y-99577265D01*
X137422452Y-99578928D01*
X137480314Y-99618090D01*
X137507819Y-99682318D01*
X137498381Y-99741308D01*
X137499173Y-99741539D01*
X137497336Y-99747840D01*
X137497080Y-99749441D01*
X137496518Y-99750645D01*
X137490001Y-99800149D01*
X137490000Y-99800166D01*
X137490000Y-99855000D01*
X138876000Y-99855000D01*
X138884685Y-99857550D01*
X138893647Y-99856262D01*
X138917687Y-99867240D01*
X138943039Y-99874685D01*
X138948966Y-99881525D01*
X138957203Y-99885287D01*
X138971492Y-99907521D01*
X138988794Y-99927489D01*
X138991081Y-99938003D01*
X138994977Y-99944065D01*
X139000000Y-99979000D01*
X139000000Y-99980000D01*
X139001000Y-99980000D01*
X139068039Y-99999685D01*
X139113794Y-100052489D01*
X139125000Y-100104000D01*
X139125000Y-100460000D01*
X139209833Y-100460000D01*
X139209850Y-100459998D01*
X139259354Y-100453481D01*
X139368024Y-100402807D01*
X139399617Y-100371214D01*
X139460939Y-100337728D01*
X139530631Y-100342712D01*
X139586565Y-100384582D01*
X139597779Y-100402591D01*
X139650342Y-100505751D01*
X139650344Y-100505753D01*
X139650346Y-100505756D01*
X139744243Y-100599653D01*
X139744245Y-100599654D01*
X139744249Y-100599658D01*
X139862580Y-100659951D01*
X139862581Y-100659951D01*
X139862583Y-100659952D01*
X139862582Y-100659952D01*
X139960749Y-100675500D01*
X139960754Y-100675500D01*
X140464251Y-100675500D01*
X140562417Y-100659952D01*
X140562418Y-100659951D01*
X140562420Y-100659951D01*
X140680751Y-100599658D01*
X140774658Y-100505751D01*
X140834951Y-100387420D01*
X140834951Y-100387418D01*
X140834952Y-100387417D01*
X140850500Y-100289251D01*
X140850500Y-99710748D01*
X140834952Y-99612582D01*
X140811416Y-99566391D01*
X140777992Y-99500793D01*
X140777484Y-99498089D01*
X140775684Y-99496011D01*
X140771075Y-99463961D01*
X140765097Y-99432126D01*
X140766131Y-99429576D01*
X140765740Y-99426853D01*
X140779193Y-99397394D01*
X140791373Y-99367385D01*
X140793622Y-99365799D01*
X140794765Y-99363297D01*
X140822008Y-99345788D01*
X140848480Y-99327128D01*
X140851936Y-99326555D01*
X140853543Y-99325523D01*
X140888478Y-99320500D01*
X140932162Y-99320500D01*
X140964249Y-99324723D01*
X140967147Y-99325500D01*
X140967149Y-99325500D01*
X141052851Y-99325500D01*
X141052853Y-99325500D01*
X141055750Y-99324723D01*
X141087838Y-99320500D01*
X141111522Y-99320500D01*
X141178561Y-99340185D01*
X141224316Y-99392989D01*
X141234260Y-99462147D01*
X141222007Y-99500795D01*
X141165047Y-99612582D01*
X141149500Y-99710748D01*
X141149500Y-100289251D01*
X141165047Y-100387417D01*
X141165049Y-100387420D01*
X141225342Y-100505751D01*
X141225344Y-100505753D01*
X141225346Y-100505756D01*
X141319243Y-100599653D01*
X141319245Y-100599654D01*
X141319249Y-100599658D01*
X141437580Y-100659951D01*
X141437581Y-100659951D01*
X141437583Y-100659952D01*
X141437582Y-100659952D01*
X141535749Y-100675500D01*
X141535754Y-100675500D01*
X142039251Y-100675500D01*
X142137417Y-100659952D01*
X142137418Y-100659951D01*
X142137420Y-100659951D01*
X142255751Y-100599658D01*
X142349658Y-100505751D01*
X142409951Y-100387420D01*
X142409951Y-100387418D01*
X142409952Y-100387417D01*
X142425500Y-100289251D01*
X142425500Y-100266780D01*
X145300000Y-100266780D01*
X145300000Y-100375000D01*
X145675000Y-100375000D01*
X145925000Y-100375000D01*
X146299999Y-100375000D01*
X146299999Y-100266782D01*
X146290087Y-100198750D01*
X146238784Y-100093808D01*
X146156188Y-100011212D01*
X146051251Y-99959912D01*
X146051248Y-99959911D01*
X145983220Y-99950000D01*
X145925000Y-99950000D01*
X145925000Y-100375000D01*
X145675000Y-100375000D01*
X145675000Y-99950000D01*
X145674999Y-99949999D01*
X145616787Y-99950000D01*
X145548751Y-99959912D01*
X145443808Y-100011215D01*
X145361212Y-100093811D01*
X145309912Y-100198748D01*
X145309911Y-100198751D01*
X145300000Y-100266780D01*
X142425500Y-100266780D01*
X142425500Y-99710748D01*
X142409952Y-99612582D01*
X142391957Y-99577265D01*
X142349658Y-99494249D01*
X142349654Y-99494245D01*
X142349653Y-99494243D01*
X142290477Y-99435067D01*
X142256992Y-99373744D01*
X142256478Y-99323512D01*
X142260387Y-99303586D01*
X142266392Y-99293186D01*
X142300500Y-99165892D01*
X142300500Y-99099137D01*
X142302820Y-99087313D01*
X142313600Y-99066571D01*
X142320185Y-99044148D01*
X142334469Y-99026422D01*
X142335043Y-99025318D01*
X142335629Y-99024981D01*
X142336814Y-99023511D01*
X142627108Y-98733217D01*
X145300001Y-98733217D01*
X145309912Y-98801249D01*
X145361215Y-98906191D01*
X145443811Y-98988787D01*
X145548747Y-99040086D01*
X145616786Y-99049999D01*
X145925000Y-99049999D01*
X145983218Y-99049999D01*
X146051249Y-99040087D01*
X146156191Y-98988784D01*
X146238787Y-98906188D01*
X146290087Y-98801251D01*
X146290088Y-98801248D01*
X146300000Y-98733219D01*
X146300000Y-98625000D01*
X145925000Y-98625000D01*
X145925000Y-99049999D01*
X145616786Y-99049999D01*
X145674999Y-99049998D01*
X145675000Y-99049998D01*
X145675000Y-98625000D01*
X145300001Y-98625000D01*
X145300001Y-98733217D01*
X142627108Y-98733217D01*
X143504298Y-97856026D01*
X143565619Y-97822543D01*
X143635310Y-97827527D01*
X143691244Y-97869398D01*
X143711751Y-97911614D01*
X143723617Y-97955898D01*
X143733608Y-97993187D01*
X143751367Y-98023946D01*
X143799500Y-98107314D01*
X143892686Y-98200500D01*
X144006814Y-98266392D01*
X144134108Y-98300500D01*
X144134110Y-98300500D01*
X144265890Y-98300500D01*
X144265892Y-98300500D01*
X144391738Y-98266780D01*
X145300000Y-98266780D01*
X145300000Y-98375000D01*
X145675000Y-98375000D01*
X145925000Y-98375000D01*
X146299999Y-98375000D01*
X146299999Y-98266782D01*
X146290087Y-98198750D01*
X146238784Y-98093808D01*
X146156188Y-98011212D01*
X146051251Y-97959912D01*
X146051248Y-97959911D01*
X145983220Y-97950000D01*
X145925000Y-97950000D01*
X145925000Y-98375000D01*
X145675000Y-98375000D01*
X145675000Y-97950000D01*
X145674999Y-97949999D01*
X145616787Y-97950000D01*
X145548751Y-97959912D01*
X145443808Y-98011215D01*
X145361212Y-98093811D01*
X145309912Y-98198748D01*
X145309911Y-98198751D01*
X145300000Y-98266780D01*
X144391738Y-98266780D01*
X144393186Y-98266392D01*
X144507314Y-98200500D01*
X144600500Y-98107314D01*
X144666392Y-97993186D01*
X144700500Y-97865892D01*
X144700500Y-97811189D01*
X144720185Y-97744150D01*
X144736819Y-97723508D01*
X145198508Y-97261819D01*
X145259831Y-97228334D01*
X145286189Y-97225500D01*
X145742851Y-97225500D01*
X145742853Y-97225500D01*
X145825639Y-97203318D01*
X145899862Y-97160465D01*
X146023508Y-97036819D01*
X146084831Y-97003334D01*
X146111189Y-97000500D01*
X146165890Y-97000500D01*
X146165892Y-97000500D01*
X146293186Y-96966392D01*
X146407314Y-96900500D01*
X146500500Y-96807314D01*
X146566392Y-96693186D01*
X146600500Y-96565892D01*
X146600500Y-96434108D01*
X146566392Y-96306814D01*
X146559083Y-96294154D01*
X146517709Y-96222492D01*
X146517708Y-96222490D01*
X146500503Y-96192692D01*
X146500500Y-96192686D01*
X146407314Y-96099500D01*
X146315800Y-96046664D01*
X146293187Y-96033608D01*
X146229539Y-96016554D01*
X146165892Y-95999500D01*
X146165891Y-95999500D01*
X146111189Y-95999500D01*
X146044150Y-95979815D01*
X146023508Y-95963181D01*
X145361819Y-95301492D01*
X145328334Y-95240169D01*
X145325500Y-95213811D01*
X145325500Y-94629591D01*
X145345185Y-94562552D01*
X145397989Y-94516797D01*
X145467147Y-94506853D01*
X145503962Y-94518191D01*
X145548750Y-94540087D01*
X145616786Y-94549999D01*
X145925000Y-94549999D01*
X145983218Y-94549999D01*
X146051249Y-94540087D01*
X146156191Y-94488784D01*
X146238787Y-94406188D01*
X146290087Y-94301251D01*
X146290088Y-94301248D01*
X146300000Y-94233219D01*
X146300000Y-94125000D01*
X145925000Y-94125000D01*
X145925000Y-94549999D01*
X145616786Y-94549999D01*
X145674999Y-94549998D01*
X145675000Y-94549998D01*
X145675000Y-93875000D01*
X145925000Y-93875000D01*
X146299999Y-93875000D01*
X146299999Y-93766782D01*
X146290087Y-93698750D01*
X146238784Y-93593808D01*
X146156188Y-93511212D01*
X146051251Y-93459912D01*
X146051248Y-93459911D01*
X145983220Y-93450000D01*
X145925000Y-93450000D01*
X145925000Y-93875000D01*
X145675000Y-93875000D01*
X145675000Y-93450000D01*
X145674999Y-93449999D01*
X145616787Y-93450000D01*
X145548749Y-93459912D01*
X145503959Y-93481809D01*
X145435086Y-93493567D01*
X145370789Y-93466224D01*
X145331482Y-93408459D01*
X145325500Y-93370408D01*
X145325500Y-92977061D01*
X145345185Y-92910022D01*
X145387500Y-92869674D01*
X145393183Y-92866392D01*
X145393186Y-92866392D01*
X145507314Y-92800500D01*
X145600500Y-92707314D01*
X145666392Y-92593186D01*
X145700500Y-92465892D01*
X145700500Y-92334108D01*
X145666392Y-92206814D01*
X145662533Y-92200130D01*
X145659719Y-92195255D01*
X145653576Y-92169934D01*
X145643743Y-92145807D01*
X145645471Y-92136528D01*
X145643246Y-92127355D01*
X145651767Y-92102733D01*
X145656540Y-92077119D01*
X145664368Y-92066328D01*
X145666099Y-92061328D01*
X145670515Y-92057854D01*
X145675000Y-92051673D01*
X145675000Y-91375000D01*
X145925000Y-91375000D01*
X146299999Y-91375000D01*
X146299999Y-91266782D01*
X146290087Y-91198750D01*
X146238784Y-91093808D01*
X146156188Y-91011212D01*
X146051251Y-90959912D01*
X146051248Y-90959911D01*
X145983220Y-90950000D01*
X145925000Y-90950000D01*
X145925000Y-91375000D01*
X145675000Y-91375000D01*
X145675000Y-90950000D01*
X145674999Y-90949999D01*
X145616787Y-90950000D01*
X145548751Y-90959912D01*
X145443808Y-91011215D01*
X145361214Y-91093809D01*
X145360899Y-91094455D01*
X145360234Y-91095182D01*
X145355244Y-91102172D01*
X145354399Y-91101568D01*
X145313769Y-91146036D01*
X145246235Y-91163948D01*
X145179737Y-91142505D01*
X145135388Y-91088515D01*
X145125500Y-91039991D01*
X145125500Y-89960008D01*
X145145185Y-89892969D01*
X145197989Y-89847214D01*
X145267147Y-89837270D01*
X145330703Y-89866295D01*
X145355061Y-89897958D01*
X145355244Y-89897828D01*
X145358892Y-89902937D01*
X145360901Y-89905549D01*
X145361214Y-89906190D01*
X145443811Y-89988787D01*
X145548747Y-90040086D01*
X145616786Y-90049999D01*
X145925000Y-90049999D01*
X145983218Y-90049999D01*
X146051249Y-90040087D01*
X146156191Y-89988784D01*
X146238787Y-89906188D01*
X146290087Y-89801251D01*
X146290088Y-89801248D01*
X146300000Y-89733219D01*
X146300000Y-89625000D01*
X145925000Y-89625000D01*
X145925000Y-90049999D01*
X145616786Y-90049999D01*
X145674999Y-90049998D01*
X145675000Y-90049998D01*
X145675000Y-89624000D01*
X145677550Y-89615314D01*
X145676262Y-89606353D01*
X145687240Y-89582312D01*
X145694685Y-89556961D01*
X145701525Y-89551033D01*
X145705287Y-89542797D01*
X145727521Y-89528507D01*
X145747489Y-89511206D01*
X145758003Y-89508918D01*
X145764065Y-89505023D01*
X145799000Y-89500000D01*
X145800000Y-89500000D01*
X145800000Y-89499000D01*
X145819685Y-89431961D01*
X145872489Y-89386206D01*
X145924000Y-89375000D01*
X146299999Y-89375000D01*
X146299999Y-89359688D01*
X146306237Y-89338442D01*
X146307817Y-89316354D01*
X146315889Y-89305570D01*
X146319684Y-89292649D01*
X146336417Y-89278149D01*
X146349689Y-89260421D01*
X146362309Y-89255713D01*
X146372488Y-89246894D01*
X146394405Y-89243742D01*
X146415153Y-89236004D01*
X146428313Y-89238866D01*
X146441646Y-89236950D01*
X146461789Y-89246149D01*
X146483426Y-89250856D01*
X146501151Y-89264124D01*
X146505202Y-89265975D01*
X146511680Y-89272007D01*
X146663181Y-89423508D01*
X146696666Y-89484831D01*
X146699500Y-89511189D01*
X146699500Y-89733260D01*
X146709426Y-89801391D01*
X146760803Y-89906485D01*
X146843514Y-89989196D01*
X146843515Y-89989196D01*
X146843517Y-89989198D01*
X146948607Y-90040573D01*
X146982673Y-90045536D01*
X147016739Y-90050500D01*
X147016740Y-90050500D01*
X147383261Y-90050500D01*
X147415703Y-90045773D01*
X147451393Y-90040573D01*
X147556483Y-89989198D01*
X147639198Y-89906483D01*
X147644793Y-89895039D01*
X147691921Y-89843457D01*
X147756193Y-89825500D01*
X147817851Y-89825500D01*
X147817853Y-89825500D01*
X147900639Y-89803318D01*
X147974862Y-89760465D01*
X147998508Y-89736819D01*
X148059831Y-89703334D01*
X148086189Y-89700500D01*
X149376000Y-89700500D01*
X149443039Y-89720185D01*
X149488794Y-89772989D01*
X149500000Y-89824500D01*
X149500000Y-90280368D01*
X149480315Y-90347407D01*
X149427511Y-90393162D01*
X149358353Y-90403106D01*
X149299789Y-90377305D01*
X149299721Y-90377408D01*
X149299139Y-90377019D01*
X149297343Y-90376228D01*
X149294659Y-90374025D01*
X149147479Y-90275684D01*
X149122598Y-90259059D01*
X148931420Y-90179870D01*
X148931412Y-90179868D01*
X148728469Y-90139500D01*
X148728465Y-90139500D01*
X148521535Y-90139500D01*
X148521530Y-90139500D01*
X148318587Y-90179868D01*
X148318579Y-90179870D01*
X148127403Y-90259058D01*
X147955342Y-90374024D01*
X147809024Y-90520342D01*
X147694058Y-90692403D01*
X147635460Y-90833871D01*
X147618632Y-90874499D01*
X147612539Y-90889208D01*
X147610446Y-90888341D01*
X147577679Y-90938316D01*
X147513860Y-90966757D01*
X147461677Y-90958766D01*
X147460595Y-90962270D01*
X147451392Y-90959426D01*
X147383261Y-90949500D01*
X147383260Y-90949500D01*
X147016740Y-90949500D01*
X147016739Y-90949500D01*
X146948608Y-90959426D01*
X146843514Y-91010803D01*
X146760803Y-91093514D01*
X146709426Y-91198608D01*
X146699500Y-91266739D01*
X146699500Y-91588811D01*
X146690855Y-91618251D01*
X146684332Y-91648238D01*
X146680577Y-91653253D01*
X146679815Y-91655850D01*
X146663181Y-91676492D01*
X146576492Y-91763181D01*
X146515169Y-91796666D01*
X146488811Y-91799500D01*
X146425981Y-91799500D01*
X146425981Y-91796492D01*
X146371105Y-91787912D01*
X146318868Y-91741511D01*
X146300000Y-91675760D01*
X146300000Y-91625000D01*
X145925000Y-91625000D01*
X145925000Y-92049999D01*
X145940700Y-92065699D01*
X145954271Y-92069684D01*
X145967586Y-92085050D01*
X145984226Y-92096745D01*
X145990003Y-92110921D01*
X146000026Y-92122488D01*
X146002919Y-92142614D01*
X146010595Y-92161447D01*
X146007791Y-92176494D01*
X146009970Y-92191646D01*
X146007007Y-92206088D01*
X145999500Y-92234108D01*
X145999500Y-92365892D01*
X146014161Y-92420609D01*
X146033608Y-92493187D01*
X146045964Y-92514587D01*
X146099500Y-92607314D01*
X146192686Y-92700500D01*
X146306814Y-92766392D01*
X146434108Y-92800500D01*
X146434110Y-92800500D01*
X146565890Y-92800500D01*
X146565892Y-92800500D01*
X146693186Y-92766392D01*
X146807314Y-92700500D01*
X146900500Y-92607314D01*
X146966392Y-92493186D01*
X147000500Y-92365892D01*
X147000500Y-92311189D01*
X147009144Y-92281748D01*
X147015668Y-92251762D01*
X147019422Y-92246746D01*
X147020185Y-92244150D01*
X147036819Y-92223508D01*
X147173508Y-92086819D01*
X147234831Y-92053334D01*
X147261189Y-92050500D01*
X147383261Y-92050500D01*
X147405971Y-92047191D01*
X147451393Y-92040573D01*
X147556483Y-91989198D01*
X147639198Y-91906483D01*
X147639201Y-91906476D01*
X147644369Y-91899239D01*
X147699342Y-91856114D01*
X147768903Y-91849555D01*
X147830968Y-91881645D01*
X147832972Y-91883605D01*
X147955342Y-92005975D01*
X147955345Y-92005977D01*
X148127402Y-92120941D01*
X148318580Y-92200130D01*
X148521530Y-92240499D01*
X148521534Y-92240500D01*
X148521535Y-92240500D01*
X148728466Y-92240500D01*
X148728467Y-92240499D01*
X148931420Y-92200130D01*
X149122598Y-92120941D01*
X149294655Y-92005977D01*
X149294658Y-92005974D01*
X149297335Y-92003778D01*
X149299011Y-92003065D01*
X149299721Y-92002592D01*
X149299810Y-92002726D01*
X149361645Y-91976465D01*
X149430513Y-91988256D01*
X149482073Y-92035408D01*
X149500000Y-92099631D01*
X149500000Y-92820368D01*
X149480315Y-92887407D01*
X149427511Y-92933162D01*
X149358353Y-92943106D01*
X149299789Y-92917305D01*
X149299721Y-92917408D01*
X149299139Y-92917019D01*
X149297343Y-92916228D01*
X149294659Y-92914025D01*
X149154489Y-92820368D01*
X149122598Y-92799059D01*
X149043733Y-92766392D01*
X148931420Y-92719870D01*
X148931412Y-92719868D01*
X148728469Y-92679500D01*
X148728465Y-92679500D01*
X148521535Y-92679500D01*
X148521530Y-92679500D01*
X148318587Y-92719868D01*
X148318579Y-92719870D01*
X148127403Y-92799058D01*
X147955342Y-92914024D01*
X147809024Y-93060342D01*
X147694057Y-93232403D01*
X147654480Y-93327953D01*
X147641936Y-93343518D01*
X147633632Y-93361703D01*
X147620461Y-93370167D01*
X147610639Y-93382356D01*
X147591671Y-93388668D01*
X147574854Y-93399477D01*
X147547293Y-93403439D01*
X147544345Y-93404421D01*
X147539919Y-93404500D01*
X147520465Y-93404500D01*
X147520449Y-93404499D01*
X147512853Y-93404499D01*
X147427147Y-93404499D01*
X147371957Y-93419287D01*
X147344361Y-93426682D01*
X147333615Y-93432887D01*
X147271614Y-93449500D01*
X147016739Y-93449500D01*
X146948608Y-93459426D01*
X146843514Y-93510803D01*
X146760803Y-93593514D01*
X146709426Y-93698608D01*
X146699500Y-93766739D01*
X146699500Y-94233260D01*
X146709426Y-94301391D01*
X146709427Y-94301393D01*
X146760802Y-94406483D01*
X146760803Y-94406484D01*
X146760804Y-94406486D01*
X146766773Y-94414847D01*
X146765276Y-94415915D01*
X146792799Y-94466319D01*
X146787815Y-94536011D01*
X146759314Y-94580358D01*
X146576492Y-94763181D01*
X146515169Y-94796666D01*
X146488811Y-94799500D01*
X146434108Y-94799500D01*
X146306812Y-94833608D01*
X146192686Y-94899500D01*
X146192683Y-94899502D01*
X146099502Y-94992683D01*
X146099500Y-94992686D01*
X146033608Y-95106812D01*
X146003280Y-95220000D01*
X145999500Y-95234108D01*
X145999500Y-95365892D01*
X146015908Y-95427129D01*
X146033608Y-95493187D01*
X146041869Y-95507495D01*
X146099500Y-95607314D01*
X146192686Y-95700500D01*
X146306814Y-95766392D01*
X146434108Y-95800500D01*
X146434110Y-95800500D01*
X146565890Y-95800500D01*
X146565892Y-95800500D01*
X146693186Y-95766392D01*
X146807314Y-95700500D01*
X146900500Y-95607314D01*
X146966392Y-95493186D01*
X147000500Y-95365892D01*
X147000500Y-95311189D01*
X147020185Y-95244150D01*
X147036819Y-95223508D01*
X147216993Y-95043334D01*
X147460465Y-94799862D01*
X147462745Y-94795913D01*
X147503318Y-94725638D01*
X147525500Y-94642853D01*
X147525500Y-94571543D01*
X147534144Y-94542102D01*
X147540668Y-94512116D01*
X147544422Y-94507100D01*
X147545185Y-94504504D01*
X147561819Y-94483862D01*
X147639843Y-94405838D01*
X147701166Y-94372353D01*
X147770858Y-94377337D01*
X147815205Y-94405838D01*
X147955342Y-94545975D01*
X147955345Y-94545977D01*
X148127402Y-94660941D01*
X148318580Y-94740130D01*
X148504588Y-94777129D01*
X148521530Y-94780499D01*
X148521534Y-94780500D01*
X148521535Y-94780500D01*
X148728466Y-94780500D01*
X148728467Y-94780499D01*
X148931420Y-94740130D01*
X149122598Y-94660941D01*
X149294655Y-94545977D01*
X149294658Y-94545974D01*
X149297335Y-94543778D01*
X149299011Y-94543065D01*
X149299721Y-94542592D01*
X149299810Y-94542726D01*
X149361645Y-94516465D01*
X149430513Y-94528256D01*
X149482073Y-94575408D01*
X149500000Y-94639631D01*
X149500000Y-95544196D01*
X149490942Y-95562291D01*
X149487294Y-95576366D01*
X149480972Y-95582207D01*
X149472471Y-95599191D01*
X149469398Y-95602376D01*
X149055728Y-96016045D01*
X149025099Y-95962993D01*
X148932007Y-95869901D01*
X148878953Y-95839270D01*
X149255235Y-95462987D01*
X149254101Y-95427527D01*
X149122368Y-95339505D01*
X149122358Y-95339500D01*
X148931274Y-95260350D01*
X148931266Y-95260348D01*
X148728420Y-95220000D01*
X148521579Y-95220000D01*
X148318733Y-95260348D01*
X148318725Y-95260350D01*
X148127636Y-95339502D01*
X148127635Y-95339502D01*
X147973961Y-95442183D01*
X147973961Y-95442185D01*
X148371046Y-95839270D01*
X148317993Y-95869901D01*
X148224901Y-95962993D01*
X148194270Y-96016046D01*
X147797185Y-95618961D01*
X147797183Y-95618961D01*
X147694502Y-95772635D01*
X147694502Y-95772636D01*
X147615350Y-95963725D01*
X147615348Y-95963733D01*
X147575000Y-96166579D01*
X147575000Y-96373420D01*
X147615348Y-96576266D01*
X147615350Y-96576274D01*
X147694500Y-96767358D01*
X147694505Y-96767368D01*
X147797185Y-96921037D01*
X148194270Y-96523952D01*
X148224901Y-96577007D01*
X148317993Y-96670099D01*
X148371046Y-96700729D01*
X147973961Y-97097814D01*
X148127640Y-97200499D01*
X148318725Y-97279649D01*
X148318733Y-97279651D01*
X148521579Y-97319999D01*
X148521583Y-97320000D01*
X148728417Y-97320000D01*
X148728420Y-97319999D01*
X148931266Y-97279651D01*
X148931274Y-97279649D01*
X149122359Y-97200499D01*
X149276038Y-97097814D01*
X148878953Y-96700729D01*
X148932007Y-96670099D01*
X149025099Y-96577007D01*
X149055729Y-96523953D01*
X149469398Y-96937622D01*
X149478972Y-96955156D01*
X149492591Y-96969778D01*
X149495375Y-96985196D01*
X149500000Y-96993665D01*
X149500000Y-97058173D01*
X149498119Y-97065548D01*
X149497899Y-97068636D01*
X149496287Y-97072735D01*
X149495459Y-97074735D01*
X149469822Y-97106560D01*
X149487857Y-97126638D01*
X149500000Y-97180155D01*
X149500000Y-97900368D01*
X149480315Y-97967407D01*
X149427511Y-98013162D01*
X149358353Y-98023106D01*
X149299789Y-97997305D01*
X149299721Y-97997408D01*
X149299139Y-97997019D01*
X149297343Y-97996228D01*
X149294659Y-97994025D01*
X149143745Y-97893189D01*
X149122598Y-97879059D01*
X149112470Y-97874864D01*
X148931420Y-97799870D01*
X148931412Y-97799868D01*
X148728469Y-97759500D01*
X148728465Y-97759500D01*
X148521535Y-97759500D01*
X148521530Y-97759500D01*
X148318587Y-97799868D01*
X148318579Y-97799870D01*
X148127403Y-97879058D01*
X147955344Y-97994023D01*
X147832972Y-98116395D01*
X147816120Y-98125596D01*
X147802242Y-98138861D01*
X147786089Y-98141993D01*
X147771649Y-98149879D01*
X147752497Y-98148509D01*
X147733651Y-98152165D01*
X147718370Y-98146068D01*
X147701957Y-98144895D01*
X147686587Y-98133389D01*
X147668755Y-98126275D01*
X147647809Y-98104359D01*
X147646024Y-98103023D01*
X147644369Y-98100760D01*
X147636649Y-98089946D01*
X147613719Y-98023946D01*
X147630109Y-97956028D01*
X147666392Y-97893186D01*
X147700500Y-97765892D01*
X147700500Y-97634108D01*
X147666392Y-97506814D01*
X147661663Y-97498624D01*
X147647655Y-97474361D01*
X147600500Y-97392686D01*
X147507314Y-97299500D01*
X147442049Y-97261819D01*
X147393187Y-97233608D01*
X147329539Y-97216554D01*
X147265892Y-97199500D01*
X147134108Y-97199500D01*
X147006812Y-97233608D01*
X146892686Y-97299500D01*
X146892683Y-97299502D01*
X146799502Y-97392683D01*
X146799500Y-97392686D01*
X146733608Y-97506812D01*
X146724021Y-97542593D01*
X146699500Y-97634108D01*
X146699500Y-97765892D01*
X146729822Y-97879058D01*
X146733609Y-97893188D01*
X146733609Y-97893189D01*
X146769815Y-97955900D01*
X146786288Y-98023801D01*
X146763435Y-98089827D01*
X146763349Y-98089948D01*
X146760804Y-98093511D01*
X146709426Y-98198608D01*
X146699500Y-98266739D01*
X146699500Y-98733260D01*
X146709426Y-98801391D01*
X146760803Y-98906485D01*
X146843514Y-98989196D01*
X146843515Y-98989196D01*
X146843517Y-98989198D01*
X146948607Y-99040573D01*
X146948608Y-99040573D01*
X146951889Y-99042177D01*
X147003471Y-99089305D01*
X147021386Y-99156839D01*
X146999945Y-99223338D01*
X146959430Y-99260965D01*
X146892686Y-99299500D01*
X146892683Y-99299502D01*
X146799502Y-99392683D01*
X146799500Y-99392686D01*
X146733608Y-99506812D01*
X146717644Y-99566392D01*
X146699500Y-99634108D01*
X146699500Y-99765892D01*
X146731491Y-99885287D01*
X146733609Y-99893188D01*
X146733609Y-99893189D01*
X146769815Y-99955900D01*
X146786288Y-100023801D01*
X146763435Y-100089827D01*
X146763349Y-100089948D01*
X146760804Y-100093511D01*
X146709426Y-100198608D01*
X146699500Y-100266739D01*
X146699500Y-100733260D01*
X146709426Y-100801391D01*
X146760803Y-100906485D01*
X146843514Y-100989196D01*
X146843515Y-100989196D01*
X146843517Y-100989198D01*
X146948607Y-101040573D01*
X146982673Y-101045536D01*
X147016739Y-101050500D01*
X147016740Y-101050500D01*
X147238811Y-101050500D01*
X147305850Y-101070185D01*
X147326492Y-101086819D01*
X147538181Y-101298507D01*
X147571666Y-101359830D01*
X147574500Y-101386188D01*
X147574500Y-101453469D01*
X147614868Y-101656412D01*
X147614870Y-101656420D01*
X147694058Y-101847596D01*
X147809024Y-102019657D01*
X147955342Y-102165975D01*
X147955345Y-102165977D01*
X148115364Y-102272898D01*
X148160170Y-102326509D01*
X148168877Y-102395834D01*
X148138723Y-102458862D01*
X148079280Y-102495582D01*
X148046474Y-102500000D01*
X130124500Y-102500000D01*
X130057461Y-102480315D01*
X130011706Y-102427511D01*
X130000500Y-102376000D01*
X130000500Y-100575000D01*
X130655463Y-100575000D01*
X131367619Y-100575000D01*
X131350000Y-100640756D01*
X131350000Y-100759244D01*
X131367619Y-100825000D01*
X130655463Y-100825000D01*
X130678317Y-100969293D01*
X130734251Y-101141444D01*
X130734252Y-101141447D01*
X130816434Y-101302734D01*
X130922823Y-101449169D01*
X131050830Y-101577176D01*
X131197265Y-101683565D01*
X131358552Y-101765747D01*
X131358555Y-101765748D01*
X131530706Y-101821682D01*
X131709494Y-101850000D01*
X132475000Y-101850000D01*
X132475000Y-101150000D01*
X132725000Y-101150000D01*
X132725000Y-101850000D01*
X133490506Y-101850000D01*
X133669293Y-101821682D01*
X133841444Y-101765748D01*
X133841447Y-101765747D01*
X134002734Y-101683565D01*
X134149169Y-101577176D01*
X134277176Y-101449169D01*
X134383565Y-101302734D01*
X134465747Y-101141447D01*
X134465748Y-101141444D01*
X134521682Y-100969293D01*
X134544537Y-100825000D01*
X133832381Y-100825000D01*
X133850000Y-100759244D01*
X133850000Y-100733217D01*
X145300001Y-100733217D01*
X145309912Y-100801249D01*
X145361215Y-100906191D01*
X145443811Y-100988787D01*
X145548747Y-101040086D01*
X145616786Y-101049999D01*
X145925000Y-101049999D01*
X145983218Y-101049999D01*
X146051249Y-101040087D01*
X146156191Y-100988784D01*
X146238787Y-100906188D01*
X146290087Y-100801251D01*
X146290088Y-100801248D01*
X146300000Y-100733219D01*
X146300000Y-100625000D01*
X145925000Y-100625000D01*
X145925000Y-101049999D01*
X145616786Y-101049999D01*
X145674999Y-101049998D01*
X145675000Y-101049998D01*
X145675000Y-100625000D01*
X145300001Y-100625000D01*
X145300001Y-100733217D01*
X133850000Y-100733217D01*
X133850000Y-100640756D01*
X133832381Y-100575000D01*
X134544537Y-100575000D01*
X134521682Y-100430706D01*
X134465748Y-100258555D01*
X134465747Y-100258552D01*
X134415447Y-100159833D01*
X137490000Y-100159833D01*
X137490001Y-100159850D01*
X137496518Y-100209354D01*
X137547192Y-100318024D01*
X137631975Y-100402807D01*
X137740646Y-100453481D01*
X137740645Y-100453481D01*
X137790149Y-100459998D01*
X137790167Y-100460000D01*
X137875000Y-100460000D01*
X138125000Y-100460000D01*
X138209833Y-100460000D01*
X138209850Y-100459998D01*
X138259354Y-100453481D01*
X138368024Y-100402807D01*
X138412319Y-100358513D01*
X138473642Y-100325028D01*
X138543334Y-100330012D01*
X138587681Y-100358513D01*
X138631975Y-100402807D01*
X138740646Y-100453481D01*
X138740645Y-100453481D01*
X138790149Y-100459998D01*
X138790167Y-100460000D01*
X138875000Y-100460000D01*
X138875000Y-100105000D01*
X138125000Y-100105000D01*
X138125000Y-100460000D01*
X137875000Y-100460000D01*
X137875000Y-100105000D01*
X137490000Y-100105000D01*
X137490000Y-100159833D01*
X134415447Y-100159833D01*
X134390021Y-100109933D01*
X134390020Y-100109931D01*
X134383567Y-100097267D01*
X134277176Y-99950830D01*
X134149169Y-99822823D01*
X134002734Y-99716434D01*
X133841447Y-99634252D01*
X133841444Y-99634251D01*
X133669293Y-99578317D01*
X133490506Y-99550000D01*
X132725000Y-99550000D01*
X132725000Y-100250000D01*
X132475000Y-100250000D01*
X132475000Y-99550000D01*
X131709494Y-99550000D01*
X131530706Y-99578317D01*
X131358555Y-99634251D01*
X131358552Y-99634252D01*
X131197265Y-99716434D01*
X131050830Y-99822823D01*
X130922823Y-99950830D01*
X130816434Y-100097265D01*
X130734252Y-100258552D01*
X130734251Y-100258555D01*
X130678317Y-100430706D01*
X130655463Y-100575000D01*
X130000500Y-100575000D01*
X130000500Y-97221153D01*
X131799500Y-97221153D01*
X131799500Y-97378846D01*
X131830261Y-97533489D01*
X131830264Y-97533501D01*
X131890602Y-97679172D01*
X131890609Y-97679185D01*
X131978210Y-97810288D01*
X131978213Y-97810292D01*
X132089707Y-97921786D01*
X132089711Y-97921789D01*
X132220814Y-98009390D01*
X132220827Y-98009397D01*
X132362114Y-98067919D01*
X132366503Y-98069737D01*
X132516307Y-98099535D01*
X132521153Y-98100499D01*
X132521156Y-98100500D01*
X132521158Y-98100500D01*
X132678844Y-98100500D01*
X132678845Y-98100499D01*
X132833497Y-98069737D01*
X132979179Y-98009394D01*
X133110289Y-97921789D01*
X133221789Y-97810289D01*
X133309394Y-97679179D01*
X133369737Y-97533497D01*
X133400500Y-97378842D01*
X133400500Y-97221158D01*
X133400500Y-97221155D01*
X133400499Y-97221153D01*
X133392344Y-97180155D01*
X133369737Y-97066503D01*
X133369735Y-97066498D01*
X133309397Y-96920827D01*
X133309390Y-96920814D01*
X133221789Y-96789711D01*
X133221786Y-96789707D01*
X133110292Y-96678213D01*
X133110288Y-96678210D01*
X132979185Y-96590609D01*
X132979172Y-96590602D01*
X132833501Y-96530264D01*
X132833489Y-96530261D01*
X132678845Y-96499500D01*
X132678842Y-96499500D01*
X132521158Y-96499500D01*
X132521155Y-96499500D01*
X132366510Y-96530261D01*
X132366498Y-96530264D01*
X132220827Y-96590602D01*
X132220814Y-96590609D01*
X132089711Y-96678210D01*
X132089707Y-96678213D01*
X131978213Y-96789707D01*
X131978210Y-96789711D01*
X131890609Y-96920814D01*
X131890602Y-96920827D01*
X131830264Y-97066498D01*
X131830261Y-97066510D01*
X131799500Y-97221153D01*
X130000500Y-97221153D01*
X130000500Y-92621153D01*
X131799500Y-92621153D01*
X131799500Y-92778846D01*
X131830261Y-92933489D01*
X131830264Y-92933501D01*
X131890602Y-93079172D01*
X131890609Y-93079185D01*
X131978210Y-93210288D01*
X131978213Y-93210292D01*
X132089707Y-93321786D01*
X132089711Y-93321789D01*
X132220814Y-93409390D01*
X132220827Y-93409397D01*
X132342783Y-93459912D01*
X132366503Y-93469737D01*
X132486304Y-93493567D01*
X132521153Y-93500499D01*
X132521156Y-93500500D01*
X132521158Y-93500500D01*
X132678844Y-93500500D01*
X132678845Y-93500499D01*
X132833497Y-93469737D01*
X132979179Y-93409394D01*
X133110289Y-93321789D01*
X133221789Y-93210289D01*
X133309394Y-93079179D01*
X133317197Y-93060342D01*
X133369735Y-92933501D01*
X133369737Y-92933497D01*
X133400500Y-92778842D01*
X133400500Y-92621158D01*
X133400500Y-92621155D01*
X133400499Y-92621153D01*
X133394936Y-92593186D01*
X133369737Y-92466503D01*
X133350727Y-92420609D01*
X133309397Y-92320827D01*
X133309390Y-92320814D01*
X133221789Y-92189711D01*
X133221786Y-92189707D01*
X133110292Y-92078213D01*
X133110288Y-92078210D01*
X133097555Y-92069702D01*
X133900000Y-92069702D01*
X133911602Y-92128033D01*
X133911603Y-92128034D01*
X133955808Y-92194191D01*
X134021965Y-92238396D01*
X134021966Y-92238397D01*
X134080297Y-92249999D01*
X134080301Y-92250000D01*
X135075000Y-92250000D01*
X135325000Y-92250000D01*
X136319699Y-92250000D01*
X136319702Y-92249999D01*
X136378033Y-92238397D01*
X136378034Y-92238396D01*
X136444191Y-92194191D01*
X136488396Y-92128034D01*
X136488397Y-92128033D01*
X136499999Y-92069702D01*
X136500000Y-92069699D01*
X136500000Y-91625000D01*
X135325000Y-91625000D01*
X135325000Y-92250000D01*
X135075000Y-92250000D01*
X135075000Y-91625000D01*
X133900000Y-91625000D01*
X133900000Y-92069702D01*
X133097555Y-92069702D01*
X132979185Y-91990609D01*
X132979172Y-91990602D01*
X132833501Y-91930264D01*
X132833489Y-91930261D01*
X132678845Y-91899500D01*
X132678842Y-91899500D01*
X132521158Y-91899500D01*
X132521155Y-91899500D01*
X132366510Y-91930261D01*
X132366498Y-91930264D01*
X132220827Y-91990602D01*
X132220814Y-91990609D01*
X132089711Y-92078210D01*
X132089707Y-92078213D01*
X131978213Y-92189707D01*
X131978210Y-92189711D01*
X131890609Y-92320814D01*
X131890602Y-92320827D01*
X131830264Y-92466498D01*
X131830261Y-92466510D01*
X131799500Y-92621153D01*
X130000500Y-92621153D01*
X130000500Y-90930297D01*
X133900000Y-90930297D01*
X133900000Y-91375000D01*
X135075000Y-91375000D01*
X135325000Y-91375000D01*
X136500000Y-91375000D01*
X136500000Y-90930301D01*
X136499999Y-90930297D01*
X136488397Y-90871966D01*
X136488396Y-90871965D01*
X136444191Y-90805808D01*
X136378034Y-90761603D01*
X136378033Y-90761602D01*
X136319702Y-90750000D01*
X135325000Y-90750000D01*
X135325000Y-91375000D01*
X135075000Y-91375000D01*
X135075000Y-90750000D01*
X134080297Y-90750000D01*
X134021966Y-90761602D01*
X134021965Y-90761603D01*
X133955808Y-90805808D01*
X133911603Y-90871965D01*
X133911602Y-90871966D01*
X133900000Y-90930297D01*
X130000500Y-90930297D01*
X130000500Y-89175000D01*
X130655463Y-89175000D01*
X131367619Y-89175000D01*
X131350000Y-89240756D01*
X131350000Y-89359244D01*
X131367619Y-89425000D01*
X130655463Y-89425000D01*
X130678317Y-89569293D01*
X130734251Y-89741444D01*
X130734252Y-89741447D01*
X130816434Y-89902734D01*
X130922823Y-90049169D01*
X131050830Y-90177176D01*
X131197265Y-90283565D01*
X131358552Y-90365747D01*
X131358555Y-90365748D01*
X131530706Y-90421682D01*
X131709494Y-90450000D01*
X132475000Y-90450000D01*
X132475000Y-89750000D01*
X132725000Y-89750000D01*
X132725000Y-90450000D01*
X133490506Y-90450000D01*
X133669293Y-90421682D01*
X133841444Y-90365748D01*
X133841447Y-90365747D01*
X134002734Y-90283565D01*
X134149169Y-90177176D01*
X134277176Y-90049169D01*
X134383565Y-89902734D01*
X134465747Y-89741447D01*
X134465748Y-89741444D01*
X134521682Y-89569293D01*
X134544537Y-89425000D01*
X133832381Y-89425000D01*
X133850000Y-89359244D01*
X133850000Y-89240756D01*
X133832381Y-89175000D01*
X134544537Y-89175000D01*
X134521682Y-89030706D01*
X134465748Y-88858555D01*
X134465747Y-88858552D01*
X134383565Y-88697265D01*
X134277176Y-88550830D01*
X134149169Y-88422823D01*
X134002734Y-88316434D01*
X133841447Y-88234252D01*
X133841444Y-88234251D01*
X133669293Y-88178317D01*
X133490506Y-88150000D01*
X132725000Y-88150000D01*
X132725000Y-88850000D01*
X132475000Y-88850000D01*
X132475000Y-88150000D01*
X131709494Y-88150000D01*
X131530706Y-88178317D01*
X131358555Y-88234251D01*
X131358552Y-88234252D01*
X131197265Y-88316434D01*
X131050830Y-88422823D01*
X130922823Y-88550830D01*
X130816434Y-88697265D01*
X130734252Y-88858552D01*
X130734251Y-88858555D01*
X130678317Y-89030706D01*
X130655463Y-89175000D01*
X130000500Y-89175000D01*
X130000500Y-87624000D01*
X130020185Y-87556961D01*
X130072989Y-87511206D01*
X130124500Y-87500000D01*
X147502327Y-87500000D01*
X147569366Y-87519685D01*
G37*
%TD.AperFunction*%
%TA.AperFunction,Conductor*%
G36*
X136705703Y-95695094D02*
G01*
X136731886Y-95726805D01*
X136749500Y-95757314D01*
X136842686Y-95850500D01*
X136956814Y-95916392D01*
X137007029Y-95929847D01*
X137014755Y-95934555D01*
X137023743Y-95935630D01*
X137044123Y-95952456D01*
X137066689Y-95966210D01*
X137070643Y-95974350D01*
X137077623Y-95980113D01*
X137085671Y-96005285D01*
X137097219Y-96029057D01*
X137096707Y-96039802D01*
X137098901Y-96046664D01*
X137094712Y-96081708D01*
X137091639Y-96093179D01*
X137091634Y-96093200D01*
X137090218Y-96098482D01*
X137058130Y-96154054D01*
X136999502Y-96212682D01*
X136933608Y-96326813D01*
X136923003Y-96366391D01*
X136899500Y-96454108D01*
X136899500Y-96585892D01*
X136913874Y-96639537D01*
X136933608Y-96713187D01*
X136955151Y-96750499D01*
X136999500Y-96827314D01*
X137092686Y-96920500D01*
X137206814Y-96986392D01*
X137334108Y-97020500D01*
X137388811Y-97020500D01*
X137455850Y-97040185D01*
X137476492Y-97056819D01*
X137785564Y-97365890D01*
X138069533Y-97649859D01*
X138069535Y-97649862D01*
X138130138Y-97710465D01*
X138193892Y-97747273D01*
X138204362Y-97753318D01*
X138287147Y-97775501D01*
X138287149Y-97775501D01*
X138380449Y-97775501D01*
X138380465Y-97775500D01*
X138714811Y-97775500D01*
X138781850Y-97795185D01*
X138827605Y-97847989D01*
X138837549Y-97917147D01*
X138808524Y-97980703D01*
X138802492Y-97987181D01*
X138739537Y-98050135D01*
X138739533Y-98050141D01*
X138696681Y-98124362D01*
X138696680Y-98124363D01*
X138687096Y-98160136D01*
X138674500Y-98207145D01*
X138674500Y-98502597D01*
X138665855Y-98532037D01*
X138659332Y-98562024D01*
X138655577Y-98567039D01*
X138654815Y-98569636D01*
X138638181Y-98590278D01*
X138587681Y-98640778D01*
X138526358Y-98674263D01*
X138456666Y-98669279D01*
X138412320Y-98640779D01*
X138368316Y-98596776D01*
X138354381Y-98590278D01*
X138259487Y-98546028D01*
X138259485Y-98546027D01*
X138259486Y-98546027D01*
X138209901Y-98539500D01*
X137790105Y-98539500D01*
X137774386Y-98541569D01*
X137740513Y-98546028D01*
X137740511Y-98546029D01*
X137740509Y-98546029D01*
X137631684Y-98596775D01*
X137588315Y-98640144D01*
X137526991Y-98673628D01*
X137457299Y-98668642D01*
X137438635Y-98659848D01*
X137393188Y-98633609D01*
X137393187Y-98633608D01*
X137393186Y-98633608D01*
X137265892Y-98599500D01*
X137134108Y-98599500D01*
X137006812Y-98633608D01*
X136892686Y-98699500D01*
X136892683Y-98699502D01*
X136799502Y-98792683D01*
X136799500Y-98792686D01*
X136731887Y-98909794D01*
X136681319Y-98958009D01*
X136612712Y-98971231D01*
X136547848Y-98945263D01*
X136507320Y-98888349D01*
X136500500Y-98847793D01*
X136500500Y-97930249D01*
X136500499Y-97930247D01*
X136488868Y-97871770D01*
X136488867Y-97871769D01*
X136444552Y-97805447D01*
X136378230Y-97761132D01*
X136378229Y-97761131D01*
X136319752Y-97749500D01*
X136319748Y-97749500D01*
X136033183Y-97749500D01*
X135966144Y-97729815D01*
X135920389Y-97677011D01*
X135910445Y-97607853D01*
X135925795Y-97563501D01*
X135966392Y-97493186D01*
X136000500Y-97365892D01*
X136000500Y-97234108D01*
X135966392Y-97106814D01*
X135966245Y-97106560D01*
X135944350Y-97068636D01*
X135900500Y-96992686D01*
X135869995Y-96962181D01*
X135836510Y-96900858D01*
X135841494Y-96831166D01*
X135883366Y-96775233D01*
X135948830Y-96750816D01*
X135957676Y-96750500D01*
X136319750Y-96750500D01*
X136319751Y-96750499D01*
X136334568Y-96747552D01*
X136378229Y-96738868D01*
X136378229Y-96738867D01*
X136378231Y-96738867D01*
X136444552Y-96694552D01*
X136488867Y-96628231D01*
X136488867Y-96628229D01*
X136488868Y-96628229D01*
X136499555Y-96574500D01*
X136500500Y-96569748D01*
X136500500Y-95788807D01*
X136520185Y-95721768D01*
X136572989Y-95676013D01*
X136642147Y-95666069D01*
X136705703Y-95695094D01*
G37*
%TD.AperFunction*%
%TD*%
%TA.AperFunction,Conductor*%
%TO.N,GND*%
G36*
X165830712Y-87519685D02*
G01*
X165876467Y-87572489D01*
X165886411Y-87641647D01*
X165877107Y-87674087D01*
X165852415Y-87730006D01*
X165852415Y-87730008D01*
X165849500Y-87755131D01*
X165849500Y-89544856D01*
X165849502Y-89544882D01*
X165852413Y-89569987D01*
X165852415Y-89569991D01*
X165897793Y-89672764D01*
X165897794Y-89672765D01*
X165977235Y-89752206D01*
X166080009Y-89797585D01*
X166105135Y-89800500D01*
X166842873Y-89800499D01*
X166909910Y-89820183D01*
X166955665Y-89872987D01*
X166965609Y-89942146D01*
X166936584Y-90005702D01*
X166877806Y-90043476D01*
X166862270Y-90046972D01*
X166730589Y-90067829D01*
X166558363Y-90123787D01*
X166558360Y-90123788D01*
X166397002Y-90206006D01*
X166250505Y-90312441D01*
X166250500Y-90312445D01*
X166122445Y-90440500D01*
X166122441Y-90440505D01*
X166016006Y-90587002D01*
X165933788Y-90748360D01*
X165933787Y-90748363D01*
X165877829Y-90920589D01*
X165849500Y-91099448D01*
X165849500Y-91280551D01*
X165877829Y-91459410D01*
X165933787Y-91631636D01*
X165933788Y-91631639D01*
X165988747Y-91739500D01*
X166011778Y-91784701D01*
X166016006Y-91792997D01*
X166122441Y-91939494D01*
X166122445Y-91939499D01*
X166250500Y-92067554D01*
X166250505Y-92067558D01*
X166340486Y-92132932D01*
X166397006Y-92173996D01*
X166502484Y-92227740D01*
X166558360Y-92256211D01*
X166558363Y-92256212D01*
X166644476Y-92284191D01*
X166730591Y-92312171D01*
X166803639Y-92323740D01*
X166890678Y-92337527D01*
X166953813Y-92367456D01*
X166990744Y-92426768D01*
X166989746Y-92496631D01*
X166951136Y-92554863D01*
X166890678Y-92582473D01*
X166730589Y-92607829D01*
X166558363Y-92663787D01*
X166558360Y-92663788D01*
X166397002Y-92746006D01*
X166250505Y-92852441D01*
X166250500Y-92852445D01*
X166122445Y-92980500D01*
X166122441Y-92980505D01*
X166016006Y-93127002D01*
X165933788Y-93288360D01*
X165933787Y-93288363D01*
X165877829Y-93460589D01*
X165849500Y-93639448D01*
X165849500Y-93820551D01*
X165877829Y-93999410D01*
X165933787Y-94171636D01*
X165933788Y-94171639D01*
X165986310Y-94274716D01*
X166012916Y-94326934D01*
X166016006Y-94332997D01*
X166122441Y-94479494D01*
X166122445Y-94479499D01*
X166250503Y-94607557D01*
X166385426Y-94705582D01*
X166397006Y-94713996D01*
X166502484Y-94767740D01*
X166558360Y-94796211D01*
X166558363Y-94796212D01*
X166634486Y-94820945D01*
X166730591Y-94852171D01*
X166850038Y-94871089D01*
X166892279Y-94877780D01*
X166955414Y-94907709D01*
X166992345Y-94967021D01*
X166991347Y-95036883D01*
X166952737Y-95095116D01*
X166892279Y-95122726D01*
X166730706Y-95148317D01*
X166558555Y-95204251D01*
X166558547Y-95204254D01*
X166397269Y-95286432D01*
X166381466Y-95297912D01*
X166381466Y-95297913D01*
X166870591Y-95787037D01*
X166807007Y-95804075D01*
X166692993Y-95869901D01*
X166599901Y-95962993D01*
X166534075Y-96077007D01*
X166517037Y-96140590D01*
X166027913Y-95651466D01*
X166027912Y-95651466D01*
X166016432Y-95667269D01*
X165934254Y-95828547D01*
X165934251Y-95828555D01*
X165878317Y-96000706D01*
X165850000Y-96179493D01*
X165850000Y-96360506D01*
X165878317Y-96539293D01*
X165934251Y-96711444D01*
X165934252Y-96711447D01*
X166016431Y-96872730D01*
X166027913Y-96888532D01*
X166027913Y-96888533D01*
X166517037Y-96399409D01*
X166534075Y-96462993D01*
X166599901Y-96577007D01*
X166692993Y-96670099D01*
X166807007Y-96735925D01*
X166870590Y-96752962D01*
X166381466Y-97242085D01*
X166381466Y-97242086D01*
X166397267Y-97253566D01*
X166397275Y-97253571D01*
X166558552Y-97335747D01*
X166558555Y-97335748D01*
X166730706Y-97391682D01*
X166892279Y-97417273D01*
X166955413Y-97447202D01*
X166992345Y-97506513D01*
X166991347Y-97576376D01*
X166952738Y-97634609D01*
X166892280Y-97662219D01*
X166730589Y-97687829D01*
X166558363Y-97743787D01*
X166558360Y-97743788D01*
X166397002Y-97826006D01*
X166250505Y-97932441D01*
X166250500Y-97932445D01*
X166122445Y-98060500D01*
X166122441Y-98060505D01*
X166016006Y-98207002D01*
X165933788Y-98368360D01*
X165933787Y-98368363D01*
X165877829Y-98540589D01*
X165849500Y-98719448D01*
X165849500Y-98900551D01*
X165877829Y-99079410D01*
X165933787Y-99251636D01*
X165933788Y-99251639D01*
X166016006Y-99412997D01*
X166122441Y-99559494D01*
X166122445Y-99559499D01*
X166250500Y-99687554D01*
X166250505Y-99687558D01*
X166310698Y-99731290D01*
X166397006Y-99793996D01*
X166502484Y-99847740D01*
X166558360Y-99876211D01*
X166558363Y-99876212D01*
X166644476Y-99904191D01*
X166730591Y-99932171D01*
X166803639Y-99943740D01*
X166890678Y-99957527D01*
X166953813Y-99987456D01*
X166990744Y-100046768D01*
X166989746Y-100116631D01*
X166951136Y-100174863D01*
X166890678Y-100202473D01*
X166730589Y-100227829D01*
X166558363Y-100283787D01*
X166558360Y-100283788D01*
X166397002Y-100366006D01*
X166250505Y-100472441D01*
X166250500Y-100472445D01*
X166122445Y-100600500D01*
X166122441Y-100600505D01*
X166016006Y-100747002D01*
X165933788Y-100908360D01*
X165933787Y-100908363D01*
X165877829Y-101080589D01*
X165849500Y-101259448D01*
X165849500Y-101440551D01*
X165877829Y-101619410D01*
X165933787Y-101791636D01*
X165933788Y-101791639D01*
X166016006Y-101952997D01*
X166122441Y-102099494D01*
X166122445Y-102099499D01*
X166250500Y-102227554D01*
X166250505Y-102227558D01*
X166316742Y-102275682D01*
X166359408Y-102331011D01*
X166365387Y-102400625D01*
X166332782Y-102462420D01*
X166271943Y-102496777D01*
X166243857Y-102500000D01*
X165624000Y-102500000D01*
X165556961Y-102480315D01*
X165511206Y-102427511D01*
X165500000Y-102376000D01*
X165500000Y-87624000D01*
X165519685Y-87556961D01*
X165572489Y-87511206D01*
X165624000Y-87500000D01*
X165763673Y-87500000D01*
X165830712Y-87519685D01*
G37*
%TD.AperFunction*%
%TA.AperFunction,Conductor*%
G36*
X171393039Y-89019685D02*
G01*
X171438794Y-89072489D01*
X171450000Y-89124000D01*
X171450000Y-89641760D01*
X171562645Y-89602346D01*
X171562646Y-89602345D01*
X171576864Y-89591852D01*
X171642492Y-89567879D01*
X171710663Y-89583193D01*
X171759732Y-89632932D01*
X171774500Y-89691620D01*
X171774500Y-90808379D01*
X171754815Y-90875418D01*
X171702011Y-90921173D01*
X171632853Y-90931117D01*
X171576867Y-90908149D01*
X171562646Y-90897654D01*
X171450000Y-90858237D01*
X171450000Y-92141760D01*
X171562645Y-92102346D01*
X171562646Y-92102345D01*
X171576864Y-92091852D01*
X171642492Y-92067879D01*
X171710663Y-92083193D01*
X171759732Y-92132932D01*
X171774500Y-92191620D01*
X171774500Y-92943982D01*
X171774500Y-93056018D01*
X171796799Y-93139237D01*
X171803497Y-93164236D01*
X171803498Y-93164239D01*
X171816469Y-93186705D01*
X171859515Y-93261263D01*
X171859517Y-93261265D01*
X172418732Y-93820481D01*
X172425181Y-93825429D01*
X172424698Y-93826057D01*
X172429786Y-93827995D01*
X172454571Y-93853119D01*
X172508631Y-93926368D01*
X172532601Y-93991994D01*
X172517286Y-94060164D01*
X172508630Y-94073632D01*
X172436148Y-94171841D01*
X172436147Y-94171842D01*
X172392291Y-94297173D01*
X172392289Y-94297185D01*
X172389500Y-94326929D01*
X172389500Y-94713070D01*
X172392289Y-94742814D01*
X172392291Y-94742826D01*
X172436147Y-94868157D01*
X172436148Y-94868158D01*
X172479108Y-94926367D01*
X172503079Y-94991996D01*
X172487763Y-95060166D01*
X172479108Y-95073633D01*
X172436148Y-95131841D01*
X172436147Y-95131842D01*
X172392291Y-95257173D01*
X172392289Y-95257185D01*
X172389500Y-95286929D01*
X172389500Y-95673070D01*
X172392289Y-95702814D01*
X172392291Y-95702826D01*
X172419921Y-95781784D01*
X172436148Y-95828157D01*
X172515001Y-95934999D01*
X172621843Y-96013852D01*
X172660003Y-96027204D01*
X172747173Y-96057708D01*
X172747177Y-96057708D01*
X172747181Y-96057710D01*
X172762057Y-96059105D01*
X172776930Y-96060500D01*
X172776934Y-96060500D01*
X173223070Y-96060500D01*
X173236289Y-96059260D01*
X173252819Y-96057710D01*
X173252823Y-96057708D01*
X173252826Y-96057708D01*
X173378157Y-96013852D01*
X173378158Y-96013851D01*
X173492140Y-95929730D01*
X173512552Y-95922274D01*
X173530838Y-95910523D01*
X173553742Y-95907229D01*
X173557769Y-95905759D01*
X173565773Y-95905500D01*
X173702390Y-95905500D01*
X173769429Y-95925185D01*
X173790071Y-95941819D01*
X174503496Y-96655244D01*
X174536981Y-96716567D01*
X174531997Y-96786259D01*
X174490125Y-96842192D01*
X174472110Y-96853409D01*
X174386661Y-96896947D01*
X174386652Y-96896954D01*
X174296954Y-96986652D01*
X174296951Y-96986657D01*
X174239352Y-97099698D01*
X174224500Y-97193475D01*
X174224500Y-98531517D01*
X174235292Y-98599657D01*
X174239354Y-98625304D01*
X174273081Y-98691496D01*
X174277301Y-98699778D01*
X174290197Y-98768448D01*
X174263920Y-98833188D01*
X174254498Y-98843754D01*
X174179514Y-98918738D01*
X174179513Y-98918740D01*
X174123498Y-99015760D01*
X174123497Y-99015763D01*
X174094500Y-99123982D01*
X174094500Y-99434228D01*
X174074815Y-99501267D01*
X174070270Y-99507862D01*
X174065001Y-99515000D01*
X174065001Y-99515001D01*
X174040000Y-99548876D01*
X173986147Y-99621844D01*
X173942291Y-99747173D01*
X173942289Y-99747185D01*
X173939500Y-99776929D01*
X173939500Y-100223070D01*
X173942289Y-100252814D01*
X173942291Y-100252826D01*
X173986147Y-100378155D01*
X173986148Y-100378157D01*
X174065001Y-100484999D01*
X174171843Y-100563852D01*
X174202273Y-100574500D01*
X174297173Y-100607708D01*
X174297177Y-100607708D01*
X174297181Y-100607710D01*
X174312057Y-100609105D01*
X174326930Y-100610500D01*
X174326934Y-100610500D01*
X174713070Y-100610500D01*
X174726289Y-100609260D01*
X174742819Y-100607710D01*
X174742823Y-100607708D01*
X174742826Y-100607708D01*
X174800981Y-100587358D01*
X174868157Y-100563852D01*
X174926368Y-100520890D01*
X174991995Y-100496920D01*
X175060165Y-100512235D01*
X175073625Y-100520885D01*
X175131843Y-100563852D01*
X175162273Y-100574500D01*
X175257173Y-100607708D01*
X175257177Y-100607708D01*
X175257181Y-100607710D01*
X175272057Y-100609105D01*
X175286930Y-100610500D01*
X175286934Y-100610500D01*
X175673070Y-100610500D01*
X175686289Y-100609260D01*
X175702819Y-100607710D01*
X175702823Y-100607708D01*
X175702826Y-100607708D01*
X175760981Y-100587358D01*
X175828157Y-100563852D01*
X175926367Y-100491369D01*
X175991995Y-100467399D01*
X176060165Y-100482714D01*
X176073629Y-100491367D01*
X176171843Y-100563852D01*
X176202273Y-100574500D01*
X176297173Y-100607708D01*
X176297177Y-100607708D01*
X176297181Y-100607710D01*
X176312057Y-100609105D01*
X176326930Y-100610500D01*
X176326934Y-100610500D01*
X176713070Y-100610500D01*
X176726289Y-100609260D01*
X176742819Y-100607710D01*
X176742823Y-100607708D01*
X176742826Y-100607708D01*
X176800981Y-100587358D01*
X176868157Y-100563852D01*
X176926368Y-100520890D01*
X176991995Y-100496920D01*
X177060165Y-100512235D01*
X177073625Y-100520885D01*
X177131843Y-100563852D01*
X177162273Y-100574500D01*
X177257173Y-100607708D01*
X177257177Y-100607708D01*
X177257181Y-100607710D01*
X177272057Y-100609105D01*
X177286930Y-100610500D01*
X177286934Y-100610500D01*
X177673070Y-100610500D01*
X177686289Y-100609260D01*
X177702819Y-100607710D01*
X177702823Y-100607708D01*
X177702826Y-100607708D01*
X177760981Y-100587358D01*
X177828157Y-100563852D01*
X177926367Y-100491369D01*
X177991995Y-100467399D01*
X178060165Y-100482714D01*
X178073629Y-100491367D01*
X178171843Y-100563852D01*
X178202273Y-100574500D01*
X178297173Y-100607708D01*
X178297177Y-100607708D01*
X178297181Y-100607710D01*
X178312057Y-100609105D01*
X178326930Y-100610500D01*
X178326934Y-100610500D01*
X178713070Y-100610500D01*
X178726289Y-100609260D01*
X178742819Y-100607710D01*
X178742823Y-100607708D01*
X178742826Y-100607708D01*
X178800981Y-100587358D01*
X178868157Y-100563852D01*
X178926789Y-100520578D01*
X178992415Y-100496609D01*
X179060586Y-100511924D01*
X179074056Y-100520581D01*
X179132077Y-100563403D01*
X179230000Y-100597668D01*
X179230000Y-100124000D01*
X179249685Y-100056961D01*
X179302489Y-100011206D01*
X179354000Y-100000000D01*
X179606000Y-100000000D01*
X179673039Y-100019685D01*
X179718794Y-100072489D01*
X179730000Y-100124000D01*
X179730000Y-100597667D01*
X179827922Y-100563403D01*
X179934641Y-100484641D01*
X180013405Y-100377919D01*
X180057211Y-100252732D01*
X180057213Y-100252720D01*
X180059999Y-100223009D01*
X180059999Y-100211117D01*
X180079679Y-100144077D01*
X180132480Y-100098318D01*
X180201638Y-100088370D01*
X180265195Y-100117391D01*
X180271680Y-100123428D01*
X180309515Y-100161263D01*
X180388737Y-100240485D01*
X180463742Y-100283789D01*
X180485763Y-100296503D01*
X180593981Y-100325500D01*
X180593982Y-100325500D01*
X180695281Y-100325500D01*
X180762320Y-100345185D01*
X180808075Y-100397989D01*
X180818019Y-100467147D01*
X180795051Y-100523134D01*
X180747653Y-100587354D01*
X180702850Y-100715395D01*
X180702850Y-100715399D01*
X180700000Y-100745793D01*
X180700000Y-100750000D01*
X181176000Y-100750000D01*
X181243039Y-100769685D01*
X181288794Y-100822489D01*
X181300000Y-100874000D01*
X181300000Y-101000000D01*
X181426000Y-101000000D01*
X181493039Y-101019685D01*
X181538794Y-101072489D01*
X181550000Y-101124000D01*
X181550000Y-101641760D01*
X181662645Y-101602346D01*
X181771792Y-101521792D01*
X181852346Y-101412645D01*
X181882693Y-101325917D01*
X181923414Y-101269141D01*
X181988367Y-101243393D01*
X182056929Y-101256849D01*
X182107332Y-101305236D01*
X182116776Y-101325916D01*
X182147124Y-101412645D01*
X182147207Y-101412882D01*
X182227850Y-101522150D01*
X182337118Y-101602793D01*
X182379845Y-101617744D01*
X182465299Y-101647646D01*
X182495730Y-101650500D01*
X182495734Y-101650500D01*
X182904270Y-101650500D01*
X182934699Y-101647646D01*
X182934701Y-101647646D01*
X183015396Y-101619409D01*
X183062882Y-101602793D01*
X183172150Y-101522150D01*
X183192004Y-101495248D01*
X183247648Y-101453000D01*
X183317304Y-101447540D01*
X183378854Y-101480606D01*
X183379454Y-101481202D01*
X183588737Y-101690485D01*
X183685763Y-101746503D01*
X183793982Y-101775500D01*
X183906019Y-101775500D01*
X183964579Y-101775500D01*
X184031618Y-101795185D01*
X184075062Y-101843203D01*
X184127880Y-101946864D01*
X184131006Y-101952998D01*
X184237441Y-102099494D01*
X184237445Y-102099499D01*
X184365500Y-102227554D01*
X184365505Y-102227558D01*
X184431742Y-102275682D01*
X184474408Y-102331011D01*
X184480387Y-102400625D01*
X184447782Y-102462420D01*
X184386943Y-102496777D01*
X184358857Y-102500000D01*
X167756143Y-102500000D01*
X167689104Y-102480315D01*
X167643349Y-102427511D01*
X167633405Y-102358353D01*
X167662430Y-102294797D01*
X167683258Y-102275682D01*
X167749494Y-102227558D01*
X167749492Y-102227558D01*
X167749501Y-102227553D01*
X167877553Y-102099501D01*
X167983996Y-101952994D01*
X168039937Y-101843203D01*
X168087910Y-101792409D01*
X168150421Y-101775500D01*
X169506016Y-101775500D01*
X169506018Y-101775500D01*
X169614237Y-101746503D01*
X169711263Y-101690485D01*
X169714929Y-101686819D01*
X169776252Y-101653334D01*
X169802610Y-101650500D01*
X170004270Y-101650500D01*
X170034699Y-101647646D01*
X170034701Y-101647646D01*
X170115396Y-101619409D01*
X170162882Y-101602793D01*
X170272150Y-101522150D01*
X170352793Y-101412882D01*
X170383224Y-101325913D01*
X170423944Y-101269141D01*
X170488896Y-101243393D01*
X170557458Y-101256849D01*
X170607861Y-101305236D01*
X170617305Y-101325916D01*
X170647651Y-101412641D01*
X170647653Y-101412645D01*
X170728207Y-101521792D01*
X170837354Y-101602346D01*
X170950000Y-101641761D01*
X170950000Y-101641760D01*
X171450000Y-101641760D01*
X171562645Y-101602346D01*
X171671792Y-101521792D01*
X171752346Y-101412645D01*
X171797149Y-101284604D01*
X171797149Y-101284600D01*
X171800000Y-101254206D01*
X171800000Y-101254196D01*
X180700001Y-101254196D01*
X180702851Y-101284606D01*
X180747653Y-101412645D01*
X180828207Y-101521792D01*
X180937354Y-101602346D01*
X181050000Y-101641761D01*
X181050000Y-101250000D01*
X180700001Y-101250000D01*
X180700001Y-101254196D01*
X171800000Y-101254196D01*
X171800000Y-101250000D01*
X171450000Y-101250000D01*
X171450000Y-101641760D01*
X170950000Y-101641760D01*
X170950000Y-100750000D01*
X171450000Y-100750000D01*
X171799999Y-100750000D01*
X171799999Y-100745803D01*
X171797148Y-100715393D01*
X171752346Y-100587354D01*
X171671792Y-100478207D01*
X171562644Y-100397653D01*
X171450000Y-100358237D01*
X171450000Y-100750000D01*
X170950000Y-100750000D01*
X170950000Y-100358237D01*
X170949999Y-100358237D01*
X170837355Y-100397653D01*
X170728207Y-100478207D01*
X170647653Y-100587354D01*
X170647651Y-100587358D01*
X170617305Y-100674083D01*
X170604532Y-100691890D01*
X170595912Y-100712042D01*
X170584568Y-100719725D01*
X170576583Y-100730859D01*
X170556209Y-100738935D01*
X170538064Y-100751226D01*
X170524367Y-100751557D01*
X170511631Y-100756606D01*
X170490124Y-100752385D01*
X170468215Y-100752915D01*
X170456513Y-100745788D01*
X170443069Y-100743150D01*
X170427258Y-100727971D01*
X170408541Y-100716572D01*
X170399393Y-100701220D01*
X170392666Y-100694762D01*
X170388748Y-100687351D01*
X170385601Y-100680880D01*
X170352793Y-100587118D01*
X170315330Y-100536357D01*
X170310351Y-100526117D01*
X170306361Y-100502445D01*
X170298126Y-100479900D01*
X170300659Y-100468621D01*
X170298738Y-100457219D01*
X170308180Y-100435147D01*
X170313441Y-100411730D01*
X170314451Y-100409945D01*
X170359577Y-100331784D01*
X170400500Y-100179057D01*
X170400500Y-100020943D01*
X170359577Y-99868216D01*
X170359573Y-99868209D01*
X170280524Y-99731290D01*
X170280518Y-99731282D01*
X170168717Y-99619481D01*
X170168709Y-99619475D01*
X170031790Y-99540426D01*
X170031786Y-99540424D01*
X170031784Y-99540423D01*
X169879057Y-99499500D01*
X169720943Y-99499500D01*
X169568216Y-99540423D01*
X169568209Y-99540426D01*
X169431290Y-99619475D01*
X169431282Y-99619481D01*
X169319481Y-99731282D01*
X169319475Y-99731290D01*
X169240426Y-99868209D01*
X169240423Y-99868216D01*
X169199500Y-100020943D01*
X169199500Y-100179057D01*
X169227563Y-100283787D01*
X169240423Y-100331783D01*
X169240423Y-100331784D01*
X169285519Y-100409894D01*
X169301990Y-100477794D01*
X169279138Y-100543821D01*
X169277903Y-100545524D01*
X169247209Y-100587114D01*
X169247206Y-100587119D01*
X169202353Y-100715298D01*
X169202353Y-100715300D01*
X169199500Y-100745730D01*
X169199500Y-100800500D01*
X169179815Y-100867539D01*
X169127011Y-100913294D01*
X169075500Y-100924500D01*
X168150421Y-100924500D01*
X168083382Y-100904815D01*
X168039937Y-100856796D01*
X167983996Y-100747006D01*
X167983994Y-100747003D01*
X167983993Y-100747001D01*
X167877558Y-100600505D01*
X167877554Y-100600500D01*
X167749499Y-100472445D01*
X167749494Y-100472441D01*
X167602997Y-100366006D01*
X167602996Y-100366005D01*
X167602994Y-100366004D01*
X167523501Y-100325500D01*
X167441639Y-100283788D01*
X167441636Y-100283787D01*
X167269410Y-100227829D01*
X167109321Y-100202473D01*
X167046186Y-100172544D01*
X167009255Y-100113232D01*
X167010253Y-100043370D01*
X167048863Y-99985137D01*
X167109321Y-99957527D01*
X167179425Y-99946422D01*
X167269409Y-99932171D01*
X167441639Y-99876211D01*
X167602994Y-99793996D01*
X167749501Y-99687553D01*
X167877553Y-99559501D01*
X167983996Y-99412994D01*
X168039937Y-99303203D01*
X168087910Y-99252409D01*
X168150421Y-99235500D01*
X169546016Y-99235500D01*
X169546018Y-99235500D01*
X169654237Y-99206503D01*
X169722462Y-99167112D01*
X169784462Y-99150500D01*
X170004270Y-99150500D01*
X170034699Y-99147646D01*
X170034701Y-99147646D01*
X170102327Y-99123982D01*
X170162882Y-99102793D01*
X170272150Y-99022150D01*
X170352793Y-98912882D01*
X170383224Y-98825913D01*
X170423944Y-98769141D01*
X170488896Y-98743393D01*
X170557458Y-98756849D01*
X170607861Y-98805236D01*
X170617305Y-98825916D01*
X170647651Y-98912641D01*
X170647653Y-98912645D01*
X170728207Y-99021792D01*
X170837354Y-99102346D01*
X170950000Y-99141761D01*
X170950000Y-99141760D01*
X171450000Y-99141760D01*
X171562645Y-99102346D01*
X171671792Y-99021792D01*
X171752346Y-98912645D01*
X171797149Y-98784604D01*
X171797149Y-98784600D01*
X171800000Y-98754206D01*
X171800000Y-98750000D01*
X171450000Y-98750000D01*
X171450000Y-99141760D01*
X170950000Y-99141760D01*
X170950000Y-98250000D01*
X171450000Y-98250000D01*
X171799999Y-98250000D01*
X171799999Y-98245803D01*
X171797148Y-98215393D01*
X171752346Y-98087354D01*
X171671792Y-97978207D01*
X171562644Y-97897653D01*
X171450000Y-97858237D01*
X171450000Y-98250000D01*
X170950000Y-98250000D01*
X170950000Y-97858237D01*
X170949999Y-97858237D01*
X170837355Y-97897653D01*
X170728207Y-97978207D01*
X170647653Y-98087354D01*
X170647651Y-98087358D01*
X170617305Y-98174083D01*
X170603390Y-98193483D01*
X170593290Y-98215116D01*
X170583399Y-98221355D01*
X170576583Y-98230859D01*
X170554387Y-98239657D01*
X170534196Y-98252395D01*
X170522502Y-98252296D01*
X170511631Y-98256606D01*
X170488202Y-98252007D01*
X170464329Y-98251807D01*
X170454545Y-98245402D01*
X170443069Y-98243150D01*
X170425844Y-98226614D01*
X170405871Y-98213539D01*
X170398071Y-98199951D01*
X170392666Y-98194762D01*
X170387040Y-98183689D01*
X170384935Y-98178975D01*
X170352793Y-98087118D01*
X170330315Y-98056662D01*
X170324840Y-98044400D01*
X170321886Y-98022550D01*
X170314323Y-98001844D01*
X170317296Y-97988606D01*
X170315479Y-97975160D01*
X170324805Y-97955184D01*
X170329638Y-97933674D01*
X170330605Y-97931964D01*
X170359577Y-97881784D01*
X170400500Y-97729057D01*
X170400500Y-97570943D01*
X170359577Y-97418216D01*
X170311963Y-97335745D01*
X170280524Y-97281290D01*
X170280518Y-97281282D01*
X170168717Y-97169481D01*
X170168709Y-97169475D01*
X170031790Y-97090426D01*
X170031786Y-97090424D01*
X170031784Y-97090423D01*
X169879057Y-97049500D01*
X169720943Y-97049500D01*
X169568216Y-97090423D01*
X169568209Y-97090426D01*
X169431290Y-97169475D01*
X169431282Y-97169481D01*
X169319481Y-97281282D01*
X169319475Y-97281290D01*
X169240426Y-97418209D01*
X169240423Y-97418216D01*
X169199500Y-97570943D01*
X169199500Y-97729057D01*
X169232538Y-97852354D01*
X169240423Y-97881783D01*
X169240425Y-97881788D01*
X169269322Y-97931841D01*
X169285793Y-97999741D01*
X169262940Y-98065768D01*
X169261707Y-98067469D01*
X169247207Y-98087116D01*
X169202353Y-98215303D01*
X169199500Y-98245730D01*
X169199500Y-98260500D01*
X169179815Y-98327539D01*
X169127011Y-98373294D01*
X169075500Y-98384500D01*
X168150421Y-98384500D01*
X168083382Y-98364815D01*
X168039937Y-98316796D01*
X167983996Y-98207006D01*
X167983994Y-98207003D01*
X167983993Y-98207001D01*
X167877558Y-98060505D01*
X167877554Y-98060500D01*
X167749499Y-97932445D01*
X167749494Y-97932441D01*
X167602997Y-97826006D01*
X167602996Y-97826005D01*
X167602994Y-97826004D01*
X167551300Y-97799664D01*
X167441639Y-97743788D01*
X167441636Y-97743787D01*
X167269410Y-97687828D01*
X167107720Y-97662219D01*
X167044585Y-97632289D01*
X167007654Y-97572978D01*
X167008652Y-97503115D01*
X167047262Y-97444883D01*
X167107721Y-97417273D01*
X167269292Y-97391683D01*
X167441444Y-97335748D01*
X167441452Y-97335745D01*
X167602730Y-97253568D01*
X167618532Y-97242085D01*
X167618533Y-97242085D01*
X167129410Y-96752962D01*
X167192993Y-96735925D01*
X167307007Y-96670099D01*
X167400099Y-96577007D01*
X167465925Y-96462993D01*
X167482962Y-96399410D01*
X167972085Y-96888533D01*
X167972085Y-96888532D01*
X167983568Y-96872730D01*
X168065745Y-96711452D01*
X168065748Y-96711444D01*
X168121682Y-96539293D01*
X168150000Y-96360506D01*
X168150000Y-96179493D01*
X168121682Y-96000706D01*
X168065748Y-95828555D01*
X168065747Y-95828552D01*
X167983571Y-95667275D01*
X167983566Y-95667267D01*
X167972085Y-95651466D01*
X167482962Y-96140589D01*
X167465925Y-96077007D01*
X167400099Y-95962993D01*
X167307007Y-95869901D01*
X167192993Y-95804075D01*
X167129409Y-95787037D01*
X167618533Y-95297913D01*
X167602730Y-95286431D01*
X167441447Y-95204252D01*
X167441444Y-95204251D01*
X167269293Y-95148317D01*
X167107720Y-95122726D01*
X167044585Y-95092797D01*
X167007654Y-95033485D01*
X167008652Y-94963623D01*
X167047262Y-94905390D01*
X167107720Y-94877780D01*
X167122270Y-94875475D01*
X167269409Y-94852171D01*
X167441639Y-94796211D01*
X167602994Y-94713996D01*
X167666006Y-94668215D01*
X167749497Y-94607557D01*
X167749498Y-94607554D01*
X167749501Y-94607553D01*
X167877553Y-94479501D01*
X167983996Y-94332994D01*
X168039937Y-94223203D01*
X168087910Y-94172409D01*
X168150421Y-94155500D01*
X169077322Y-94155500D01*
X169144361Y-94175185D01*
X169190116Y-94227989D01*
X169200780Y-94267921D01*
X169202353Y-94284699D01*
X169202353Y-94284701D01*
X169247123Y-94412643D01*
X169247207Y-94412882D01*
X169327850Y-94522150D01*
X169437118Y-94602793D01*
X169450733Y-94607557D01*
X169565299Y-94647646D01*
X169595730Y-94650500D01*
X169595734Y-94650500D01*
X170004270Y-94650500D01*
X170034699Y-94647646D01*
X170034701Y-94647646D01*
X170098790Y-94625219D01*
X170162882Y-94602793D01*
X170272150Y-94522150D01*
X170352793Y-94412882D01*
X170383224Y-94325913D01*
X170423944Y-94269141D01*
X170488896Y-94243393D01*
X170557458Y-94256849D01*
X170607861Y-94305236D01*
X170617305Y-94325916D01*
X170647651Y-94412641D01*
X170647653Y-94412645D01*
X170728207Y-94521792D01*
X170837354Y-94602346D01*
X170950000Y-94641761D01*
X171450000Y-94641761D01*
X171562645Y-94602346D01*
X171671792Y-94521792D01*
X171752346Y-94412645D01*
X171797149Y-94284604D01*
X171797149Y-94284600D01*
X171800000Y-94254206D01*
X171800000Y-94250000D01*
X171450000Y-94250000D01*
X171450000Y-94641761D01*
X170950000Y-94641761D01*
X170950000Y-93750000D01*
X171450000Y-93750000D01*
X171799999Y-93750000D01*
X171799999Y-93745803D01*
X171797148Y-93715393D01*
X171752346Y-93587354D01*
X171671792Y-93478207D01*
X171562644Y-93397653D01*
X171450000Y-93358237D01*
X171450000Y-93750000D01*
X170950000Y-93750000D01*
X170950000Y-93358237D01*
X170949999Y-93358237D01*
X170843160Y-93395622D01*
X170773382Y-93399183D01*
X170712754Y-93364454D01*
X170680527Y-93302461D01*
X170682431Y-93246488D01*
X170700500Y-93179057D01*
X170700500Y-93020943D01*
X170659577Y-92868216D01*
X170626763Y-92811380D01*
X170580524Y-92731290D01*
X170580518Y-92731282D01*
X170468717Y-92619481D01*
X170468709Y-92619475D01*
X170331790Y-92540426D01*
X170331786Y-92540424D01*
X170331784Y-92540423D01*
X170179057Y-92499500D01*
X170020943Y-92499500D01*
X169868216Y-92540423D01*
X169868209Y-92540426D01*
X169731290Y-92619475D01*
X169731282Y-92619481D01*
X169619481Y-92731282D01*
X169619475Y-92731290D01*
X169540426Y-92868209D01*
X169540423Y-92868216D01*
X169499500Y-93020943D01*
X169499500Y-93047390D01*
X169480621Y-93113159D01*
X169473147Y-93125104D01*
X169459515Y-93138737D01*
X169403497Y-93235763D01*
X169403184Y-93236928D01*
X169397341Y-93246269D01*
X169372799Y-93268060D01*
X169349040Y-93290716D01*
X169346627Y-93291301D01*
X169345096Y-93292661D01*
X169333658Y-93294447D01*
X169292220Y-93304500D01*
X168150421Y-93304500D01*
X168083382Y-93284815D01*
X168039937Y-93236796D01*
X167983996Y-93127006D01*
X167983994Y-93127003D01*
X167983993Y-93127001D01*
X167877558Y-92980505D01*
X167877554Y-92980500D01*
X167749499Y-92852445D01*
X167749494Y-92852441D01*
X167602997Y-92746006D01*
X167602996Y-92746005D01*
X167602994Y-92746004D01*
X167551300Y-92719664D01*
X167441639Y-92663788D01*
X167441636Y-92663787D01*
X167269410Y-92607829D01*
X167109321Y-92582473D01*
X167046186Y-92552544D01*
X167009255Y-92493232D01*
X167010253Y-92423370D01*
X167048863Y-92365137D01*
X167109321Y-92337527D01*
X167179425Y-92326422D01*
X167269409Y-92312171D01*
X167441639Y-92256211D01*
X167602994Y-92173996D01*
X167749501Y-92067553D01*
X167877553Y-91939501D01*
X167983996Y-91792994D01*
X168039937Y-91683203D01*
X168087910Y-91632409D01*
X168150421Y-91615500D01*
X169075500Y-91615500D01*
X169142539Y-91635185D01*
X169188294Y-91687989D01*
X169199500Y-91739500D01*
X169199500Y-91754269D01*
X169202353Y-91784699D01*
X169202353Y-91784701D01*
X169247124Y-91912645D01*
X169247207Y-91912882D01*
X169327850Y-92022150D01*
X169437118Y-92102793D01*
X169479845Y-92117744D01*
X169565299Y-92147646D01*
X169595730Y-92150500D01*
X169595734Y-92150500D01*
X170004270Y-92150500D01*
X170034699Y-92147646D01*
X170034701Y-92147646D01*
X170098790Y-92125219D01*
X170162882Y-92102793D01*
X170272150Y-92022150D01*
X170352793Y-91912882D01*
X170383224Y-91825913D01*
X170423944Y-91769141D01*
X170488896Y-91743393D01*
X170557458Y-91756849D01*
X170607861Y-91805236D01*
X170617305Y-91825916D01*
X170647651Y-91912641D01*
X170647653Y-91912645D01*
X170728207Y-92021792D01*
X170837354Y-92102346D01*
X170950000Y-92141761D01*
X170950000Y-90858237D01*
X170949999Y-90858237D01*
X170843160Y-90895622D01*
X170773382Y-90899183D01*
X170712754Y-90864454D01*
X170680527Y-90802461D01*
X170682431Y-90746488D01*
X170700500Y-90679057D01*
X170700500Y-90520943D01*
X170659577Y-90368216D01*
X170638258Y-90331290D01*
X170580524Y-90231290D01*
X170580518Y-90231282D01*
X170468717Y-90119481D01*
X170468709Y-90119475D01*
X170331790Y-90040426D01*
X170331786Y-90040424D01*
X170331784Y-90040423D01*
X170179057Y-89999500D01*
X170020943Y-89999500D01*
X169868216Y-90040423D01*
X169868209Y-90040426D01*
X169731290Y-90119475D01*
X169731282Y-90119481D01*
X169619481Y-90231282D01*
X169619475Y-90231290D01*
X169540426Y-90368209D01*
X169540423Y-90368216D01*
X169499500Y-90520943D01*
X169499500Y-90547390D01*
X169479815Y-90614429D01*
X169479638Y-90614705D01*
X169472492Y-90625759D01*
X169459515Y-90638737D01*
X169421144Y-90705196D01*
X169419452Y-90707815D01*
X169395256Y-90728669D01*
X169372134Y-90750716D01*
X169368714Y-90751545D01*
X169366528Y-90753430D01*
X169353188Y-90755312D01*
X169315314Y-90764500D01*
X168150421Y-90764500D01*
X168083382Y-90744815D01*
X168039937Y-90696796D01*
X167983996Y-90587006D01*
X167983994Y-90587003D01*
X167983993Y-90587001D01*
X167877558Y-90440505D01*
X167877554Y-90440500D01*
X167749499Y-90312445D01*
X167749494Y-90312441D01*
X167602997Y-90206006D01*
X167602996Y-90206005D01*
X167602994Y-90206004D01*
X167551300Y-90179664D01*
X167441639Y-90123788D01*
X167441636Y-90123787D01*
X167269410Y-90067829D01*
X167137728Y-90046972D01*
X167074594Y-90017042D01*
X167037663Y-89957731D01*
X167038661Y-89887868D01*
X167077271Y-89829636D01*
X167141235Y-89801522D01*
X167157120Y-89800499D01*
X167894864Y-89800499D01*
X167894879Y-89800497D01*
X167894882Y-89800497D01*
X167919987Y-89797586D01*
X167919988Y-89797585D01*
X167919991Y-89797585D01*
X168022765Y-89752206D01*
X168102206Y-89672765D01*
X168147585Y-89569991D01*
X168150500Y-89544865D01*
X168150500Y-89199500D01*
X168170185Y-89132461D01*
X168222989Y-89086706D01*
X168274500Y-89075500D01*
X169075500Y-89075500D01*
X169142539Y-89095185D01*
X169188294Y-89147989D01*
X169199500Y-89199500D01*
X169199500Y-89254269D01*
X169202353Y-89284699D01*
X169202353Y-89284701D01*
X169247124Y-89412645D01*
X169247207Y-89412882D01*
X169327850Y-89522150D01*
X169437118Y-89602793D01*
X169479845Y-89617744D01*
X169565299Y-89647646D01*
X169595730Y-89650500D01*
X169595734Y-89650500D01*
X170004270Y-89650500D01*
X170034699Y-89647646D01*
X170034701Y-89647646D01*
X170113361Y-89620121D01*
X170162882Y-89602793D01*
X170272150Y-89522150D01*
X170352793Y-89412882D01*
X170383224Y-89325913D01*
X170423944Y-89269141D01*
X170488896Y-89243393D01*
X170557458Y-89256849D01*
X170607861Y-89305236D01*
X170617305Y-89325916D01*
X170647651Y-89412641D01*
X170647653Y-89412645D01*
X170728207Y-89521792D01*
X170837354Y-89602346D01*
X170950000Y-89641761D01*
X170950000Y-89124000D01*
X170969685Y-89056961D01*
X171022489Y-89011206D01*
X171074000Y-89000000D01*
X171326000Y-89000000D01*
X171393039Y-89019685D01*
G37*
%TD.AperFunction*%
%TA.AperFunction,Conductor*%
G36*
X183439429Y-98945185D02*
G01*
X183460071Y-98961819D01*
X183569513Y-99071261D01*
X183569515Y-99071263D01*
X183648737Y-99150485D01*
X183745763Y-99206503D01*
X183853981Y-99235500D01*
X183853982Y-99235500D01*
X183964579Y-99235500D01*
X184031618Y-99255185D01*
X184075062Y-99303203D01*
X184118619Y-99388687D01*
X184131006Y-99412998D01*
X184237441Y-99559494D01*
X184237445Y-99559499D01*
X184365500Y-99687554D01*
X184365505Y-99687558D01*
X184425698Y-99731290D01*
X184512006Y-99793996D01*
X184617484Y-99847740D01*
X184673360Y-99876211D01*
X184673363Y-99876212D01*
X184759476Y-99904191D01*
X184845591Y-99932171D01*
X184918639Y-99943740D01*
X185005678Y-99957527D01*
X185068813Y-99987456D01*
X185105744Y-100046768D01*
X185104746Y-100116631D01*
X185066136Y-100174863D01*
X185005678Y-100202473D01*
X184845589Y-100227829D01*
X184673363Y-100283787D01*
X184673360Y-100283788D01*
X184512002Y-100366006D01*
X184365505Y-100472441D01*
X184365500Y-100472445D01*
X184237445Y-100600500D01*
X184237441Y-100600505D01*
X184131004Y-100747004D01*
X184113215Y-100781917D01*
X184065240Y-100832713D01*
X183997419Y-100849507D01*
X183931284Y-100826969D01*
X183915050Y-100813302D01*
X183761265Y-100659517D01*
X183761263Y-100659515D01*
X183664237Y-100603497D01*
X183556018Y-100574500D01*
X183556017Y-100574500D01*
X183306079Y-100574500D01*
X183273300Y-100564875D01*
X183240381Y-100555665D01*
X183239658Y-100554996D01*
X183239040Y-100554815D01*
X183213414Y-100532896D01*
X183209659Y-100528673D01*
X183172150Y-100477850D01*
X183149802Y-100461357D01*
X183141192Y-100451673D01*
X183131581Y-100431323D01*
X183117971Y-100413396D01*
X183114082Y-100401371D01*
X183107862Y-100378157D01*
X183096503Y-100335763D01*
X183040485Y-100238737D01*
X182961263Y-100159515D01*
X182564428Y-99762680D01*
X182530943Y-99701357D01*
X182535927Y-99631665D01*
X182564428Y-99587318D01*
X182763060Y-99388687D01*
X183021444Y-99130303D01*
X183055573Y-99108860D01*
X183054663Y-99107137D01*
X183062879Y-99102794D01*
X183062882Y-99102793D01*
X183172150Y-99022150D01*
X183206308Y-98975866D01*
X183210289Y-98972844D01*
X183212366Y-98968297D01*
X183237841Y-98951924D01*
X183261956Y-98933616D01*
X183268085Y-98932488D01*
X183271144Y-98930523D01*
X183306079Y-98925500D01*
X183372390Y-98925500D01*
X183439429Y-98945185D01*
G37*
%TD.AperFunction*%
%TA.AperFunction,Conductor*%
G36*
X186412630Y-96333875D02*
G01*
X186470863Y-96372485D01*
X186498977Y-96436448D01*
X186500000Y-96452341D01*
X186500000Y-98624457D01*
X186480315Y-98691496D01*
X186427511Y-98737251D01*
X186358353Y-98747195D01*
X186294797Y-98718170D01*
X186257023Y-98659392D01*
X186253527Y-98643855D01*
X186245513Y-98593263D01*
X186237171Y-98540591D01*
X186182814Y-98373294D01*
X186181212Y-98368363D01*
X186181211Y-98368360D01*
X186152740Y-98312484D01*
X186098996Y-98207006D01*
X186075076Y-98174083D01*
X185992558Y-98060505D01*
X185992554Y-98060500D01*
X185864499Y-97932445D01*
X185864494Y-97932441D01*
X185717997Y-97826006D01*
X185717996Y-97826005D01*
X185717994Y-97826004D01*
X185666300Y-97799664D01*
X185556639Y-97743788D01*
X185556636Y-97743787D01*
X185384410Y-97687828D01*
X185222720Y-97662219D01*
X185159585Y-97632289D01*
X185122654Y-97572978D01*
X185123652Y-97503115D01*
X185162262Y-97444883D01*
X185222721Y-97417273D01*
X185384292Y-97391683D01*
X185556444Y-97335748D01*
X185556452Y-97335745D01*
X185717730Y-97253568D01*
X185733532Y-97242085D01*
X185733533Y-97242085D01*
X185244410Y-96752962D01*
X185307993Y-96735925D01*
X185422007Y-96670099D01*
X185515099Y-96577007D01*
X185580925Y-96462993D01*
X185597962Y-96399410D01*
X186087085Y-96888533D01*
X186087085Y-96888532D01*
X186098568Y-96872730D01*
X186180745Y-96711452D01*
X186180748Y-96711444D01*
X186236682Y-96539293D01*
X186253527Y-96432943D01*
X186283456Y-96369809D01*
X186342767Y-96332877D01*
X186412630Y-96333875D01*
G37*
%TD.AperFunction*%
%TA.AperFunction,Conductor*%
G36*
X180661575Y-88545185D02*
G01*
X180707330Y-88597989D01*
X180717274Y-88667147D01*
X180711578Y-88690454D01*
X180702850Y-88715395D01*
X180702850Y-88715399D01*
X180700000Y-88745793D01*
X180700000Y-88750000D01*
X181176000Y-88750000D01*
X181243039Y-88769685D01*
X181288794Y-88822489D01*
X181300000Y-88874000D01*
X181300000Y-89000000D01*
X181426000Y-89000000D01*
X181493039Y-89019685D01*
X181538794Y-89072489D01*
X181550000Y-89124000D01*
X181550000Y-89641760D01*
X181662645Y-89602346D01*
X181771792Y-89521792D01*
X181852346Y-89412645D01*
X181882693Y-89325917D01*
X181923414Y-89269141D01*
X181988367Y-89243393D01*
X182056929Y-89256849D01*
X182107332Y-89305236D01*
X182116776Y-89325916D01*
X182147124Y-89412645D01*
X182147207Y-89412882D01*
X182227850Y-89522150D01*
X182337118Y-89602793D01*
X182379845Y-89617744D01*
X182465299Y-89647646D01*
X182495730Y-89650500D01*
X182495734Y-89650500D01*
X182904270Y-89650500D01*
X182934699Y-89647646D01*
X182934701Y-89647646D01*
X183013361Y-89620121D01*
X183062882Y-89602793D01*
X183172150Y-89522150D01*
X183252793Y-89412882D01*
X183275219Y-89348790D01*
X183297646Y-89284701D01*
X183297646Y-89284699D01*
X183300500Y-89254269D01*
X183300500Y-89199500D01*
X183320185Y-89132461D01*
X183372989Y-89086706D01*
X183424500Y-89075500D01*
X183840501Y-89075500D01*
X183907540Y-89095185D01*
X183953295Y-89147989D01*
X183964501Y-89199500D01*
X183964501Y-89544856D01*
X183964502Y-89544882D01*
X183967413Y-89569987D01*
X183967415Y-89569991D01*
X184012793Y-89672764D01*
X184012794Y-89672765D01*
X184092235Y-89752206D01*
X184195009Y-89797585D01*
X184220135Y-89800500D01*
X184957873Y-89800499D01*
X185024910Y-89820183D01*
X185070665Y-89872987D01*
X185080609Y-89942146D01*
X185051584Y-90005702D01*
X184992806Y-90043476D01*
X184977270Y-90046972D01*
X184845589Y-90067829D01*
X184673363Y-90123787D01*
X184673360Y-90123788D01*
X184512002Y-90206006D01*
X184365505Y-90312441D01*
X184365500Y-90312445D01*
X184237445Y-90440500D01*
X184237441Y-90440505D01*
X184131006Y-90587001D01*
X184113712Y-90620943D01*
X184075062Y-90696796D01*
X184027090Y-90747591D01*
X183964579Y-90764500D01*
X182953981Y-90764500D01*
X182899654Y-90779056D01*
X182899654Y-90779057D01*
X182845763Y-90793497D01*
X182845762Y-90793497D01*
X182845760Y-90793498D01*
X182777538Y-90832887D01*
X182715538Y-90849500D01*
X182495730Y-90849500D01*
X182465300Y-90852353D01*
X182465298Y-90852353D01*
X182337119Y-90897206D01*
X182337117Y-90897207D01*
X182227850Y-90977850D01*
X182147207Y-91087117D01*
X182116776Y-91174084D01*
X182076054Y-91230859D01*
X182011101Y-91256606D01*
X181942540Y-91243149D01*
X181892137Y-91194762D01*
X181882693Y-91174082D01*
X181852346Y-91087354D01*
X181771792Y-90978207D01*
X181662644Y-90897653D01*
X181550000Y-90858237D01*
X181550000Y-92141760D01*
X181662643Y-92102347D01*
X181745768Y-92040997D01*
X181811397Y-92017026D01*
X181879568Y-92032341D01*
X181928636Y-92082081D01*
X181943024Y-92150453D01*
X181939178Y-92172860D01*
X181913150Y-92270000D01*
X181899500Y-92320943D01*
X181899500Y-92479057D01*
X181937127Y-92619481D01*
X181940423Y-92631783D01*
X181940426Y-92631790D01*
X182019475Y-92768709D01*
X182019479Y-92768714D01*
X182019480Y-92768716D01*
X182131284Y-92880520D01*
X182131286Y-92880521D01*
X182131290Y-92880524D01*
X182268209Y-92959573D01*
X182268216Y-92959577D01*
X182420943Y-93000500D01*
X182420945Y-93000500D01*
X182579055Y-93000500D01*
X182579057Y-93000500D01*
X182731784Y-92959577D01*
X182868716Y-92880520D01*
X182980520Y-92768716D01*
X183059577Y-92631784D01*
X183100500Y-92479057D01*
X183100500Y-92365644D01*
X183101133Y-92353131D01*
X183102140Y-92343195D01*
X183125500Y-92256018D01*
X183125500Y-92143981D01*
X183125500Y-92112903D01*
X183126133Y-92106663D01*
X183137039Y-92079878D01*
X183145185Y-92052137D01*
X183150753Y-92046197D01*
X183152482Y-92041952D01*
X183159092Y-92037303D01*
X183166383Y-92029525D01*
X183165579Y-92028721D01*
X183172146Y-92022152D01*
X183172150Y-92022150D01*
X183252793Y-91912882D01*
X183275219Y-91848790D01*
X183297646Y-91784701D01*
X183297646Y-91784699D01*
X183300500Y-91754269D01*
X183300500Y-91739500D01*
X183320185Y-91672461D01*
X183372989Y-91626706D01*
X183424500Y-91615500D01*
X183964579Y-91615500D01*
X184031618Y-91635185D01*
X184075062Y-91683203D01*
X184111271Y-91754266D01*
X184131006Y-91792998D01*
X184237441Y-91939494D01*
X184237445Y-91939499D01*
X184365500Y-92067554D01*
X184365505Y-92067558D01*
X184455486Y-92132932D01*
X184512006Y-92173996D01*
X184617484Y-92227740D01*
X184673360Y-92256211D01*
X184673363Y-92256212D01*
X184759476Y-92284191D01*
X184845591Y-92312171D01*
X184918639Y-92323740D01*
X185005678Y-92337527D01*
X185068813Y-92367456D01*
X185105744Y-92426768D01*
X185104746Y-92496631D01*
X185066136Y-92554863D01*
X185005678Y-92582473D01*
X184845589Y-92607829D01*
X184673363Y-92663787D01*
X184673360Y-92663788D01*
X184512002Y-92746006D01*
X184365505Y-92852441D01*
X184365500Y-92852445D01*
X184237445Y-92980500D01*
X184237441Y-92980505D01*
X184131006Y-93127001D01*
X184124772Y-93139237D01*
X184075062Y-93236796D01*
X184027090Y-93287591D01*
X183964579Y-93304500D01*
X182913982Y-93304500D01*
X182805763Y-93333497D01*
X182798253Y-93336608D01*
X182797721Y-93335324D01*
X182744820Y-93349500D01*
X182495730Y-93349500D01*
X182465300Y-93352353D01*
X182465298Y-93352353D01*
X182337119Y-93397206D01*
X182337117Y-93397207D01*
X182227850Y-93477850D01*
X182147207Y-93587117D01*
X182116776Y-93674084D01*
X182076054Y-93730859D01*
X182011101Y-93756606D01*
X181942540Y-93743149D01*
X181892137Y-93694762D01*
X181882693Y-93674082D01*
X181852346Y-93587354D01*
X181771792Y-93478207D01*
X181662644Y-93397653D01*
X181550000Y-93358237D01*
X181550000Y-94641760D01*
X181662645Y-94602346D01*
X181771792Y-94521792D01*
X181852346Y-94412645D01*
X181852347Y-94412643D01*
X181882692Y-94325919D01*
X181897727Y-94304954D01*
X181909388Y-94281939D01*
X181917757Y-94277027D01*
X181923413Y-94269142D01*
X181947399Y-94259633D01*
X181969649Y-94246577D01*
X181979343Y-94246970D01*
X181988365Y-94243394D01*
X182013683Y-94248362D01*
X182039461Y-94249408D01*
X182047404Y-94254980D01*
X182056927Y-94256849D01*
X182075539Y-94274716D01*
X182096660Y-94289533D01*
X182103092Y-94301168D01*
X182107330Y-94305236D01*
X182114523Y-94319973D01*
X182115734Y-94322937D01*
X182147207Y-94412882D01*
X182159024Y-94428894D01*
X182164867Y-94443194D01*
X182166920Y-94463199D01*
X182173819Y-94482088D01*
X182170413Y-94497244D01*
X182172000Y-94512699D01*
X182162911Y-94530637D01*
X182158504Y-94550258D01*
X182157466Y-94552092D01*
X182090423Y-94668215D01*
X182090423Y-94668216D01*
X182049500Y-94820943D01*
X182049500Y-94979057D01*
X182079977Y-95092797D01*
X182090423Y-95131783D01*
X182090426Y-95131790D01*
X182169475Y-95268709D01*
X182169479Y-95268714D01*
X182169480Y-95268716D01*
X182281284Y-95380520D01*
X182281286Y-95380521D01*
X182281290Y-95380524D01*
X182367887Y-95430520D01*
X182418216Y-95459577D01*
X182570943Y-95500500D01*
X182570945Y-95500500D01*
X182729055Y-95500500D01*
X182729057Y-95500500D01*
X182881784Y-95459577D01*
X183018716Y-95380520D01*
X183130520Y-95268716D01*
X183209577Y-95131784D01*
X183250500Y-94979057D01*
X183250500Y-94820943D01*
X183209577Y-94668216D01*
X183186425Y-94628115D01*
X183169953Y-94560219D01*
X183192805Y-94494192D01*
X183193967Y-94492588D01*
X183252793Y-94412882D01*
X183280747Y-94332994D01*
X183297646Y-94284701D01*
X183297646Y-94284699D01*
X183299220Y-94267921D01*
X183325078Y-94203013D01*
X183381924Y-94162388D01*
X183422678Y-94155500D01*
X183964579Y-94155500D01*
X184031618Y-94175185D01*
X184075062Y-94223203D01*
X184112752Y-94297173D01*
X184131006Y-94332998D01*
X184237441Y-94479494D01*
X184237445Y-94479499D01*
X184365503Y-94607557D01*
X184500426Y-94705582D01*
X184512006Y-94713996D01*
X184617484Y-94767740D01*
X184673360Y-94796211D01*
X184673363Y-94796212D01*
X184749486Y-94820945D01*
X184845591Y-94852171D01*
X184965038Y-94871089D01*
X185007279Y-94877780D01*
X185070414Y-94907709D01*
X185107345Y-94967021D01*
X185106347Y-95036883D01*
X185067737Y-95095116D01*
X185007279Y-95122726D01*
X184845706Y-95148317D01*
X184673555Y-95204251D01*
X184673547Y-95204254D01*
X184512269Y-95286432D01*
X184496466Y-95297912D01*
X184496466Y-95297913D01*
X184985591Y-95787037D01*
X184922007Y-95804075D01*
X184807993Y-95869901D01*
X184714901Y-95962993D01*
X184649075Y-96077007D01*
X184632037Y-96140590D01*
X184142913Y-95651466D01*
X184142912Y-95651466D01*
X184131432Y-95667269D01*
X184049254Y-95828547D01*
X184049251Y-95828555D01*
X183993317Y-96000706D01*
X183965000Y-96179493D01*
X183965000Y-96360506D01*
X183993317Y-96539293D01*
X184049251Y-96711444D01*
X184049252Y-96711447D01*
X184131431Y-96872730D01*
X184142913Y-96888532D01*
X184142913Y-96888533D01*
X184632037Y-96399409D01*
X184649075Y-96462993D01*
X184714901Y-96577007D01*
X184807993Y-96670099D01*
X184922007Y-96735925D01*
X184985590Y-96752962D01*
X184496466Y-97242085D01*
X184496466Y-97242086D01*
X184512267Y-97253566D01*
X184512275Y-97253571D01*
X184673552Y-97335747D01*
X184673555Y-97335748D01*
X184845706Y-97391682D01*
X185007279Y-97417273D01*
X185070413Y-97447202D01*
X185107345Y-97506513D01*
X185106347Y-97576376D01*
X185067738Y-97634609D01*
X185007280Y-97662219D01*
X184845589Y-97687829D01*
X184673363Y-97743787D01*
X184673360Y-97743788D01*
X184512002Y-97826006D01*
X184365505Y-97932441D01*
X184365500Y-97932445D01*
X184237445Y-98060500D01*
X184237441Y-98060505D01*
X184131007Y-98207000D01*
X184128738Y-98210703D01*
X184076922Y-98257574D01*
X184007992Y-98268992D01*
X183943831Y-98241330D01*
X183935334Y-98233586D01*
X183861265Y-98159517D01*
X183861263Y-98159515D01*
X183764237Y-98103497D01*
X183656018Y-98074500D01*
X183656017Y-98074500D01*
X183306079Y-98074500D01*
X183239040Y-98054815D01*
X183206308Y-98024133D01*
X183172151Y-97977851D01*
X183172150Y-97977850D01*
X183062882Y-97897207D01*
X183062880Y-97897206D01*
X182934700Y-97852353D01*
X182904270Y-97849500D01*
X182904266Y-97849500D01*
X182495734Y-97849500D01*
X182495730Y-97849500D01*
X182465300Y-97852353D01*
X182465298Y-97852353D01*
X182337119Y-97897206D01*
X182337117Y-97897207D01*
X182227850Y-97977850D01*
X182147207Y-98087117D01*
X182116776Y-98174084D01*
X182076054Y-98230859D01*
X182011101Y-98256606D01*
X181942540Y-98243149D01*
X181892137Y-98194762D01*
X181882693Y-98174082D01*
X181852346Y-98087354D01*
X181771792Y-97978207D01*
X181662644Y-97897653D01*
X181550000Y-97858237D01*
X181550000Y-98376000D01*
X181530315Y-98443039D01*
X181477511Y-98488794D01*
X181426000Y-98500000D01*
X181174000Y-98500000D01*
X181106961Y-98480315D01*
X181061206Y-98427511D01*
X181050000Y-98376000D01*
X181050000Y-97858237D01*
X181049999Y-97858237D01*
X180937355Y-97897653D01*
X180828207Y-97978207D01*
X180747653Y-98087354D01*
X180702850Y-98215395D01*
X180702850Y-98215399D01*
X180700000Y-98245793D01*
X180700000Y-98248890D01*
X180680315Y-98315929D01*
X180627511Y-98361684D01*
X180558353Y-98371628D01*
X180494797Y-98342603D01*
X180488319Y-98336571D01*
X180411265Y-98259517D01*
X180411263Y-98259515D01*
X180334845Y-98215395D01*
X180314239Y-98203498D01*
X180314238Y-98203497D01*
X180314237Y-98203497D01*
X180206018Y-98174500D01*
X180206017Y-98174500D01*
X179899500Y-98174500D01*
X179832461Y-98154815D01*
X179786706Y-98102011D01*
X179775500Y-98050500D01*
X179775499Y-97193482D01*
X179771698Y-97169481D01*
X179760646Y-97099696D01*
X179703050Y-96986658D01*
X179703046Y-96986654D01*
X179703045Y-96986652D01*
X179613347Y-96896954D01*
X179613344Y-96896952D01*
X179613342Y-96896950D01*
X179536517Y-96857805D01*
X179500301Y-96839352D01*
X179406524Y-96824500D01*
X179143482Y-96824500D01*
X179049693Y-96839354D01*
X179049691Y-96839355D01*
X179006293Y-96861468D01*
X178937624Y-96874364D01*
X178893706Y-96861468D01*
X178856581Y-96842552D01*
X178850303Y-96839353D01*
X178850299Y-96839352D01*
X178756524Y-96824500D01*
X178493482Y-96824500D01*
X178399693Y-96839354D01*
X178399691Y-96839355D01*
X178356293Y-96861468D01*
X178287624Y-96874364D01*
X178243706Y-96861468D01*
X178206581Y-96842552D01*
X178200303Y-96839353D01*
X178200299Y-96839352D01*
X178106524Y-96824500D01*
X177843482Y-96824500D01*
X177749693Y-96839354D01*
X177749691Y-96839355D01*
X177706293Y-96861468D01*
X177637624Y-96874364D01*
X177593706Y-96861468D01*
X177556581Y-96842552D01*
X177550303Y-96839353D01*
X177550299Y-96839352D01*
X177456524Y-96824500D01*
X177193482Y-96824500D01*
X177099693Y-96839354D01*
X177099691Y-96839355D01*
X177056293Y-96861468D01*
X176987624Y-96874364D01*
X176943706Y-96861468D01*
X176906581Y-96842552D01*
X176900303Y-96839353D01*
X176900299Y-96839352D01*
X176806524Y-96824500D01*
X176543482Y-96824500D01*
X176449693Y-96839354D01*
X176449691Y-96839355D01*
X176406293Y-96861468D01*
X176337624Y-96874364D01*
X176293706Y-96861468D01*
X176256581Y-96842552D01*
X176250303Y-96839353D01*
X176250299Y-96839352D01*
X176156524Y-96824500D01*
X175893471Y-96824500D01*
X175889983Y-96824775D01*
X175888679Y-96824500D01*
X175888610Y-96824501D01*
X175888610Y-96824486D01*
X175821608Y-96810401D01*
X175772885Y-96763156D01*
X175743030Y-96711447D01*
X175715485Y-96663737D01*
X175636263Y-96584515D01*
X174191263Y-95139515D01*
X174094237Y-95083497D01*
X173986018Y-95054500D01*
X173986017Y-95054500D01*
X173671156Y-95054500D01*
X173604117Y-95034815D01*
X173558362Y-94982011D01*
X173548418Y-94912853D01*
X173561525Y-94872561D01*
X173563851Y-94868158D01*
X173563850Y-94868158D01*
X173563852Y-94868157D01*
X173607710Y-94742819D01*
X173610500Y-94713066D01*
X173610500Y-94326934D01*
X173609847Y-94319973D01*
X173607710Y-94297185D01*
X173607710Y-94297181D01*
X173607708Y-94297177D01*
X173607708Y-94297173D01*
X173563852Y-94171844D01*
X173563852Y-94171843D01*
X173513141Y-94103132D01*
X173489171Y-94037505D01*
X173504486Y-93969335D01*
X173553540Y-93920943D01*
X175449500Y-93920943D01*
X175449500Y-94079057D01*
X175488125Y-94223205D01*
X175490423Y-94231783D01*
X175490426Y-94231790D01*
X175569475Y-94368709D01*
X175569479Y-94368714D01*
X175569480Y-94368716D01*
X175681284Y-94480520D01*
X175681286Y-94480521D01*
X175681290Y-94480524D01*
X175795432Y-94546423D01*
X175818216Y-94559577D01*
X175970943Y-94600500D01*
X175970945Y-94600500D01*
X176129055Y-94600500D01*
X176129057Y-94600500D01*
X176281784Y-94559577D01*
X176418716Y-94480520D01*
X176530520Y-94368716D01*
X176609577Y-94231784D01*
X176650500Y-94079057D01*
X176650500Y-94066697D01*
X176650834Y-94065558D01*
X176650521Y-94064413D01*
X176660657Y-94032104D01*
X176670185Y-93999658D01*
X176671081Y-93998881D01*
X176671437Y-93997747D01*
X176697446Y-93976035D01*
X176722989Y-93953903D01*
X176724163Y-93953734D01*
X176725075Y-93952973D01*
X176742396Y-93946925D01*
X176881784Y-93909577D01*
X177018716Y-93830520D01*
X177130520Y-93718716D01*
X177209577Y-93581784D01*
X177250500Y-93429057D01*
X177250500Y-93299499D01*
X177270185Y-93232460D01*
X177322989Y-93186705D01*
X177374500Y-93175499D01*
X177456517Y-93175499D01*
X177456518Y-93175499D01*
X177550304Y-93160646D01*
X177593705Y-93138531D01*
X177662372Y-93125635D01*
X177706292Y-93138530D01*
X177749694Y-93160645D01*
X177749698Y-93160647D01*
X177843474Y-93175499D01*
X177843475Y-93175499D01*
X177843481Y-93175500D01*
X177873388Y-93175499D01*
X177940425Y-93195182D01*
X177986182Y-93247984D01*
X177996127Y-93317143D01*
X177967104Y-93380699D01*
X177961070Y-93387180D01*
X176988737Y-94359515D01*
X176909517Y-94438734D01*
X176909513Y-94438740D01*
X176853498Y-94535760D01*
X176853497Y-94535763D01*
X176824500Y-94643982D01*
X176824500Y-95074902D01*
X176804815Y-95141941D01*
X176788181Y-95162583D01*
X176769481Y-95181282D01*
X176769475Y-95181290D01*
X176690426Y-95318209D01*
X176690423Y-95318216D01*
X176649500Y-95470943D01*
X176649500Y-95629057D01*
X176687266Y-95770000D01*
X176690423Y-95781783D01*
X176690426Y-95781790D01*
X176769475Y-95918709D01*
X176769479Y-95918714D01*
X176769480Y-95918716D01*
X176881284Y-96030520D01*
X176881286Y-96030521D01*
X176881290Y-96030524D01*
X176980251Y-96087658D01*
X177018216Y-96109577D01*
X177170943Y-96150500D01*
X177170945Y-96150500D01*
X177329055Y-96150500D01*
X177329057Y-96150500D01*
X177481784Y-96109577D01*
X177618716Y-96030520D01*
X177730520Y-95918716D01*
X177809577Y-95781784D01*
X177846923Y-95642404D01*
X177883287Y-95582746D01*
X177946134Y-95552217D01*
X177966697Y-95550500D01*
X178129055Y-95550500D01*
X178129057Y-95550500D01*
X178281784Y-95509577D01*
X178418716Y-95430520D01*
X178530520Y-95318716D01*
X178609577Y-95181784D01*
X178650500Y-95029057D01*
X178650500Y-95002610D01*
X178670185Y-94935571D01*
X178686819Y-94914929D01*
X179347552Y-94254196D01*
X180700001Y-94254196D01*
X180702851Y-94284606D01*
X180747653Y-94412645D01*
X180828207Y-94521792D01*
X180937354Y-94602346D01*
X181050000Y-94641761D01*
X181050000Y-94250000D01*
X180700001Y-94250000D01*
X180700001Y-94254196D01*
X179347552Y-94254196D01*
X179490791Y-94110957D01*
X179541584Y-94060164D01*
X179615485Y-93986263D01*
X179671503Y-93889237D01*
X179700500Y-93781018D01*
X179700500Y-93745793D01*
X180700000Y-93745793D01*
X180700000Y-93750000D01*
X181050000Y-93750000D01*
X181050000Y-93358237D01*
X181049999Y-93358237D01*
X180937355Y-93397653D01*
X180828207Y-93478207D01*
X180747653Y-93587354D01*
X180702850Y-93715395D01*
X180702850Y-93715399D01*
X180700000Y-93745793D01*
X179700500Y-93745793D01*
X179700500Y-93668981D01*
X179700500Y-93048115D01*
X179714015Y-92991821D01*
X179760646Y-92900304D01*
X179760646Y-92900302D01*
X179760647Y-92900301D01*
X179775499Y-92806524D01*
X179775499Y-92806523D01*
X179775500Y-92806519D01*
X179775499Y-91754196D01*
X180700001Y-91754196D01*
X180702851Y-91784606D01*
X180747653Y-91912645D01*
X180828207Y-92021792D01*
X180937354Y-92102346D01*
X181050000Y-92141761D01*
X181050000Y-91750000D01*
X180700001Y-91750000D01*
X180700001Y-91754196D01*
X179775499Y-91754196D01*
X179775499Y-91468482D01*
X179760646Y-91374696D01*
X179703050Y-91261658D01*
X179703047Y-91261655D01*
X179703045Y-91261652D01*
X179687186Y-91245793D01*
X180700000Y-91245793D01*
X180700000Y-91250000D01*
X181050000Y-91250000D01*
X181050000Y-90858237D01*
X181049999Y-90858237D01*
X180937355Y-90897653D01*
X180828207Y-90978207D01*
X180747653Y-91087354D01*
X180702850Y-91215395D01*
X180702850Y-91215399D01*
X180700000Y-91245793D01*
X179687186Y-91245793D01*
X179613347Y-91171954D01*
X179613344Y-91171952D01*
X179613342Y-91171950D01*
X179505990Y-91117251D01*
X179500301Y-91114352D01*
X179406524Y-91099500D01*
X179143482Y-91099500D01*
X179049693Y-91114354D01*
X179049691Y-91114355D01*
X179006293Y-91136468D01*
X178937624Y-91149364D01*
X178922773Y-91146957D01*
X178907581Y-91143538D01*
X178850304Y-91114354D01*
X178756519Y-91099500D01*
X178711906Y-91099500D01*
X178698460Y-91096474D01*
X178679478Y-91085931D01*
X178658647Y-91079815D01*
X178649539Y-91069304D01*
X178637378Y-91062550D01*
X178627108Y-91043417D01*
X178612892Y-91027011D01*
X178610912Y-91013244D01*
X178604334Y-91000989D01*
X178606038Y-90979344D01*
X178602948Y-90957853D01*
X178607912Y-90939752D01*
X178607473Y-90939635D01*
X178609577Y-90931784D01*
X178650500Y-90779057D01*
X178650500Y-90620943D01*
X178609577Y-90468216D01*
X178551843Y-90368216D01*
X178530524Y-90331290D01*
X178530518Y-90331282D01*
X178418717Y-90219481D01*
X178418709Y-90219475D01*
X178281790Y-90140426D01*
X178281786Y-90140424D01*
X178281784Y-90140423D01*
X178129057Y-90099500D01*
X178022878Y-90099500D01*
X177955839Y-90079815D01*
X177910084Y-90027011D01*
X177903359Y-90003590D01*
X177902603Y-90003793D01*
X177871541Y-89887868D01*
X177859577Y-89843216D01*
X177834915Y-89800499D01*
X177780524Y-89706290D01*
X177780518Y-89706282D01*
X177668717Y-89594481D01*
X177668709Y-89594475D01*
X177531790Y-89515426D01*
X177531786Y-89515424D01*
X177531784Y-89515423D01*
X177379057Y-89474500D01*
X177220943Y-89474500D01*
X177068216Y-89515423D01*
X177068209Y-89515426D01*
X176931290Y-89594475D01*
X176931282Y-89594481D01*
X176819481Y-89706282D01*
X176819475Y-89706290D01*
X176740426Y-89843209D01*
X176740423Y-89843216D01*
X176699500Y-89995943D01*
X176699500Y-90154057D01*
X176720195Y-90231290D01*
X176740423Y-90306783D01*
X176740426Y-90306790D01*
X176819475Y-90443709D01*
X176819481Y-90443717D01*
X176863181Y-90487417D01*
X176896666Y-90548740D01*
X176899500Y-90575098D01*
X176899500Y-90975500D01*
X176879815Y-91042539D01*
X176827011Y-91088294D01*
X176775501Y-91099500D01*
X176543482Y-91099500D01*
X176449693Y-91114354D01*
X176449691Y-91114355D01*
X176406293Y-91136468D01*
X176337624Y-91149364D01*
X176293706Y-91136468D01*
X176255990Y-91117251D01*
X176250303Y-91114353D01*
X176250299Y-91114352D01*
X176156524Y-91099500D01*
X175893482Y-91099500D01*
X175799694Y-91114354D01*
X175755741Y-91136749D01*
X175687072Y-91149644D01*
X175643155Y-91136748D01*
X175600145Y-91114833D01*
X175575000Y-91110851D01*
X175575000Y-91274966D01*
X175572449Y-91283651D01*
X175573738Y-91292612D01*
X175561485Y-91331260D01*
X175539353Y-91374695D01*
X175539352Y-91374698D01*
X175524500Y-91468475D01*
X175524500Y-91468480D01*
X175524500Y-91468481D01*
X175524501Y-92806518D01*
X175536221Y-92880520D01*
X175539354Y-92900304D01*
X175539354Y-92900305D01*
X175543903Y-92909232D01*
X175561484Y-92943737D01*
X175561992Y-92946440D01*
X175563794Y-92948520D01*
X175575000Y-93000031D01*
X175575000Y-93177002D01*
X175594225Y-93206453D01*
X175599500Y-93242236D01*
X175599500Y-93550069D01*
X175579815Y-93617108D01*
X175573875Y-93625557D01*
X175569475Y-93631290D01*
X175490426Y-93768209D01*
X175490423Y-93768216D01*
X175449500Y-93920943D01*
X173553540Y-93920943D01*
X173554226Y-93920266D01*
X173612912Y-93905500D01*
X174276016Y-93905500D01*
X174276018Y-93905500D01*
X174384237Y-93876503D01*
X174481263Y-93820485D01*
X175065485Y-93236263D01*
X175070195Y-93228104D01*
X175120760Y-93179887D01*
X175167008Y-93170971D01*
X175175000Y-93164146D01*
X175175000Y-93000031D01*
X175177376Y-92990133D01*
X175176262Y-92982384D01*
X175182534Y-92968649D01*
X175188515Y-92943737D01*
X175210646Y-92900304D01*
X175210646Y-92900302D01*
X175210647Y-92900301D01*
X175225499Y-92806524D01*
X175225499Y-92806523D01*
X175225500Y-92806519D01*
X175225499Y-91468482D01*
X175210646Y-91374696D01*
X175188515Y-91331261D01*
X175187811Y-91328332D01*
X175186206Y-91326479D01*
X175184472Y-91314422D01*
X175175000Y-91274967D01*
X175175000Y-91110851D01*
X175149855Y-91114833D01*
X175149854Y-91114834D01*
X175106843Y-91136749D01*
X175038174Y-91149644D01*
X174994256Y-91136748D01*
X174950304Y-91114353D01*
X174950301Y-91114352D01*
X174856524Y-91099500D01*
X174593482Y-91099500D01*
X174512519Y-91112323D01*
X174499696Y-91114354D01*
X174386658Y-91171950D01*
X174386657Y-91171951D01*
X174386652Y-91171954D01*
X174296954Y-91261652D01*
X174296951Y-91261657D01*
X174296950Y-91261658D01*
X174285744Y-91283651D01*
X174239352Y-91374698D01*
X174224500Y-91468475D01*
X174224500Y-92806523D01*
X174224883Y-92811380D01*
X174224535Y-92811407D01*
X174225020Y-92812705D01*
X174218674Y-92841875D01*
X174214842Y-92871476D01*
X174211020Y-92877063D01*
X174210169Y-92880978D01*
X174189018Y-92909232D01*
X174080072Y-93018180D01*
X174018749Y-93051666D01*
X173992390Y-93054500D01*
X173670584Y-93054500D01*
X173603545Y-93034815D01*
X173557790Y-92982011D01*
X173547846Y-92912853D01*
X173560954Y-92872559D01*
X173563401Y-92867927D01*
X173597668Y-92770000D01*
X173124000Y-92770000D01*
X173056961Y-92750315D01*
X173011206Y-92697511D01*
X173000000Y-92646000D01*
X173000000Y-92520000D01*
X172874000Y-92520000D01*
X172806961Y-92500315D01*
X172761206Y-92447511D01*
X172750000Y-92396000D01*
X172750000Y-92270000D01*
X173250000Y-92270000D01*
X173597668Y-92270000D01*
X173563403Y-92172077D01*
X173484641Y-92065358D01*
X173377919Y-91986594D01*
X173252727Y-91942787D01*
X173252725Y-91942786D01*
X173250000Y-91942530D01*
X173250000Y-92270000D01*
X172750000Y-92270000D01*
X172750000Y-91960422D01*
X172688926Y-91926230D01*
X172665857Y-91902668D01*
X172642018Y-91879868D01*
X172641449Y-91877738D01*
X172640046Y-91876305D01*
X172636570Y-91859476D01*
X172625500Y-91818032D01*
X172625500Y-89254196D01*
X180700001Y-89254196D01*
X180702851Y-89284606D01*
X180747653Y-89412645D01*
X180828207Y-89521792D01*
X180937354Y-89602346D01*
X181050000Y-89641761D01*
X181050000Y-89250000D01*
X180700001Y-89250000D01*
X180700001Y-89254196D01*
X172625500Y-89254196D01*
X172625500Y-88649500D01*
X172645185Y-88582461D01*
X172697989Y-88536706D01*
X172749500Y-88525500D01*
X180594536Y-88525500D01*
X180661575Y-88545185D01*
G37*
%TD.AperFunction*%
%TA.AperFunction,Conductor*%
G36*
X186412631Y-93797076D02*
G01*
X186470863Y-93835686D01*
X186498977Y-93899650D01*
X186500000Y-93915542D01*
X186500000Y-96087658D01*
X186480315Y-96154697D01*
X186427511Y-96200452D01*
X186358353Y-96210396D01*
X186294797Y-96181371D01*
X186257023Y-96122593D01*
X186253527Y-96107056D01*
X186236682Y-96000706D01*
X186180748Y-95828555D01*
X186180747Y-95828552D01*
X186098571Y-95667275D01*
X186098566Y-95667267D01*
X186087085Y-95651466D01*
X185597962Y-96140589D01*
X185580925Y-96077007D01*
X185515099Y-95962993D01*
X185422007Y-95869901D01*
X185307993Y-95804075D01*
X185244409Y-95787037D01*
X185733533Y-95297913D01*
X185717730Y-95286431D01*
X185556447Y-95204252D01*
X185556444Y-95204251D01*
X185384293Y-95148317D01*
X185222720Y-95122726D01*
X185159585Y-95092797D01*
X185122654Y-95033485D01*
X185123652Y-94963623D01*
X185162262Y-94905390D01*
X185222720Y-94877780D01*
X185237270Y-94875475D01*
X185384409Y-94852171D01*
X185556639Y-94796211D01*
X185717994Y-94713996D01*
X185781006Y-94668215D01*
X185864497Y-94607557D01*
X185864498Y-94607554D01*
X185864501Y-94607553D01*
X185992553Y-94479501D01*
X186098996Y-94332994D01*
X186181211Y-94171639D01*
X186237171Y-93999409D01*
X186252045Y-93905499D01*
X186253527Y-93896144D01*
X186283456Y-93833009D01*
X186342768Y-93796078D01*
X186412631Y-93797076D01*
G37*
%TD.AperFunction*%
%TD*%
M02*
