M48
; DRILL file {KiCad 9.0.2-9.0.2-0~ubuntu24.04.1} date 2025-05-22T23:02:16+0200
; FORMAT={-:-/ absolute / metric / decimal}
; #@! TF.CreationDate,2025-05-22T23:02:16+02:00
; #@! TF.GenerationSoftware,Kicad,Pcbnew,9.0.2-9.0.2-0~ubuntu24.04.1
; #@! TF.FileFunction,Plated,1,4,PTH
FMAT,2
METRIC
; #@! TA.AperFunction,Plated,PTH,ViaDrill
T1C0.300
; #@! TA.AperFunction,Plated,PTH,ComponentDrill
T2C0.900
; #@! TA.AperFunction,Plated,PTH,ComponentDrill
T3C1.000
; #@! TA.AperFunction,Plated,PTH,ViaDrill
T4C3.000
%
G90
G05
T1
X133.7Y-94.3
X133.7Y-95.7
X135.2Y-91.5
X135.5Y-97.3
X136.5Y-89.0
X137.15Y-94.55
X137.15Y-95.45
X137.2Y-99.1
X137.2Y-100.1
X137.4Y-96.52
X138.0Y-98.2
X139.01Y-91.71
X139.6Y-101.0
X140.0Y-91.5
X140.0Y-95.0
X140.9Y-91.375
X141.11Y-92.36
X141.5Y-89.0
X141.8Y-99.1
X143.2Y-95.9
X143.3Y-94.5
X143.7Y-92.3
X144.2Y-97.8
X144.9Y-100.0
X145.2Y-92.4
X145.8Y-97.6
X146.1Y-96.5
X146.1Y-101.9
X146.4Y-93.2
X146.5Y-90.1
X146.5Y-92.3
X146.5Y-95.3
X147.2Y-97.7
X147.2Y-99.7
X168.5Y-90.0
X168.5Y-92.5
X168.5Y-95.0
X168.5Y-97.5
X168.5Y-100.0
X169.8Y-97.65
X169.8Y-100.1
X170.0Y-96.0
X170.1Y-90.6
X170.1Y-93.1
X172.39Y-96.5
X172.5Y-99.0
X174.0Y-89.0
X174.0Y-101.5
X175.0Y-95.0
X176.05Y-94.0
X176.5Y-89.0
X176.5Y-101.5
X176.65Y-93.35
X177.25Y-95.55
X177.3Y-90.075
X178.05Y-90.7
X178.05Y-94.95
X179.0Y-89.0
X179.0Y-101.5
X180.5Y-90.0
X180.5Y-96.5
X182.5Y-92.4
X182.65Y-94.9
X183.0Y-96.5
X183.5Y-90.0
X183.5Y-92.5
X183.5Y-100.0
T3
X148.625Y-88.65
X148.625Y-91.19
X148.625Y-93.73
X148.625Y-96.27
X148.625Y-98.81
X148.625Y-101.35
X167.0Y-88.65
X167.0Y-91.19
X167.0Y-93.73
X167.0Y-96.27
X167.0Y-98.81
X167.0Y-101.35
X185.115Y-88.65
X185.115Y-91.19
X185.115Y-93.73
X185.115Y-96.27
X185.115Y-98.81
X185.115Y-101.35
T4
X159.0Y-91.5
X159.0Y-98.5
X193.0Y-91.5
X193.0Y-98.5
T2
G00X133.4Y-89.3
M15
G01X131.8Y-89.3
M16
G05
G00X133.4Y-100.7
M15
G01X131.8Y-100.7
M16
G05
M30
