%TF.GenerationSoftware,KiCad,Pcbnew,9.0.2-9.0.2-0~ubuntu24.04.1*%
%TF.CreationDate,2025-05-22T23:27:50+02:00*%
%TF.ProjectId,USB-UART,5553422d-5541-4525-942e-6b696361645f,rev?*%
%TF.SameCoordinates,Original*%
%TF.FileFunction,Legend,Bot*%
%TF.FilePolarity,Positive*%
%FSLAX46Y46*%
G04 Gerber Fmt 4.6, Leading zero omitted, Abs format (unit mm)*
G04 Created by KiCad (PCBNEW 9.0.2-9.0.2-0~ubuntu24.04.1) date 2025-05-22 23:27:50*
%MOMM*%
%LPD*%
G01*
G04 APERTURE LIST*
%ADD10C,0.150000*%
%ADD11C,0.200000*%
%ADD12C,0.125000*%
%ADD13C,0.120000*%
G04 APERTURE END LIST*
D10*
X171710839Y-102084104D02*
X171234649Y-102084104D01*
X171806077Y-102369819D02*
X171472744Y-101369819D01*
X171472744Y-101369819D02*
X171139411Y-102369819D01*
D11*
X141925564Y-98452219D02*
X141306517Y-98452219D01*
X141306517Y-98452219D02*
X141639850Y-98833171D01*
X141639850Y-98833171D02*
X141496993Y-98833171D01*
X141496993Y-98833171D02*
X141401755Y-98880790D01*
X141401755Y-98880790D02*
X141354136Y-98928409D01*
X141354136Y-98928409D02*
X141306517Y-99023647D01*
X141306517Y-99023647D02*
X141306517Y-99261742D01*
X141306517Y-99261742D02*
X141354136Y-99356980D01*
X141354136Y-99356980D02*
X141401755Y-99404600D01*
X141401755Y-99404600D02*
X141496993Y-99452219D01*
X141496993Y-99452219D02*
X141782707Y-99452219D01*
X141782707Y-99452219D02*
X141877945Y-99404600D01*
X141877945Y-99404600D02*
X141925564Y-99356980D01*
X140877945Y-99356980D02*
X140830326Y-99404600D01*
X140830326Y-99404600D02*
X140877945Y-99452219D01*
X140877945Y-99452219D02*
X140925564Y-99404600D01*
X140925564Y-99404600D02*
X140877945Y-99356980D01*
X140877945Y-99356980D02*
X140877945Y-99452219D01*
X140496993Y-98452219D02*
X139877946Y-98452219D01*
X139877946Y-98452219D02*
X140211279Y-98833171D01*
X140211279Y-98833171D02*
X140068422Y-98833171D01*
X140068422Y-98833171D02*
X139973184Y-98880790D01*
X139973184Y-98880790D02*
X139925565Y-98928409D01*
X139925565Y-98928409D02*
X139877946Y-99023647D01*
X139877946Y-99023647D02*
X139877946Y-99261742D01*
X139877946Y-99261742D02*
X139925565Y-99356980D01*
X139925565Y-99356980D02*
X139973184Y-99404600D01*
X139973184Y-99404600D02*
X140068422Y-99452219D01*
X140068422Y-99452219D02*
X140354136Y-99452219D01*
X140354136Y-99452219D02*
X140449374Y-99404600D01*
X140449374Y-99404600D02*
X140496993Y-99356980D01*
X139592231Y-98452219D02*
X139258898Y-99452219D01*
X139258898Y-99452219D02*
X138925565Y-98452219D01*
D10*
X138710839Y-101094295D02*
X138710839Y-101741914D01*
X138710839Y-101741914D02*
X138672744Y-101818104D01*
X138672744Y-101818104D02*
X138634649Y-101856200D01*
X138634649Y-101856200D02*
X138558458Y-101894295D01*
X138558458Y-101894295D02*
X138406077Y-101894295D01*
X138406077Y-101894295D02*
X138329887Y-101856200D01*
X138329887Y-101856200D02*
X138291792Y-101818104D01*
X138291792Y-101818104D02*
X138253696Y-101741914D01*
X138253696Y-101741914D02*
X138253696Y-101094295D01*
X137910840Y-101856200D02*
X137796554Y-101894295D01*
X137796554Y-101894295D02*
X137606078Y-101894295D01*
X137606078Y-101894295D02*
X137529887Y-101856200D01*
X137529887Y-101856200D02*
X137491792Y-101818104D01*
X137491792Y-101818104D02*
X137453697Y-101741914D01*
X137453697Y-101741914D02*
X137453697Y-101665723D01*
X137453697Y-101665723D02*
X137491792Y-101589533D01*
X137491792Y-101589533D02*
X137529887Y-101551438D01*
X137529887Y-101551438D02*
X137606078Y-101513342D01*
X137606078Y-101513342D02*
X137758459Y-101475247D01*
X137758459Y-101475247D02*
X137834649Y-101437152D01*
X137834649Y-101437152D02*
X137872744Y-101399057D01*
X137872744Y-101399057D02*
X137910840Y-101322866D01*
X137910840Y-101322866D02*
X137910840Y-101246676D01*
X137910840Y-101246676D02*
X137872744Y-101170485D01*
X137872744Y-101170485D02*
X137834649Y-101132390D01*
X137834649Y-101132390D02*
X137758459Y-101094295D01*
X137758459Y-101094295D02*
X137567982Y-101094295D01*
X137567982Y-101094295D02*
X137453697Y-101132390D01*
X136844173Y-101475247D02*
X136729887Y-101513342D01*
X136729887Y-101513342D02*
X136691792Y-101551438D01*
X136691792Y-101551438D02*
X136653696Y-101627628D01*
X136653696Y-101627628D02*
X136653696Y-101741914D01*
X136653696Y-101741914D02*
X136691792Y-101818104D01*
X136691792Y-101818104D02*
X136729887Y-101856200D01*
X136729887Y-101856200D02*
X136806077Y-101894295D01*
X136806077Y-101894295D02*
X137110839Y-101894295D01*
X137110839Y-101894295D02*
X137110839Y-101094295D01*
X137110839Y-101094295D02*
X136844173Y-101094295D01*
X136844173Y-101094295D02*
X136767982Y-101132390D01*
X136767982Y-101132390D02*
X136729887Y-101170485D01*
X136729887Y-101170485D02*
X136691792Y-101246676D01*
X136691792Y-101246676D02*
X136691792Y-101322866D01*
X136691792Y-101322866D02*
X136729887Y-101399057D01*
X136729887Y-101399057D02*
X136767982Y-101437152D01*
X136767982Y-101437152D02*
X136844173Y-101475247D01*
X136844173Y-101475247D02*
X137110839Y-101475247D01*
X136310839Y-101589533D02*
X135701316Y-101589533D01*
X135320363Y-101094295D02*
X135320363Y-101741914D01*
X135320363Y-101741914D02*
X135282268Y-101818104D01*
X135282268Y-101818104D02*
X135244173Y-101856200D01*
X135244173Y-101856200D02*
X135167982Y-101894295D01*
X135167982Y-101894295D02*
X135015601Y-101894295D01*
X135015601Y-101894295D02*
X134939411Y-101856200D01*
X134939411Y-101856200D02*
X134901316Y-101818104D01*
X134901316Y-101818104D02*
X134863220Y-101741914D01*
X134863220Y-101741914D02*
X134863220Y-101094295D01*
X134520364Y-101665723D02*
X134139411Y-101665723D01*
X134596554Y-101894295D02*
X134329887Y-101094295D01*
X134329887Y-101094295D02*
X134063221Y-101894295D01*
X133339411Y-101894295D02*
X133606078Y-101513342D01*
X133796554Y-101894295D02*
X133796554Y-101094295D01*
X133796554Y-101094295D02*
X133491792Y-101094295D01*
X133491792Y-101094295D02*
X133415602Y-101132390D01*
X133415602Y-101132390D02*
X133377507Y-101170485D01*
X133377507Y-101170485D02*
X133339411Y-101246676D01*
X133339411Y-101246676D02*
X133339411Y-101360961D01*
X133339411Y-101360961D02*
X133377507Y-101437152D01*
X133377507Y-101437152D02*
X133415602Y-101475247D01*
X133415602Y-101475247D02*
X133491792Y-101513342D01*
X133491792Y-101513342D02*
X133796554Y-101513342D01*
X133110840Y-101094295D02*
X132653697Y-101094295D01*
X132882269Y-101894295D02*
X132882269Y-101094295D01*
X132387030Y-101818104D02*
X132348935Y-101856200D01*
X132348935Y-101856200D02*
X132387030Y-101894295D01*
X132387030Y-101894295D02*
X132425126Y-101856200D01*
X132425126Y-101856200D02*
X132387030Y-101818104D01*
X132387030Y-101818104D02*
X132387030Y-101894295D01*
X132044174Y-101665723D02*
X131663221Y-101665723D01*
X132120364Y-101894295D02*
X131853697Y-101094295D01*
X131853697Y-101094295D02*
X131587031Y-101894295D01*
D11*
X141354136Y-99952219D02*
X141830326Y-99952219D01*
X141830326Y-99952219D02*
X141877945Y-100428409D01*
X141877945Y-100428409D02*
X141830326Y-100380790D01*
X141830326Y-100380790D02*
X141735088Y-100333171D01*
X141735088Y-100333171D02*
X141496993Y-100333171D01*
X141496993Y-100333171D02*
X141401755Y-100380790D01*
X141401755Y-100380790D02*
X141354136Y-100428409D01*
X141354136Y-100428409D02*
X141306517Y-100523647D01*
X141306517Y-100523647D02*
X141306517Y-100761742D01*
X141306517Y-100761742D02*
X141354136Y-100856980D01*
X141354136Y-100856980D02*
X141401755Y-100904600D01*
X141401755Y-100904600D02*
X141496993Y-100952219D01*
X141496993Y-100952219D02*
X141735088Y-100952219D01*
X141735088Y-100952219D02*
X141830326Y-100904600D01*
X141830326Y-100904600D02*
X141877945Y-100856980D01*
X141020802Y-99952219D02*
X140687469Y-100952219D01*
X140687469Y-100952219D02*
X140354136Y-99952219D01*
D12*
X143957142Y-92621071D02*
X143957142Y-93106785D01*
X143957142Y-93106785D02*
X143928571Y-93163928D01*
X143928571Y-93163928D02*
X143900000Y-93192500D01*
X143900000Y-93192500D02*
X143842857Y-93221071D01*
X143842857Y-93221071D02*
X143728571Y-93221071D01*
X143728571Y-93221071D02*
X143671428Y-93192500D01*
X143671428Y-93192500D02*
X143642857Y-93163928D01*
X143642857Y-93163928D02*
X143614285Y-93106785D01*
X143614285Y-93106785D02*
X143614285Y-92621071D01*
X143071429Y-92821071D02*
X143071429Y-93221071D01*
X143214286Y-92592500D02*
X143357143Y-93021071D01*
X143357143Y-93021071D02*
X142985714Y-93021071D01*
X145599999Y-100771071D02*
X145799999Y-100485357D01*
X145942856Y-100771071D02*
X145942856Y-100171071D01*
X145942856Y-100171071D02*
X145714285Y-100171071D01*
X145714285Y-100171071D02*
X145657142Y-100199642D01*
X145657142Y-100199642D02*
X145628571Y-100228214D01*
X145628571Y-100228214D02*
X145599999Y-100285357D01*
X145599999Y-100285357D02*
X145599999Y-100371071D01*
X145599999Y-100371071D02*
X145628571Y-100428214D01*
X145628571Y-100428214D02*
X145657142Y-100456785D01*
X145657142Y-100456785D02*
X145714285Y-100485357D01*
X145714285Y-100485357D02*
X145942856Y-100485357D01*
X145028571Y-100771071D02*
X145371428Y-100771071D01*
X145199999Y-100771071D02*
X145199999Y-100171071D01*
X145199999Y-100171071D02*
X145257142Y-100256785D01*
X145257142Y-100256785D02*
X145314285Y-100313928D01*
X145314285Y-100313928D02*
X145371428Y-100342500D01*
X135757142Y-96371071D02*
X135757142Y-96856785D01*
X135757142Y-96856785D02*
X135728571Y-96913928D01*
X135728571Y-96913928D02*
X135700000Y-96942500D01*
X135700000Y-96942500D02*
X135642857Y-96971071D01*
X135642857Y-96971071D02*
X135528571Y-96971071D01*
X135528571Y-96971071D02*
X135471428Y-96942500D01*
X135471428Y-96942500D02*
X135442857Y-96913928D01*
X135442857Y-96913928D02*
X135414285Y-96856785D01*
X135414285Y-96856785D02*
X135414285Y-96371071D01*
X134814286Y-96971071D02*
X135157143Y-96971071D01*
X134985714Y-96971071D02*
X134985714Y-96371071D01*
X134985714Y-96371071D02*
X135042857Y-96456785D01*
X135042857Y-96456785D02*
X135100000Y-96513928D01*
X135100000Y-96513928D02*
X135157143Y-96542500D01*
X143957142Y-97121071D02*
X143957142Y-97606785D01*
X143957142Y-97606785D02*
X143928571Y-97663928D01*
X143928571Y-97663928D02*
X143900000Y-97692500D01*
X143900000Y-97692500D02*
X143842857Y-97721071D01*
X143842857Y-97721071D02*
X143728571Y-97721071D01*
X143728571Y-97721071D02*
X143671428Y-97692500D01*
X143671428Y-97692500D02*
X143642857Y-97663928D01*
X143642857Y-97663928D02*
X143614285Y-97606785D01*
X143614285Y-97606785D02*
X143614285Y-97121071D01*
X143385714Y-97121071D02*
X143014286Y-97121071D01*
X143014286Y-97121071D02*
X143214286Y-97349642D01*
X143214286Y-97349642D02*
X143128571Y-97349642D01*
X143128571Y-97349642D02*
X143071429Y-97378214D01*
X143071429Y-97378214D02*
X143042857Y-97406785D01*
X143042857Y-97406785D02*
X143014286Y-97463928D01*
X143014286Y-97463928D02*
X143014286Y-97606785D01*
X143014286Y-97606785D02*
X143042857Y-97663928D01*
X143042857Y-97663928D02*
X143071429Y-97692500D01*
X143071429Y-97692500D02*
X143128571Y-97721071D01*
X143128571Y-97721071D02*
X143300000Y-97721071D01*
X143300000Y-97721071D02*
X143357143Y-97692500D01*
X143357143Y-97692500D02*
X143385714Y-97663928D01*
X136056785Y-97500000D02*
X136056785Y-97300000D01*
X136371071Y-97300000D02*
X135771071Y-97300000D01*
X135771071Y-97300000D02*
X135771071Y-97585714D01*
X136056785Y-98014286D02*
X136085357Y-98100000D01*
X136085357Y-98100000D02*
X136113928Y-98128571D01*
X136113928Y-98128571D02*
X136171071Y-98157143D01*
X136171071Y-98157143D02*
X136256785Y-98157143D01*
X136256785Y-98157143D02*
X136313928Y-98128571D01*
X136313928Y-98128571D02*
X136342500Y-98100000D01*
X136342500Y-98100000D02*
X136371071Y-98042857D01*
X136371071Y-98042857D02*
X136371071Y-97814286D01*
X136371071Y-97814286D02*
X135771071Y-97814286D01*
X135771071Y-97814286D02*
X135771071Y-98014286D01*
X135771071Y-98014286D02*
X135799642Y-98071429D01*
X135799642Y-98071429D02*
X135828214Y-98100000D01*
X135828214Y-98100000D02*
X135885357Y-98128571D01*
X135885357Y-98128571D02*
X135942500Y-98128571D01*
X135942500Y-98128571D02*
X135999642Y-98100000D01*
X135999642Y-98100000D02*
X136028214Y-98071429D01*
X136028214Y-98071429D02*
X136056785Y-98014286D01*
X136056785Y-98014286D02*
X136056785Y-97814286D01*
X136371071Y-98728571D02*
X136371071Y-98385714D01*
X136371071Y-98557143D02*
X135771071Y-98557143D01*
X135771071Y-98557143D02*
X135856785Y-98500000D01*
X135856785Y-98500000D02*
X135913928Y-98442857D01*
X135913928Y-98442857D02*
X135942500Y-98385714D01*
X145799999Y-94713928D02*
X145828571Y-94742500D01*
X145828571Y-94742500D02*
X145914285Y-94771071D01*
X145914285Y-94771071D02*
X145971428Y-94771071D01*
X145971428Y-94771071D02*
X146057142Y-94742500D01*
X146057142Y-94742500D02*
X146114285Y-94685357D01*
X146114285Y-94685357D02*
X146142856Y-94628214D01*
X146142856Y-94628214D02*
X146171428Y-94513928D01*
X146171428Y-94513928D02*
X146171428Y-94428214D01*
X146171428Y-94428214D02*
X146142856Y-94313928D01*
X146142856Y-94313928D02*
X146114285Y-94256785D01*
X146114285Y-94256785D02*
X146057142Y-94199642D01*
X146057142Y-94199642D02*
X145971428Y-94171071D01*
X145971428Y-94171071D02*
X145914285Y-94171071D01*
X145914285Y-94171071D02*
X145828571Y-94199642D01*
X145828571Y-94199642D02*
X145799999Y-94228214D01*
X145257142Y-94171071D02*
X145542856Y-94171071D01*
X145542856Y-94171071D02*
X145571428Y-94456785D01*
X145571428Y-94456785D02*
X145542856Y-94428214D01*
X145542856Y-94428214D02*
X145485714Y-94399642D01*
X145485714Y-94399642D02*
X145342856Y-94399642D01*
X145342856Y-94399642D02*
X145285714Y-94428214D01*
X145285714Y-94428214D02*
X145257142Y-94456785D01*
X145257142Y-94456785D02*
X145228571Y-94513928D01*
X145228571Y-94513928D02*
X145228571Y-94656785D01*
X145228571Y-94656785D02*
X145257142Y-94713928D01*
X145257142Y-94713928D02*
X145285714Y-94742500D01*
X145285714Y-94742500D02*
X145342856Y-94771071D01*
X145342856Y-94771071D02*
X145485714Y-94771071D01*
X145485714Y-94771071D02*
X145542856Y-94742500D01*
X145542856Y-94742500D02*
X145571428Y-94713928D01*
X139213928Y-95300000D02*
X139242500Y-95271428D01*
X139242500Y-95271428D02*
X139271071Y-95185714D01*
X139271071Y-95185714D02*
X139271071Y-95128571D01*
X139271071Y-95128571D02*
X139242500Y-95042857D01*
X139242500Y-95042857D02*
X139185357Y-94985714D01*
X139185357Y-94985714D02*
X139128214Y-94957143D01*
X139128214Y-94957143D02*
X139013928Y-94928571D01*
X139013928Y-94928571D02*
X138928214Y-94928571D01*
X138928214Y-94928571D02*
X138813928Y-94957143D01*
X138813928Y-94957143D02*
X138756785Y-94985714D01*
X138756785Y-94985714D02*
X138699642Y-95042857D01*
X138699642Y-95042857D02*
X138671071Y-95128571D01*
X138671071Y-95128571D02*
X138671071Y-95185714D01*
X138671071Y-95185714D02*
X138699642Y-95271428D01*
X138699642Y-95271428D02*
X138728214Y-95300000D01*
X138871071Y-95814286D02*
X139271071Y-95814286D01*
X138642500Y-95671428D02*
X139071071Y-95528571D01*
X139071071Y-95528571D02*
X139071071Y-95900000D01*
X145599999Y-99271071D02*
X145799999Y-98985357D01*
X145942856Y-99271071D02*
X145942856Y-98671071D01*
X145942856Y-98671071D02*
X145714285Y-98671071D01*
X145714285Y-98671071D02*
X145657142Y-98699642D01*
X145657142Y-98699642D02*
X145628571Y-98728214D01*
X145628571Y-98728214D02*
X145599999Y-98785357D01*
X145599999Y-98785357D02*
X145599999Y-98871071D01*
X145599999Y-98871071D02*
X145628571Y-98928214D01*
X145628571Y-98928214D02*
X145657142Y-98956785D01*
X145657142Y-98956785D02*
X145714285Y-98985357D01*
X145714285Y-98985357D02*
X145942856Y-98985357D01*
X145371428Y-98728214D02*
X145342856Y-98699642D01*
X145342856Y-98699642D02*
X145285714Y-98671071D01*
X145285714Y-98671071D02*
X145142856Y-98671071D01*
X145142856Y-98671071D02*
X145085714Y-98699642D01*
X145085714Y-98699642D02*
X145057142Y-98728214D01*
X145057142Y-98728214D02*
X145028571Y-98785357D01*
X145028571Y-98785357D02*
X145028571Y-98842500D01*
X145028571Y-98842500D02*
X145057142Y-98928214D01*
X145057142Y-98928214D02*
X145399999Y-99271071D01*
X145399999Y-99271071D02*
X145028571Y-99271071D01*
X138213928Y-95300000D02*
X138242500Y-95271428D01*
X138242500Y-95271428D02*
X138271071Y-95185714D01*
X138271071Y-95185714D02*
X138271071Y-95128571D01*
X138271071Y-95128571D02*
X138242500Y-95042857D01*
X138242500Y-95042857D02*
X138185357Y-94985714D01*
X138185357Y-94985714D02*
X138128214Y-94957143D01*
X138128214Y-94957143D02*
X138013928Y-94928571D01*
X138013928Y-94928571D02*
X137928214Y-94928571D01*
X137928214Y-94928571D02*
X137813928Y-94957143D01*
X137813928Y-94957143D02*
X137756785Y-94985714D01*
X137756785Y-94985714D02*
X137699642Y-95042857D01*
X137699642Y-95042857D02*
X137671071Y-95128571D01*
X137671071Y-95128571D02*
X137671071Y-95185714D01*
X137671071Y-95185714D02*
X137699642Y-95271428D01*
X137699642Y-95271428D02*
X137728214Y-95300000D01*
X137671071Y-95500000D02*
X137671071Y-95871428D01*
X137671071Y-95871428D02*
X137899642Y-95671428D01*
X137899642Y-95671428D02*
X137899642Y-95757143D01*
X137899642Y-95757143D02*
X137928214Y-95814286D01*
X137928214Y-95814286D02*
X137956785Y-95842857D01*
X137956785Y-95842857D02*
X138013928Y-95871428D01*
X138013928Y-95871428D02*
X138156785Y-95871428D01*
X138156785Y-95871428D02*
X138213928Y-95842857D01*
X138213928Y-95842857D02*
X138242500Y-95814286D01*
X138242500Y-95814286D02*
X138271071Y-95757143D01*
X138271071Y-95757143D02*
X138271071Y-95585714D01*
X138271071Y-95585714D02*
X138242500Y-95528571D01*
X138242500Y-95528571D02*
X138213928Y-95500000D01*
D13*
%TO.C,U4*%
X143500000Y-89815000D02*
X142350000Y-89815000D01*
X143500000Y-89815000D02*
X144650000Y-89815000D01*
X143500000Y-92185000D02*
X142350000Y-92185000D01*
X143500000Y-92185000D02*
X144650000Y-92185000D01*
X141215000Y-91750000D02*
X140885000Y-91990000D01*
X140885000Y-91510000D01*
X141215000Y-91750000D01*
G36*
X141215000Y-91750000D02*
G01*
X140885000Y-91990000D01*
X140885000Y-91510000D01*
X141215000Y-91750000D01*
G37*
%TO.C,R1*%
X143653641Y-100120000D02*
X143346359Y-100120000D01*
X143653641Y-100880000D02*
X143346359Y-100880000D01*
%TO.C,U1*%
X135300000Y-94065000D02*
X134700000Y-94065000D01*
X135300000Y-94065000D02*
X135900000Y-94065000D01*
X135300000Y-95935000D02*
X134700000Y-95935000D01*
X135300000Y-95935000D02*
X135900000Y-95935000D01*
X133990000Y-95500000D02*
X133660000Y-95740000D01*
X133660000Y-95260000D01*
X133990000Y-95500000D01*
G36*
X133990000Y-95500000D02*
G01*
X133660000Y-95740000D01*
X133660000Y-95260000D01*
X133990000Y-95500000D01*
G37*
%TO.C,U3*%
X143500000Y-94315000D02*
X142350000Y-94315000D01*
X143500000Y-94315000D02*
X144650000Y-94315000D01*
X143500000Y-96685000D02*
X142350000Y-96685000D01*
X143500000Y-96685000D02*
X144650000Y-96685000D01*
X141215000Y-96250000D02*
X140885000Y-96490000D01*
X140885000Y-96010000D01*
X141215000Y-96250000D01*
G36*
X141215000Y-96250000D02*
G01*
X140885000Y-96490000D01*
X140885000Y-96010000D01*
X141215000Y-96250000D01*
G37*
%TO.C,C5*%
X145107836Y-93140000D02*
X144892164Y-93140000D01*
X145107836Y-93860000D02*
X144892164Y-93860000D01*
%TO.C,C4*%
X138640000Y-96892164D02*
X138640000Y-97107836D01*
X139360000Y-96892164D02*
X139360000Y-97107836D01*
%TO.C,R2*%
X143653641Y-98620000D02*
X143346359Y-98620000D01*
X143653641Y-99380000D02*
X143346359Y-99380000D01*
%TO.C,C3*%
X137640000Y-96892164D02*
X137640000Y-97107836D01*
X138360000Y-96892164D02*
X138360000Y-97107836D01*
%TD*%
M02*
