%TF.GenerationSoftware,KiCad,Pcbnew,9.0.2-9.0.2-0~ubuntu24.04.1*%
%TF.CreationDate,2025-05-22T23:27:50+02:00*%
%TF.ProjectId,USB-UART,5553422d-5541-4525-942e-6b696361645f,rev?*%
%TF.SameCoordinates,Original*%
%TF.FileFunction,Copper,L3,Inr*%
%TF.FilePolarity,Positive*%
%FSLAX46Y46*%
G04 Gerber Fmt 4.6, Leading zero omitted, Abs format (unit mm)*
G04 Created by KiCad (PCBNEW 9.0.2-9.0.2-0~ubuntu24.04.1) date 2025-05-22 23:27:50*
%MOMM*%
%LPD*%
G01*
G04 APERTURE LIST*
%TA.AperFunction,ComponentPad*%
%ADD10O,1.800000X1.000000*%
%TD*%
%TA.AperFunction,ComponentPad*%
%ADD11O,2.100000X1.000000*%
%TD*%
%TA.AperFunction,ComponentPad*%
%ADD12R,1.700000X1.700000*%
%TD*%
%TA.AperFunction,ComponentPad*%
%ADD13C,1.700000*%
%TD*%
%TA.AperFunction,ViaPad*%
%ADD14C,0.600000*%
%TD*%
%TA.AperFunction,ViaPad*%
%ADD15C,3.500000*%
%TD*%
%TA.AperFunction,Conductor*%
%ADD16C,0.250000*%
%TD*%
G04 APERTURE END LIST*
D10*
%TO.N,GND*%
%TO.C,J1*%
X130500000Y-99320000D03*
D11*
X134680000Y-99320000D03*
D10*
X130500000Y-90680000D03*
D11*
X134680000Y-90680000D03*
%TD*%
D12*
%TO.N,VPP*%
%TO.C,J4*%
X167500000Y-88650000D03*
D13*
%TO.N,/RXD*%
X167500000Y-91190000D03*
%TO.N,/TXD*%
X167500000Y-93730000D03*
%TO.N,GND*%
X167500000Y-96270000D03*
%TO.N,/CTS*%
X167500000Y-98810000D03*
%TO.N,/RTS*%
X167500000Y-101350000D03*
%TD*%
D12*
%TO.N,VPP*%
%TO.C,J3*%
X185615000Y-88650000D03*
D13*
%TO.N,/RXD_232*%
X185615000Y-91190000D03*
%TO.N,/TXD_232*%
X185615000Y-93730000D03*
%TO.N,GND*%
X185615000Y-96270000D03*
%TO.N,/CTS_232*%
X185615000Y-98810000D03*
%TO.N,/RTS_232*%
X185615000Y-101350000D03*
%TD*%
D12*
%TO.N,VPP*%
%TO.C,J2*%
X148625000Y-88650000D03*
D13*
%TO.N,/RXD*%
X148625000Y-91190000D03*
%TO.N,/TXD*%
X148625000Y-93730000D03*
%TO.N,GND*%
X148625000Y-96270000D03*
%TO.N,/CTS*%
X148625000Y-98810000D03*
%TO.N,/RTS*%
X148625000Y-101350000D03*
%TD*%
D14*
%TO.N,VBUS*%
X136400000Y-92700000D03*
%TO.N,VCC*%
X137200000Y-99200000D03*
X141800000Y-99100000D03*
%TO.N,GND*%
X181000000Y-96500000D03*
X184000000Y-100000000D03*
X140000000Y-95000000D03*
X146100000Y-101900000D03*
X183500000Y-96500000D03*
X136500000Y-89000000D03*
D15*
X159500000Y-91500000D03*
D14*
X169000000Y-90000000D03*
D15*
X193500000Y-91500000D03*
D14*
X184000000Y-92500000D03*
X144900000Y-100000000D03*
X181000000Y-90000000D03*
X139600000Y-101000000D03*
X136400000Y-91700000D03*
X175500000Y-95000000D03*
X179500000Y-101500000D03*
X169000000Y-92500000D03*
X172889914Y-96500000D03*
X177000000Y-89000000D03*
X170500000Y-96000000D03*
X138000000Y-98200000D03*
X141500000Y-89000000D03*
X184000000Y-90000000D03*
X169000000Y-97500000D03*
X140000000Y-91500000D03*
X179500000Y-89000000D03*
X143700000Y-92300000D03*
X173000000Y-99000000D03*
D15*
X193500000Y-98500000D03*
D14*
X146400000Y-93200000D03*
X174500000Y-101500000D03*
X145800000Y-97600000D03*
X177000000Y-101500000D03*
X137200000Y-100100000D03*
X169000000Y-100000000D03*
X174500000Y-89000000D03*
D15*
X159500000Y-98500000D03*
D14*
X146500000Y-90100000D03*
X169000000Y-95000000D03*
%TO.N,+3V3*%
X137400000Y-96520000D03*
X141110000Y-92360000D03*
%TO.N,VPP*%
X145200000Y-92400000D03*
X144200000Y-97800000D03*
X146100000Y-96500000D03*
%TO.N,VBUS*%
X136400000Y-96900000D03*
%TO.N,Net-(J1-D--PadA7)*%
X133700000Y-95650000D03*
%TO.N,Net-(J1-D+-PadA6)*%
X133700000Y-94350000D03*
%TO.N,/TXD*%
X170600000Y-93100000D03*
X178550000Y-90700000D03*
X146500000Y-95300000D03*
%TO.N,/RXD*%
X177800000Y-90075000D03*
X146500000Y-92300000D03*
X170600000Y-90600000D03*
%TO.N,/RTS*%
X147200000Y-99700000D03*
X177750000Y-95550000D03*
X170300000Y-100100000D03*
%TO.N,/CTS*%
X147200000Y-97700000D03*
X170300000Y-97650000D03*
X178550000Y-94950000D03*
%TO.N,/TXD_FT*%
X143200000Y-95900000D03*
%TO.N,/RXD_FT*%
X140900000Y-91374999D03*
%TO.N,/RTS_FT*%
X143300000Y-94500000D03*
%TO.N,/CTS_FT*%
X139010000Y-91710000D03*
%TO.N,/USB_DM*%
X137150000Y-95450000D03*
%TO.N,/USB_DP*%
X137150000Y-94550000D03*
%TO.N,/RXD_232*%
X183000000Y-92400000D03*
X177150000Y-93350000D03*
%TO.N,/TXD_232*%
X183150000Y-94900000D03*
X176550000Y-94000000D03*
%TD*%
D16*
%TO.N,GND*%
X146100000Y-91205000D02*
X146100000Y-91100000D01*
%TD*%
%TA.AperFunction,Conductor*%
%TO.N,GND*%
G36*
X166330712Y-87519685D02*
G01*
X166376467Y-87572489D01*
X166386411Y-87641647D01*
X166377107Y-87674087D01*
X166352415Y-87730006D01*
X166352415Y-87730008D01*
X166349500Y-87755131D01*
X166349500Y-89544856D01*
X166349502Y-89544882D01*
X166352413Y-89569987D01*
X166352415Y-89569991D01*
X166397793Y-89672764D01*
X166397794Y-89672765D01*
X166477235Y-89752206D01*
X166580009Y-89797585D01*
X166605135Y-89800500D01*
X167342873Y-89800499D01*
X167409910Y-89820183D01*
X167455665Y-89872987D01*
X167465609Y-89942146D01*
X167436584Y-90005702D01*
X167377806Y-90043476D01*
X167362270Y-90046972D01*
X167230589Y-90067829D01*
X167058363Y-90123787D01*
X167058360Y-90123788D01*
X166897002Y-90206006D01*
X166750505Y-90312441D01*
X166750500Y-90312445D01*
X166622445Y-90440500D01*
X166622441Y-90440505D01*
X166516006Y-90587002D01*
X166433788Y-90748360D01*
X166433787Y-90748363D01*
X166377829Y-90920589D01*
X166349500Y-91099448D01*
X166349500Y-91280551D01*
X166377829Y-91459410D01*
X166433787Y-91631636D01*
X166433788Y-91631639D01*
X166516006Y-91792997D01*
X166622441Y-91939494D01*
X166622445Y-91939499D01*
X166750500Y-92067554D01*
X166750505Y-92067558D01*
X166878287Y-92160396D01*
X166897006Y-92173996D01*
X167002484Y-92227740D01*
X167058360Y-92256211D01*
X167058363Y-92256212D01*
X167144476Y-92284191D01*
X167230591Y-92312171D01*
X167303639Y-92323740D01*
X167390678Y-92337527D01*
X167453813Y-92367456D01*
X167490744Y-92426768D01*
X167489746Y-92496631D01*
X167451136Y-92554863D01*
X167390678Y-92582473D01*
X167230589Y-92607829D01*
X167058363Y-92663787D01*
X167058360Y-92663788D01*
X166897002Y-92746006D01*
X166750505Y-92852441D01*
X166750500Y-92852445D01*
X166622445Y-92980500D01*
X166622441Y-92980505D01*
X166516006Y-93127002D01*
X166433788Y-93288360D01*
X166433787Y-93288363D01*
X166377829Y-93460589D01*
X166349500Y-93639448D01*
X166349500Y-93820551D01*
X166377829Y-93999410D01*
X166433787Y-94171636D01*
X166433788Y-94171639D01*
X166516006Y-94332997D01*
X166622441Y-94479494D01*
X166622445Y-94479499D01*
X166750500Y-94607554D01*
X166750505Y-94607558D01*
X166833985Y-94668209D01*
X166897006Y-94713996D01*
X167002484Y-94767740D01*
X167058360Y-94796211D01*
X167058363Y-94796212D01*
X167134486Y-94820945D01*
X167230591Y-94852171D01*
X167349113Y-94870943D01*
X167392279Y-94877780D01*
X167455414Y-94907709D01*
X167492345Y-94967021D01*
X167491347Y-95036883D01*
X167452737Y-95095116D01*
X167392279Y-95122726D01*
X167230706Y-95148317D01*
X167058555Y-95204251D01*
X167058547Y-95204254D01*
X166897269Y-95286432D01*
X166881466Y-95297912D01*
X166881466Y-95297913D01*
X167370591Y-95787037D01*
X167307007Y-95804075D01*
X167192993Y-95869901D01*
X167099901Y-95962993D01*
X167034075Y-96077007D01*
X167017037Y-96140590D01*
X166527913Y-95651466D01*
X166527912Y-95651466D01*
X166516432Y-95667269D01*
X166434254Y-95828547D01*
X166434251Y-95828555D01*
X166378317Y-96000706D01*
X166350000Y-96179493D01*
X166350000Y-96360506D01*
X166378317Y-96539293D01*
X166434251Y-96711444D01*
X166434252Y-96711447D01*
X166516431Y-96872730D01*
X166527913Y-96888532D01*
X166527913Y-96888533D01*
X167017037Y-96399409D01*
X167034075Y-96462993D01*
X167099901Y-96577007D01*
X167192993Y-96670099D01*
X167307007Y-96735925D01*
X167370590Y-96752962D01*
X166881466Y-97242085D01*
X166881466Y-97242086D01*
X166897267Y-97253566D01*
X166897275Y-97253571D01*
X167058552Y-97335747D01*
X167058555Y-97335748D01*
X167230706Y-97391682D01*
X167392279Y-97417273D01*
X167455413Y-97447202D01*
X167492345Y-97506513D01*
X167491347Y-97576376D01*
X167452738Y-97634609D01*
X167392280Y-97662219D01*
X167230589Y-97687829D01*
X167058363Y-97743787D01*
X167058360Y-97743788D01*
X166897002Y-97826006D01*
X166750505Y-97932441D01*
X166750500Y-97932445D01*
X166622445Y-98060500D01*
X166622441Y-98060505D01*
X166516006Y-98207002D01*
X166433788Y-98368360D01*
X166433787Y-98368363D01*
X166377829Y-98540589D01*
X166349500Y-98719448D01*
X166349500Y-98900551D01*
X166377829Y-99079410D01*
X166433787Y-99251636D01*
X166433788Y-99251639D01*
X166516006Y-99412997D01*
X166622441Y-99559494D01*
X166622445Y-99559499D01*
X166750500Y-99687554D01*
X166750505Y-99687558D01*
X166810698Y-99731290D01*
X166897006Y-99793996D01*
X167002484Y-99847740D01*
X167058360Y-99876211D01*
X167058363Y-99876212D01*
X167144476Y-99904191D01*
X167230591Y-99932171D01*
X167303639Y-99943740D01*
X167390678Y-99957527D01*
X167453813Y-99987456D01*
X167490744Y-100046768D01*
X167489746Y-100116631D01*
X167451136Y-100174863D01*
X167390678Y-100202473D01*
X167230589Y-100227829D01*
X167058363Y-100283787D01*
X167058360Y-100283788D01*
X166897002Y-100366006D01*
X166750505Y-100472441D01*
X166750500Y-100472445D01*
X166622445Y-100600500D01*
X166622441Y-100600505D01*
X166516006Y-100747002D01*
X166433788Y-100908360D01*
X166433787Y-100908363D01*
X166377829Y-101080589D01*
X166349500Y-101259448D01*
X166349500Y-101440551D01*
X166377829Y-101619410D01*
X166433787Y-101791636D01*
X166433788Y-101791639D01*
X166516006Y-101952997D01*
X166622441Y-102099494D01*
X166622445Y-102099499D01*
X166750500Y-102227554D01*
X166750505Y-102227558D01*
X166816742Y-102275682D01*
X166859408Y-102331011D01*
X166865387Y-102400625D01*
X166832782Y-102462420D01*
X166771943Y-102496777D01*
X166743857Y-102500000D01*
X166124000Y-102500000D01*
X166056961Y-102480315D01*
X166011206Y-102427511D01*
X166000000Y-102376000D01*
X166000000Y-87624000D01*
X166019685Y-87556961D01*
X166072489Y-87511206D01*
X166124000Y-87500000D01*
X166263673Y-87500000D01*
X166330712Y-87519685D01*
G37*
%TD.AperFunction*%
%TA.AperFunction,Conductor*%
G36*
X184445712Y-87519685D02*
G01*
X184491467Y-87572489D01*
X184501411Y-87641647D01*
X184492107Y-87674087D01*
X184467415Y-87730006D01*
X184467415Y-87730008D01*
X184464500Y-87755131D01*
X184464500Y-89544856D01*
X184464502Y-89544882D01*
X184467413Y-89569987D01*
X184467415Y-89569991D01*
X184512793Y-89672764D01*
X184512794Y-89672765D01*
X184592235Y-89752206D01*
X184695009Y-89797585D01*
X184720135Y-89800500D01*
X185457873Y-89800499D01*
X185524910Y-89820183D01*
X185570665Y-89872987D01*
X185580609Y-89942146D01*
X185551584Y-90005702D01*
X185492806Y-90043476D01*
X185477270Y-90046972D01*
X185345589Y-90067829D01*
X185173363Y-90123787D01*
X185173360Y-90123788D01*
X185012002Y-90206006D01*
X184865505Y-90312441D01*
X184865500Y-90312445D01*
X184737445Y-90440500D01*
X184737441Y-90440505D01*
X184631006Y-90587002D01*
X184548788Y-90748360D01*
X184548787Y-90748363D01*
X184492829Y-90920589D01*
X184464500Y-91099448D01*
X184464500Y-91280551D01*
X184492829Y-91459410D01*
X184548787Y-91631636D01*
X184548788Y-91631639D01*
X184631006Y-91792997D01*
X184737441Y-91939494D01*
X184737445Y-91939499D01*
X184865500Y-92067554D01*
X184865505Y-92067558D01*
X184993287Y-92160396D01*
X185012006Y-92173996D01*
X185117484Y-92227740D01*
X185173360Y-92256211D01*
X185173363Y-92256212D01*
X185259476Y-92284191D01*
X185345591Y-92312171D01*
X185418639Y-92323740D01*
X185505678Y-92337527D01*
X185568813Y-92367456D01*
X185605744Y-92426768D01*
X185604746Y-92496631D01*
X185566136Y-92554863D01*
X185505678Y-92582473D01*
X185345589Y-92607829D01*
X185173363Y-92663787D01*
X185173360Y-92663788D01*
X185012002Y-92746006D01*
X184865505Y-92852441D01*
X184865500Y-92852445D01*
X184737445Y-92980500D01*
X184737441Y-92980505D01*
X184631006Y-93127002D01*
X184548788Y-93288360D01*
X184548787Y-93288363D01*
X184492829Y-93460589D01*
X184464500Y-93639448D01*
X184464500Y-93820551D01*
X184492829Y-93999410D01*
X184548787Y-94171636D01*
X184548788Y-94171639D01*
X184631006Y-94332997D01*
X184737441Y-94479494D01*
X184737445Y-94479499D01*
X184865500Y-94607554D01*
X184865505Y-94607558D01*
X184948985Y-94668209D01*
X185012006Y-94713996D01*
X185117484Y-94767740D01*
X185173360Y-94796211D01*
X185173363Y-94796212D01*
X185249486Y-94820945D01*
X185345591Y-94852171D01*
X185464113Y-94870943D01*
X185507279Y-94877780D01*
X185570414Y-94907709D01*
X185607345Y-94967021D01*
X185606347Y-95036883D01*
X185567737Y-95095116D01*
X185507279Y-95122726D01*
X185345706Y-95148317D01*
X185173555Y-95204251D01*
X185173547Y-95204254D01*
X185012269Y-95286432D01*
X184996466Y-95297912D01*
X184996466Y-95297913D01*
X185485591Y-95787037D01*
X185422007Y-95804075D01*
X185307993Y-95869901D01*
X185214901Y-95962993D01*
X185149075Y-96077007D01*
X185132037Y-96140590D01*
X184642913Y-95651466D01*
X184642912Y-95651466D01*
X184631432Y-95667269D01*
X184549254Y-95828547D01*
X184549251Y-95828555D01*
X184493317Y-96000706D01*
X184465000Y-96179493D01*
X184465000Y-96360506D01*
X184493317Y-96539293D01*
X184549251Y-96711444D01*
X184549252Y-96711447D01*
X184631431Y-96872730D01*
X184642913Y-96888532D01*
X184642913Y-96888533D01*
X185132037Y-96399409D01*
X185149075Y-96462993D01*
X185214901Y-96577007D01*
X185307993Y-96670099D01*
X185422007Y-96735925D01*
X185485590Y-96752962D01*
X184996466Y-97242085D01*
X184996466Y-97242086D01*
X185012267Y-97253566D01*
X185012275Y-97253571D01*
X185173552Y-97335747D01*
X185173555Y-97335748D01*
X185345706Y-97391682D01*
X185507279Y-97417273D01*
X185570413Y-97447202D01*
X185607345Y-97506513D01*
X185606347Y-97576376D01*
X185567738Y-97634609D01*
X185507280Y-97662219D01*
X185345589Y-97687829D01*
X185173363Y-97743787D01*
X185173360Y-97743788D01*
X185012002Y-97826006D01*
X184865505Y-97932441D01*
X184865500Y-97932445D01*
X184737445Y-98060500D01*
X184737441Y-98060505D01*
X184631006Y-98207002D01*
X184548788Y-98368360D01*
X184548787Y-98368363D01*
X184492829Y-98540589D01*
X184464500Y-98719448D01*
X184464500Y-98900551D01*
X184492829Y-99079410D01*
X184548787Y-99251636D01*
X184548788Y-99251639D01*
X184631006Y-99412997D01*
X184737441Y-99559494D01*
X184737445Y-99559499D01*
X184865500Y-99687554D01*
X184865505Y-99687558D01*
X184925698Y-99731290D01*
X185012006Y-99793996D01*
X185117484Y-99847740D01*
X185173360Y-99876211D01*
X185173363Y-99876212D01*
X185259476Y-99904191D01*
X185345591Y-99932171D01*
X185418639Y-99943740D01*
X185505678Y-99957527D01*
X185568813Y-99987456D01*
X185605744Y-100046768D01*
X185604746Y-100116631D01*
X185566136Y-100174863D01*
X185505678Y-100202473D01*
X185345589Y-100227829D01*
X185173363Y-100283787D01*
X185173360Y-100283788D01*
X185012002Y-100366006D01*
X184865505Y-100472441D01*
X184865500Y-100472445D01*
X184737445Y-100600500D01*
X184737441Y-100600505D01*
X184631006Y-100747002D01*
X184548788Y-100908360D01*
X184548787Y-100908363D01*
X184492829Y-101080589D01*
X184464500Y-101259448D01*
X184464500Y-101440551D01*
X184492829Y-101619410D01*
X184548787Y-101791636D01*
X184548788Y-101791639D01*
X184631006Y-101952997D01*
X184737441Y-102099494D01*
X184737445Y-102099499D01*
X184865500Y-102227554D01*
X184865505Y-102227558D01*
X184931742Y-102275682D01*
X184974408Y-102331011D01*
X184980387Y-102400625D01*
X184947782Y-102462420D01*
X184886943Y-102496777D01*
X184858857Y-102500000D01*
X168256143Y-102500000D01*
X168189104Y-102480315D01*
X168143349Y-102427511D01*
X168133405Y-102358353D01*
X168162430Y-102294797D01*
X168183258Y-102275682D01*
X168249494Y-102227558D01*
X168249492Y-102227558D01*
X168249501Y-102227553D01*
X168377553Y-102099501D01*
X168483996Y-101952994D01*
X168566211Y-101791639D01*
X168622171Y-101619409D01*
X168638527Y-101516144D01*
X168650500Y-101440551D01*
X168650500Y-101259448D01*
X168634019Y-101155397D01*
X168622171Y-101080591D01*
X168566211Y-100908361D01*
X168566211Y-100908360D01*
X168537740Y-100852484D01*
X168483996Y-100747006D01*
X168450207Y-100700499D01*
X168377558Y-100600505D01*
X168377554Y-100600500D01*
X168249499Y-100472445D01*
X168249494Y-100472441D01*
X168102997Y-100366006D01*
X168102996Y-100366005D01*
X168102994Y-100366004D01*
X168035832Y-100331783D01*
X167941639Y-100283788D01*
X167941636Y-100283787D01*
X167769410Y-100227829D01*
X167609321Y-100202473D01*
X167546186Y-100172544D01*
X167509255Y-100113232D01*
X167510253Y-100043370D01*
X167525123Y-100020943D01*
X169699500Y-100020943D01*
X169699500Y-100179057D01*
X169727563Y-100283787D01*
X169740423Y-100331783D01*
X169740426Y-100331790D01*
X169819475Y-100468709D01*
X169819479Y-100468714D01*
X169819480Y-100468716D01*
X169931284Y-100580520D01*
X169931286Y-100580521D01*
X169931290Y-100580524D01*
X169965899Y-100600505D01*
X170068216Y-100659577D01*
X170220943Y-100700500D01*
X170220945Y-100700500D01*
X170379055Y-100700500D01*
X170379057Y-100700500D01*
X170531784Y-100659577D01*
X170668716Y-100580520D01*
X170780520Y-100468716D01*
X170859577Y-100331784D01*
X170900500Y-100179057D01*
X170900500Y-100020943D01*
X170859577Y-99868216D01*
X170859573Y-99868209D01*
X170780524Y-99731290D01*
X170780518Y-99731282D01*
X170668717Y-99619481D01*
X170668709Y-99619475D01*
X170531790Y-99540426D01*
X170531786Y-99540424D01*
X170531784Y-99540423D01*
X170379057Y-99499500D01*
X170220943Y-99499500D01*
X170068216Y-99540423D01*
X170068209Y-99540426D01*
X169931290Y-99619475D01*
X169931282Y-99619481D01*
X169819481Y-99731282D01*
X169819475Y-99731290D01*
X169740426Y-99868209D01*
X169740423Y-99868216D01*
X169699500Y-100020943D01*
X167525123Y-100020943D01*
X167548863Y-99985137D01*
X167609321Y-99957527D01*
X167679425Y-99946422D01*
X167769409Y-99932171D01*
X167858236Y-99903309D01*
X167884166Y-99894885D01*
X167884166Y-99894884D01*
X167941639Y-99876211D01*
X168102994Y-99793996D01*
X168249501Y-99687553D01*
X168377553Y-99559501D01*
X168483996Y-99412994D01*
X168566211Y-99251639D01*
X168622171Y-99079409D01*
X168638527Y-98976144D01*
X168650500Y-98900551D01*
X168650500Y-98719448D01*
X168634019Y-98615397D01*
X168622171Y-98540591D01*
X168566211Y-98368361D01*
X168566211Y-98368360D01*
X168506157Y-98250500D01*
X168483996Y-98207006D01*
X168428425Y-98130518D01*
X168377558Y-98060505D01*
X168377554Y-98060500D01*
X168249499Y-97932445D01*
X168249494Y-97932441D01*
X168102997Y-97826006D01*
X168102996Y-97826005D01*
X168102994Y-97826004D01*
X168051300Y-97799664D01*
X167941639Y-97743788D01*
X167941636Y-97743787D01*
X167769410Y-97687829D01*
X167753373Y-97685289D01*
X167753373Y-97685288D01*
X167607720Y-97662219D01*
X167544585Y-97632289D01*
X167507654Y-97572978D01*
X167507683Y-97570943D01*
X169699500Y-97570943D01*
X169699500Y-97729057D01*
X169725478Y-97826006D01*
X169740423Y-97881783D01*
X169740426Y-97881790D01*
X169819475Y-98018709D01*
X169819479Y-98018714D01*
X169819480Y-98018716D01*
X169931284Y-98130520D01*
X169931286Y-98130521D01*
X169931290Y-98130524D01*
X170063756Y-98207002D01*
X170068216Y-98209577D01*
X170220943Y-98250500D01*
X170220945Y-98250500D01*
X170379055Y-98250500D01*
X170379057Y-98250500D01*
X170531784Y-98209577D01*
X170668716Y-98130520D01*
X170780520Y-98018716D01*
X170859577Y-97881784D01*
X170900500Y-97729057D01*
X170900500Y-97570943D01*
X170859577Y-97418216D01*
X170811963Y-97335745D01*
X170780524Y-97281290D01*
X170780518Y-97281282D01*
X170668717Y-97169481D01*
X170668709Y-97169475D01*
X170531790Y-97090426D01*
X170531786Y-97090424D01*
X170531784Y-97090423D01*
X170379057Y-97049500D01*
X170220943Y-97049500D01*
X170068216Y-97090423D01*
X170068209Y-97090426D01*
X169931290Y-97169475D01*
X169931282Y-97169481D01*
X169819481Y-97281282D01*
X169819475Y-97281290D01*
X169740426Y-97418209D01*
X169740423Y-97418216D01*
X169699500Y-97570943D01*
X167507683Y-97570943D01*
X167508652Y-97503115D01*
X167547262Y-97444883D01*
X167607721Y-97417273D01*
X167769292Y-97391683D01*
X167941444Y-97335748D01*
X167941452Y-97335745D01*
X168102730Y-97253568D01*
X168118532Y-97242085D01*
X168118533Y-97242085D01*
X167629410Y-96752962D01*
X167692993Y-96735925D01*
X167807007Y-96670099D01*
X167900099Y-96577007D01*
X167965925Y-96462993D01*
X167982962Y-96399409D01*
X168472085Y-96888532D01*
X168483568Y-96872730D01*
X168565745Y-96711452D01*
X168565748Y-96711444D01*
X168621682Y-96539293D01*
X168650000Y-96360506D01*
X168650000Y-96179493D01*
X168621682Y-96000706D01*
X168565748Y-95828555D01*
X168565747Y-95828552D01*
X168483571Y-95667275D01*
X168483566Y-95667267D01*
X168472085Y-95651466D01*
X167982962Y-96140589D01*
X167965925Y-96077007D01*
X167900099Y-95962993D01*
X167807007Y-95869901D01*
X167692993Y-95804075D01*
X167629409Y-95787037D01*
X167945504Y-95470943D01*
X177149500Y-95470943D01*
X177149500Y-95629057D01*
X177187266Y-95770000D01*
X177190423Y-95781783D01*
X177190426Y-95781790D01*
X177269475Y-95918709D01*
X177269479Y-95918714D01*
X177269480Y-95918716D01*
X177381284Y-96030520D01*
X177381286Y-96030521D01*
X177381290Y-96030524D01*
X177480251Y-96087658D01*
X177518216Y-96109577D01*
X177670943Y-96150500D01*
X177670945Y-96150500D01*
X177829055Y-96150500D01*
X177829057Y-96150500D01*
X177981784Y-96109577D01*
X178118716Y-96030520D01*
X178230520Y-95918716D01*
X178309577Y-95781784D01*
X178346923Y-95642404D01*
X178383287Y-95582746D01*
X178446134Y-95552217D01*
X178466697Y-95550500D01*
X178629055Y-95550500D01*
X178629057Y-95550500D01*
X178781784Y-95509577D01*
X178918716Y-95430520D01*
X179030520Y-95318716D01*
X179109577Y-95181784D01*
X179150500Y-95029057D01*
X179150500Y-94870943D01*
X179137103Y-94820943D01*
X182549500Y-94820943D01*
X182549500Y-94979057D01*
X182579977Y-95092797D01*
X182590423Y-95131783D01*
X182590426Y-95131790D01*
X182669475Y-95268709D01*
X182669479Y-95268714D01*
X182669480Y-95268716D01*
X182781284Y-95380520D01*
X182781286Y-95380521D01*
X182781290Y-95380524D01*
X182867887Y-95430520D01*
X182918216Y-95459577D01*
X183070943Y-95500500D01*
X183070945Y-95500500D01*
X183229055Y-95500500D01*
X183229057Y-95500500D01*
X183381784Y-95459577D01*
X183518716Y-95380520D01*
X183630520Y-95268716D01*
X183709577Y-95131784D01*
X183750500Y-94979057D01*
X183750500Y-94820943D01*
X183709577Y-94668216D01*
X183709573Y-94668209D01*
X183630524Y-94531290D01*
X183630518Y-94531282D01*
X183518717Y-94419481D01*
X183518709Y-94419475D01*
X183381790Y-94340426D01*
X183381786Y-94340424D01*
X183381784Y-94340423D01*
X183229057Y-94299500D01*
X183070943Y-94299500D01*
X182918216Y-94340423D01*
X182918209Y-94340426D01*
X182781290Y-94419475D01*
X182781282Y-94419481D01*
X182669481Y-94531282D01*
X182669475Y-94531290D01*
X182590426Y-94668209D01*
X182590423Y-94668216D01*
X182549500Y-94820943D01*
X179137103Y-94820943D01*
X179109577Y-94718216D01*
X179080706Y-94668209D01*
X179030524Y-94581290D01*
X179030518Y-94581282D01*
X178918717Y-94469481D01*
X178918709Y-94469475D01*
X178781790Y-94390426D01*
X178781786Y-94390424D01*
X178781784Y-94390423D01*
X178629057Y-94349500D01*
X178470943Y-94349500D01*
X178318216Y-94390423D01*
X178318209Y-94390426D01*
X178181290Y-94469475D01*
X178181282Y-94469481D01*
X178069481Y-94581282D01*
X178069475Y-94581290D01*
X177990426Y-94718209D01*
X177990424Y-94718214D01*
X177990423Y-94718216D01*
X177953076Y-94857595D01*
X177916713Y-94917254D01*
X177853866Y-94947783D01*
X177833303Y-94949500D01*
X177670943Y-94949500D01*
X177518216Y-94990423D01*
X177518209Y-94990426D01*
X177381290Y-95069475D01*
X177381282Y-95069481D01*
X177269481Y-95181282D01*
X177269475Y-95181290D01*
X177190426Y-95318209D01*
X177190423Y-95318216D01*
X177149500Y-95470943D01*
X167945504Y-95470943D01*
X168041312Y-95375135D01*
X168118533Y-95297913D01*
X168102730Y-95286431D01*
X167941447Y-95204252D01*
X167941444Y-95204251D01*
X167769293Y-95148317D01*
X167607720Y-95122726D01*
X167544585Y-95092797D01*
X167507654Y-95033485D01*
X167508652Y-94963623D01*
X167547262Y-94905390D01*
X167607720Y-94877780D01*
X167622270Y-94875475D01*
X167769409Y-94852171D01*
X167941639Y-94796211D01*
X168102994Y-94713996D01*
X168249501Y-94607553D01*
X168377553Y-94479501D01*
X168483996Y-94332994D01*
X168566211Y-94171639D01*
X168622171Y-93999409D01*
X168634599Y-93920943D01*
X175949500Y-93920943D01*
X175949500Y-94079057D01*
X175974307Y-94171636D01*
X175990423Y-94231783D01*
X175990426Y-94231790D01*
X176069475Y-94368709D01*
X176069479Y-94368714D01*
X176069480Y-94368716D01*
X176181284Y-94480520D01*
X176181286Y-94480521D01*
X176181290Y-94480524D01*
X176269221Y-94531290D01*
X176318216Y-94559577D01*
X176470943Y-94600500D01*
X176470945Y-94600500D01*
X176629055Y-94600500D01*
X176629057Y-94600500D01*
X176781784Y-94559577D01*
X176918716Y-94480520D01*
X177030520Y-94368716D01*
X177109577Y-94231784D01*
X177150500Y-94079057D01*
X177150500Y-94066697D01*
X177170185Y-93999658D01*
X177222989Y-93953903D01*
X177242397Y-93946925D01*
X177381784Y-93909577D01*
X177518716Y-93830520D01*
X177630520Y-93718716D01*
X177709577Y-93581784D01*
X177750500Y-93429057D01*
X177750500Y-93270943D01*
X177709577Y-93118216D01*
X177653417Y-93020943D01*
X177630524Y-92981290D01*
X177630518Y-92981282D01*
X177518717Y-92869481D01*
X177518709Y-92869475D01*
X177381790Y-92790426D01*
X177381786Y-92790424D01*
X177381784Y-92790423D01*
X177229057Y-92749500D01*
X177070943Y-92749500D01*
X176918216Y-92790423D01*
X176918209Y-92790426D01*
X176781290Y-92869475D01*
X176781282Y-92869481D01*
X176669481Y-92981282D01*
X176669475Y-92981290D01*
X176590426Y-93118209D01*
X176590423Y-93118216D01*
X176549500Y-93270943D01*
X176549500Y-93283302D01*
X176529815Y-93350341D01*
X176477011Y-93396096D01*
X176457595Y-93403076D01*
X176426654Y-93411367D01*
X176318214Y-93440423D01*
X176318209Y-93440426D01*
X176181290Y-93519475D01*
X176181282Y-93519481D01*
X176069481Y-93631282D01*
X176069475Y-93631290D01*
X175990426Y-93768209D01*
X175990423Y-93768216D01*
X175949500Y-93920943D01*
X168634599Y-93920943D01*
X168638959Y-93893418D01*
X168650500Y-93820551D01*
X168650500Y-93639448D01*
X168631497Y-93519475D01*
X168622171Y-93460591D01*
X168580320Y-93331784D01*
X168566212Y-93288363D01*
X168566211Y-93288360D01*
X168510517Y-93179057D01*
X168483996Y-93127006D01*
X168477605Y-93118209D01*
X168453987Y-93085701D01*
X168406938Y-93020943D01*
X169999500Y-93020943D01*
X169999500Y-93179057D01*
X170028789Y-93288363D01*
X170040423Y-93331783D01*
X170040426Y-93331790D01*
X170119475Y-93468709D01*
X170119479Y-93468714D01*
X170119480Y-93468716D01*
X170231284Y-93580520D01*
X170231286Y-93580521D01*
X170231290Y-93580524D01*
X170364187Y-93657251D01*
X170368216Y-93659577D01*
X170520943Y-93700500D01*
X170520945Y-93700500D01*
X170679055Y-93700500D01*
X170679057Y-93700500D01*
X170831784Y-93659577D01*
X170968716Y-93580520D01*
X171080520Y-93468716D01*
X171159577Y-93331784D01*
X171200500Y-93179057D01*
X171200500Y-93020943D01*
X171159577Y-92868216D01*
X171150469Y-92852441D01*
X171080524Y-92731290D01*
X171080518Y-92731282D01*
X170968717Y-92619481D01*
X170968709Y-92619475D01*
X170831790Y-92540426D01*
X170831786Y-92540424D01*
X170831784Y-92540423D01*
X170679057Y-92499500D01*
X170520943Y-92499500D01*
X170368216Y-92540423D01*
X170368209Y-92540426D01*
X170231290Y-92619475D01*
X170231282Y-92619481D01*
X170119481Y-92731282D01*
X170119475Y-92731290D01*
X170040426Y-92868209D01*
X170040423Y-92868216D01*
X169999500Y-93020943D01*
X168406938Y-93020943D01*
X168377558Y-92980504D01*
X168249499Y-92852445D01*
X168249494Y-92852441D01*
X168102997Y-92746006D01*
X168102996Y-92746005D01*
X168102994Y-92746004D01*
X168051300Y-92719664D01*
X167941639Y-92663788D01*
X167941636Y-92663787D01*
X167769410Y-92607829D01*
X167609321Y-92582473D01*
X167546186Y-92552544D01*
X167509255Y-92493232D01*
X167510253Y-92423370D01*
X167548863Y-92365137D01*
X167609321Y-92337527D01*
X167679425Y-92326422D01*
X167714021Y-92320943D01*
X182399500Y-92320943D01*
X182399500Y-92479057D01*
X182437127Y-92619481D01*
X182440423Y-92631783D01*
X182440426Y-92631790D01*
X182519475Y-92768709D01*
X182519479Y-92768714D01*
X182519480Y-92768716D01*
X182631284Y-92880520D01*
X182631286Y-92880521D01*
X182631290Y-92880524D01*
X182768209Y-92959573D01*
X182768216Y-92959577D01*
X182920943Y-93000500D01*
X182920945Y-93000500D01*
X183079055Y-93000500D01*
X183079057Y-93000500D01*
X183231784Y-92959577D01*
X183368716Y-92880520D01*
X183480520Y-92768716D01*
X183559577Y-92631784D01*
X183600500Y-92479057D01*
X183600500Y-92320943D01*
X183559577Y-92168216D01*
X183501463Y-92067558D01*
X183480524Y-92031290D01*
X183480518Y-92031282D01*
X183368717Y-91919481D01*
X183368709Y-91919475D01*
X183231790Y-91840426D01*
X183231786Y-91840424D01*
X183231784Y-91840423D01*
X183079057Y-91799500D01*
X182920943Y-91799500D01*
X182768216Y-91840423D01*
X182768209Y-91840426D01*
X182631290Y-91919475D01*
X182631282Y-91919481D01*
X182519481Y-92031282D01*
X182519475Y-92031290D01*
X182440426Y-92168209D01*
X182440423Y-92168216D01*
X182399500Y-92320943D01*
X167714021Y-92320943D01*
X167769409Y-92312171D01*
X167941639Y-92256211D01*
X168047384Y-92202331D01*
X168047387Y-92202330D01*
X168102992Y-92173997D01*
X168102991Y-92173997D01*
X168102994Y-92173996D01*
X168249501Y-92067553D01*
X168377553Y-91939501D01*
X168483996Y-91792994D01*
X168566211Y-91631639D01*
X168622171Y-91459409D01*
X168647340Y-91300499D01*
X168650500Y-91280551D01*
X168650500Y-91099448D01*
X168629792Y-90968709D01*
X168622171Y-90920591D01*
X168566211Y-90748361D01*
X168566211Y-90748360D01*
X168483994Y-90587002D01*
X168483045Y-90585696D01*
X168483044Y-90585695D01*
X168435999Y-90520943D01*
X169999500Y-90520943D01*
X169999500Y-90679057D01*
X170026295Y-90779055D01*
X170040423Y-90831783D01*
X170040426Y-90831790D01*
X170119475Y-90968709D01*
X170119479Y-90968714D01*
X170119480Y-90968716D01*
X170231284Y-91080520D01*
X170231286Y-91080521D01*
X170231290Y-91080524D01*
X170312128Y-91127195D01*
X170368216Y-91159577D01*
X170520943Y-91200500D01*
X170520945Y-91200500D01*
X170679055Y-91200500D01*
X170679057Y-91200500D01*
X170831784Y-91159577D01*
X170968716Y-91080520D01*
X171080520Y-90968716D01*
X171159577Y-90831784D01*
X171200500Y-90679057D01*
X171200500Y-90520943D01*
X171159577Y-90368216D01*
X171138258Y-90331290D01*
X171080524Y-90231290D01*
X171080518Y-90231282D01*
X170968717Y-90119481D01*
X170968716Y-90119480D01*
X170926667Y-90095203D01*
X170926665Y-90095201D01*
X170831790Y-90040426D01*
X170831786Y-90040424D01*
X170831784Y-90040423D01*
X170679057Y-89999500D01*
X170520943Y-89999500D01*
X170368216Y-90040423D01*
X170368209Y-90040426D01*
X170231290Y-90119475D01*
X170231282Y-90119481D01*
X170119481Y-90231282D01*
X170119475Y-90231290D01*
X170040426Y-90368209D01*
X170040423Y-90368216D01*
X169999500Y-90520943D01*
X168435999Y-90520943D01*
X168377558Y-90440505D01*
X168377554Y-90440500D01*
X168249499Y-90312445D01*
X168249494Y-90312441D01*
X168102997Y-90206006D01*
X168102996Y-90206005D01*
X168102994Y-90206004D01*
X168051300Y-90179664D01*
X167941639Y-90123788D01*
X167941636Y-90123787D01*
X167769410Y-90067829D01*
X167637728Y-90046972D01*
X167574594Y-90017042D01*
X167561456Y-89995943D01*
X177199500Y-89995943D01*
X177199500Y-90154057D01*
X177220195Y-90231290D01*
X177240423Y-90306783D01*
X177240426Y-90306790D01*
X177319475Y-90443709D01*
X177319479Y-90443714D01*
X177319480Y-90443716D01*
X177431284Y-90555520D01*
X177431286Y-90555521D01*
X177431290Y-90555524D01*
X177544601Y-90620943D01*
X177568216Y-90634577D01*
X177720943Y-90675500D01*
X177720945Y-90675500D01*
X177827122Y-90675500D01*
X177894161Y-90695185D01*
X177939916Y-90747989D01*
X177946640Y-90771409D01*
X177947397Y-90771207D01*
X177949500Y-90779055D01*
X177949500Y-90779057D01*
X177987424Y-90920591D01*
X177990423Y-90931783D01*
X177990426Y-90931790D01*
X178069475Y-91068709D01*
X178069479Y-91068714D01*
X178069480Y-91068716D01*
X178181284Y-91180520D01*
X178181286Y-91180521D01*
X178181290Y-91180524D01*
X178312155Y-91256078D01*
X178318216Y-91259577D01*
X178470943Y-91300500D01*
X178470945Y-91300500D01*
X178629055Y-91300500D01*
X178629057Y-91300500D01*
X178781784Y-91259577D01*
X178918716Y-91180520D01*
X179030520Y-91068716D01*
X179109577Y-90931784D01*
X179150500Y-90779057D01*
X179150500Y-90620943D01*
X179109577Y-90468216D01*
X179051843Y-90368216D01*
X179030524Y-90331290D01*
X179030518Y-90331282D01*
X178918717Y-90219481D01*
X178918709Y-90219475D01*
X178781790Y-90140426D01*
X178781786Y-90140424D01*
X178781784Y-90140423D01*
X178629057Y-90099500D01*
X178522878Y-90099500D01*
X178455839Y-90079815D01*
X178410084Y-90027011D01*
X178403359Y-90003590D01*
X178402603Y-90003793D01*
X178371541Y-89887868D01*
X178359577Y-89843216D01*
X178334915Y-89800499D01*
X178280524Y-89706290D01*
X178280518Y-89706282D01*
X178168717Y-89594481D01*
X178168709Y-89594475D01*
X178031790Y-89515426D01*
X178031786Y-89515424D01*
X178031784Y-89515423D01*
X177879057Y-89474500D01*
X177720943Y-89474500D01*
X177568216Y-89515423D01*
X177568209Y-89515426D01*
X177431290Y-89594475D01*
X177431282Y-89594481D01*
X177319481Y-89706282D01*
X177319475Y-89706290D01*
X177240426Y-89843209D01*
X177240423Y-89843216D01*
X177199500Y-89995943D01*
X167561456Y-89995943D01*
X167537663Y-89957731D01*
X167538661Y-89887868D01*
X167577271Y-89829636D01*
X167641235Y-89801522D01*
X167657120Y-89800499D01*
X168394864Y-89800499D01*
X168394879Y-89800497D01*
X168394882Y-89800497D01*
X168419987Y-89797586D01*
X168419988Y-89797585D01*
X168419991Y-89797585D01*
X168522765Y-89752206D01*
X168602206Y-89672765D01*
X168647585Y-89569991D01*
X168650500Y-89544865D01*
X168650499Y-87755136D01*
X168650497Y-87755117D01*
X168647586Y-87730013D01*
X168647585Y-87730011D01*
X168647585Y-87730009D01*
X168622891Y-87674083D01*
X168613821Y-87604808D01*
X168643645Y-87541623D01*
X168702894Y-87504592D01*
X168736327Y-87500000D01*
X184378673Y-87500000D01*
X184445712Y-87519685D01*
G37*
%TD.AperFunction*%
%TA.AperFunction,Conductor*%
G36*
X186912630Y-96333875D02*
G01*
X186970863Y-96372485D01*
X186998977Y-96436448D01*
X187000000Y-96452341D01*
X187000000Y-98624457D01*
X186980315Y-98691496D01*
X186927511Y-98737251D01*
X186858353Y-98747195D01*
X186794797Y-98718170D01*
X186757023Y-98659392D01*
X186753527Y-98643855D01*
X186745513Y-98593263D01*
X186737171Y-98540591D01*
X186681211Y-98368361D01*
X186681211Y-98368360D01*
X186621157Y-98250500D01*
X186598996Y-98207006D01*
X186543425Y-98130518D01*
X186492558Y-98060505D01*
X186492554Y-98060500D01*
X186364499Y-97932445D01*
X186364494Y-97932441D01*
X186217997Y-97826006D01*
X186217996Y-97826005D01*
X186217994Y-97826004D01*
X186166300Y-97799664D01*
X186056639Y-97743788D01*
X186056636Y-97743787D01*
X185884410Y-97687828D01*
X185722720Y-97662219D01*
X185659585Y-97632289D01*
X185622654Y-97572978D01*
X185623652Y-97503115D01*
X185662262Y-97444883D01*
X185722721Y-97417273D01*
X185884292Y-97391683D01*
X186056444Y-97335748D01*
X186056452Y-97335745D01*
X186217730Y-97253568D01*
X186233532Y-97242085D01*
X186233533Y-97242085D01*
X185744410Y-96752962D01*
X185807993Y-96735925D01*
X185922007Y-96670099D01*
X186015099Y-96577007D01*
X186080925Y-96462993D01*
X186097962Y-96399409D01*
X186587085Y-96888532D01*
X186598568Y-96872730D01*
X186680745Y-96711452D01*
X186680748Y-96711444D01*
X186736682Y-96539293D01*
X186753527Y-96432943D01*
X186783456Y-96369809D01*
X186842767Y-96332877D01*
X186912630Y-96333875D01*
G37*
%TD.AperFunction*%
%TA.AperFunction,Conductor*%
G36*
X186912631Y-93797076D02*
G01*
X186970863Y-93835686D01*
X186998977Y-93899650D01*
X187000000Y-93915542D01*
X187000000Y-96087658D01*
X186980315Y-96154697D01*
X186927511Y-96200452D01*
X186858353Y-96210396D01*
X186794797Y-96181371D01*
X186757023Y-96122593D01*
X186753527Y-96107056D01*
X186736682Y-96000706D01*
X186680748Y-95828555D01*
X186680747Y-95828552D01*
X186598571Y-95667275D01*
X186598566Y-95667267D01*
X186587085Y-95651466D01*
X186097962Y-96140589D01*
X186080925Y-96077007D01*
X186015099Y-95962993D01*
X185922007Y-95869901D01*
X185807993Y-95804075D01*
X185744409Y-95787037D01*
X186233533Y-95297913D01*
X186217730Y-95286431D01*
X186056447Y-95204252D01*
X186056444Y-95204251D01*
X185884293Y-95148317D01*
X185722720Y-95122726D01*
X185659585Y-95092797D01*
X185622654Y-95033485D01*
X185623652Y-94963623D01*
X185662262Y-94905390D01*
X185722720Y-94877780D01*
X185737270Y-94875475D01*
X185884409Y-94852171D01*
X186056639Y-94796211D01*
X186217994Y-94713996D01*
X186364501Y-94607553D01*
X186492553Y-94479501D01*
X186598996Y-94332994D01*
X186681211Y-94171639D01*
X186737171Y-93999409D01*
X186751400Y-93909573D01*
X186753527Y-93896144D01*
X186783456Y-93833009D01*
X186842768Y-93796078D01*
X186912631Y-93797076D01*
G37*
%TD.AperFunction*%
%TD*%
%TA.AperFunction,Conductor*%
%TO.N,GND*%
G36*
X147569366Y-87519685D02*
G01*
X147615121Y-87572489D01*
X147625065Y-87641647D01*
X147605428Y-87692892D01*
X147586132Y-87721768D01*
X147586131Y-87721770D01*
X147574500Y-87780247D01*
X147574500Y-89519752D01*
X147586131Y-89578229D01*
X147586132Y-89578230D01*
X147630447Y-89644552D01*
X147696769Y-89688867D01*
X147696770Y-89688868D01*
X147755247Y-89700499D01*
X147755250Y-89700500D01*
X149376000Y-89700500D01*
X149443039Y-89720185D01*
X149488794Y-89772989D01*
X149500000Y-89824500D01*
X149500000Y-90280368D01*
X149480315Y-90347407D01*
X149427511Y-90393162D01*
X149358353Y-90403106D01*
X149299789Y-90377305D01*
X149299721Y-90377408D01*
X149299139Y-90377019D01*
X149297343Y-90376228D01*
X149294659Y-90374025D01*
X149154489Y-90280368D01*
X149122598Y-90259059D01*
X148931420Y-90179870D01*
X148931412Y-90179868D01*
X148728469Y-90139500D01*
X148728465Y-90139500D01*
X148521535Y-90139500D01*
X148521530Y-90139500D01*
X148318587Y-90179868D01*
X148318579Y-90179870D01*
X148127403Y-90259058D01*
X147955342Y-90374024D01*
X147809024Y-90520342D01*
X147694058Y-90692403D01*
X147614870Y-90883579D01*
X147614868Y-90883587D01*
X147574500Y-91086530D01*
X147574500Y-91293469D01*
X147614868Y-91496412D01*
X147614870Y-91496420D01*
X147676045Y-91644110D01*
X147694059Y-91687598D01*
X147710393Y-91712044D01*
X147809024Y-91859657D01*
X147955342Y-92005975D01*
X147955345Y-92005977D01*
X148127402Y-92120941D01*
X148318580Y-92200130D01*
X148489400Y-92234108D01*
X148521530Y-92240499D01*
X148521534Y-92240500D01*
X148521535Y-92240500D01*
X148728466Y-92240500D01*
X148728467Y-92240499D01*
X148931420Y-92200130D01*
X149122598Y-92120941D01*
X149294655Y-92005977D01*
X149294658Y-92005974D01*
X149297335Y-92003778D01*
X149299011Y-92003065D01*
X149299721Y-92002592D01*
X149299810Y-92002726D01*
X149361645Y-91976465D01*
X149430513Y-91988256D01*
X149482073Y-92035408D01*
X149500000Y-92099631D01*
X149500000Y-92820368D01*
X149480315Y-92887407D01*
X149427511Y-92933162D01*
X149358353Y-92943106D01*
X149299789Y-92917305D01*
X149299721Y-92917408D01*
X149299139Y-92917019D01*
X149297343Y-92916228D01*
X149294659Y-92914025D01*
X149163505Y-92826392D01*
X149122598Y-92799059D01*
X149043733Y-92766392D01*
X148931420Y-92719870D01*
X148931412Y-92719868D01*
X148728469Y-92679500D01*
X148728465Y-92679500D01*
X148521535Y-92679500D01*
X148521530Y-92679500D01*
X148318587Y-92719868D01*
X148318579Y-92719870D01*
X148127403Y-92799058D01*
X147955342Y-92914024D01*
X147809024Y-93060342D01*
X147694058Y-93232403D01*
X147614870Y-93423579D01*
X147614868Y-93423587D01*
X147574500Y-93626530D01*
X147574500Y-93833469D01*
X147614868Y-94036412D01*
X147614870Y-94036420D01*
X147661709Y-94149500D01*
X147694059Y-94227598D01*
X147731818Y-94284108D01*
X147809024Y-94399657D01*
X147955342Y-94545975D01*
X147955345Y-94545977D01*
X148127402Y-94660941D01*
X148318580Y-94740130D01*
X148521530Y-94780499D01*
X148521534Y-94780500D01*
X148521535Y-94780500D01*
X148728466Y-94780500D01*
X148728467Y-94780499D01*
X148931420Y-94740130D01*
X149122598Y-94660941D01*
X149294655Y-94545977D01*
X149294658Y-94545974D01*
X149297335Y-94543778D01*
X149299011Y-94543065D01*
X149299721Y-94542592D01*
X149299810Y-94542726D01*
X149361645Y-94516465D01*
X149430513Y-94528256D01*
X149482073Y-94575408D01*
X149500000Y-94639631D01*
X149500000Y-95544196D01*
X149490942Y-95562291D01*
X149487294Y-95576366D01*
X149480972Y-95582207D01*
X149472471Y-95599191D01*
X149469398Y-95602376D01*
X149055728Y-96016045D01*
X149025099Y-95962993D01*
X148932007Y-95869901D01*
X148878953Y-95839270D01*
X149255235Y-95462987D01*
X149254101Y-95427527D01*
X149122368Y-95339505D01*
X149122358Y-95339500D01*
X148931274Y-95260350D01*
X148931266Y-95260348D01*
X148728420Y-95220000D01*
X148521579Y-95220000D01*
X148318733Y-95260348D01*
X148318725Y-95260350D01*
X148127636Y-95339502D01*
X148127635Y-95339502D01*
X147973961Y-95442183D01*
X147973961Y-95442185D01*
X148371046Y-95839270D01*
X148317993Y-95869901D01*
X148224901Y-95962993D01*
X148194270Y-96016046D01*
X147797185Y-95618961D01*
X147797183Y-95618961D01*
X147694502Y-95772635D01*
X147694502Y-95772636D01*
X147615350Y-95963725D01*
X147615348Y-95963733D01*
X147575000Y-96166579D01*
X147575000Y-96373420D01*
X147615348Y-96576266D01*
X147615350Y-96576274D01*
X147694500Y-96767358D01*
X147694505Y-96767368D01*
X147797185Y-96921037D01*
X148194270Y-96523952D01*
X148224901Y-96577007D01*
X148317993Y-96670099D01*
X148371046Y-96700729D01*
X147973961Y-97097814D01*
X148127640Y-97200499D01*
X148318725Y-97279649D01*
X148318733Y-97279651D01*
X148521579Y-97319999D01*
X148521583Y-97320000D01*
X148728417Y-97320000D01*
X148728420Y-97319999D01*
X148931266Y-97279651D01*
X148931274Y-97279649D01*
X149122359Y-97200499D01*
X149276038Y-97097814D01*
X148878953Y-96700729D01*
X148932007Y-96670099D01*
X149025099Y-96577007D01*
X149055729Y-96523953D01*
X149469398Y-96937622D01*
X149478972Y-96955156D01*
X149492591Y-96969778D01*
X149495375Y-96985196D01*
X149500000Y-96993665D01*
X149500000Y-97058173D01*
X149498119Y-97065548D01*
X149497899Y-97068636D01*
X149496287Y-97072735D01*
X149495459Y-97074735D01*
X149469822Y-97106560D01*
X149487857Y-97126638D01*
X149500000Y-97180155D01*
X149500000Y-97900368D01*
X149480315Y-97967407D01*
X149427511Y-98013162D01*
X149358353Y-98023106D01*
X149299789Y-97997305D01*
X149299721Y-97997408D01*
X149299139Y-97997019D01*
X149297343Y-97996228D01*
X149294659Y-97994025D01*
X149143742Y-97893187D01*
X149122598Y-97879059D01*
X149090810Y-97865892D01*
X148931420Y-97799870D01*
X148931412Y-97799868D01*
X148728469Y-97759500D01*
X148728465Y-97759500D01*
X148521535Y-97759500D01*
X148521530Y-97759500D01*
X148318587Y-97799868D01*
X148318579Y-97799870D01*
X148127403Y-97879058D01*
X147955342Y-97994024D01*
X147809410Y-98139956D01*
X147809405Y-98139962D01*
X147809023Y-98140345D01*
X147797862Y-98157048D01*
X147797674Y-98157327D01*
X147694058Y-98312403D01*
X147614870Y-98503579D01*
X147614868Y-98503587D01*
X147574500Y-98706530D01*
X147574500Y-98913469D01*
X147616058Y-99122395D01*
X147614031Y-99122798D01*
X147614569Y-99183248D01*
X147577318Y-99242360D01*
X147514023Y-99271948D01*
X147444779Y-99262620D01*
X147433286Y-99256759D01*
X147393189Y-99233609D01*
X147393186Y-99233608D01*
X147265892Y-99199500D01*
X147134108Y-99199500D01*
X147006812Y-99233608D01*
X146892686Y-99299500D01*
X146892683Y-99299502D01*
X146799502Y-99392683D01*
X146799500Y-99392686D01*
X146733608Y-99506812D01*
X146717644Y-99566392D01*
X146699500Y-99634108D01*
X146699500Y-99765892D01*
X146714033Y-99820129D01*
X146733608Y-99893187D01*
X146766554Y-99950250D01*
X146799500Y-100007314D01*
X146892686Y-100100500D01*
X147006814Y-100166392D01*
X147134108Y-100200500D01*
X147134110Y-100200500D01*
X147265890Y-100200500D01*
X147265892Y-100200500D01*
X147393186Y-100166392D01*
X147507314Y-100100500D01*
X147600500Y-100007314D01*
X147666392Y-99893186D01*
X147700500Y-99765892D01*
X147700500Y-99670495D01*
X147720185Y-99603456D01*
X147772989Y-99557701D01*
X147842147Y-99547757D01*
X147905703Y-99576782D01*
X147912181Y-99582814D01*
X147955342Y-99625975D01*
X147955345Y-99625977D01*
X148127402Y-99740941D01*
X148318580Y-99820130D01*
X148521530Y-99860499D01*
X148521534Y-99860500D01*
X148521535Y-99860500D01*
X148728466Y-99860500D01*
X148728467Y-99860499D01*
X148931420Y-99820130D01*
X149122598Y-99740941D01*
X149294655Y-99625977D01*
X149294658Y-99625974D01*
X149297335Y-99623778D01*
X149299011Y-99623065D01*
X149299721Y-99622592D01*
X149299810Y-99622726D01*
X149361645Y-99596465D01*
X149430513Y-99608256D01*
X149482073Y-99655408D01*
X149500000Y-99719631D01*
X149500000Y-100440368D01*
X149480315Y-100507407D01*
X149427511Y-100553162D01*
X149358353Y-100563106D01*
X149299789Y-100537305D01*
X149299721Y-100537408D01*
X149299139Y-100537019D01*
X149297343Y-100536228D01*
X149294659Y-100534025D01*
X149154489Y-100440368D01*
X149122598Y-100419059D01*
X148931420Y-100339870D01*
X148931412Y-100339868D01*
X148728469Y-100299500D01*
X148728465Y-100299500D01*
X148521535Y-100299500D01*
X148521530Y-100299500D01*
X148318587Y-100339868D01*
X148318579Y-100339870D01*
X148127403Y-100419058D01*
X147955342Y-100534024D01*
X147809024Y-100680342D01*
X147694058Y-100852403D01*
X147614870Y-101043579D01*
X147614868Y-101043587D01*
X147574500Y-101246530D01*
X147574500Y-101453469D01*
X147614868Y-101656412D01*
X147614870Y-101656420D01*
X147694058Y-101847596D01*
X147809024Y-102019657D01*
X147955342Y-102165975D01*
X147955345Y-102165977D01*
X148115364Y-102272898D01*
X148160170Y-102326509D01*
X148168877Y-102395834D01*
X148138723Y-102458862D01*
X148079280Y-102495582D01*
X148046474Y-102500000D01*
X129550095Y-102500000D01*
X129527583Y-102493389D01*
X129504220Y-102491202D01*
X129487607Y-102481651D01*
X129483056Y-102480315D01*
X129473622Y-102473611D01*
X129454796Y-102458862D01*
X129348426Y-102375526D01*
X129337218Y-102365596D01*
X129134403Y-102162781D01*
X129124473Y-102151573D01*
X129026389Y-102026377D01*
X129000540Y-101961464D01*
X129000000Y-101949904D01*
X129000000Y-99194999D01*
X129411149Y-99194999D01*
X129411150Y-99195000D01*
X129825758Y-99195000D01*
X129820444Y-99204204D01*
X129800000Y-99280504D01*
X129800000Y-99359496D01*
X129820444Y-99435796D01*
X129825758Y-99445000D01*
X129411150Y-99445000D01*
X129426899Y-99524176D01*
X129426901Y-99524184D01*
X129479664Y-99651566D01*
X129479671Y-99651579D01*
X129556275Y-99766226D01*
X129653773Y-99863724D01*
X129768420Y-99940328D01*
X129768433Y-99940335D01*
X129895813Y-99993097D01*
X129895823Y-99993100D01*
X130031053Y-100020000D01*
X130375000Y-100020000D01*
X130375000Y-99620000D01*
X130625000Y-99620000D01*
X130625000Y-100020000D01*
X130968946Y-100020000D01*
X131104176Y-99993100D01*
X131104186Y-99993097D01*
X131231566Y-99940335D01*
X131231579Y-99940328D01*
X131346226Y-99863724D01*
X131443724Y-99766226D01*
X131520328Y-99651579D01*
X131520335Y-99651566D01*
X131573098Y-99524184D01*
X131573100Y-99524176D01*
X131588850Y-99445000D01*
X131174242Y-99445000D01*
X131179556Y-99435796D01*
X131200000Y-99359496D01*
X131200000Y-99280504D01*
X131179556Y-99204204D01*
X131174242Y-99195000D01*
X131588850Y-99195000D01*
X131588850Y-99194999D01*
X133441149Y-99194999D01*
X133441150Y-99195000D01*
X133855758Y-99195000D01*
X133850444Y-99204204D01*
X133830000Y-99280504D01*
X133830000Y-99359496D01*
X133850444Y-99435796D01*
X133855758Y-99445000D01*
X133441150Y-99445000D01*
X133456899Y-99524176D01*
X133456901Y-99524184D01*
X133509664Y-99651566D01*
X133509671Y-99651579D01*
X133586275Y-99766226D01*
X133683773Y-99863724D01*
X133798420Y-99940328D01*
X133798433Y-99940335D01*
X133925813Y-99993097D01*
X133925823Y-99993100D01*
X134061053Y-100020000D01*
X134555000Y-100020000D01*
X134555000Y-99620000D01*
X134805000Y-99620000D01*
X134805000Y-100020000D01*
X135298946Y-100020000D01*
X135434176Y-99993100D01*
X135434186Y-99993097D01*
X135561566Y-99940335D01*
X135561579Y-99940328D01*
X135676226Y-99863724D01*
X135773724Y-99766226D01*
X135850328Y-99651579D01*
X135850335Y-99651566D01*
X135903098Y-99524184D01*
X135903100Y-99524176D01*
X135918850Y-99445000D01*
X135504242Y-99445000D01*
X135509556Y-99435796D01*
X135530000Y-99359496D01*
X135530000Y-99280504D01*
X135509556Y-99204204D01*
X135504242Y-99195000D01*
X135918850Y-99195000D01*
X135918849Y-99194999D01*
X135909933Y-99150173D01*
X135909933Y-99150172D01*
X135906738Y-99134108D01*
X136699500Y-99134108D01*
X136699500Y-99265891D01*
X136733608Y-99393187D01*
X136741766Y-99407316D01*
X136799500Y-99507314D01*
X136892686Y-99600500D01*
X137006814Y-99666392D01*
X137134108Y-99700500D01*
X137134110Y-99700500D01*
X137265890Y-99700500D01*
X137265892Y-99700500D01*
X137393186Y-99666392D01*
X137507314Y-99600500D01*
X137600500Y-99507314D01*
X137666392Y-99393186D01*
X137700500Y-99265892D01*
X137700500Y-99134108D01*
X137673705Y-99034108D01*
X141299500Y-99034108D01*
X141299500Y-99165892D01*
X141308505Y-99199500D01*
X141333608Y-99293187D01*
X141366554Y-99350250D01*
X141399500Y-99407314D01*
X141492686Y-99500500D01*
X141606814Y-99566392D01*
X141734108Y-99600500D01*
X141734110Y-99600500D01*
X141865890Y-99600500D01*
X141865892Y-99600500D01*
X141993186Y-99566392D01*
X142107314Y-99500500D01*
X142200500Y-99407314D01*
X142266392Y-99293186D01*
X142300500Y-99165892D01*
X142300500Y-99034108D01*
X142266392Y-98906814D01*
X142200500Y-98792686D01*
X142107314Y-98699500D01*
X142015833Y-98646683D01*
X141993187Y-98633608D01*
X141888508Y-98605560D01*
X141865892Y-98599500D01*
X141734108Y-98599500D01*
X141606812Y-98633608D01*
X141492686Y-98699500D01*
X141492683Y-98699502D01*
X141399502Y-98792683D01*
X141399500Y-98792686D01*
X141333608Y-98906812D01*
X141311742Y-98988420D01*
X141299500Y-99034108D01*
X137673705Y-99034108D01*
X137666392Y-99006814D01*
X137600500Y-98892686D01*
X137507314Y-98799500D01*
X137450250Y-98766554D01*
X137393187Y-98733608D01*
X137292147Y-98706535D01*
X137265892Y-98699500D01*
X137134108Y-98699500D01*
X137006812Y-98733608D01*
X136892686Y-98799500D01*
X136892683Y-98799502D01*
X136799502Y-98892683D01*
X136799500Y-98892686D01*
X136733608Y-99006812D01*
X136699500Y-99134108D01*
X135906738Y-99134108D01*
X135903101Y-99115824D01*
X135903098Y-99115815D01*
X135850335Y-98988433D01*
X135850328Y-98988420D01*
X135773724Y-98873773D01*
X135676226Y-98776275D01*
X135561579Y-98699671D01*
X135561566Y-98699664D01*
X135434186Y-98646902D01*
X135434176Y-98646899D01*
X135298946Y-98620000D01*
X134805000Y-98620000D01*
X134805000Y-99020000D01*
X134555000Y-99020000D01*
X134555000Y-98620000D01*
X134529378Y-98620000D01*
X134462339Y-98600315D01*
X134416584Y-98547511D01*
X134406640Y-98478353D01*
X134435665Y-98414797D01*
X134467378Y-98388613D01*
X134495142Y-98372582D01*
X134533365Y-98350515D01*
X134640515Y-98243365D01*
X134716281Y-98112135D01*
X134755500Y-97965766D01*
X134755500Y-97814234D01*
X134734031Y-97734108D01*
X143699500Y-97734108D01*
X143699500Y-97865891D01*
X143733608Y-97993187D01*
X143745141Y-98013162D01*
X143799500Y-98107314D01*
X143892686Y-98200500D01*
X144006814Y-98266392D01*
X144134108Y-98300500D01*
X144134110Y-98300500D01*
X144265890Y-98300500D01*
X144265892Y-98300500D01*
X144393186Y-98266392D01*
X144507314Y-98200500D01*
X144600500Y-98107314D01*
X144666392Y-97993186D01*
X144700500Y-97865892D01*
X144700500Y-97734108D01*
X144673705Y-97634108D01*
X146699500Y-97634108D01*
X146699500Y-97765891D01*
X146733608Y-97893187D01*
X146766554Y-97950250D01*
X146799500Y-98007314D01*
X146892686Y-98100500D01*
X147006814Y-98166392D01*
X147134108Y-98200500D01*
X147134110Y-98200500D01*
X147265890Y-98200500D01*
X147265892Y-98200500D01*
X147393186Y-98166392D01*
X147507314Y-98100500D01*
X147600500Y-98007314D01*
X147666392Y-97893186D01*
X147700500Y-97765892D01*
X147700500Y-97634108D01*
X147666392Y-97506814D01*
X147600500Y-97392686D01*
X147507314Y-97299500D01*
X147450250Y-97266554D01*
X147393187Y-97233608D01*
X147329539Y-97216554D01*
X147265892Y-97199500D01*
X147134108Y-97199500D01*
X147006812Y-97233608D01*
X146892686Y-97299500D01*
X146892683Y-97299502D01*
X146799502Y-97392683D01*
X146799500Y-97392686D01*
X146733608Y-97506812D01*
X146699500Y-97634108D01*
X144673705Y-97634108D01*
X144666392Y-97606814D01*
X144600500Y-97492686D01*
X144507314Y-97399500D01*
X144449968Y-97366391D01*
X144393187Y-97333608D01*
X144321873Y-97314500D01*
X144265892Y-97299500D01*
X144134108Y-97299500D01*
X144006812Y-97333608D01*
X143892686Y-97399500D01*
X143892683Y-97399502D01*
X143799502Y-97492683D01*
X143799500Y-97492686D01*
X143733608Y-97606812D01*
X143699500Y-97734108D01*
X134734031Y-97734108D01*
X134716281Y-97667865D01*
X134640515Y-97536635D01*
X134533365Y-97429485D01*
X134467750Y-97391602D01*
X134402136Y-97353719D01*
X134327079Y-97333608D01*
X134255766Y-97314500D01*
X134104234Y-97314500D01*
X133957863Y-97353719D01*
X133826635Y-97429485D01*
X133826632Y-97429487D01*
X133719487Y-97536632D01*
X133719485Y-97536635D01*
X133643719Y-97667863D01*
X133617453Y-97765891D01*
X133604500Y-97814234D01*
X133604500Y-97965766D01*
X133617200Y-98013162D01*
X133643719Y-98112136D01*
X133660006Y-98140345D01*
X133719485Y-98243365D01*
X133826635Y-98350515D01*
X133916184Y-98402216D01*
X133949620Y-98421521D01*
X133997836Y-98472088D01*
X134011058Y-98540695D01*
X133985090Y-98605560D01*
X133931185Y-98643944D01*
X133931445Y-98644570D01*
X133928726Y-98645696D01*
X133928176Y-98646088D01*
X133926342Y-98646683D01*
X133798433Y-98699664D01*
X133798420Y-98699671D01*
X133683773Y-98776275D01*
X133586275Y-98873773D01*
X133509671Y-98988420D01*
X133509664Y-98988433D01*
X133456901Y-99115815D01*
X133456899Y-99115823D01*
X133441149Y-99194999D01*
X131588850Y-99194999D01*
X131573100Y-99115823D01*
X131573098Y-99115815D01*
X131520335Y-98988433D01*
X131520328Y-98988420D01*
X131443724Y-98873773D01*
X131346226Y-98776275D01*
X131231579Y-98699671D01*
X131231566Y-98699664D01*
X131104186Y-98646902D01*
X131104176Y-98646899D01*
X130968946Y-98620000D01*
X130625000Y-98620000D01*
X130625000Y-99020000D01*
X130375000Y-99020000D01*
X130375000Y-98620000D01*
X130031054Y-98620000D01*
X129895823Y-98646899D01*
X129895813Y-98646902D01*
X129768433Y-98699664D01*
X129768420Y-98699671D01*
X129653773Y-98776275D01*
X129556275Y-98873773D01*
X129479671Y-98988420D01*
X129479664Y-98988433D01*
X129426901Y-99115815D01*
X129426899Y-99115823D01*
X129411149Y-99194999D01*
X129000000Y-99194999D01*
X129000000Y-96834108D01*
X135899500Y-96834108D01*
X135899500Y-96965892D01*
X135904993Y-96986391D01*
X135933608Y-97093187D01*
X135966554Y-97150250D01*
X135999500Y-97207314D01*
X136092686Y-97300500D01*
X136206814Y-97366392D01*
X136334108Y-97400500D01*
X136334110Y-97400500D01*
X136465890Y-97400500D01*
X136465892Y-97400500D01*
X136593186Y-97366392D01*
X136707314Y-97300500D01*
X136800500Y-97207314D01*
X136866392Y-97093186D01*
X136895333Y-96985175D01*
X136931697Y-96925516D01*
X136994543Y-96894987D01*
X137063919Y-96903281D01*
X137090594Y-96918894D01*
X137092681Y-96920495D01*
X137092686Y-96920500D01*
X137172173Y-96966392D01*
X137204709Y-96985177D01*
X137206814Y-96986392D01*
X137334108Y-97020500D01*
X137334110Y-97020500D01*
X137465890Y-97020500D01*
X137465892Y-97020500D01*
X137593186Y-96986392D01*
X137707314Y-96920500D01*
X137800500Y-96827314D01*
X137866392Y-96713186D01*
X137900500Y-96585892D01*
X137900500Y-96454108D01*
X137895141Y-96434108D01*
X145599500Y-96434108D01*
X145599500Y-96565892D01*
X145616554Y-96629539D01*
X145633608Y-96693187D01*
X145658283Y-96735925D01*
X145699500Y-96807314D01*
X145792686Y-96900500D01*
X145906814Y-96966392D01*
X146034108Y-97000500D01*
X146034110Y-97000500D01*
X146165890Y-97000500D01*
X146165892Y-97000500D01*
X146293186Y-96966392D01*
X146407314Y-96900500D01*
X146500500Y-96807314D01*
X146566392Y-96693186D01*
X146600500Y-96565892D01*
X146600500Y-96434108D01*
X146566392Y-96306814D01*
X146562745Y-96300497D01*
X146517709Y-96222492D01*
X146517708Y-96222490D01*
X146500503Y-96192692D01*
X146500500Y-96192686D01*
X146407314Y-96099500D01*
X146322439Y-96050497D01*
X146293187Y-96033608D01*
X146229539Y-96016554D01*
X146165892Y-95999500D01*
X146034108Y-95999500D01*
X145906812Y-96033608D01*
X145792686Y-96099500D01*
X145792683Y-96099502D01*
X145699502Y-96192683D01*
X145699500Y-96192686D01*
X145633608Y-96306812D01*
X145617644Y-96366392D01*
X145599500Y-96434108D01*
X137895141Y-96434108D01*
X137866392Y-96326814D01*
X137800500Y-96212686D01*
X137707314Y-96119500D01*
X137633714Y-96077007D01*
X137593187Y-96053608D01*
X137566098Y-96046349D01*
X137533295Y-96037560D01*
X137529054Y-96034975D01*
X137524094Y-96034708D01*
X137499514Y-96016969D01*
X137473635Y-96001196D01*
X137471464Y-95996728D01*
X137467436Y-95993821D01*
X137456348Y-95965609D01*
X137443106Y-95938349D01*
X137443695Y-95933416D01*
X137441879Y-95928794D01*
X137447802Y-95899067D01*
X137451401Y-95868974D01*
X137454828Y-95863813D01*
X137455534Y-95860271D01*
X137472602Y-95837049D01*
X137474556Y-95834108D01*
X142699500Y-95834108D01*
X142699500Y-95965892D01*
X142708505Y-95999500D01*
X142733608Y-96093187D01*
X142760575Y-96139894D01*
X142799500Y-96207314D01*
X142892686Y-96300500D01*
X142991521Y-96357563D01*
X143006810Y-96366390D01*
X143006814Y-96366392D01*
X143134108Y-96400500D01*
X143134110Y-96400500D01*
X143265890Y-96400500D01*
X143265892Y-96400500D01*
X143393186Y-96366392D01*
X143507314Y-96300500D01*
X143600500Y-96207314D01*
X143666392Y-96093186D01*
X143700500Y-95965892D01*
X143700500Y-95834108D01*
X143666392Y-95706814D01*
X143600500Y-95592686D01*
X143507314Y-95499500D01*
X143433380Y-95456814D01*
X143393187Y-95433608D01*
X143329539Y-95416554D01*
X143265892Y-95399500D01*
X143134108Y-95399500D01*
X143006812Y-95433608D01*
X142892686Y-95499500D01*
X142892683Y-95499502D01*
X142799502Y-95592683D01*
X142799500Y-95592686D01*
X142733608Y-95706812D01*
X142715971Y-95772635D01*
X142699500Y-95834108D01*
X137474556Y-95834108D01*
X137476188Y-95831651D01*
X137476890Y-95830923D01*
X137550500Y-95757314D01*
X137616392Y-95643186D01*
X137650500Y-95515892D01*
X137650500Y-95384108D01*
X137616392Y-95256814D01*
X137603283Y-95234108D01*
X145999500Y-95234108D01*
X145999500Y-95365892D01*
X146008505Y-95399500D01*
X146033608Y-95493187D01*
X146046717Y-95515892D01*
X146099500Y-95607314D01*
X146192686Y-95700500D01*
X146306814Y-95766392D01*
X146434108Y-95800500D01*
X146434110Y-95800500D01*
X146565890Y-95800500D01*
X146565892Y-95800500D01*
X146693186Y-95766392D01*
X146807314Y-95700500D01*
X146900500Y-95607314D01*
X146966392Y-95493186D01*
X147000500Y-95365892D01*
X147000500Y-95234108D01*
X146966392Y-95106814D01*
X146900500Y-94992686D01*
X146807314Y-94899500D01*
X146750250Y-94866554D01*
X146693187Y-94833608D01*
X146628931Y-94816391D01*
X146565892Y-94799500D01*
X146434108Y-94799500D01*
X146306812Y-94833608D01*
X146192686Y-94899500D01*
X146192683Y-94899502D01*
X146099502Y-94992683D01*
X146099500Y-94992686D01*
X146033608Y-95106812D01*
X146023997Y-95142683D01*
X145999500Y-95234108D01*
X137603283Y-95234108D01*
X137550500Y-95142686D01*
X137495495Y-95087681D01*
X137462010Y-95026358D01*
X137466994Y-94956666D01*
X137495495Y-94912319D01*
X137508314Y-94899500D01*
X137550500Y-94857314D01*
X137616392Y-94743186D01*
X137650500Y-94615892D01*
X137650500Y-94484108D01*
X137637103Y-94434108D01*
X142799500Y-94434108D01*
X142799500Y-94565891D01*
X142833608Y-94693187D01*
X142860711Y-94740129D01*
X142899500Y-94807314D01*
X142992686Y-94900500D01*
X143106814Y-94966392D01*
X143234108Y-95000500D01*
X143234110Y-95000500D01*
X143365890Y-95000500D01*
X143365892Y-95000500D01*
X143493186Y-94966392D01*
X143607314Y-94900500D01*
X143700500Y-94807314D01*
X143766392Y-94693186D01*
X143800500Y-94565892D01*
X143800500Y-94434108D01*
X143766392Y-94306814D01*
X143700500Y-94192686D01*
X143607314Y-94099500D01*
X143508910Y-94042686D01*
X143493187Y-94033608D01*
X143429539Y-94016554D01*
X143365892Y-93999500D01*
X143234108Y-93999500D01*
X143106812Y-94033608D01*
X142992686Y-94099500D01*
X142992683Y-94099502D01*
X142899502Y-94192683D01*
X142899500Y-94192686D01*
X142833608Y-94306812D01*
X142799500Y-94434108D01*
X137637103Y-94434108D01*
X137616392Y-94356814D01*
X137550500Y-94242686D01*
X137457314Y-94149500D01*
X137400250Y-94116554D01*
X137343187Y-94083608D01*
X137279539Y-94066554D01*
X137215892Y-94049500D01*
X137084108Y-94049500D01*
X136956812Y-94083608D01*
X136842686Y-94149500D01*
X136842683Y-94149502D01*
X136749502Y-94242683D01*
X136749500Y-94242686D01*
X136683608Y-94356812D01*
X136667778Y-94415892D01*
X136649500Y-94484108D01*
X136649500Y-94615892D01*
X136661571Y-94660941D01*
X136683608Y-94743187D01*
X136705151Y-94780499D01*
X136749500Y-94857314D01*
X136749502Y-94857316D01*
X136804505Y-94912319D01*
X136837990Y-94973642D01*
X136833006Y-95043334D01*
X136804505Y-95087681D01*
X136749502Y-95142683D01*
X136749500Y-95142686D01*
X136683608Y-95256812D01*
X136661452Y-95339502D01*
X136649500Y-95384108D01*
X136649500Y-95515892D01*
X136665704Y-95576366D01*
X136683608Y-95643187D01*
X136716554Y-95700250D01*
X136749500Y-95757314D01*
X136842686Y-95850500D01*
X136956814Y-95916392D01*
X137016704Y-95932439D01*
X137076363Y-95968802D01*
X137106893Y-96031649D01*
X137098599Y-96101024D01*
X137072292Y-96139894D01*
X136999500Y-96212686D01*
X136933608Y-96326814D01*
X136923003Y-96366392D01*
X136904667Y-96434823D01*
X136868301Y-96494483D01*
X136805454Y-96525012D01*
X136736079Y-96516717D01*
X136709407Y-96501106D01*
X136707316Y-96499502D01*
X136707314Y-96499500D01*
X136639503Y-96460349D01*
X136593187Y-96433608D01*
X136529539Y-96416554D01*
X136465892Y-96399500D01*
X136334108Y-96399500D01*
X136206812Y-96433608D01*
X136092686Y-96499500D01*
X136092683Y-96499502D01*
X135999502Y-96592683D01*
X135999500Y-96592686D01*
X135933608Y-96706812D01*
X135906680Y-96807313D01*
X135899500Y-96834108D01*
X129000000Y-96834108D01*
X129000000Y-95584108D01*
X133199500Y-95584108D01*
X133199500Y-95715892D01*
X133213031Y-95766391D01*
X133233608Y-95843187D01*
X133249032Y-95869901D01*
X133299500Y-95957314D01*
X133392686Y-96050500D01*
X133506814Y-96116392D01*
X133634108Y-96150500D01*
X133634110Y-96150500D01*
X133765890Y-96150500D01*
X133765892Y-96150500D01*
X133893186Y-96116392D01*
X134007314Y-96050500D01*
X134100500Y-95957314D01*
X134166392Y-95843186D01*
X134200500Y-95715892D01*
X134200500Y-95584108D01*
X134166392Y-95456814D01*
X134100500Y-95342686D01*
X134007314Y-95249500D01*
X133950250Y-95216554D01*
X133893187Y-95183608D01*
X133829539Y-95166554D01*
X133765892Y-95149500D01*
X133634108Y-95149500D01*
X133506812Y-95183608D01*
X133392686Y-95249500D01*
X133392683Y-95249502D01*
X133299502Y-95342683D01*
X133299500Y-95342686D01*
X133233608Y-95456812D01*
X133217778Y-95515892D01*
X133199500Y-95584108D01*
X129000000Y-95584108D01*
X129000000Y-94284108D01*
X133199500Y-94284108D01*
X133199500Y-94415892D01*
X133210803Y-94458074D01*
X133233608Y-94543187D01*
X133246717Y-94565892D01*
X133299500Y-94657314D01*
X133392686Y-94750500D01*
X133506814Y-94816392D01*
X133634108Y-94850500D01*
X133634110Y-94850500D01*
X133765890Y-94850500D01*
X133765892Y-94850500D01*
X133893186Y-94816392D01*
X134007314Y-94750500D01*
X134100500Y-94657314D01*
X134166392Y-94543186D01*
X134200500Y-94415892D01*
X134200500Y-94284108D01*
X134166392Y-94156814D01*
X134100500Y-94042686D01*
X134007314Y-93949500D01*
X133950250Y-93916554D01*
X133893187Y-93883608D01*
X133829539Y-93866554D01*
X133765892Y-93849500D01*
X133634108Y-93849500D01*
X133506812Y-93883608D01*
X133392686Y-93949500D01*
X133392683Y-93949502D01*
X133299502Y-94042683D01*
X133299500Y-94042686D01*
X133233608Y-94156812D01*
X133210600Y-94242683D01*
X133199500Y-94284108D01*
X129000000Y-94284108D01*
X129000000Y-90554999D01*
X129411149Y-90554999D01*
X129411150Y-90555000D01*
X129825758Y-90555000D01*
X129820444Y-90564204D01*
X129800000Y-90640504D01*
X129800000Y-90719496D01*
X129820444Y-90795796D01*
X129825758Y-90805000D01*
X129411150Y-90805000D01*
X129426899Y-90884176D01*
X129426901Y-90884184D01*
X129479664Y-91011566D01*
X129479671Y-91011579D01*
X129556275Y-91126226D01*
X129653773Y-91223724D01*
X129768420Y-91300328D01*
X129768433Y-91300335D01*
X129895813Y-91353097D01*
X129895823Y-91353100D01*
X130031053Y-91380000D01*
X130375000Y-91380000D01*
X130375000Y-90980000D01*
X130625000Y-90980000D01*
X130625000Y-91380000D01*
X130968946Y-91380000D01*
X131104176Y-91353100D01*
X131104186Y-91353097D01*
X131231566Y-91300335D01*
X131231579Y-91300328D01*
X131346226Y-91223724D01*
X131443724Y-91126226D01*
X131520328Y-91011579D01*
X131520335Y-91011566D01*
X131573098Y-90884184D01*
X131573100Y-90884176D01*
X131588850Y-90805000D01*
X131174242Y-90805000D01*
X131179556Y-90795796D01*
X131200000Y-90719496D01*
X131200000Y-90640504D01*
X131179556Y-90564204D01*
X131174242Y-90555000D01*
X131588850Y-90555000D01*
X131588850Y-90554999D01*
X133441149Y-90554999D01*
X133441150Y-90555000D01*
X133855758Y-90555000D01*
X133850444Y-90564204D01*
X133830000Y-90640504D01*
X133830000Y-90719496D01*
X133850444Y-90795796D01*
X133855758Y-90805000D01*
X133441150Y-90805000D01*
X133456899Y-90884176D01*
X133456901Y-90884184D01*
X133509664Y-91011566D01*
X133509671Y-91011579D01*
X133586275Y-91126226D01*
X133683773Y-91223724D01*
X133798420Y-91300328D01*
X133798433Y-91300335D01*
X133931445Y-91355430D01*
X133930750Y-91357107D01*
X133982049Y-91390722D01*
X134010509Y-91454533D01*
X133999953Y-91523600D01*
X133953732Y-91575997D01*
X133949621Y-91578478D01*
X133826635Y-91649485D01*
X133826632Y-91649487D01*
X133719487Y-91756632D01*
X133719485Y-91756635D01*
X133643719Y-91887863D01*
X133612072Y-92005974D01*
X133604500Y-92034234D01*
X133604500Y-92185766D01*
X133619166Y-92240500D01*
X133643719Y-92332136D01*
X133678677Y-92392683D01*
X133719485Y-92463365D01*
X133826635Y-92570515D01*
X133957865Y-92646281D01*
X134104234Y-92685500D01*
X134104236Y-92685500D01*
X134255764Y-92685500D01*
X134255766Y-92685500D01*
X134402135Y-92646281D01*
X134423219Y-92634108D01*
X135899500Y-92634108D01*
X135899500Y-92765891D01*
X135933608Y-92893187D01*
X135956688Y-92933162D01*
X135999500Y-93007314D01*
X136092686Y-93100500D01*
X136206814Y-93166392D01*
X136334108Y-93200500D01*
X136334110Y-93200500D01*
X136465890Y-93200500D01*
X136465892Y-93200500D01*
X136593186Y-93166392D01*
X136707314Y-93100500D01*
X136800500Y-93007314D01*
X136866392Y-92893186D01*
X136900500Y-92765892D01*
X136900500Y-92634108D01*
X136866392Y-92506814D01*
X136800500Y-92392686D01*
X136707314Y-92299500D01*
X136650250Y-92266554D01*
X136593187Y-92233608D01*
X136493188Y-92206814D01*
X136465892Y-92199500D01*
X136334108Y-92199500D01*
X136206812Y-92233608D01*
X136092686Y-92299500D01*
X136092683Y-92299502D01*
X135999502Y-92392683D01*
X135999500Y-92392686D01*
X135933608Y-92506812D01*
X135899500Y-92634108D01*
X134423219Y-92634108D01*
X134533365Y-92570515D01*
X134640515Y-92463365D01*
X134716281Y-92332135D01*
X134755500Y-92185766D01*
X134755500Y-92034234D01*
X134716281Y-91887865D01*
X134709141Y-91875499D01*
X134699904Y-91859500D01*
X134640515Y-91756635D01*
X134533365Y-91649485D01*
X134524052Y-91644108D01*
X138509500Y-91644108D01*
X138509500Y-91775891D01*
X138543608Y-91903187D01*
X138561172Y-91933608D01*
X138609500Y-92017314D01*
X138702686Y-92110500D01*
X138816814Y-92176392D01*
X138944108Y-92210500D01*
X138944110Y-92210500D01*
X139075890Y-92210500D01*
X139075892Y-92210500D01*
X139203186Y-92176392D01*
X139317314Y-92110500D01*
X139410500Y-92017314D01*
X139476392Y-91903186D01*
X139510500Y-91775892D01*
X139510500Y-91644108D01*
X139476392Y-91516814D01*
X139410500Y-91402686D01*
X139317314Y-91309500D01*
X139316633Y-91309107D01*
X140399500Y-91309107D01*
X140399500Y-91440891D01*
X140408390Y-91474070D01*
X140433608Y-91568186D01*
X140452569Y-91601026D01*
X140499500Y-91682313D01*
X140592686Y-91775499D01*
X140670235Y-91820272D01*
X140702523Y-91838914D01*
X140750738Y-91889482D01*
X140763960Y-91958089D01*
X140737992Y-92022953D01*
X140728205Y-92033980D01*
X140709503Y-92052682D01*
X140709500Y-92052686D01*
X140643608Y-92166812D01*
X140631902Y-92210500D01*
X140609500Y-92294108D01*
X140609500Y-92425892D01*
X140619541Y-92463365D01*
X140643608Y-92553187D01*
X140674858Y-92607313D01*
X140709500Y-92667314D01*
X140802686Y-92760500D01*
X140916814Y-92826392D01*
X141044108Y-92860500D01*
X141044110Y-92860500D01*
X141175890Y-92860500D01*
X141175892Y-92860500D01*
X141303186Y-92826392D01*
X141417314Y-92760500D01*
X141510500Y-92667314D01*
X141576392Y-92553186D01*
X141610500Y-92425892D01*
X141610500Y-92334108D01*
X144699500Y-92334108D01*
X144699500Y-92465891D01*
X144733608Y-92593187D01*
X144764262Y-92646280D01*
X144799500Y-92707314D01*
X144892686Y-92800500D01*
X145006814Y-92866392D01*
X145134108Y-92900500D01*
X145134110Y-92900500D01*
X145265890Y-92900500D01*
X145265892Y-92900500D01*
X145393186Y-92866392D01*
X145507314Y-92800500D01*
X145600500Y-92707314D01*
X145666392Y-92593186D01*
X145700500Y-92465892D01*
X145700500Y-92334108D01*
X145673705Y-92234108D01*
X145999500Y-92234108D01*
X145999500Y-92365892D01*
X146015576Y-92425890D01*
X146033608Y-92493187D01*
X146041475Y-92506812D01*
X146099500Y-92607314D01*
X146192686Y-92700500D01*
X146291521Y-92757563D01*
X146305944Y-92765890D01*
X146306814Y-92766392D01*
X146434108Y-92800500D01*
X146434110Y-92800500D01*
X146565890Y-92800500D01*
X146565892Y-92800500D01*
X146693186Y-92766392D01*
X146807314Y-92700500D01*
X146900500Y-92607314D01*
X146966392Y-92493186D01*
X147000500Y-92365892D01*
X147000500Y-92234108D01*
X146966392Y-92106814D01*
X146900500Y-91992686D01*
X146807314Y-91899500D01*
X146738032Y-91859500D01*
X146693187Y-91833608D01*
X146629539Y-91816554D01*
X146565892Y-91799500D01*
X146434108Y-91799500D01*
X146306812Y-91833608D01*
X146192686Y-91899500D01*
X146192683Y-91899502D01*
X146099502Y-91992683D01*
X146099500Y-91992686D01*
X146033608Y-92106812D01*
X146008604Y-92200130D01*
X145999500Y-92234108D01*
X145673705Y-92234108D01*
X145666392Y-92206814D01*
X145600500Y-92092686D01*
X145507314Y-91999500D01*
X145435588Y-91958089D01*
X145393187Y-91933608D01*
X145329539Y-91916554D01*
X145265892Y-91899500D01*
X145134108Y-91899500D01*
X145006812Y-91933608D01*
X144892686Y-91999500D01*
X144892683Y-91999502D01*
X144799502Y-92092683D01*
X144799500Y-92092686D01*
X144733608Y-92206812D01*
X144699500Y-92334108D01*
X141610500Y-92334108D01*
X141610500Y-92294108D01*
X141576392Y-92166814D01*
X141510500Y-92052686D01*
X141417314Y-91959500D01*
X141372468Y-91933608D01*
X141307476Y-91896084D01*
X141259261Y-91845516D01*
X141246039Y-91776909D01*
X141272007Y-91712044D01*
X141281790Y-91701022D01*
X141300500Y-91682313D01*
X141366392Y-91568185D01*
X141400500Y-91440891D01*
X141400500Y-91309107D01*
X141366392Y-91181813D01*
X141300500Y-91067685D01*
X141207314Y-90974499D01*
X141150250Y-90941553D01*
X141093187Y-90908607D01*
X140999779Y-90883579D01*
X140965892Y-90874499D01*
X140834108Y-90874499D01*
X140706812Y-90908607D01*
X140592686Y-90974499D01*
X140592683Y-90974501D01*
X140499502Y-91067682D01*
X140499500Y-91067685D01*
X140433608Y-91181811D01*
X140426189Y-91209500D01*
X140399500Y-91309107D01*
X139316633Y-91309107D01*
X139260250Y-91276554D01*
X139203187Y-91243608D01*
X139128977Y-91223724D01*
X139075892Y-91209500D01*
X138944108Y-91209500D01*
X138816812Y-91243608D01*
X138702686Y-91309500D01*
X138702683Y-91309502D01*
X138609502Y-91402683D01*
X138609500Y-91402686D01*
X138543608Y-91516812D01*
X138509500Y-91644108D01*
X134524052Y-91644108D01*
X134459384Y-91606772D01*
X134452164Y-91601026D01*
X134437159Y-91579694D01*
X134419162Y-91560820D01*
X134417380Y-91551577D01*
X134411965Y-91543878D01*
X134410874Y-91517817D01*
X134405940Y-91492213D01*
X134409437Y-91483476D01*
X134409044Y-91474070D01*
X134422215Y-91451557D01*
X134431908Y-91427348D01*
X134439575Y-91421887D01*
X134444329Y-91413764D01*
X134467578Y-91401947D01*
X134488822Y-91386820D01*
X134501554Y-91384678D01*
X134506615Y-91382107D01*
X134513000Y-91382754D01*
X134529378Y-91380000D01*
X134555000Y-91380000D01*
X134555000Y-90980000D01*
X134805000Y-90980000D01*
X134805000Y-91380000D01*
X135298946Y-91380000D01*
X135434176Y-91353100D01*
X135434186Y-91353097D01*
X135561566Y-91300335D01*
X135561579Y-91300328D01*
X135676226Y-91223724D01*
X135773724Y-91126226D01*
X135850328Y-91011579D01*
X135850335Y-91011566D01*
X135903098Y-90884184D01*
X135903100Y-90884176D01*
X135918850Y-90805000D01*
X135504242Y-90805000D01*
X135509556Y-90795796D01*
X135530000Y-90719496D01*
X135530000Y-90640504D01*
X135509556Y-90564204D01*
X135504242Y-90555000D01*
X135918850Y-90555000D01*
X135918850Y-90554999D01*
X135903100Y-90475823D01*
X135903098Y-90475815D01*
X135850335Y-90348433D01*
X135850328Y-90348420D01*
X135773724Y-90233773D01*
X135676226Y-90136275D01*
X135561579Y-90059671D01*
X135561566Y-90059664D01*
X135434186Y-90006902D01*
X135434176Y-90006899D01*
X135298946Y-89980000D01*
X134805000Y-89980000D01*
X134805000Y-90380000D01*
X134555000Y-90380000D01*
X134555000Y-89980000D01*
X134061054Y-89980000D01*
X133925823Y-90006899D01*
X133925813Y-90006902D01*
X133798433Y-90059664D01*
X133798420Y-90059671D01*
X133683773Y-90136275D01*
X133586275Y-90233773D01*
X133509671Y-90348420D01*
X133509664Y-90348433D01*
X133456901Y-90475815D01*
X133456899Y-90475823D01*
X133441149Y-90554999D01*
X131588850Y-90554999D01*
X131573100Y-90475823D01*
X131573098Y-90475815D01*
X131520335Y-90348433D01*
X131520328Y-90348420D01*
X131443724Y-90233773D01*
X131346226Y-90136275D01*
X131231579Y-90059671D01*
X131231566Y-90059664D01*
X131104186Y-90006902D01*
X131104176Y-90006899D01*
X130968946Y-89980000D01*
X130625000Y-89980000D01*
X130625000Y-90380000D01*
X130375000Y-90380000D01*
X130375000Y-89980000D01*
X130031054Y-89980000D01*
X129895823Y-90006899D01*
X129895813Y-90006902D01*
X129768433Y-90059664D01*
X129768420Y-90059671D01*
X129653773Y-90136275D01*
X129556275Y-90233773D01*
X129479671Y-90348420D01*
X129479664Y-90348433D01*
X129426901Y-90475815D01*
X129426899Y-90475823D01*
X129411149Y-90554999D01*
X129000000Y-90554999D01*
X129000000Y-88050094D01*
X129019685Y-87983055D01*
X129026378Y-87973635D01*
X129124480Y-87848417D01*
X129134395Y-87837226D01*
X129337226Y-87634395D01*
X129348417Y-87624480D01*
X129473622Y-87526388D01*
X129538535Y-87500540D01*
X129550095Y-87500000D01*
X147502327Y-87500000D01*
X147569366Y-87519685D01*
G37*
%TD.AperFunction*%
%TD*%
M02*
