%TF.GenerationSoftware,KiCad,Pcbnew,9.0.2-9.0.2-0~ubuntu24.04.1*%
%TF.CreationDate,2025-05-22T23:02:18+02:00*%
%TF.ProjectId,USB-UART,5553422d-5541-4525-942e-6b696361645f,rev?*%
%TF.SameCoordinates,Original*%
%TF.FileFunction,Soldermask,Top*%
%TF.FilePolarity,Negative*%
%FSLAX46Y46*%
G04 Gerber Fmt 4.6, Leading zero omitted, Abs format (unit mm)*
G04 Created by KiCad (PCBNEW 9.0.2-9.0.2-0~ubuntu24.04.1) date 2025-05-22 23:02:18*
%MOMM*%
%LPD*%
G01*
G04 APERTURE LIST*
G04 Aperture macros list*
%AMRoundRect*
0 Rectangle with rounded corners*
0 $1 Rounding radius*
0 $2 $3 $4 $5 $6 $7 $8 $9 X,Y pos of 4 corners*
0 Add a 4 corners polygon primitive as box body*
4,1,4,$2,$3,$4,$5,$6,$7,$8,$9,$2,$3,0*
0 Add four circle primitives for the rounded corners*
1,1,$1+$1,$2,$3*
1,1,$1+$1,$4,$5*
1,1,$1+$1,$6,$7*
1,1,$1+$1,$8,$9*
0 Add four rect primitives between the rounded corners*
20,1,$1+$1,$2,$3,$4,$5,0*
20,1,$1+$1,$4,$5,$6,$7,0*
20,1,$1+$1,$6,$7,$8,$9,0*
20,1,$1+$1,$8,$9,$2,$3,0*%
G04 Aperture macros list end*
%ADD10C,0.600000*%
%ADD11R,1.700000X1.700000*%
%ADD12C,1.700000*%
%ADD13RoundRect,0.150000X0.150000X0.200000X-0.150000X0.200000X-0.150000X-0.200000X0.150000X-0.200000X0*%
%ADD14RoundRect,0.150000X-0.150000X-0.200000X0.150000X-0.200000X0.150000X0.200000X-0.150000X0.200000X0*%
%ADD15RoundRect,0.100000X0.100000X-0.637500X0.100000X0.637500X-0.100000X0.637500X-0.100000X-0.637500X0*%
%ADD16RoundRect,0.140000X-0.170000X0.140000X-0.170000X-0.140000X0.170000X-0.140000X0.170000X0.140000X0*%
%ADD17RoundRect,0.140000X-0.140000X-0.170000X0.140000X-0.170000X0.140000X0.170000X-0.140000X0.170000X0*%
%ADD18C,1.100000*%
%ADD19R,2.200000X1.100000*%
%ADD20O,3.500000X1.900000*%
%ADD21RoundRect,0.218750X-0.218750X-0.256250X0.218750X-0.256250X0.218750X0.256250X-0.218750X0.256250X0*%
%ADD22RoundRect,0.135000X-0.135000X-0.185000X0.135000X-0.185000X0.135000X0.185000X-0.135000X0.185000X0*%
%ADD23RoundRect,0.135000X0.135000X0.185000X-0.135000X0.185000X-0.135000X-0.185000X0.135000X-0.185000X0*%
%ADD24RoundRect,0.075000X-0.075000X0.350000X-0.075000X-0.350000X0.075000X-0.350000X0.075000X0.350000X0*%
%ADD25RoundRect,0.075000X-0.350000X0.075000X-0.350000X-0.075000X0.350000X-0.075000X0.350000X0.075000X0*%
%ADD26R,2.100000X2.100000*%
G04 APERTURE END LIST*
D10*
%TO.C,REF\u002A\u002A*%
X156000000Y-102500000D03*
X156000000Y-101500000D03*
X156000000Y-100500000D03*
X156000000Y-99500000D03*
%TD*%
%TO.C,REF\u002A\u002A*%
X156000000Y-98500000D03*
X156000000Y-97500000D03*
X156000000Y-96500000D03*
X156000000Y-95500000D03*
%TD*%
%TO.C,REF\u002A\u002A*%
X156000000Y-94500000D03*
X156000000Y-93500000D03*
X156000000Y-92500000D03*
X156000000Y-91500000D03*
%TD*%
%TO.C,REF\u002A\u002A*%
X156000000Y-90500000D03*
X156000000Y-89500000D03*
X156000000Y-88500000D03*
X156000000Y-87500000D03*
%TD*%
D11*
%TO.C,J3*%
X185115000Y-88650000D03*
D12*
X185115000Y-91190000D03*
X185115000Y-93730000D03*
X185115000Y-96270000D03*
X185115000Y-98810000D03*
X185115000Y-101350000D03*
%TD*%
D13*
%TO.C,D17*%
X169800000Y-101000000D03*
X171200000Y-101000000D03*
%TD*%
%TO.C,D16*%
X169800000Y-98500000D03*
X171200000Y-98500000D03*
%TD*%
%TO.C,D15*%
X169800000Y-94000000D03*
X171200000Y-94000000D03*
%TD*%
%TO.C,D14*%
X169800000Y-91500000D03*
X171200000Y-91500000D03*
%TD*%
%TO.C,D13*%
X169800000Y-89000000D03*
X171200000Y-89000000D03*
%TD*%
D14*
%TO.C,D12*%
X182700000Y-101000000D03*
X181300000Y-101000000D03*
%TD*%
%TO.C,D11*%
X182700000Y-98500000D03*
X181300000Y-98500000D03*
%TD*%
%TO.C,D10*%
X182700000Y-94000000D03*
X181300000Y-94000000D03*
%TD*%
%TO.C,D9*%
X182700000Y-91500000D03*
X181300000Y-91500000D03*
%TD*%
%TO.C,D8*%
X182700000Y-89000000D03*
X181300000Y-89000000D03*
%TD*%
D11*
%TO.C,J4*%
X167000000Y-88650000D03*
D12*
X167000000Y-91190000D03*
X167000000Y-93730000D03*
X167000000Y-96270000D03*
X167000000Y-98810000D03*
X167000000Y-101350000D03*
%TD*%
D15*
%TO.C,U5*%
X174725000Y-97862500D03*
X175375000Y-97862500D03*
X176025000Y-97862500D03*
X176675000Y-97862500D03*
X177325000Y-97862500D03*
X177975000Y-97862500D03*
X178625000Y-97862500D03*
X179275000Y-97862500D03*
X179275000Y-92137500D03*
X178625000Y-92137500D03*
X177975000Y-92137500D03*
X177325000Y-92137500D03*
X176675000Y-92137500D03*
X176025000Y-92137500D03*
X175375000Y-92137500D03*
X174725000Y-92137500D03*
%TD*%
D16*
%TO.C,C10*%
X173000000Y-92520000D03*
X173000000Y-93480000D03*
%TD*%
%TO.C,C9*%
X173000000Y-94520000D03*
X173000000Y-95480000D03*
%TD*%
D17*
%TO.C,C8*%
X178520000Y-100000000D03*
X179480000Y-100000000D03*
%TD*%
%TO.C,C7*%
X176520000Y-100000000D03*
X177480000Y-100000000D03*
%TD*%
%TO.C,C6*%
X174520000Y-100000000D03*
X175480000Y-100000000D03*
%TD*%
D18*
%TO.C,J1*%
X132600000Y-97300000D03*
X132600000Y-92700000D03*
D19*
X135200000Y-98500000D03*
X135200000Y-96000000D03*
X135200000Y-94000000D03*
X135200000Y-91500000D03*
D20*
X132600000Y-100700000D03*
X132600000Y-89300000D03*
%TD*%
D21*
%TO.C,D1*%
X140212500Y-100000000D03*
X141787500Y-100000000D03*
%TD*%
D14*
%TO.C,D7*%
X147200000Y-100500000D03*
X145800000Y-100500000D03*
%TD*%
D21*
%TO.C,D2*%
X140212500Y-90000000D03*
X141787500Y-90000000D03*
%TD*%
D22*
%TO.C,R5*%
X139990000Y-98800000D03*
X141010000Y-98800000D03*
%TD*%
D16*
%TO.C,C1*%
X138000000Y-99020000D03*
X138000000Y-99980000D03*
%TD*%
D23*
%TO.C,R6*%
X139010000Y-90500000D03*
X137990000Y-90500000D03*
%TD*%
D14*
%TO.C,D6*%
X147200000Y-98500000D03*
X145800000Y-98500000D03*
%TD*%
%TO.C,D5*%
X147200000Y-94000000D03*
X145800000Y-94000000D03*
%TD*%
D16*
%TO.C,C2*%
X139000000Y-99020000D03*
X139000000Y-99980000D03*
%TD*%
D14*
%TO.C,D3*%
X147200000Y-89500000D03*
X145800000Y-89500000D03*
%TD*%
%TO.C,D4*%
X147200000Y-91500000D03*
X145800000Y-91500000D03*
%TD*%
D24*
%TO.C,U2*%
X140975000Y-93050000D03*
X140325000Y-93050000D03*
X139675000Y-93050000D03*
X139025000Y-93050000D03*
D25*
X138050000Y-94025000D03*
X138050000Y-94675000D03*
X138050000Y-95325000D03*
X138050000Y-95975000D03*
D24*
X139025000Y-96950000D03*
X139675000Y-96950000D03*
X140325000Y-96950000D03*
X140975000Y-96950000D03*
D25*
X141950000Y-95975000D03*
X141950000Y-95325000D03*
X141950000Y-94675000D03*
X141950000Y-94025000D03*
D26*
X140000000Y-95000000D03*
%TD*%
D11*
%TO.C,J2*%
X148625000Y-88650000D03*
D12*
X148625000Y-91190000D03*
X148625000Y-93730000D03*
X148625000Y-96270000D03*
X148625000Y-98810000D03*
X148625000Y-101350000D03*
%TD*%
M02*
