M48
; DRILL file {KiCad 9.0.2-9.0.2-0~ubuntu24.04.1} date 2025-05-22T23:27:49+0200
; FORMAT={-:-/ absolute / metric / decimal}
; #@! TF.CreationDate,2025-05-22T23:27:49+02:00
; #@! TF.GenerationSoftware,Kicad,Pcbnew,9.0.2-9.0.2-0~ubuntu24.04.1
; #@! TF.FileFunction,Plated,1,4,PTH
FMAT,2
METRIC
; #@! TA.AperFunction,Plated,PTH,ViaDrill
T1C0.300
; #@! TA.AperFunction,Plated,PTH,ComponentDrill
T2C0.600
; #@! TA.AperFunction,Plated,PTH,ComponentDrill
T3C1.000
; #@! TA.AperFunction,Plated,PTH,ViaDrill
T4C3.000
%
G90
G05
T1
X133.7Y-94.35
X133.7Y-95.65
X136.4Y-91.7
X136.4Y-92.7
X136.4Y-96.9
X136.5Y-89.0
X137.15Y-94.55
X137.15Y-95.45
X137.2Y-99.2
X137.2Y-100.1
X137.4Y-96.52
X138.0Y-98.2
X139.01Y-91.71
X139.6Y-101.0
X140.0Y-91.5
X140.0Y-95.0
X140.9Y-91.375
X141.11Y-92.36
X141.5Y-89.0
X141.8Y-99.1
X143.2Y-95.9
X143.3Y-94.5
X143.7Y-92.3
X144.2Y-97.8
X144.9Y-100.0
X145.2Y-92.4
X145.8Y-97.6
X146.1Y-96.5
X146.1Y-101.9
X146.4Y-93.2
X146.5Y-90.1
X146.5Y-92.3
X146.5Y-95.3
X147.2Y-97.7
X147.2Y-99.7
X169.0Y-90.0
X169.0Y-92.5
X169.0Y-95.0
X169.0Y-97.5
X169.0Y-100.0
X170.3Y-97.65
X170.3Y-100.1
X170.5Y-96.0
X170.6Y-90.6
X170.6Y-93.1
X172.89Y-96.5
X173.0Y-99.0
X174.5Y-89.0
X174.5Y-101.5
X175.5Y-95.0
X176.55Y-94.0
X177.0Y-89.0
X177.0Y-101.5
X177.15Y-93.35
X177.75Y-95.55
X177.8Y-90.075
X178.55Y-90.7
X178.55Y-94.95
X179.5Y-89.0
X179.5Y-101.5
X181.0Y-90.0
X181.0Y-96.5
X183.0Y-92.4
X183.15Y-94.9
X183.5Y-96.5
X184.0Y-90.0
X184.0Y-92.5
X184.0Y-100.0
T3
X148.625Y-88.65
X148.625Y-91.19
X148.625Y-93.73
X148.625Y-96.27
X148.625Y-98.81
X148.625Y-101.35
X167.5Y-88.65
X167.5Y-91.19
X167.5Y-93.73
X167.5Y-96.27
X167.5Y-98.81
X167.5Y-101.35
X185.615Y-88.65
X185.615Y-91.19
X185.615Y-93.73
X185.615Y-96.27
X185.615Y-98.81
X185.615Y-101.35
T4
X159.5Y-91.5
X159.5Y-98.5
X193.5Y-91.5
X193.5Y-98.5
T2
G00X130.9Y-90.68
M15
G01X130.1Y-90.68
M16
G05
G00X130.9Y-99.32
M15
G01X130.1Y-99.32
M16
G05
G00X135.23Y-90.68
M15
G01X134.13Y-90.68
M16
G05
G00X135.23Y-99.32
M15
G01X134.13Y-99.32
M16
G05
M30
