%TF.GenerationSoftware,KiCad,Pcbnew,9.0.2-9.0.2-0~ubuntu24.04.1*%
%TF.CreationDate,2025-05-22T23:27:50+02:00*%
%TF.ProjectId,USB-UART,5553422d-5541-4525-942e-6b696361645f,rev?*%
%TF.SameCoordinates,Original*%
%TF.FileFunction,Legend,Top*%
%TF.FilePolarity,Positive*%
%FSLAX46Y46*%
G04 Gerber Fmt 4.6, Leading zero omitted, Abs format (unit mm)*
G04 Created by KiCad (PCBNEW 9.0.2-9.0.2-0~ubuntu24.04.1) date 2025-05-22 23:27:50*
%MOMM*%
%LPD*%
G01*
G04 APERTURE LIST*
%ADD10C,0.250000*%
%ADD11C,0.200000*%
%ADD12C,0.150000*%
%ADD13C,0.125000*%
%ADD14C,0.120000*%
G04 APERTURE END LIST*
D10*
X187450187Y-101435000D02*
X188364473Y-101435000D01*
X188935901Y-101092142D02*
X189850187Y-101435000D01*
X189850187Y-101435000D02*
X188935901Y-101777857D01*
X188073758Y-95724285D02*
X187959473Y-95667142D01*
X187959473Y-95667142D02*
X187788044Y-95667142D01*
X187788044Y-95667142D02*
X187616615Y-95724285D01*
X187616615Y-95724285D02*
X187502330Y-95838571D01*
X187502330Y-95838571D02*
X187445187Y-95952857D01*
X187445187Y-95952857D02*
X187388044Y-96181428D01*
X187388044Y-96181428D02*
X187388044Y-96352857D01*
X187388044Y-96352857D02*
X187445187Y-96581428D01*
X187445187Y-96581428D02*
X187502330Y-96695714D01*
X187502330Y-96695714D02*
X187616615Y-96810000D01*
X187616615Y-96810000D02*
X187788044Y-96867142D01*
X187788044Y-96867142D02*
X187902330Y-96867142D01*
X187902330Y-96867142D02*
X188073758Y-96810000D01*
X188073758Y-96810000D02*
X188130901Y-96752857D01*
X188130901Y-96752857D02*
X188130901Y-96352857D01*
X188130901Y-96352857D02*
X187902330Y-96352857D01*
X188645187Y-96867142D02*
X188645187Y-95667142D01*
X188645187Y-95667142D02*
X189330901Y-96867142D01*
X189330901Y-96867142D02*
X189330901Y-95667142D01*
X189902330Y-96867142D02*
X189902330Y-95667142D01*
X189902330Y-95667142D02*
X190188044Y-95667142D01*
X190188044Y-95667142D02*
X190359473Y-95724285D01*
X190359473Y-95724285D02*
X190473758Y-95838571D01*
X190473758Y-95838571D02*
X190530901Y-95952857D01*
X190530901Y-95952857D02*
X190588044Y-96181428D01*
X190588044Y-96181428D02*
X190588044Y-96352857D01*
X190588044Y-96352857D02*
X190530901Y-96581428D01*
X190530901Y-96581428D02*
X190473758Y-96695714D01*
X190473758Y-96695714D02*
X190359473Y-96810000D01*
X190359473Y-96810000D02*
X190188044Y-96867142D01*
X190188044Y-96867142D02*
X189902330Y-96867142D01*
X163999473Y-98552142D02*
X163085187Y-98895000D01*
X163085187Y-98895000D02*
X163999473Y-99237857D01*
X164570901Y-98895000D02*
X165485187Y-98895000D01*
D11*
X143441101Y-101802219D02*
X143107768Y-101326028D01*
X142869673Y-101802219D02*
X142869673Y-100802219D01*
X142869673Y-100802219D02*
X143250625Y-100802219D01*
X143250625Y-100802219D02*
X143345863Y-100849838D01*
X143345863Y-100849838D02*
X143393482Y-100897457D01*
X143393482Y-100897457D02*
X143441101Y-100992695D01*
X143441101Y-100992695D02*
X143441101Y-101135552D01*
X143441101Y-101135552D02*
X143393482Y-101230790D01*
X143393482Y-101230790D02*
X143345863Y-101278409D01*
X143345863Y-101278409D02*
X143250625Y-101326028D01*
X143250625Y-101326028D02*
X142869673Y-101326028D01*
X143726816Y-100802219D02*
X144298244Y-100802219D01*
X144012530Y-101802219D02*
X144012530Y-100802219D01*
X144583959Y-101754600D02*
X144726816Y-101802219D01*
X144726816Y-101802219D02*
X144964911Y-101802219D01*
X144964911Y-101802219D02*
X145060149Y-101754600D01*
X145060149Y-101754600D02*
X145107768Y-101706980D01*
X145107768Y-101706980D02*
X145155387Y-101611742D01*
X145155387Y-101611742D02*
X145155387Y-101516504D01*
X145155387Y-101516504D02*
X145107768Y-101421266D01*
X145107768Y-101421266D02*
X145060149Y-101373647D01*
X145060149Y-101373647D02*
X144964911Y-101326028D01*
X144964911Y-101326028D02*
X144774435Y-101278409D01*
X144774435Y-101278409D02*
X144679197Y-101230790D01*
X144679197Y-101230790D02*
X144631578Y-101183171D01*
X144631578Y-101183171D02*
X144583959Y-101087933D01*
X144583959Y-101087933D02*
X144583959Y-100992695D01*
X144583959Y-100992695D02*
X144631578Y-100897457D01*
X144631578Y-100897457D02*
X144679197Y-100849838D01*
X144679197Y-100849838D02*
X144774435Y-100802219D01*
X144774435Y-100802219D02*
X145012530Y-100802219D01*
X145012530Y-100802219D02*
X145155387Y-100849838D01*
D10*
X188364473Y-98552142D02*
X187450187Y-98895000D01*
X187450187Y-98895000D02*
X188364473Y-99237857D01*
X188935901Y-98895000D02*
X189850187Y-98895000D01*
D11*
X143289482Y-95884838D02*
X143194244Y-95837219D01*
X143194244Y-95837219D02*
X143051387Y-95837219D01*
X143051387Y-95837219D02*
X142908530Y-95884838D01*
X142908530Y-95884838D02*
X142813292Y-95980076D01*
X142813292Y-95980076D02*
X142765673Y-96075314D01*
X142765673Y-96075314D02*
X142718054Y-96265790D01*
X142718054Y-96265790D02*
X142718054Y-96408647D01*
X142718054Y-96408647D02*
X142765673Y-96599123D01*
X142765673Y-96599123D02*
X142813292Y-96694361D01*
X142813292Y-96694361D02*
X142908530Y-96789600D01*
X142908530Y-96789600D02*
X143051387Y-96837219D01*
X143051387Y-96837219D02*
X143146625Y-96837219D01*
X143146625Y-96837219D02*
X143289482Y-96789600D01*
X143289482Y-96789600D02*
X143337101Y-96741980D01*
X143337101Y-96741980D02*
X143337101Y-96408647D01*
X143337101Y-96408647D02*
X143146625Y-96408647D01*
X143765673Y-96837219D02*
X143765673Y-95837219D01*
X143765673Y-95837219D02*
X144337101Y-96837219D01*
X144337101Y-96837219D02*
X144337101Y-95837219D01*
X144813292Y-96837219D02*
X144813292Y-95837219D01*
X144813292Y-95837219D02*
X145051387Y-95837219D01*
X145051387Y-95837219D02*
X145194244Y-95884838D01*
X145194244Y-95884838D02*
X145289482Y-95980076D01*
X145289482Y-95980076D02*
X145337101Y-96075314D01*
X145337101Y-96075314D02*
X145384720Y-96265790D01*
X145384720Y-96265790D02*
X145384720Y-96408647D01*
X145384720Y-96408647D02*
X145337101Y-96599123D01*
X145337101Y-96599123D02*
X145289482Y-96694361D01*
X145289482Y-96694361D02*
X145194244Y-96789600D01*
X145194244Y-96789600D02*
X145051387Y-96837219D01*
X145051387Y-96837219D02*
X144813292Y-96837219D01*
D10*
X163085187Y-101435000D02*
X163999473Y-101435000D01*
X164570901Y-101092142D02*
X165485187Y-101435000D01*
X165485187Y-101435000D02*
X164570901Y-101777857D01*
X188364473Y-90932142D02*
X187450187Y-91275000D01*
X187450187Y-91275000D02*
X188364473Y-91617857D01*
X188935901Y-91275000D02*
X189850187Y-91275000D01*
X192042142Y-96864098D02*
X191470714Y-97264098D01*
X192042142Y-97549812D02*
X190842142Y-97549812D01*
X190842142Y-97549812D02*
X190842142Y-97092669D01*
X190842142Y-97092669D02*
X190899285Y-96978384D01*
X190899285Y-96978384D02*
X190956428Y-96921241D01*
X190956428Y-96921241D02*
X191070714Y-96864098D01*
X191070714Y-96864098D02*
X191242142Y-96864098D01*
X191242142Y-96864098D02*
X191356428Y-96921241D01*
X191356428Y-96921241D02*
X191413571Y-96978384D01*
X191413571Y-96978384D02*
X191470714Y-97092669D01*
X191470714Y-97092669D02*
X191470714Y-97549812D01*
X191985000Y-96406955D02*
X192042142Y-96235527D01*
X192042142Y-96235527D02*
X192042142Y-95949812D01*
X192042142Y-95949812D02*
X191985000Y-95835527D01*
X191985000Y-95835527D02*
X191927857Y-95778384D01*
X191927857Y-95778384D02*
X191813571Y-95721241D01*
X191813571Y-95721241D02*
X191699285Y-95721241D01*
X191699285Y-95721241D02*
X191585000Y-95778384D01*
X191585000Y-95778384D02*
X191527857Y-95835527D01*
X191527857Y-95835527D02*
X191470714Y-95949812D01*
X191470714Y-95949812D02*
X191413571Y-96178384D01*
X191413571Y-96178384D02*
X191356428Y-96292669D01*
X191356428Y-96292669D02*
X191299285Y-96349812D01*
X191299285Y-96349812D02*
X191185000Y-96406955D01*
X191185000Y-96406955D02*
X191070714Y-96406955D01*
X191070714Y-96406955D02*
X190956428Y-96349812D01*
X190956428Y-96349812D02*
X190899285Y-96292669D01*
X190899285Y-96292669D02*
X190842142Y-96178384D01*
X190842142Y-96178384D02*
X190842142Y-95892669D01*
X190842142Y-95892669D02*
X190899285Y-95721241D01*
X190956428Y-95264098D02*
X190899285Y-95206955D01*
X190899285Y-95206955D02*
X190842142Y-95092670D01*
X190842142Y-95092670D02*
X190842142Y-94806955D01*
X190842142Y-94806955D02*
X190899285Y-94692670D01*
X190899285Y-94692670D02*
X190956428Y-94635527D01*
X190956428Y-94635527D02*
X191070714Y-94578384D01*
X191070714Y-94578384D02*
X191185000Y-94578384D01*
X191185000Y-94578384D02*
X191356428Y-94635527D01*
X191356428Y-94635527D02*
X192042142Y-95321241D01*
X192042142Y-95321241D02*
X192042142Y-94578384D01*
X190842142Y-94178384D02*
X190842142Y-93435527D01*
X190842142Y-93435527D02*
X191299285Y-93835527D01*
X191299285Y-93835527D02*
X191299285Y-93664098D01*
X191299285Y-93664098D02*
X191356428Y-93549813D01*
X191356428Y-93549813D02*
X191413571Y-93492670D01*
X191413571Y-93492670D02*
X191527857Y-93435527D01*
X191527857Y-93435527D02*
X191813571Y-93435527D01*
X191813571Y-93435527D02*
X191927857Y-93492670D01*
X191927857Y-93492670D02*
X191985000Y-93549813D01*
X191985000Y-93549813D02*
X192042142Y-93664098D01*
X192042142Y-93664098D02*
X192042142Y-94006955D01*
X192042142Y-94006955D02*
X191985000Y-94121241D01*
X191985000Y-94121241D02*
X191927857Y-94178384D01*
X190956428Y-92978384D02*
X190899285Y-92921241D01*
X190899285Y-92921241D02*
X190842142Y-92806956D01*
X190842142Y-92806956D02*
X190842142Y-92521241D01*
X190842142Y-92521241D02*
X190899285Y-92406956D01*
X190899285Y-92406956D02*
X190956428Y-92349813D01*
X190956428Y-92349813D02*
X191070714Y-92292670D01*
X191070714Y-92292670D02*
X191185000Y-92292670D01*
X191185000Y-92292670D02*
X191356428Y-92349813D01*
X191356428Y-92349813D02*
X192042142Y-93035527D01*
X192042142Y-93035527D02*
X192042142Y-92292670D01*
D11*
X143337101Y-91702219D02*
X143003768Y-91226028D01*
X142765673Y-91702219D02*
X142765673Y-90702219D01*
X142765673Y-90702219D02*
X143146625Y-90702219D01*
X143146625Y-90702219D02*
X143241863Y-90749838D01*
X143241863Y-90749838D02*
X143289482Y-90797457D01*
X143289482Y-90797457D02*
X143337101Y-90892695D01*
X143337101Y-90892695D02*
X143337101Y-91035552D01*
X143337101Y-91035552D02*
X143289482Y-91130790D01*
X143289482Y-91130790D02*
X143241863Y-91178409D01*
X143241863Y-91178409D02*
X143146625Y-91226028D01*
X143146625Y-91226028D02*
X142765673Y-91226028D01*
X143670435Y-90702219D02*
X144337101Y-91702219D01*
X144337101Y-90702219D02*
X143670435Y-91702219D01*
X144718054Y-91702219D02*
X144718054Y-90702219D01*
X144718054Y-90702219D02*
X144956149Y-90702219D01*
X144956149Y-90702219D02*
X145099006Y-90749838D01*
X145099006Y-90749838D02*
X145194244Y-90845076D01*
X145194244Y-90845076D02*
X145241863Y-90940314D01*
X145241863Y-90940314D02*
X145289482Y-91130790D01*
X145289482Y-91130790D02*
X145289482Y-91273647D01*
X145289482Y-91273647D02*
X145241863Y-91464123D01*
X145241863Y-91464123D02*
X145194244Y-91559361D01*
X145194244Y-91559361D02*
X145099006Y-91654600D01*
X145099006Y-91654600D02*
X144956149Y-91702219D01*
X144956149Y-91702219D02*
X144718054Y-91702219D01*
D10*
X163085187Y-93815000D02*
X163999473Y-93815000D01*
X164570901Y-93472142D02*
X165485187Y-93815000D01*
X165485187Y-93815000D02*
X164570901Y-94157857D01*
X162278758Y-87992142D02*
X162678758Y-89192142D01*
X162678758Y-89192142D02*
X163078758Y-87992142D01*
X164164472Y-89077857D02*
X164107329Y-89135000D01*
X164107329Y-89135000D02*
X163935901Y-89192142D01*
X163935901Y-89192142D02*
X163821615Y-89192142D01*
X163821615Y-89192142D02*
X163650186Y-89135000D01*
X163650186Y-89135000D02*
X163535901Y-89020714D01*
X163535901Y-89020714D02*
X163478758Y-88906428D01*
X163478758Y-88906428D02*
X163421615Y-88677857D01*
X163421615Y-88677857D02*
X163421615Y-88506428D01*
X163421615Y-88506428D02*
X163478758Y-88277857D01*
X163478758Y-88277857D02*
X163535901Y-88163571D01*
X163535901Y-88163571D02*
X163650186Y-88049285D01*
X163650186Y-88049285D02*
X163821615Y-87992142D01*
X163821615Y-87992142D02*
X163935901Y-87992142D01*
X163935901Y-87992142D02*
X164107329Y-88049285D01*
X164107329Y-88049285D02*
X164164472Y-88106428D01*
X165364472Y-89077857D02*
X165307329Y-89135000D01*
X165307329Y-89135000D02*
X165135901Y-89192142D01*
X165135901Y-89192142D02*
X165021615Y-89192142D01*
X165021615Y-89192142D02*
X164850186Y-89135000D01*
X164850186Y-89135000D02*
X164735901Y-89020714D01*
X164735901Y-89020714D02*
X164678758Y-88906428D01*
X164678758Y-88906428D02*
X164621615Y-88677857D01*
X164621615Y-88677857D02*
X164621615Y-88506428D01*
X164621615Y-88506428D02*
X164678758Y-88277857D01*
X164678758Y-88277857D02*
X164735901Y-88163571D01*
X164735901Y-88163571D02*
X164850186Y-88049285D01*
X164850186Y-88049285D02*
X165021615Y-87992142D01*
X165021615Y-87992142D02*
X165135901Y-87992142D01*
X165135901Y-87992142D02*
X165307329Y-88049285D01*
X165307329Y-88049285D02*
X165364472Y-88106428D01*
X187450187Y-93815000D02*
X188364473Y-93815000D01*
X188935901Y-93472142D02*
X189850187Y-93815000D01*
X189850187Y-93815000D02*
X188935901Y-94157857D01*
D11*
X142726816Y-88202219D02*
X143060149Y-89202219D01*
X143060149Y-89202219D02*
X143393482Y-88202219D01*
X143726816Y-89202219D02*
X143726816Y-88202219D01*
X143726816Y-88202219D02*
X143964911Y-88202219D01*
X143964911Y-88202219D02*
X144107768Y-88249838D01*
X144107768Y-88249838D02*
X144203006Y-88345076D01*
X144203006Y-88345076D02*
X144250625Y-88440314D01*
X144250625Y-88440314D02*
X144298244Y-88630790D01*
X144298244Y-88630790D02*
X144298244Y-88773647D01*
X144298244Y-88773647D02*
X144250625Y-88964123D01*
X144250625Y-88964123D02*
X144203006Y-89059361D01*
X144203006Y-89059361D02*
X144107768Y-89154600D01*
X144107768Y-89154600D02*
X143964911Y-89202219D01*
X143964911Y-89202219D02*
X143726816Y-89202219D01*
X144726816Y-89202219D02*
X144726816Y-88202219D01*
X144726816Y-88202219D02*
X144964911Y-88202219D01*
X144964911Y-88202219D02*
X145107768Y-88249838D01*
X145107768Y-88249838D02*
X145203006Y-88345076D01*
X145203006Y-88345076D02*
X145250625Y-88440314D01*
X145250625Y-88440314D02*
X145298244Y-88630790D01*
X145298244Y-88630790D02*
X145298244Y-88773647D01*
X145298244Y-88773647D02*
X145250625Y-88964123D01*
X145250625Y-88964123D02*
X145203006Y-89059361D01*
X145203006Y-89059361D02*
X145107768Y-89154600D01*
X145107768Y-89154600D02*
X144964911Y-89202219D01*
X144964911Y-89202219D02*
X144726816Y-89202219D01*
D10*
X163999473Y-90932142D02*
X163085187Y-91275000D01*
X163085187Y-91275000D02*
X163999473Y-91617857D01*
X164570901Y-91275000D02*
X165485187Y-91275000D01*
X161657857Y-93778758D02*
X161657857Y-94464473D01*
X160457857Y-94121615D02*
X161657857Y-94121615D01*
X161657857Y-94693044D02*
X161657857Y-95378759D01*
X160457857Y-95035901D02*
X161657857Y-95035901D01*
X160457857Y-96350187D02*
X160457857Y-95778759D01*
X160457857Y-95778759D02*
X161657857Y-95778759D01*
X187438758Y-87992142D02*
X187838758Y-89192142D01*
X187838758Y-89192142D02*
X188238758Y-87992142D01*
X189324472Y-89077857D02*
X189267329Y-89135000D01*
X189267329Y-89135000D02*
X189095901Y-89192142D01*
X189095901Y-89192142D02*
X188981615Y-89192142D01*
X188981615Y-89192142D02*
X188810186Y-89135000D01*
X188810186Y-89135000D02*
X188695901Y-89020714D01*
X188695901Y-89020714D02*
X188638758Y-88906428D01*
X188638758Y-88906428D02*
X188581615Y-88677857D01*
X188581615Y-88677857D02*
X188581615Y-88506428D01*
X188581615Y-88506428D02*
X188638758Y-88277857D01*
X188638758Y-88277857D02*
X188695901Y-88163571D01*
X188695901Y-88163571D02*
X188810186Y-88049285D01*
X188810186Y-88049285D02*
X188981615Y-87992142D01*
X188981615Y-87992142D02*
X189095901Y-87992142D01*
X189095901Y-87992142D02*
X189267329Y-88049285D01*
X189267329Y-88049285D02*
X189324472Y-88106428D01*
X190524472Y-89077857D02*
X190467329Y-89135000D01*
X190467329Y-89135000D02*
X190295901Y-89192142D01*
X190295901Y-89192142D02*
X190181615Y-89192142D01*
X190181615Y-89192142D02*
X190010186Y-89135000D01*
X190010186Y-89135000D02*
X189895901Y-89020714D01*
X189895901Y-89020714D02*
X189838758Y-88906428D01*
X189838758Y-88906428D02*
X189781615Y-88677857D01*
X189781615Y-88677857D02*
X189781615Y-88506428D01*
X189781615Y-88506428D02*
X189838758Y-88277857D01*
X189838758Y-88277857D02*
X189895901Y-88163571D01*
X189895901Y-88163571D02*
X190010186Y-88049285D01*
X190010186Y-88049285D02*
X190181615Y-87992142D01*
X190181615Y-87992142D02*
X190295901Y-87992142D01*
X190295901Y-87992142D02*
X190467329Y-88049285D01*
X190467329Y-88049285D02*
X190524472Y-88106428D01*
D11*
X143441101Y-99166980D02*
X143393482Y-99214600D01*
X143393482Y-99214600D02*
X143250625Y-99262219D01*
X143250625Y-99262219D02*
X143155387Y-99262219D01*
X143155387Y-99262219D02*
X143012530Y-99214600D01*
X143012530Y-99214600D02*
X142917292Y-99119361D01*
X142917292Y-99119361D02*
X142869673Y-99024123D01*
X142869673Y-99024123D02*
X142822054Y-98833647D01*
X142822054Y-98833647D02*
X142822054Y-98690790D01*
X142822054Y-98690790D02*
X142869673Y-98500314D01*
X142869673Y-98500314D02*
X142917292Y-98405076D01*
X142917292Y-98405076D02*
X143012530Y-98309838D01*
X143012530Y-98309838D02*
X143155387Y-98262219D01*
X143155387Y-98262219D02*
X143250625Y-98262219D01*
X143250625Y-98262219D02*
X143393482Y-98309838D01*
X143393482Y-98309838D02*
X143441101Y-98357457D01*
X143726816Y-98262219D02*
X144298244Y-98262219D01*
X144012530Y-99262219D02*
X144012530Y-98262219D01*
X144583959Y-99214600D02*
X144726816Y-99262219D01*
X144726816Y-99262219D02*
X144964911Y-99262219D01*
X144964911Y-99262219D02*
X145060149Y-99214600D01*
X145060149Y-99214600D02*
X145107768Y-99166980D01*
X145107768Y-99166980D02*
X145155387Y-99071742D01*
X145155387Y-99071742D02*
X145155387Y-98976504D01*
X145155387Y-98976504D02*
X145107768Y-98881266D01*
X145107768Y-98881266D02*
X145060149Y-98833647D01*
X145060149Y-98833647D02*
X144964911Y-98786028D01*
X144964911Y-98786028D02*
X144774435Y-98738409D01*
X144774435Y-98738409D02*
X144679197Y-98690790D01*
X144679197Y-98690790D02*
X144631578Y-98643171D01*
X144631578Y-98643171D02*
X144583959Y-98547933D01*
X144583959Y-98547933D02*
X144583959Y-98452695D01*
X144583959Y-98452695D02*
X144631578Y-98357457D01*
X144631578Y-98357457D02*
X144679197Y-98309838D01*
X144679197Y-98309838D02*
X144774435Y-98262219D01*
X144774435Y-98262219D02*
X145012530Y-98262219D01*
X145012530Y-98262219D02*
X145155387Y-98309838D01*
D10*
X163078758Y-95669285D02*
X162964473Y-95612142D01*
X162964473Y-95612142D02*
X162793044Y-95612142D01*
X162793044Y-95612142D02*
X162621615Y-95669285D01*
X162621615Y-95669285D02*
X162507330Y-95783571D01*
X162507330Y-95783571D02*
X162450187Y-95897857D01*
X162450187Y-95897857D02*
X162393044Y-96126428D01*
X162393044Y-96126428D02*
X162393044Y-96297857D01*
X162393044Y-96297857D02*
X162450187Y-96526428D01*
X162450187Y-96526428D02*
X162507330Y-96640714D01*
X162507330Y-96640714D02*
X162621615Y-96755000D01*
X162621615Y-96755000D02*
X162793044Y-96812142D01*
X162793044Y-96812142D02*
X162907330Y-96812142D01*
X162907330Y-96812142D02*
X163078758Y-96755000D01*
X163078758Y-96755000D02*
X163135901Y-96697857D01*
X163135901Y-96697857D02*
X163135901Y-96297857D01*
X163135901Y-96297857D02*
X162907330Y-96297857D01*
X163650187Y-96812142D02*
X163650187Y-95612142D01*
X163650187Y-95612142D02*
X164335901Y-96812142D01*
X164335901Y-96812142D02*
X164335901Y-95612142D01*
X164907330Y-96812142D02*
X164907330Y-95612142D01*
X164907330Y-95612142D02*
X165193044Y-95612142D01*
X165193044Y-95612142D02*
X165364473Y-95669285D01*
X165364473Y-95669285D02*
X165478758Y-95783571D01*
X165478758Y-95783571D02*
X165535901Y-95897857D01*
X165535901Y-95897857D02*
X165593044Y-96126428D01*
X165593044Y-96126428D02*
X165593044Y-96297857D01*
X165593044Y-96297857D02*
X165535901Y-96526428D01*
X165535901Y-96526428D02*
X165478758Y-96640714D01*
X165478758Y-96640714D02*
X165364473Y-96755000D01*
X165364473Y-96755000D02*
X165193044Y-96812142D01*
X165193044Y-96812142D02*
X164907330Y-96812142D01*
D12*
X150869819Y-99457506D02*
X151584104Y-99457506D01*
X151584104Y-99457506D02*
X151726961Y-99505125D01*
X151726961Y-99505125D02*
X151822200Y-99600363D01*
X151822200Y-99600363D02*
X151869819Y-99743220D01*
X151869819Y-99743220D02*
X151869819Y-99838458D01*
X151869819Y-98505125D02*
X151869819Y-98981315D01*
X151869819Y-98981315D02*
X150869819Y-98981315D01*
X151774580Y-97600363D02*
X151822200Y-97647982D01*
X151822200Y-97647982D02*
X151869819Y-97790839D01*
X151869819Y-97790839D02*
X151869819Y-97886077D01*
X151869819Y-97886077D02*
X151822200Y-98028934D01*
X151822200Y-98028934D02*
X151726961Y-98124172D01*
X151726961Y-98124172D02*
X151631723Y-98171791D01*
X151631723Y-98171791D02*
X151441247Y-98219410D01*
X151441247Y-98219410D02*
X151298390Y-98219410D01*
X151298390Y-98219410D02*
X151107914Y-98171791D01*
X151107914Y-98171791D02*
X151012676Y-98124172D01*
X151012676Y-98124172D02*
X150917438Y-98028934D01*
X150917438Y-98028934D02*
X150869819Y-97886077D01*
X150869819Y-97886077D02*
X150869819Y-97790839D01*
X150869819Y-97790839D02*
X150917438Y-97647982D01*
X150917438Y-97647982D02*
X150965057Y-97600363D01*
X150869819Y-96886077D02*
X151584104Y-96886077D01*
X151584104Y-96886077D02*
X151726961Y-96933696D01*
X151726961Y-96933696D02*
X151822200Y-97028934D01*
X151822200Y-97028934D02*
X151869819Y-97171791D01*
X151869819Y-97171791D02*
X151869819Y-97267029D01*
X151869819Y-95933696D02*
X151869819Y-96409886D01*
X151869819Y-96409886D02*
X150869819Y-96409886D01*
X151774580Y-95028934D02*
X151822200Y-95076553D01*
X151822200Y-95076553D02*
X151869819Y-95219410D01*
X151869819Y-95219410D02*
X151869819Y-95314648D01*
X151869819Y-95314648D02*
X151822200Y-95457505D01*
X151822200Y-95457505D02*
X151726961Y-95552743D01*
X151726961Y-95552743D02*
X151631723Y-95600362D01*
X151631723Y-95600362D02*
X151441247Y-95647981D01*
X151441247Y-95647981D02*
X151298390Y-95647981D01*
X151298390Y-95647981D02*
X151107914Y-95600362D01*
X151107914Y-95600362D02*
X151012676Y-95552743D01*
X151012676Y-95552743D02*
X150917438Y-95457505D01*
X150917438Y-95457505D02*
X150869819Y-95314648D01*
X150869819Y-95314648D02*
X150869819Y-95219410D01*
X150869819Y-95219410D02*
X150917438Y-95076553D01*
X150917438Y-95076553D02*
X150965057Y-95028934D01*
X150869819Y-94314648D02*
X151584104Y-94314648D01*
X151584104Y-94314648D02*
X151726961Y-94362267D01*
X151726961Y-94362267D02*
X151822200Y-94457505D01*
X151822200Y-94457505D02*
X151869819Y-94600362D01*
X151869819Y-94600362D02*
X151869819Y-94695600D01*
X151869819Y-93362267D02*
X151869819Y-93838457D01*
X151869819Y-93838457D02*
X150869819Y-93838457D01*
X151774580Y-92457505D02*
X151822200Y-92505124D01*
X151822200Y-92505124D02*
X151869819Y-92647981D01*
X151869819Y-92647981D02*
X151869819Y-92743219D01*
X151869819Y-92743219D02*
X151822200Y-92886076D01*
X151822200Y-92886076D02*
X151726961Y-92981314D01*
X151726961Y-92981314D02*
X151631723Y-93028933D01*
X151631723Y-93028933D02*
X151441247Y-93076552D01*
X151441247Y-93076552D02*
X151298390Y-93076552D01*
X151298390Y-93076552D02*
X151107914Y-93028933D01*
X151107914Y-93028933D02*
X151012676Y-92981314D01*
X151012676Y-92981314D02*
X150917438Y-92886076D01*
X150917438Y-92886076D02*
X150869819Y-92743219D01*
X150869819Y-92743219D02*
X150869819Y-92647981D01*
X150869819Y-92647981D02*
X150917438Y-92505124D01*
X150917438Y-92505124D02*
X150965057Y-92457505D01*
X150869819Y-91743219D02*
X151584104Y-91743219D01*
X151584104Y-91743219D02*
X151726961Y-91790838D01*
X151726961Y-91790838D02*
X151822200Y-91886076D01*
X151822200Y-91886076D02*
X151869819Y-92028933D01*
X151869819Y-92028933D02*
X151869819Y-92124171D01*
X151869819Y-90790838D02*
X151869819Y-91267028D01*
X151869819Y-91267028D02*
X150869819Y-91267028D01*
X151774580Y-89886076D02*
X151822200Y-89933695D01*
X151822200Y-89933695D02*
X151869819Y-90076552D01*
X151869819Y-90076552D02*
X151869819Y-90171790D01*
X151869819Y-90171790D02*
X151822200Y-90314647D01*
X151822200Y-90314647D02*
X151726961Y-90409885D01*
X151726961Y-90409885D02*
X151631723Y-90457504D01*
X151631723Y-90457504D02*
X151441247Y-90505123D01*
X151441247Y-90505123D02*
X151298390Y-90505123D01*
X151298390Y-90505123D02*
X151107914Y-90457504D01*
X151107914Y-90457504D02*
X151012676Y-90409885D01*
X151012676Y-90409885D02*
X150917438Y-90314647D01*
X150917438Y-90314647D02*
X150869819Y-90171790D01*
X150869819Y-90171790D02*
X150869819Y-90076552D01*
X150869819Y-90076552D02*
X150917438Y-89933695D01*
X150917438Y-89933695D02*
X150965057Y-89886076D01*
D11*
X142876816Y-93182219D02*
X143448244Y-93182219D01*
X143162530Y-94182219D02*
X143162530Y-93182219D01*
X143686340Y-93182219D02*
X144353006Y-94182219D01*
X144353006Y-93182219D02*
X143686340Y-94182219D01*
X144733959Y-94182219D02*
X144733959Y-93182219D01*
X144733959Y-93182219D02*
X144972054Y-93182219D01*
X144972054Y-93182219D02*
X145114911Y-93229838D01*
X145114911Y-93229838D02*
X145210149Y-93325076D01*
X145210149Y-93325076D02*
X145257768Y-93420314D01*
X145257768Y-93420314D02*
X145305387Y-93610790D01*
X145305387Y-93610790D02*
X145305387Y-93753647D01*
X145305387Y-93753647D02*
X145257768Y-93944123D01*
X145257768Y-93944123D02*
X145210149Y-94039361D01*
X145210149Y-94039361D02*
X145114911Y-94134600D01*
X145114911Y-94134600D02*
X144972054Y-94182219D01*
X144972054Y-94182219D02*
X144733959Y-94182219D01*
D12*
X136064819Y-95333333D02*
X136779104Y-95333333D01*
X136779104Y-95333333D02*
X136921961Y-95380952D01*
X136921961Y-95380952D02*
X137017200Y-95476190D01*
X137017200Y-95476190D02*
X137064819Y-95619047D01*
X137064819Y-95619047D02*
X137064819Y-95714285D01*
X137064819Y-94333333D02*
X137064819Y-94904761D01*
X137064819Y-94619047D02*
X136064819Y-94619047D01*
X136064819Y-94619047D02*
X136207676Y-94714285D01*
X136207676Y-94714285D02*
X136302914Y-94809523D01*
X136302914Y-94809523D02*
X136350533Y-94904761D01*
D13*
X140307143Y-101571071D02*
X140307143Y-100971071D01*
X140307143Y-100971071D02*
X140450000Y-100971071D01*
X140450000Y-100971071D02*
X140535714Y-100999642D01*
X140535714Y-100999642D02*
X140592857Y-101056785D01*
X140592857Y-101056785D02*
X140621428Y-101113928D01*
X140621428Y-101113928D02*
X140650000Y-101228214D01*
X140650000Y-101228214D02*
X140650000Y-101313928D01*
X140650000Y-101313928D02*
X140621428Y-101428214D01*
X140621428Y-101428214D02*
X140592857Y-101485357D01*
X140592857Y-101485357D02*
X140535714Y-101542500D01*
X140535714Y-101542500D02*
X140450000Y-101571071D01*
X140450000Y-101571071D02*
X140307143Y-101571071D01*
X141221428Y-101571071D02*
X140878571Y-101571071D01*
X141050000Y-101571071D02*
X141050000Y-100971071D01*
X141050000Y-100971071D02*
X140992857Y-101056785D01*
X140992857Y-101056785D02*
X140935714Y-101113928D01*
X140935714Y-101113928D02*
X140878571Y-101142500D01*
D11*
X137238095Y-100552219D02*
X137809523Y-100552219D01*
X137523809Y-101552219D02*
X137523809Y-100552219D01*
X138047619Y-100552219D02*
X138714285Y-101552219D01*
X138714285Y-100552219D02*
X138047619Y-101552219D01*
D13*
X146457143Y-101971071D02*
X146457143Y-101371071D01*
X146457143Y-101371071D02*
X146600000Y-101371071D01*
X146600000Y-101371071D02*
X146685714Y-101399642D01*
X146685714Y-101399642D02*
X146742857Y-101456785D01*
X146742857Y-101456785D02*
X146771428Y-101513928D01*
X146771428Y-101513928D02*
X146800000Y-101628214D01*
X146800000Y-101628214D02*
X146800000Y-101713928D01*
X146800000Y-101713928D02*
X146771428Y-101828214D01*
X146771428Y-101828214D02*
X146742857Y-101885357D01*
X146742857Y-101885357D02*
X146685714Y-101942500D01*
X146685714Y-101942500D02*
X146600000Y-101971071D01*
X146600000Y-101971071D02*
X146457143Y-101971071D01*
X147000000Y-101371071D02*
X147400000Y-101371071D01*
X147400000Y-101371071D02*
X147142857Y-101971071D01*
X140057143Y-88871071D02*
X140057143Y-88271071D01*
X140057143Y-88271071D02*
X140200000Y-88271071D01*
X140200000Y-88271071D02*
X140285714Y-88299642D01*
X140285714Y-88299642D02*
X140342857Y-88356785D01*
X140342857Y-88356785D02*
X140371428Y-88413928D01*
X140371428Y-88413928D02*
X140400000Y-88528214D01*
X140400000Y-88528214D02*
X140400000Y-88613928D01*
X140400000Y-88613928D02*
X140371428Y-88728214D01*
X140371428Y-88728214D02*
X140342857Y-88785357D01*
X140342857Y-88785357D02*
X140285714Y-88842500D01*
X140285714Y-88842500D02*
X140200000Y-88871071D01*
X140200000Y-88871071D02*
X140057143Y-88871071D01*
X140628571Y-88328214D02*
X140657143Y-88299642D01*
X140657143Y-88299642D02*
X140714286Y-88271071D01*
X140714286Y-88271071D02*
X140857143Y-88271071D01*
X140857143Y-88271071D02*
X140914286Y-88299642D01*
X140914286Y-88299642D02*
X140942857Y-88328214D01*
X140942857Y-88328214D02*
X140971428Y-88385357D01*
X140971428Y-88385357D02*
X140971428Y-88442500D01*
X140971428Y-88442500D02*
X140942857Y-88528214D01*
X140942857Y-88528214D02*
X140600000Y-88871071D01*
X140600000Y-88871071D02*
X140971428Y-88871071D01*
D11*
X137633333Y-89652219D02*
X137300000Y-89176028D01*
X137061905Y-89652219D02*
X137061905Y-88652219D01*
X137061905Y-88652219D02*
X137442857Y-88652219D01*
X137442857Y-88652219D02*
X137538095Y-88699838D01*
X137538095Y-88699838D02*
X137585714Y-88747457D01*
X137585714Y-88747457D02*
X137633333Y-88842695D01*
X137633333Y-88842695D02*
X137633333Y-88985552D01*
X137633333Y-88985552D02*
X137585714Y-89080790D01*
X137585714Y-89080790D02*
X137538095Y-89128409D01*
X137538095Y-89128409D02*
X137442857Y-89176028D01*
X137442857Y-89176028D02*
X137061905Y-89176028D01*
X137966667Y-88652219D02*
X138633333Y-89652219D01*
X138633333Y-88652219D02*
X137966667Y-89652219D01*
D13*
X141800000Y-98471071D02*
X141600000Y-98185357D01*
X141457143Y-98471071D02*
X141457143Y-97871071D01*
X141457143Y-97871071D02*
X141685714Y-97871071D01*
X141685714Y-97871071D02*
X141742857Y-97899642D01*
X141742857Y-97899642D02*
X141771428Y-97928214D01*
X141771428Y-97928214D02*
X141800000Y-97985357D01*
X141800000Y-97985357D02*
X141800000Y-98071071D01*
X141800000Y-98071071D02*
X141771428Y-98128214D01*
X141771428Y-98128214D02*
X141742857Y-98156785D01*
X141742857Y-98156785D02*
X141685714Y-98185357D01*
X141685714Y-98185357D02*
X141457143Y-98185357D01*
X142342857Y-97871071D02*
X142057143Y-97871071D01*
X142057143Y-97871071D02*
X142028571Y-98156785D01*
X142028571Y-98156785D02*
X142057143Y-98128214D01*
X142057143Y-98128214D02*
X142114286Y-98099642D01*
X142114286Y-98099642D02*
X142257143Y-98099642D01*
X142257143Y-98099642D02*
X142314286Y-98128214D01*
X142314286Y-98128214D02*
X142342857Y-98156785D01*
X142342857Y-98156785D02*
X142371428Y-98213928D01*
X142371428Y-98213928D02*
X142371428Y-98356785D01*
X142371428Y-98356785D02*
X142342857Y-98413928D01*
X142342857Y-98413928D02*
X142314286Y-98442500D01*
X142314286Y-98442500D02*
X142257143Y-98471071D01*
X142257143Y-98471071D02*
X142114286Y-98471071D01*
X142114286Y-98471071D02*
X142057143Y-98442500D01*
X142057143Y-98442500D02*
X142028571Y-98413928D01*
X135813928Y-100099999D02*
X135842500Y-100128571D01*
X135842500Y-100128571D02*
X135871071Y-100214285D01*
X135871071Y-100214285D02*
X135871071Y-100271428D01*
X135871071Y-100271428D02*
X135842500Y-100357142D01*
X135842500Y-100357142D02*
X135785357Y-100414285D01*
X135785357Y-100414285D02*
X135728214Y-100442856D01*
X135728214Y-100442856D02*
X135613928Y-100471428D01*
X135613928Y-100471428D02*
X135528214Y-100471428D01*
X135528214Y-100471428D02*
X135413928Y-100442856D01*
X135413928Y-100442856D02*
X135356785Y-100414285D01*
X135356785Y-100414285D02*
X135299642Y-100357142D01*
X135299642Y-100357142D02*
X135271071Y-100271428D01*
X135271071Y-100271428D02*
X135271071Y-100214285D01*
X135271071Y-100214285D02*
X135299642Y-100128571D01*
X135299642Y-100128571D02*
X135328214Y-100099999D01*
X135871071Y-99528571D02*
X135871071Y-99871428D01*
X135871071Y-99699999D02*
X135271071Y-99699999D01*
X135271071Y-99699999D02*
X135356785Y-99757142D01*
X135356785Y-99757142D02*
X135413928Y-99814285D01*
X135413928Y-99814285D02*
X135442500Y-99871428D01*
X138400000Y-91871071D02*
X138200000Y-91585357D01*
X138057143Y-91871071D02*
X138057143Y-91271071D01*
X138057143Y-91271071D02*
X138285714Y-91271071D01*
X138285714Y-91271071D02*
X138342857Y-91299642D01*
X138342857Y-91299642D02*
X138371428Y-91328214D01*
X138371428Y-91328214D02*
X138400000Y-91385357D01*
X138400000Y-91385357D02*
X138400000Y-91471071D01*
X138400000Y-91471071D02*
X138371428Y-91528214D01*
X138371428Y-91528214D02*
X138342857Y-91556785D01*
X138342857Y-91556785D02*
X138285714Y-91585357D01*
X138285714Y-91585357D02*
X138057143Y-91585357D01*
X138914286Y-91271071D02*
X138800000Y-91271071D01*
X138800000Y-91271071D02*
X138742857Y-91299642D01*
X138742857Y-91299642D02*
X138714286Y-91328214D01*
X138714286Y-91328214D02*
X138657143Y-91413928D01*
X138657143Y-91413928D02*
X138628571Y-91528214D01*
X138628571Y-91528214D02*
X138628571Y-91756785D01*
X138628571Y-91756785D02*
X138657143Y-91813928D01*
X138657143Y-91813928D02*
X138685714Y-91842500D01*
X138685714Y-91842500D02*
X138742857Y-91871071D01*
X138742857Y-91871071D02*
X138857143Y-91871071D01*
X138857143Y-91871071D02*
X138914286Y-91842500D01*
X138914286Y-91842500D02*
X138942857Y-91813928D01*
X138942857Y-91813928D02*
X138971428Y-91756785D01*
X138971428Y-91756785D02*
X138971428Y-91613928D01*
X138971428Y-91613928D02*
X138942857Y-91556785D01*
X138942857Y-91556785D02*
X138914286Y-91528214D01*
X138914286Y-91528214D02*
X138857143Y-91499642D01*
X138857143Y-91499642D02*
X138742857Y-91499642D01*
X138742857Y-91499642D02*
X138685714Y-91528214D01*
X138685714Y-91528214D02*
X138657143Y-91556785D01*
X138657143Y-91556785D02*
X138628571Y-91613928D01*
X146157143Y-97571071D02*
X146157143Y-96971071D01*
X146157143Y-96971071D02*
X146300000Y-96971071D01*
X146300000Y-96971071D02*
X146385714Y-96999642D01*
X146385714Y-96999642D02*
X146442857Y-97056785D01*
X146442857Y-97056785D02*
X146471428Y-97113928D01*
X146471428Y-97113928D02*
X146500000Y-97228214D01*
X146500000Y-97228214D02*
X146500000Y-97313928D01*
X146500000Y-97313928D02*
X146471428Y-97428214D01*
X146471428Y-97428214D02*
X146442857Y-97485357D01*
X146442857Y-97485357D02*
X146385714Y-97542500D01*
X146385714Y-97542500D02*
X146300000Y-97571071D01*
X146300000Y-97571071D02*
X146157143Y-97571071D01*
X147014286Y-96971071D02*
X146900000Y-96971071D01*
X146900000Y-96971071D02*
X146842857Y-96999642D01*
X146842857Y-96999642D02*
X146814286Y-97028214D01*
X146814286Y-97028214D02*
X146757143Y-97113928D01*
X146757143Y-97113928D02*
X146728571Y-97228214D01*
X146728571Y-97228214D02*
X146728571Y-97456785D01*
X146728571Y-97456785D02*
X146757143Y-97513928D01*
X146757143Y-97513928D02*
X146785714Y-97542500D01*
X146785714Y-97542500D02*
X146842857Y-97571071D01*
X146842857Y-97571071D02*
X146957143Y-97571071D01*
X146957143Y-97571071D02*
X147014286Y-97542500D01*
X147014286Y-97542500D02*
X147042857Y-97513928D01*
X147042857Y-97513928D02*
X147071428Y-97456785D01*
X147071428Y-97456785D02*
X147071428Y-97313928D01*
X147071428Y-97313928D02*
X147042857Y-97256785D01*
X147042857Y-97256785D02*
X147014286Y-97228214D01*
X147014286Y-97228214D02*
X146957143Y-97199642D01*
X146957143Y-97199642D02*
X146842857Y-97199642D01*
X146842857Y-97199642D02*
X146785714Y-97228214D01*
X146785714Y-97228214D02*
X146757143Y-97256785D01*
X146757143Y-97256785D02*
X146728571Y-97313928D01*
X146157143Y-95571071D02*
X146157143Y-94971071D01*
X146157143Y-94971071D02*
X146300000Y-94971071D01*
X146300000Y-94971071D02*
X146385714Y-94999642D01*
X146385714Y-94999642D02*
X146442857Y-95056785D01*
X146442857Y-95056785D02*
X146471428Y-95113928D01*
X146471428Y-95113928D02*
X146500000Y-95228214D01*
X146500000Y-95228214D02*
X146500000Y-95313928D01*
X146500000Y-95313928D02*
X146471428Y-95428214D01*
X146471428Y-95428214D02*
X146442857Y-95485357D01*
X146442857Y-95485357D02*
X146385714Y-95542500D01*
X146385714Y-95542500D02*
X146300000Y-95571071D01*
X146300000Y-95571071D02*
X146157143Y-95571071D01*
X147042857Y-94971071D02*
X146757143Y-94971071D01*
X146757143Y-94971071D02*
X146728571Y-95256785D01*
X146728571Y-95256785D02*
X146757143Y-95228214D01*
X146757143Y-95228214D02*
X146814286Y-95199642D01*
X146814286Y-95199642D02*
X146957143Y-95199642D01*
X146957143Y-95199642D02*
X147014286Y-95228214D01*
X147014286Y-95228214D02*
X147042857Y-95256785D01*
X147042857Y-95256785D02*
X147071428Y-95313928D01*
X147071428Y-95313928D02*
X147071428Y-95456785D01*
X147071428Y-95456785D02*
X147042857Y-95513928D01*
X147042857Y-95513928D02*
X147014286Y-95542500D01*
X147014286Y-95542500D02*
X146957143Y-95571071D01*
X146957143Y-95571071D02*
X146814286Y-95571071D01*
X146814286Y-95571071D02*
X146757143Y-95542500D01*
X146757143Y-95542500D02*
X146728571Y-95513928D01*
X136713928Y-100099999D02*
X136742500Y-100128571D01*
X136742500Y-100128571D02*
X136771071Y-100214285D01*
X136771071Y-100214285D02*
X136771071Y-100271428D01*
X136771071Y-100271428D02*
X136742500Y-100357142D01*
X136742500Y-100357142D02*
X136685357Y-100414285D01*
X136685357Y-100414285D02*
X136628214Y-100442856D01*
X136628214Y-100442856D02*
X136513928Y-100471428D01*
X136513928Y-100471428D02*
X136428214Y-100471428D01*
X136428214Y-100471428D02*
X136313928Y-100442856D01*
X136313928Y-100442856D02*
X136256785Y-100414285D01*
X136256785Y-100414285D02*
X136199642Y-100357142D01*
X136199642Y-100357142D02*
X136171071Y-100271428D01*
X136171071Y-100271428D02*
X136171071Y-100214285D01*
X136171071Y-100214285D02*
X136199642Y-100128571D01*
X136199642Y-100128571D02*
X136228214Y-100099999D01*
X136228214Y-99871428D02*
X136199642Y-99842856D01*
X136199642Y-99842856D02*
X136171071Y-99785714D01*
X136171071Y-99785714D02*
X136171071Y-99642856D01*
X136171071Y-99642856D02*
X136199642Y-99585714D01*
X136199642Y-99585714D02*
X136228214Y-99557142D01*
X136228214Y-99557142D02*
X136285357Y-99528571D01*
X136285357Y-99528571D02*
X136342500Y-99528571D01*
X136342500Y-99528571D02*
X136428214Y-99557142D01*
X136428214Y-99557142D02*
X136771071Y-99899999D01*
X136771071Y-99899999D02*
X136771071Y-99528571D01*
X145957143Y-90771071D02*
X145957143Y-90171071D01*
X145957143Y-90171071D02*
X146100000Y-90171071D01*
X146100000Y-90171071D02*
X146185714Y-90199642D01*
X146185714Y-90199642D02*
X146242857Y-90256785D01*
X146242857Y-90256785D02*
X146271428Y-90313928D01*
X146271428Y-90313928D02*
X146300000Y-90428214D01*
X146300000Y-90428214D02*
X146300000Y-90513928D01*
X146300000Y-90513928D02*
X146271428Y-90628214D01*
X146271428Y-90628214D02*
X146242857Y-90685357D01*
X146242857Y-90685357D02*
X146185714Y-90742500D01*
X146185714Y-90742500D02*
X146100000Y-90771071D01*
X146100000Y-90771071D02*
X145957143Y-90771071D01*
X146500000Y-90171071D02*
X146871428Y-90171071D01*
X146871428Y-90171071D02*
X146671428Y-90399642D01*
X146671428Y-90399642D02*
X146757143Y-90399642D01*
X146757143Y-90399642D02*
X146814286Y-90428214D01*
X146814286Y-90428214D02*
X146842857Y-90456785D01*
X146842857Y-90456785D02*
X146871428Y-90513928D01*
X146871428Y-90513928D02*
X146871428Y-90656785D01*
X146871428Y-90656785D02*
X146842857Y-90713928D01*
X146842857Y-90713928D02*
X146814286Y-90742500D01*
X146814286Y-90742500D02*
X146757143Y-90771071D01*
X146757143Y-90771071D02*
X146585714Y-90771071D01*
X146585714Y-90771071D02*
X146528571Y-90742500D01*
X146528571Y-90742500D02*
X146500000Y-90713928D01*
X146157143Y-93071071D02*
X146157143Y-92471071D01*
X146157143Y-92471071D02*
X146300000Y-92471071D01*
X146300000Y-92471071D02*
X146385714Y-92499642D01*
X146385714Y-92499642D02*
X146442857Y-92556785D01*
X146442857Y-92556785D02*
X146471428Y-92613928D01*
X146471428Y-92613928D02*
X146500000Y-92728214D01*
X146500000Y-92728214D02*
X146500000Y-92813928D01*
X146500000Y-92813928D02*
X146471428Y-92928214D01*
X146471428Y-92928214D02*
X146442857Y-92985357D01*
X146442857Y-92985357D02*
X146385714Y-93042500D01*
X146385714Y-93042500D02*
X146300000Y-93071071D01*
X146300000Y-93071071D02*
X146157143Y-93071071D01*
X147014286Y-92671071D02*
X147014286Y-93071071D01*
X146871428Y-92442500D02*
X146728571Y-92871071D01*
X146728571Y-92871071D02*
X147100000Y-92871071D01*
X140542857Y-91671071D02*
X140542857Y-92156785D01*
X140542857Y-92156785D02*
X140571428Y-92213928D01*
X140571428Y-92213928D02*
X140600000Y-92242500D01*
X140600000Y-92242500D02*
X140657142Y-92271071D01*
X140657142Y-92271071D02*
X140771428Y-92271071D01*
X140771428Y-92271071D02*
X140828571Y-92242500D01*
X140828571Y-92242500D02*
X140857142Y-92213928D01*
X140857142Y-92213928D02*
X140885714Y-92156785D01*
X140885714Y-92156785D02*
X140885714Y-91671071D01*
X141142856Y-91728214D02*
X141171428Y-91699642D01*
X141171428Y-91699642D02*
X141228571Y-91671071D01*
X141228571Y-91671071D02*
X141371428Y-91671071D01*
X141371428Y-91671071D02*
X141428571Y-91699642D01*
X141428571Y-91699642D02*
X141457142Y-91728214D01*
X141457142Y-91728214D02*
X141485713Y-91785357D01*
X141485713Y-91785357D02*
X141485713Y-91842500D01*
X141485713Y-91842500D02*
X141457142Y-91928214D01*
X141457142Y-91928214D02*
X141114285Y-92271071D01*
X141114285Y-92271071D02*
X141485713Y-92271071D01*
X146371071Y-88200000D02*
X146799642Y-88200000D01*
X146799642Y-88200000D02*
X146885357Y-88228571D01*
X146885357Y-88228571D02*
X146942500Y-88285714D01*
X146942500Y-88285714D02*
X146971071Y-88371428D01*
X146971071Y-88371428D02*
X146971071Y-88428571D01*
X146428214Y-87942857D02*
X146399642Y-87914285D01*
X146399642Y-87914285D02*
X146371071Y-87857143D01*
X146371071Y-87857143D02*
X146371071Y-87714285D01*
X146371071Y-87714285D02*
X146399642Y-87657143D01*
X146399642Y-87657143D02*
X146428214Y-87628571D01*
X146428214Y-87628571D02*
X146485357Y-87600000D01*
X146485357Y-87600000D02*
X146542500Y-87600000D01*
X146542500Y-87600000D02*
X146628214Y-87628571D01*
X146628214Y-87628571D02*
X146971071Y-87971428D01*
X146971071Y-87971428D02*
X146971071Y-87600000D01*
D14*
%TO.C,J1*%
X136000000Y-100000000D02*
X129000000Y-100000000D01*
X136000000Y-98500000D02*
X136000000Y-100000000D01*
X136000000Y-90000000D02*
X136000000Y-91500000D01*
X136000000Y-90000000D02*
X129000000Y-90000000D01*
%TO.C,C7*%
X177392164Y-99640000D02*
X177607836Y-99640000D01*
X177392164Y-100360000D02*
X177607836Y-100360000D01*
%TO.C,J4*%
X166120000Y-87270000D02*
X167500000Y-87270000D01*
X166120000Y-88650000D02*
X166120000Y-87270000D01*
X166120000Y-89920000D02*
X166120000Y-102730000D01*
X166120000Y-89920000D02*
X168880000Y-89920000D01*
X166120000Y-102730000D02*
X168880000Y-102730000D01*
X168880000Y-89920000D02*
X168880000Y-102730000D01*
%TO.C,D1*%
X139515000Y-99265000D02*
X139515000Y-100735000D01*
X139515000Y-100735000D02*
X141800000Y-100735000D01*
X141800000Y-99265000D02*
X139515000Y-99265000D01*
%TO.C,C10*%
X173140000Y-92892164D02*
X173140000Y-93107836D01*
X173860000Y-92892164D02*
X173860000Y-93107836D01*
%TO.C,D9*%
X181800000Y-90900000D02*
X183760000Y-90900000D01*
X181800000Y-92100000D02*
X183760000Y-92100000D01*
X183760000Y-92100000D02*
X183760000Y-90900000D01*
%TO.C,D15*%
X169740000Y-93400000D02*
X169740000Y-94600000D01*
X171700000Y-93400000D02*
X169740000Y-93400000D01*
X171700000Y-94600000D02*
X169740000Y-94600000D01*
%TO.C,C6*%
X175392164Y-99640000D02*
X175607836Y-99640000D01*
X175392164Y-100360000D02*
X175607836Y-100360000D01*
%TO.C,D7*%
X145800000Y-99900000D02*
X147760000Y-99900000D01*
X145800000Y-101100000D02*
X147760000Y-101100000D01*
X147760000Y-101100000D02*
X147760000Y-99900000D01*
%TO.C,D2*%
X139515000Y-89265000D02*
X139515000Y-90735000D01*
X139515000Y-90735000D02*
X141800000Y-90735000D01*
X141800000Y-89265000D02*
X139515000Y-89265000D01*
%TO.C,R5*%
X140346359Y-98420000D02*
X140653641Y-98420000D01*
X140346359Y-99180000D02*
X140653641Y-99180000D01*
%TO.C,C1*%
X137640000Y-99392164D02*
X137640000Y-99607836D01*
X138360000Y-99392164D02*
X138360000Y-99607836D01*
%TO.C,R6*%
X138653641Y-90120000D02*
X138346359Y-90120000D01*
X138653641Y-90880000D02*
X138346359Y-90880000D01*
%TO.C,D8*%
X181800000Y-88400000D02*
X183760000Y-88400000D01*
X181800000Y-89600000D02*
X183760000Y-89600000D01*
X183760000Y-89600000D02*
X183760000Y-88400000D01*
%TO.C,U5*%
X174765000Y-95000000D02*
X174765000Y-92800000D01*
X174765000Y-95000000D02*
X174765000Y-97200000D01*
X180235000Y-95000000D02*
X180235000Y-92800000D01*
X180235000Y-95000000D02*
X180235000Y-97200000D01*
X175465000Y-99190000D02*
X174985000Y-99190000D01*
X175225000Y-98860000D01*
X175465000Y-99190000D01*
G36*
X175465000Y-99190000D02*
G01*
X174985000Y-99190000D01*
X175225000Y-98860000D01*
X175465000Y-99190000D01*
G37*
%TO.C,D12*%
X181800000Y-100400000D02*
X183760000Y-100400000D01*
X181800000Y-101600000D02*
X183760000Y-101600000D01*
X183760000Y-101600000D02*
X183760000Y-100400000D01*
%TO.C,D16*%
X169740000Y-97900000D02*
X169740000Y-99100000D01*
X171700000Y-97900000D02*
X169740000Y-97900000D01*
X171700000Y-99100000D02*
X169740000Y-99100000D01*
%TO.C,D6*%
X145800000Y-97900000D02*
X147760000Y-97900000D01*
X145800000Y-99100000D02*
X147760000Y-99100000D01*
X147760000Y-99100000D02*
X147760000Y-97900000D01*
%TO.C,D11*%
X181800000Y-97900000D02*
X183760000Y-97900000D01*
X181800000Y-99100000D02*
X183760000Y-99100000D01*
X183760000Y-99100000D02*
X183760000Y-97900000D01*
%TO.C,D5*%
X145800000Y-93400000D02*
X147760000Y-93400000D01*
X145800000Y-94600000D02*
X147760000Y-94600000D01*
X147760000Y-94600000D02*
X147760000Y-93400000D01*
%TO.C,D10*%
X181800000Y-93400000D02*
X183760000Y-93400000D01*
X181800000Y-94600000D02*
X183760000Y-94600000D01*
X183760000Y-94600000D02*
X183760000Y-93400000D01*
%TO.C,J3*%
X184235000Y-87270000D02*
X185615000Y-87270000D01*
X184235000Y-88650000D02*
X184235000Y-87270000D01*
X184235000Y-89920000D02*
X184235000Y-102730000D01*
X184235000Y-89920000D02*
X186995000Y-89920000D01*
X184235000Y-102730000D02*
X186995000Y-102730000D01*
X186995000Y-89920000D02*
X186995000Y-102730000D01*
%TO.C,C8*%
X179392164Y-99640000D02*
X179607836Y-99640000D01*
X179392164Y-100360000D02*
X179607836Y-100360000D01*
%TO.C,C9*%
X173140000Y-94892164D02*
X173140000Y-95107836D01*
X173860000Y-94892164D02*
X173860000Y-95107836D01*
%TO.C,D13*%
X169740000Y-88400000D02*
X169740000Y-89600000D01*
X171700000Y-88400000D02*
X169740000Y-88400000D01*
X171700000Y-89600000D02*
X169740000Y-89600000D01*
%TO.C,C2*%
X138640000Y-99392164D02*
X138640000Y-99607836D01*
X139360000Y-99392164D02*
X139360000Y-99607836D01*
%TO.C,D3*%
X145800000Y-88900000D02*
X147760000Y-88900000D01*
X145800000Y-90100000D02*
X147760000Y-90100000D01*
X147760000Y-90100000D02*
X147760000Y-88900000D01*
%TO.C,D4*%
X145800000Y-90900000D02*
X147760000Y-90900000D01*
X145800000Y-92100000D02*
X147760000Y-92100000D01*
X147760000Y-92100000D02*
X147760000Y-90900000D01*
%TO.C,U2*%
X137890000Y-92890000D02*
X138615000Y-92890000D01*
X137890000Y-93615000D02*
X137890000Y-92890000D01*
X137890000Y-96385000D02*
X137890000Y-97110000D01*
X137890000Y-97110000D02*
X138615000Y-97110000D01*
X141385000Y-92890000D02*
X141870000Y-92890000D01*
X142110000Y-93615000D02*
X142110000Y-93190000D01*
X142110000Y-96385000D02*
X142110000Y-97110000D01*
X142110000Y-97110000D02*
X141385000Y-97110000D01*
X142440000Y-93130000D02*
X142110000Y-92890000D01*
X142440000Y-92650000D01*
X142440000Y-93130000D01*
G36*
X142440000Y-93130000D02*
G01*
X142110000Y-92890000D01*
X142440000Y-92650000D01*
X142440000Y-93130000D01*
G37*
%TO.C,D17*%
X169740000Y-100400000D02*
X169740000Y-101600000D01*
X171700000Y-100400000D02*
X169740000Y-100400000D01*
X171700000Y-101600000D02*
X169740000Y-101600000D01*
%TO.C,J2*%
X147355000Y-87380000D02*
X148625000Y-87380000D01*
X147355000Y-88650000D02*
X147355000Y-87380000D01*
X149702358Y-90760000D02*
X150015000Y-90760000D01*
X149702358Y-91620000D02*
X150015000Y-91620000D01*
X149702358Y-93300000D02*
X150015000Y-93300000D01*
X149702358Y-94160000D02*
X150015000Y-94160000D01*
X149702358Y-95840000D02*
X150015000Y-95840000D01*
X149702358Y-96700000D02*
X150015000Y-96700000D01*
X149702358Y-98380000D02*
X150015000Y-98380000D01*
X149702358Y-99240000D02*
X150015000Y-99240000D01*
X149702358Y-100920000D02*
X150015000Y-100920000D01*
X149702358Y-101780000D02*
X150015000Y-101780000D01*
X149785000Y-88220000D02*
X150015000Y-88220000D01*
X149785000Y-89080000D02*
X150015000Y-89080000D01*
X150015000Y-87270000D02*
X150015000Y-102730000D01*
X150015000Y-89920000D02*
X152775000Y-89920000D01*
X150015000Y-92460000D02*
X152775000Y-92460000D01*
X150015000Y-95000000D02*
X152775000Y-95000000D01*
X150015000Y-97540000D02*
X152775000Y-97540000D01*
X150015000Y-100080000D02*
X152775000Y-100080000D01*
X150015000Y-102730000D02*
X152775000Y-102730000D01*
X152775000Y-87270000D02*
X150015000Y-87270000D01*
X152775000Y-90760000D02*
X158775000Y-90760000D01*
X152775000Y-93300000D02*
X158775000Y-93300000D01*
X152775000Y-95840000D02*
X158775000Y-95840000D01*
X152775000Y-98380000D02*
X158775000Y-98380000D01*
X152775000Y-100920000D02*
X158775000Y-100920000D01*
X152775000Y-102730000D02*
X152775000Y-87270000D01*
X158775000Y-90760000D02*
X158775000Y-91620000D01*
X158775000Y-91620000D02*
X152775000Y-91620000D01*
X158775000Y-93300000D02*
X158775000Y-94160000D01*
X158775000Y-94160000D02*
X152775000Y-94160000D01*
X158775000Y-95840000D02*
X158775000Y-96700000D01*
X158775000Y-96700000D02*
X152775000Y-96700000D01*
X158775000Y-98380000D02*
X158775000Y-99240000D01*
X158775000Y-99240000D02*
X152775000Y-99240000D01*
X158775000Y-100920000D02*
X158775000Y-101780000D01*
X158775000Y-101780000D02*
X152775000Y-101780000D01*
X152775000Y-88220000D02*
X158775000Y-88220000D01*
X158775000Y-89080000D01*
X152775000Y-89080000D01*
X152775000Y-88220000D01*
G36*
X152775000Y-88220000D02*
G01*
X158775000Y-88220000D01*
X158775000Y-89080000D01*
X152775000Y-89080000D01*
X152775000Y-88220000D01*
G37*
%TO.C,D14*%
X169740000Y-90900000D02*
X169740000Y-92100000D01*
X171700000Y-90900000D02*
X169740000Y-90900000D01*
X171700000Y-92100000D02*
X169740000Y-92100000D01*
%TD*%
M02*
